<svg id="Apple_logo" data-name="Apple logo" xmlns="http://www.w3.org/2000/svg" width="24" height="24" viewBox="0 0 24 24">
  <rect id="Rectangle_709" data-name="Rectangle 709" width="24" height="24" fill="none"/>
  <g id="apple" transform="translate(-44.022)">
    <path id="Path_195" data-name="Path 195" d="M52.391,135.983c-3.486-.02-6.369-7.136-6.369-10.759,0-5.919,4.441-7.215,6.152-7.215a7.079,7.079,0,0,1,2.321.571,5.188,5.188,0,0,0,1.325.38,4.125,4.125,0,0,0,.951-.308,7.621,7.621,0,0,1,2.866-.693h.007a5.874,5.874,0,0,1,4.916,2.483l.358.539-.516.389a4.342,4.342,0,0,0-2.082,3.58,4.041,4.041,0,0,0,2.255,3.736c.323.194.657.395.657.833,0,.286-2.284,6.43-5.6,6.43a4.5,4.5,0,0,1-1.891-.459,3.835,3.835,0,0,0-1.683-.405,4.329,4.329,0,0,0-1.333.361,6.529,6.529,0,0,1-2.312.539Z" transform="translate(0 -112.562)" fill="#fff"/>
    <path id="Path_196" data-name="Path 196" d="M259.554,0c.086,3.114-2.141,5.274-4.365,5.139C254.823,2.654,257.413,0,259.554,0Z" transform="translate(-199.566)" fill="#fff"/>
  </g>
</svg>
