<svg id="air_canada_logo" xmlns="http://www.w3.org/2000/svg" width="40.001" height="39.3" viewBox="0 0 40.001 39.3">
  <path id="Path_20770" data-name="Path 20770" d="M20.7,27.9c0-1.3.7-1.5,1.9-.8,2.2,1.2,4.6,2.5,4.6,2.5.1-.7.7-1.3,2-1,1.2.3,2.6.6,2.6.6s-.7-1.7-1.1-2.4c-.6-1.4,0-2,.6-2.2,0,0-.8-.6-1.4-1-1.2-.8-.9-1.7.2-2.2,1.6-.7,3.6-1.6,3.6-1.6a1.724,1.724,0,0,1-.5-2.6c.8-1.2,2-2.8,2-2.8H31.6A1.605,1.605,0,0,1,30,12.6s-2.1,1.5-3.6,2.5c-1.3.9-2.4,0-2.2-1.5.3-2.3.6-4.9.6-4.9a1.81,1.81,0,0,1-2.7-.8c-1-1.7-2.1-4-2.1-4S19,6.1,18.1,8a1.824,1.824,0,0,1-2.7.8s.3,2.6.6,4.9c.2,1.5-1,2.3-2.2,1.5-1.5-1-3.6-2.5-3.6-2.5a1.6,1.6,0,0,1-1.6,1.8H5s1.2,1.7,2,2.8a1.8,1.8,0,0,1-.5,2.6s2,.9,3.6,1.6c1.2.5,1.5,1.3.2,2.2-.6.4-1.4,1-1.4,1,.6.2,1.2.8.6,2.2-.3.7-1.1,2.4-1.1,2.4s1.4-.3,2.6-.6c1.3-.3,2,.3,2,1,0,0,2.3-1.3,4.5-2.5,1.2-.7,1.9-.4,1.9.8v3a9.516,9.516,0,0,1-1,4.8C9.8,34.9,2.7,28.1,2.7,19.1A17.16,17.16,0,0,1,20,2.2,17.013,17.013,0,0,1,37.3,19,16.913,16.913,0,0,1,21.9,35.7V38C32.1,37.1,40,28.9,40,19,40.1,8.5,31.1,0,20,0,9,0,0,8.5,0,19.1c0,9.3,6.9,17,16.2,18.7,1.6.3,2.5.5,3.4,1.5,1-1.8,1.2-5.6,1.2-7.8V27.9Z" fill="#8e969f"/>
</svg>
