<svg xmlns="http://www.w3.org/2000/svg" xmlns:xlink="http://www.w3.org/1999/xlink" width="28.129" height="41.508" viewBox="0 0 28.129 41.508">
  <defs>
    <linearGradient id="linear-gradient" x1="0.509" y1="1.233" x2="0.497" y2="0.294" gradientUnits="objectBoundingBox">
      <stop offset="0" stop-color="#99a0a8"/>
      <stop offset="1" stop-color="#99a0a8" stop-opacity="0.502"/>
    </linearGradient>
    <linearGradient id="linear-gradient-2" x1="0.736" y1="2.025" x2="0.459" y2="0.068" xlink:href="#linear-gradient"/>
  </defs>
  <g id="Group_14236" data-name="Group 14236" transform="translate(-4879.387 -202.573)">
    <path id="Path_20701" data-name="Path 20701" d="M4885.436,232.09a2.269,2.269,0,1,0,.665-1.6A2.269,2.269,0,0,0,4885.436,232.09Zm19.736-9.981h-23.441a2.344,2.344,0,0,0-2.344,2.344v22.684a2.344,2.344,0,0,0,2.344,2.344h23.441a2.344,2.344,0,0,0,2.344-2.344V224.453A2.344,2.344,0,0,0,4905.172,222.109Zm-1.21,24.953h-21.021a1.134,1.134,0,0,1-1.134-1.134V225.663a1.135,1.135,0,0,1,1.134-1.134h21.021a1.134,1.134,0,0,1,1.134,1.134v20.265A1.134,1.134,0,0,1,4903.961,247.062Zm-7.032-14.971a2.269,2.269,0,1,0,.665-1.6A2.269,2.269,0,0,0,4896.929,232.09Zm9.46,21.021h-25.875a1.169,1.169,0,0,0-1.127,1.21v1.361a.292.292,0,0,0,.28.3h27.566a.292.292,0,0,0,.279-.3v-1.361a1.163,1.163,0,0,0-1.123-1.21Zm-8.325-14.215h-9.225a1.441,1.441,0,0,0-1.437,1.437h0a1.441,1.441,0,0,0,1.437,1.437h9.225a1.441,1.441,0,0,0,1.437-1.437h0A1.441,1.441,0,0,0,4898.064,238.9Z" transform="translate(0 -11.904)" fill="url(#linear-gradient)"/>
    <path id="Path_20702" data-name="Path 20702" d="M4913.246,205.309a2.723,2.723,0,0,1-1.358,2.367v2.533l-2.755-.005v-2.528a2.737,2.737,0,1,1,4.113-2.367Z" transform="translate(-17.297)" fill="url(#linear-gradient-2)"/>
  </g>
</svg>
