<svg xmlns="http://www.w3.org/2000/svg" xmlns:xlink="http://www.w3.org/1999/xlink" width="141.721" height="35.445" viewBox="0 0 141.721 35.445">
  <defs>
    <clipPath id="clip-path">
      <path id="Path_20791" data-name="Path 20791" d="M337.586,13.142c-3.99,3.984-12.668,7.394-16.934,8.991-5.824,2.187-8.408,2.962-11.676,4.024-3.68,1.2-11.072,3.431-11.072,3.431a181.8,181.8,0,0,0,26.072,5.944,82.165,82.165,0,0,0,12.973-5.8c4.311-2.191,6.426-3.667,7.947-5.079a7.708,7.708,0,0,0,2.363-3.928,5.035,5.035,0,0,0,.09-.875s-.006-.251-.02-.47a2.853,2.853,0,0,0-.055-.424,4.784,4.784,0,0,0-.2-.784,5.233,5.233,0,0,0-1.406-1.945,12,12,0,0,0-4.781-2.678,28.742,28.742,0,0,0-2.979-.771l-.319.365Z" fill="#8e969f"/>
    </clipPath>
    <clipPath id="clip-path-2">
      <path id="Path_20792" data-name="Path 20792" d="M347.348,19.749a4.051,4.051,0,0,0-.119-.786,3.316,3.316,0,0,0-.445-.955,7.659,7.659,0,0,0-1.131-1.327,10,10,0,0,0-1.338-1.047,17.719,17.719,0,0,0-7.174-2.457,66.555,66.555,0,0,0-8.326-.42c-1.354-.024-10.164.046-12.428.093-10.045.2-22.35.229-25.574.228-33.266.155-47.744-.56-63.865-3.8a186.957,186.957,0,0,1-21.32-5.3C217.726,3.55,288.29.63,301.171.28c8.42-.232,14.4-.281,19.2,0a66.353,66.353,0,0,1,7.6.831A36.821,36.821,0,0,1,334.247,2.8a14.944,14.944,0,0,1,6.469,4.176,9.764,9.764,0,0,1,.828,1c.545.742,1.16,1.662,1.381,2a47.159,47.159,0,0,1,2.857,4.889c.311.607.586,1.234.855,1.861a9.654,9.654,0,0,1,.447,1.236,7.1,7.1,0,0,1,.246,1.378l.018.406Z" fill="#8e969f"/>
    </clipPath>
  </defs>
  <g id="british-airways-logo2" transform="translate(-205.628 -0.087)">
    <g id="Group_14381" data-name="Group 14381" clip-path="url(#clip-path)">
      <rect id="Rectangle_3571" data-name="Rectangle 3571" width="49.455" height="22.761" transform="translate(297.904 12.771)" fill="#8e969f"/>
    </g>
    <g id="Group_14382" data-name="Group 14382" clip-path="url(#clip-path-2)">
      <rect id="Rectangle_3572" data-name="Rectangle 3572" width="141.719" height="19.754" transform="translate(205.627 -0.005)" fill="#8e969f"/>
    </g>
  </g>
</svg>
