<svg xmlns="http://www.w3.org/2000/svg" width="16.676" height="20.309" viewBox="0 0 16.676 20.309">
  <g id="cathaypacific" transform="translate(838 213)">
    <g id="cathaypacific-en">
      <path id="Brush-wing" d="M6.142,9.763c-.066.009-.139-.087-.171-.132-.009-.014-.046-.09-.036-.1s.088.014.109.031a.323.323,0,0,1,.112.187.014.014,0,0,1-.013.016M4.554,8.876c-.045.017-.155-.109-.186-.155-.057-.086-.113-.181-.173-.264A.468.468,0,0,1,4.064,8.2c0-.015-.011-.054,0-.054.061,0,.119.112.149.154s.047.06.067.091.042.1.073.144.084.1.125.154a.343.343,0,0,1,.064.091c.006.02.025.093.012.1M4.1,8.858c-.034,0-.048-.024-.069-.04a.252.252,0,0,1-.1-.2c0-.01,0-.013.009-.013.066,0,.135.1.16.151a.189.189,0,0,1,.022.081c0,.018-.008.026-.018.027m-1.512.308a.022.022,0,0,1-.019.017c-.072,0-.093-.111-.125-.16a1.216,1.216,0,0,0-.08-.124.815.815,0,0,1-.059-.092.893.893,0,0,0-.052-.124c-.013-.02-.033-.037-.047-.055a.731.731,0,0,1-.1-.177c-.01-.027-.01-.052-.018-.074-.015-.041-.033-.084-.047-.127a.22.22,0,0,1-.007-.081c0-.007.005-.011.01-.01.055.009.108.144.136.193s.076.1.1.15.03.112.057.16a.977.977,0,0,0,.078.1A1.247,1.247,0,0,1,2.5,8.92c.026.057.063.1.086.157a.167.167,0,0,1,.007.09M2.307,7.089a.672.672,0,0,1-.039-.082c-.011-.031-.013-.059-.026-.088-.042-.1-.09-.2-.133-.294a.256.256,0,0,1-.025-.163c0-.007.017,0,.023,0a.344.344,0,0,1,.037.035c.009.014.012.028.021.042a.832.832,0,0,1,.064.1c.035.077.044.163.079.238.023.05.061.093.086.144a.579.579,0,0,1,.028.085.369.369,0,0,1,.006.068c0,.025,0,.042-.012.042-.066,0-.086-.086-.111-.134M16.674,13.5c-.084-.31-.986-.177-1.728-.245a10.468,10.468,0,0,1-2.582-.549,18.71,18.71,0,0,1-2.738-1.178s-.333-.176-.368-.2c-.068-.042-.122-.072-.189-.114a1.474,1.474,0,0,0-.147-.081.988.988,0,0,1-.146-.086c-.051-.031-.12-.065-.171-.1-.076-.047-.123-.084-.194-.136a1.45,1.45,0,0,0-.126-.078c-.035-.021-.1-.057-.131-.078-.066-.044-.108-.081-.174-.127-.041-.028-.07-.046-.119-.076a1.459,1.459,0,0,1-.134-.1.734.734,0,0,1-.079-.059c-.048-.047-.1-.089-.146-.131a1.676,1.676,0,0,0-.136-.112c-.029-.021-.078-.064-.107-.085-.074-.054-.121-.094-.2-.149-.048-.035-.088-.082-.135-.118s-.1-.086-.157-.125a.8.8,0,0,1-.1-.085c-.036-.042-.07-.071-.106-.114s-.08-.063-.11-.1a.985.985,0,0,0-.171-.167.462.462,0,0,1-.06-.067A.511.511,0,0,0,6.168,9l-.052-.051-.068-.066a.749.749,0,0,1-.055-.071c-.019-.026-.036-.05-.048-.063l-.086-.092L5.8,8.587a.4.4,0,0,1-.038-.051.392.392,0,0,0-.036-.049c-.022-.024-.038-.016-.042-.013a.062.062,0,0,0,0,.065.927.927,0,0,0,.063.1l.009.013.02.034a.527.527,0,0,0,.032.052.971.971,0,0,0,.086.1l.028.03a.5.5,0,0,1,.05.066A.585.585,0,0,0,6.022,9a.243.243,0,0,1,.026.033.3.3,0,0,0,.03.037l.05.05a1.132,1.132,0,0,0,.082.08c.021.018.042.04.064.062.056.066.115.132.165.2a.575.575,0,0,0,.112.088.584.584,0,0,1,.091.109c.021.025.068.068.091.095a.751.751,0,0,0,.165.164.542.542,0,0,1,.112.106c.02.026.083.088.106.116a.3.3,0,0,1,.079.15c-.041.011-.141-.078-.2-.116a.87.87,0,0,1-.1-.08A.9.9,0,0,1,6.786,10a1.333,1.333,0,0,1-.091-.1,1.609,1.609,0,0,0-.207-.2c-.069-.068-.155-.129-.223-.19L6.2,9.445c-.023-.022-.051-.043-.07-.065a.97.97,0,0,0-.112-.147c-.04-.03-.069-.058-.109-.088-.014-.01-.027-.028-.041-.04a.309.309,0,0,1-.057-.049l-.138-.18c-.022-.028-.052-.052-.074-.082-.046-.063-.083-.129-.129-.19-.064-.084-.156-.144-.218-.229s-.1-.189-.161-.281A.906.906,0,0,0,5,7.994a.309.309,0,0,1-.041-.072c-.032-.049-.069-.1-.1-.144-.042-.062-.071-.131-.113-.2A.609.609,0,0,0,4.7,7.487a1.345,1.345,0,0,1-.077-.116c-.029-.046-.044-.077-.064-.109S4.524,7.2,4.51,7.177s-.044-.064-.055-.081c-.039-.06-.049-.088-.09-.144-.025-.034-.051-.062-.073-.054s-.012.033-.008.048a.338.338,0,0,0,.037.076c.032.059.043.087.078.141.016.026.044.085.066.117s.044.071.06.1a1.151,1.151,0,0,0,.065.135.8.8,0,0,1,.058.1,1.669,1.669,0,0,0,.11.172l.069.13c.046.069.1.135.146.206l.083.15c.027.041.064.076.091.118s.051.1.083.153.059.075.084.114c.044.066.083.13.129.193.025.034.059.064.084.1s.063.1.1.144a.9.9,0,0,1,.089.1c.051.061.176.24.155.241-.074.01-.215-.152-.275-.211a1.384,1.384,0,0,1-.13-.123c-.047-.065-.082-.136-.129-.2-.017-.023-.043-.041-.06-.062a1.13,1.13,0,0,0-.1-.124c-.016-.015-.032-.029-.047-.046-.058-.075-.106-.155-.163-.232-.023-.032-.054-.06-.077-.092a.875.875,0,0,1-.047-.074c-.017-.028-.052-.07-.075-.1a.843.843,0,0,1-.045-.078c-.03-.047-.071-.087-.1-.134s-.031-.089-.056-.127c-.063-.1-.132-.2-.194-.294-.016-.025-.022-.053-.038-.078-.05-.079-.1-.166-.147-.245-.019-.029-.026-.062-.045-.091s-.058-.063-.081-.1a.694.694,0,0,1-.038-.088c-.019-.041-.044-.082-.065-.121s-.02-.049-.035-.072a2.641,2.641,0,0,1-.159-.3c-.026-.054-.064-.106-.089-.16S3.62,6.161,3.592,6.1l-.043-.12c-.03-.064-.074-.117-.1-.183-.02-.044-.03-.086-.048-.123s-.033-.042-.049-.031-.018.03-.008.065a1.5,1.5,0,0,0,.073.181c.034.076.051.154.086.231.019.042.046.083.065.124.034.072.065.146.1.215.019.041.034.079.056.117a.748.748,0,0,1,.038.065c.021.049.028.1.05.147s.06.089.082.137a6.115,6.115,0,0,0,.369.7c.039.061.058.135.1.2s.1.111.135.173.041.121.071.176a2.339,2.339,0,0,0,.153.229c.013.021.017.046.031.068s.042.059.061.088.038.087.066.124.071.074.1.115.061.109.1.16c.026.035.067.06.093.1.043.056.188.249.23.3a2.083,2.083,0,0,1,.233.313c.016.034.074.113.062.129-.031.021-.175-.138-.2-.162a2,2,0,0,1-.165-.2c-.012-.015-.151-.152-.163-.167s-.028-.037-.04-.055c-.038-.058-.062-.128-.1-.183a.5.5,0,0,1-.073-.069c-.032-.042-.054-.091-.085-.134-.05-.068-.113-.128-.162-.2s-.092-.161-.146-.235c-.027-.036-.062-.069-.088-.108-.011-.018-.016-.035-.027-.052a.847.847,0,0,1-.062-.1.785.785,0,0,0-.042-.088c-.057-.09-.114-.185-.171-.274-.026-.04-.04-.084-.066-.124-.042-.066-.1-.126-.139-.193s-.078-.175-.128-.254c-.033-.052-.072-.1-.1-.154s-.055-.123-.087-.182-.068-.1-.092-.154-.046-.114-.074-.173c-.015-.031-.038-.062-.052-.095s-.022-.081-.04-.12c-.05-.11-.124-.214-.175-.323-.037-.078-.069-.159-.1-.241a1.322,1.322,0,0,0-.044-.13c-.045-.1-.1-.206-.146-.306l-.057-.16a.4.4,0,0,0-.011-.046c-.021-.047-.048-.093-.066-.14l-.051-.163c-.07-.177-.133-.376-.2-.56-.009-.034-.011-.075-.023-.111l-.1-.283c-.019-.048-.065-.031-.054.017.014.066.023.081.033.132.005.026.01.052.016.078s.023.065.032.095c.018.056.019.112.038.166.027.076.054.15.079.228.007.039.016.078.023.117a.563.563,0,0,0,.039.107c.039.1.076.189.11.284l.041.163c.014.03.035.062.048.091s.014.051.026.078c.024.061.047.124.074.185s.05.1.07.157c.009.026.009.049.018.075.059.162.122.331.191.483.017.038.022.078.039.117s.034.067.049.1l.021.062c.021.045.058.083.079.127a2.49,2.49,0,0,0,.186.352,2.126,2.126,0,0,1,.151.349,1.137,1.137,0,0,0,.089.153.765.765,0,0,1,.038.082,1.4,1.4,0,0,0,.092.17A.465.465,0,0,1,4,7.941a.735.735,0,0,1,.032.136c-.011.007-.068-.028-.088-.05a.471.471,0,0,1-.1-.133c-.014-.032-.043-.087-.058-.118a1.94,1.94,0,0,0-.143-.215,1.232,1.232,0,0,1-.063-.134c-.038-.082-.082-.166-.121-.251a1.061,1.061,0,0,0-.061-.1c-.021-.033-.031-.068-.052-.1a2.179,2.179,0,0,1-.133-.232c-.027-.058-.041-.116-.068-.173a.427.427,0,0,0-.034-.052.893.893,0,0,1-.042-.095C3.048,6.38,3.018,6.339,3,6.293c-.04-.089-.064-.182-.106-.27-.019-.041-.052-.076-.072-.118-.03-.063-.032-.142-.062-.208-.077-.174-.165-.355-.231-.538-.01-.03-.013-.065-.023-.1-.028-.079-.067-.153-.1-.232-.013-.036-.016-.068-.029-.1-.019-.053-.044-.109-.064-.163A.473.473,0,0,0,2.3,4.509c-.023-.05-.037-.11-.061-.163-.012-.027-.031-.055-.042-.085-.019-.052-.013-.119-.032-.169-.026-.075-.058-.154-.085-.228-.016-.042-.018-.084-.033-.127S2.02,3.63,2,3.581s-.018-.105-.035-.16-.029-.083-.043-.12c-.026-.072-.035-.148-.062-.215l-.013-.037c-.007-.018-.019-.036-.038-.031s-.02.033-.019.05a.545.545,0,0,0,.038.144c.016.045.025.093.037.137.007.027.006.058.013.088s.025.082.037.124,0,.081.013.114c.027.09.056.191.087.277.013.044.015.095.027.133l.05.137c.014.038.018.075.033.111a1.237,1.237,0,0,1,.049.121c.017.056.016.11.035.162.031.085.069.166.1.248.009.029.012.061.023.091.025.071.043.147.068.218.037.1.084.2.12.3s.04.217.082.31c.021.046.065.073.085.117A.732.732,0,0,1,2.706,6c.012.038.03.075.043.11s.017.063.026.095a1.205,1.205,0,0,0,.055.111,1.327,1.327,0,0,0,.074.173,1.069,1.069,0,0,1,.078.121c.023.049.031.1.054.153.033.075.073.147.1.225a1.6,1.6,0,0,0,.069.209c.033.062.075.117.109.179l.063.137c.018.037.051.07.071.108s.051.1.072.143a.749.749,0,0,0,.043.1c.031.048.053.087.084.136a.88.88,0,0,1,.077.149.534.534,0,0,0,.052.111,1.218,1.218,0,0,1,.075.1.375.375,0,0,1,.036.157c-.025.009-.1-.059-.114-.083-.056-.068-.083-.159-.134-.232a1.246,1.246,0,0,1-.13-.211,2.062,2.062,0,0,0-.1-.191,1.086,1.086,0,0,1-.088-.131c-.017-.04-.026-.088-.043-.127-.027-.058-.081-.095-.108-.154s-.045-.134-.078-.2c-.016-.03-.038-.064-.051-.094S3.018,7.014,3,6.974c-.037-.08-.094-.149-.13-.228s-.06-.171-.1-.254c-.021-.044-.057-.082-.078-.127s-.043-.122-.071-.182c-.017-.037-.042-.072-.059-.108-.024-.052-.033-.109-.057-.163L2.34,5.54c-.02-.047-.026-.1-.047-.143l-.062-.124c-.048-.108-.064-.233-.112-.342-.024-.055-.055-.107-.077-.166-.034-.093-.047-.188-.081-.283-.051-.145-.093-.3-.145-.44C1.8,4,1.8,3.955,1.785,3.91l-.047-.127c-.011-.034-.017-.083-.027-.127-.038-.122-.077-.244-.116-.368-.008-.029-.01-.082-.02-.12-.006-.021-.018-.046-.025-.065s-.01-.052-.019-.081c-.028-.09-.053-.194-.081-.283-.008-.029-.011-.069-.02-.1-.04-.128-.059-.284-.11-.4-.009-.023-.024-.047-.046-.042s-.018.032-.015.053a1.578,1.578,0,0,0,.038.157.36.36,0,0,0,.006.078.446.446,0,0,0,.012.072c.023.076.051.165.073.241.007.036,0,.092.011.133a3.577,3.577,0,0,0,.1.375,2.87,2.87,0,0,1,.076.325c.009.046.012.093.018.14a.568.568,0,0,0,.046.115c.01.028.009.052.019.081.024.077.041.154.069.231.019.053.048.1.067.157.008.024,0,.045.012.072.013.053.022.107.038.159.037.106.074.221.111.326.021.059.028.116.048.173.083.228.167.455.249.681l.041.15a1.4,1.4,0,0,0,.069.14c.021.045.035.12.058.182s.06.129.088.2c.013.036.026.076.042.111s.035.052.048.078c.021.045.026.1.046.147A1.483,1.483,0,0,0,2.73,6.9a1.184,1.184,0,0,1,.046.134c.031.069.071.132.1.2.012.031.018.058.032.088s.041.066.056.1h0a.09.09,0,0,1,.005.018.145.145,0,0,0,.013.045.394.394,0,0,0,.038.068l.034.041a.137.137,0,0,1,.017.021,1.49,1.49,0,0,1,.057.166c.024.051.067.091.092.144s.03.139.005.143c-.1,0-.109-.144-.143-.219-.027-.058-.069-.107-.1-.163a.3.3,0,0,1-.023-.057A.536.536,0,0,0,2.94,7.58c-.013-.028-.013-.023-.022-.043s-.038-.056-.047-.073h0c-.039-.063-.065-.153-.093-.2-.016-.024-.036-.048-.051-.072a1.108,1.108,0,0,1-.059-.134c-.019-.041-.05-.081-.069-.124s-.024-.114-.048-.166c-.012-.028-.035-.056-.048-.082-.029-.059-.045-.122-.074-.179-.013-.027-.038-.054-.051-.082-.023-.049-.035-.1-.06-.147-.054-.1-.111-.2-.156-.307-.026-.06-.035-.121-.06-.179s-.054-.1-.076-.15c-.015-.033-.019-.065-.032-.1-.021-.057-.047-.116-.068-.173-.012-.039-.022-.125-.034-.16s-.038-.089-.056-.131c-.028-.063-.037-.129-.065-.192s-.045-.1-.063-.15-.019-.081-.037-.121-.03-.064-.042-.095-.023-.1-.034-.146-.041-.106-.057-.16-.011-.132-.021-.156c-.056-.166-.108-.342-.16-.508-.024-.077-.035-.153-.056-.228-.007-.03-.008-.068-.016-.1-.015-.048-.035-.1-.05-.146s-.013-.067-.02-.1a.935.935,0,0,0-.039-.1c-.032-.1-.049-.206-.078-.3-.01-.04-.01-.093-.02-.13-.038-.12-.047-.261-.082-.387C.986,2.018.98,1.981.972,1.948c-.062-.236-.089-.5-.157-.729a1.383,1.383,0,0,1-.008-.146A1.065,1.065,0,0,0,.763.926C.757.9.756.883.751.861.739.822.722.792.7.8S.682.827.683.86A.665.665,0,0,0,.7,1a.8.8,0,0,0,.013.1,2.447,2.447,0,0,1,.041.244.515.515,0,0,0,.007.1c.007.035.032.078.039.114s.007.113.015.166a.9.9,0,0,0,.034.13c.012.042,0,.071.013.1A.834.834,0,0,1,.9,2.061c.006.042,0,.1.008.14.053.208.069.455.129.654.008.028.009.059.016.088.05.175.089.361.141.534.006.027,0,.055.012.085.017.061.032.127.045.189.006.027.006.054.013.081.018.064.041.126.061.189.008.031.011.061.016.091a.506.506,0,0,0,.025.075.909.909,0,0,0,.019.1.656.656,0,0,1,.028.062c.008.037.013.074.023.111a1.341,1.341,0,0,0,.056.13c.018.043.013.073.026.107.025.061.051.134.074.2s.022.108.041.163c.013.036.03.073.043.107s.012.056.022.085a.9.9,0,0,0,.055.1c.015.038.008.089.02.13s.035.076.05.114a.942.942,0,0,1,.023.12.4.4,0,0,0,.045.088l.036.1c.009.022.028.044.038.065.018.039.033.081.049.12a1.867,1.867,0,0,1,.042.192c0,.018,0,.063-.007.068s-.055-.037-.073-.062a.809.809,0,0,1-.082-.144c-.007-.02-.012-.039-.019-.059-.017-.043-.03-.092-.05-.137a.793.793,0,0,1-.038-.077c-.013-.03-.007-.091-.024-.127s-.038-.054-.052-.085S1.7,5.6,1.685,5.574a.95.95,0,0,0-.053-.095.807.807,0,0,1-.023-.1.806.806,0,0,0-.043-.124c-.018-.039-.041-.08-.058-.121-.008-.023-.012-.046-.019-.068S1.462,5,1.45,4.974a.625.625,0,0,0-.022-.068c-.015-.034-.032-.071-.046-.108s-.012-.062-.022-.091c-.018-.052-.036-.111-.054-.163a1.149,1.149,0,0,1-.027-.121c-.011-.041-.036-.093-.053-.14S1.211,4.2,1.2,4.166s-.043-.1-.06-.15a.824.824,0,0,1-.021-.124c-.029-.1-.06-.206-.091-.306S.99,3.348.958,3.235C.935,3.154.907,3.076.882,3c-.009-.041-.01-.08-.021-.12-.021-.093-.054-.21-.083-.3-.015-.049-.011-.1-.025-.153S.738,2.308.721,2.251a.777.777,0,0,1-.032-.1C.68,2.1.681,2.05.674,2.017S.611,1.786.6,1.75s0-.1-.007-.127S.561,1.522.557,1.5a.46.46,0,0,0-.013-.091C.531,1.366.51,1.267.506,1.239A.742.742,0,0,0,.5,1.125C.486,1.1.471,1.032.458.985S.455.869.44.816A1.02,1.02,0,0,0,.4.7.843.843,0,0,1,.378.6.7.7,0,0,0,.372.485.98.98,0,0,1,.355.357.977.977,0,0,0,.328.188C.322.165.324.137.319.116.3.053.288,0,.257,0S.226.022.236.064.252.15.264.2A.8.8,0,0,1,.272.31.7.7,0,0,0,.28.382.59.59,0,0,0,.291.44.323.323,0,0,1,.3.51C.3.532.3.556.3.587a.187.187,0,0,0,.007.05A.363.363,0,0,1,.32.693c0,.019,0,.038,0,.056A.22.22,0,0,0,.33.812.33.33,0,0,1,.358.971a.419.419,0,0,0,.022.182c.007.036,0,.076.007.11s.025.1.038.15,0,.078.013.117c.015.055.052.129.057.153a1.307,1.307,0,0,0,.011.133.868.868,0,0,1,.02.117.384.384,0,0,1,0,.059c0,.02.03.115.034.14a.282.282,0,0,0,.009.063A.889.889,0,0,1,.6,2.358a.271.271,0,0,0,.009.085c.01.051.03.094.041.143s0,.058.009.088c.01.046.026.087.034.13s.007.067.014.1c.015.074.026.148.046.221.012.043.038.083.05.124s.013.08.023.117.033.063.042.1,0,.061.009.091.023.069.03.1,0,.053.009.081.025.058.032.088.007.076.016.114.029.086.043.127.006.079.017.12c.024.089.054.187.083.27.013.045.011.091.027.14a.864.864,0,0,0,.038.081c.011.029,0,.061.01.094.014.054.023.126.042.179s.055.109.077.166.022.122.042.185.047.1.067.153.011.1.027.147.054.089.073.14.036.117.054.176c.006.025.011.05.016.075.021.076.062.139.088.212.01.034.013.063.023.094.019.052.039.106.063.157s.049.088.069.134.022.084.04.127.037.087.053.13c.009.027.011.05.022.075.051.116.114.233.167.346.028.062.042.129.071.193s.051.1.073.15c.014.034.018.066.032.1.029.062.069.125.1.186A.224.224,0,0,1,2.4,8a.014.014,0,0,1-.006.01c-.019.005-.058-.028-.079-.049-.073-.072-.085-.209-.136-.3-.015-.027-.032-.056-.045-.085a.617.617,0,0,0-.021-.059c-.032-.061-.071-.116-.1-.179-.02-.047-.023-.1-.044-.144-.083-.181-.18-.356-.26-.538-.037-.083-.045-.177-.077-.267-.019-.053-.051-.1-.073-.147s-.022-.081-.04-.12-.056-.1-.077-.157c-.012-.036-.017-.074-.031-.11s-.043-.073-.06-.112a1.336,1.336,0,0,1-.052-.18c-.01-.035-.025-.072-.036-.1s-.013-.062-.023-.091c-.025-.068-.066-.129-.091-.2a1.542,1.542,0,0,0-.034-.153c-.021-.046-.047-.068-.062-.108s0-.091-.014-.14S1.012,4.682,1,4.639a.667.667,0,0,1-.022-.082l-.061-.17c-.01-.029-.01-.055-.022-.081a1.033,1.033,0,0,1-.052-.1C.829,4.15.824,4.093.811,4.039c-.022-.072-.048-.13-.069-.2,0-.021,0-.039-.01-.067C.715,3.711.706,3.641.689,3.58c-.006-.03,0-.055-.012-.08C.66,3.437.64,3.378.622,3.323.613,3.287.611,3.25.6,3.215c-.028-.091-.054-.2-.081-.286a.52.52,0,0,0-.01-.078C.488,2.782.459,2.7.444,2.626c-.008-.041-.008-.081-.017-.12S.4,2.411.389,2.362V2.3c0-.018-.009-.063-.014-.094C.344,2.084.295,1.929.267,1.8.259,1.757.258,1.711.253,1.666a.929.929,0,0,0-.016-.1.748.748,0,0,1-.03-.1C.2,1.409.2,1.357.192,1.3a.087.087,0,0,0,0-.012C.178,1.228.146,1.1.139,1.044S.123.918.115.856A.944.944,0,0,0,.1.731C.093.666.077.609.07.542.065.5.068.457.062.419S.058.354.028.354,0,.388,0,.416a1.2,1.2,0,0,0,.014.2c.009.078,0,.153.011.232a1.1,1.1,0,0,0,.024.13c.01.074.018.15.027.221h0a.9.9,0,0,0,.012.1v.019h0q0,.022.01.043c.008.029,0,.052.012.081.023.086.018.18.042.263.034.125.052.263.087.388.01.036,0,.072.01.111l.03.117c.01.039,0,.1.015.143s.024.089.037.131.014.1.028.159A1.716,1.716,0,0,1,.4,2.927c.011.064.018.138.03.2s.041.124.055.185a.26.26,0,0,0,0,.062c.008.044.021.088.03.13a.133.133,0,0,0,.009.058c.021.081.046.183.071.263.006.023.009.046.014.069.016.057.034.1.04.131s.009.059.016.088S.7,4.2.712,4.24s.011.057.019.087a.858.858,0,0,0,.039.1c.024.073.027.15.053.221.015.042.035.083.049.128s.014.091.027.136c.023.07.05.15.076.221s.048.175.076.254c.011.032.009.063.02.1l.076.248c.014.043.014.083.03.124.027.067.066.123.091.192s.026.118.048.172c.029.074.063.148.091.225.019.053.025.106.047.156s.044.087.063.13a1.191,1.191,0,0,1,.039.114,1.314,1.314,0,0,0,.062.117c.023.052.028.109.048.166.031.086.072.174.109.254.014.031.017.061.029.095.021.058.058.1.082.153s.029.1.051.153A.407.407,0,0,1,1.994,8a.019.019,0,0,1-.013.02c-.019.008-.04-.025-.053-.036a.5.5,0,0,1-.1-.18c-.052-.113-.119-.219-.17-.329-.027-.058-.038-.12-.064-.179-.016-.036-.039-.072-.055-.108-.024-.052-.037-.105-.063-.153a1.882,1.882,0,0,1-.1-.225c-.012-.029-.013-.057-.026-.084s-.035-.057-.048-.085c-.019-.047-.032-.1-.051-.153C1.21,6.4,1.163,6.3,1.128,6.2s-.048-.173-.08-.264C1.035,5.9,1.018,5.863,1,5.826s0-.061-.016-.092c-.029-.081-.068-.167-.1-.245a1.067,1.067,0,0,1-.038-.117c-.015-.041-.039-.1-.057-.153S.769,5.079.745,5.01c-.052-.146-.12-.3-.164-.453C.573,4.522.575,4.486.564,4.45.54,4.373.515,4.288.491,4.206S.468,4.018.44,3.929C.4,3.814.364,3.694.328,3.58.317,3.546.322,3.51.311,3.473.287,3.385.257,3.281.228,3.2.213,3.159.213,3.114.2,3.076S.133,3.046.137,3.1a1.042,1.042,0,0,0,.024.133c0,.033,0,.066.013.1.014.062.034.113.051.169s.018.113.035.173c.009.03.02.063.029.091.019.06.019.124.038.179s.027.094.041.14.007.055.016.085c.016.054.034.109.051.163a.622.622,0,0,0,.012.088c.012.029.021.087.034.127s.01.093.023.133c.023.075.051.154.076.225s.031.161.06.241c.05.141.1.3.148.446.013.037.009.074.02.114.017.061.03.122.051.182.011.029.029.058.042.085s.02.072.036.107.031.058.042.088.01.1.028.143.033.072.045.108.014.081.03.117.037.063.052.095.017.061.029.094.031.069.045.1.017.077.033.114.036.063.049.1.013.076.026.114c.022.055.056.1.079.156s.019.084.037.124.048.092.069.137.048.125.074.183c.046.1.061.215.108.316.035.075.081.146.114.219.019.041.024.084.043.124s.057.082.078.127.028.09.047.134.063.108.089.163c.015.032.021.063.036.1.028.061.075.113.1.173.015.04.029.08.043.12.03.065.079.12.11.186a1.124,1.124,0,0,0,.066.144c.044.069.073.115.115.185a1.773,1.773,0,0,1,.087.161c.023.049.059.089.082.137s.051.1.076.142.058.088.089.135c.051.078.083.16.133.239.035.055.075.11.113.163.1.141.247.393.31.478.052.069.094.15.142.222.037.056.083.111.122.163s.059.089.091.134l.025.034a15.223,15.223,0,0,0,3.78,3.5h0a5.042,5.042,0,0,0,.92.487c.077.032.024.087-.014.111L1.75,20.184c-.021.014-.073.053-.053.1s.085.014.1.008c5.4-1.911,9.32-3.482,11.716-4.628,2.429-1.162,3.245-1.826,3.156-2.157" transform="translate(-838 -213)" fill="#8e969f" fill-rule="evenodd"/>
    </g>
  </g>
</svg>
