<svg xmlns="http://www.w3.org/2000/svg" width="91.3" height="169.5" viewBox="0 0 91.3 169.5">
  <g id="download-3" transform="translate(-54.4 -15.3)">
    <path id="Path_22062" data-name="Path 22062" d="M141.7,148.9h-.6v-.4h1.7v.4h-.6v1.8h-.4v-1.8Zm3.5.1-.6,1.7h-.3l-.6-1.7v1.7h-.4v-2.1h.6l.6,1.5.6-1.5h.6v2.1h-.4Z" fill="#e76f00"/>
    <path id="Path_22063" data-name="Path 22063" d="M84.6,105.2s-4.4,2.6,3.2,3.5c9.2,1.1,13.9.9,24.1-1a39.6,39.6,0,0,0,6.4,3.1c-22.9,9.7-51.6-.6-33.7-5.6M81.8,92.4s-5,3.7,2.6,4.5c9.8,1,17.6,1.1,31.1-1.5a13.832,13.832,0,0,0,4.8,2.9c-27.6,8.1-58.2.7-38.5-5.9" fill="#5382a1"/>
    <path id="Path_22064" data-name="Path 22064" d="M105.2,70.8c5.6,6.5-1.5,12.3-1.5,12.3s14.2-7.4,7.7-16.6C105.3,58,100.7,53.7,126,39c0,0-39.8,9.9-20.8,31.8" fill="#e76f00"/>
    <path id="Path_22065" data-name="Path 22065" d="M135.3,114.6s3.3,2.7-3.6,4.8c-13.1,4-54.7,5.2-66.2.2-4.1-1.8,3.6-4.3,6.1-4.8a15.093,15.093,0,0,1,4-.5c-4.6-3.2-29.8,6.4-12.8,9.1,46.4,7.5,84.6-3.4,72.5-8.8M86.7,79.2s-21.1,5-7.5,6.8c5.8.8,17.2.6,27.9-.3,8.7-.7,17.5-2.3,17.5-2.3a35.781,35.781,0,0,0-5.3,2.8c-21.5,5.6-62.9,3-51-2.8,10.2-4.7,18.4-4.2,18.4-4.2m37.9,21.2c21.8-11.3,11.7-22.2,4.7-20.8a22.922,22.922,0,0,0-2.5.7,3.563,3.563,0,0,1,1.9-1.4c13.9-4.9,24.6,14.4-4.5,22.1a1.893,1.893,0,0,0,.4-.6" fill="#5382a1"/>
    <path id="Path_22066" data-name="Path 22066" d="M111.5,15.3S123.6,27.4,100,46c-18.9,14.9-4.3,23.4,0,33.1C89,69.2,80.9,60.4,86.3,52.3c8-12.1,30-17.9,25.2-37" fill="#e76f00"/>
    <path id="Path_22067" data-name="Path 22067" d="M88.8,131.1c20.9,1.3,53.1-.7,53.8-10.6,0,0-1.5,3.8-17.3,6.7-17.9,3.4-39.9,3-53,.8.1,0,2.8,2.3,16.5,3.1" fill="#5382a1"/>
    <path id="Path_22068" data-name="Path 22068" d="M85.4,169a9.773,9.773,0,0,1-5.9,2.7c-2.7,0-4.1-1.6-4.1-4.2,0-2.8,1.5-4.8,7.8-4.8h2.3Zm5.5,6.1v-19c0-4.9-2.8-8.1-9.5-8.1a25.5,25.5,0,0,0-10.1,2.2l.8,3.4a23.5,23.5,0,0,1,7.8-1.6c3.9,0,5.5,1.6,5.5,4.8v2.4H83.5c-9.4,0-13.6,3.6-13.6,9.1,0,4.7,2.8,7.4,8,7.4a12,12,0,0,0,8.2-3.4l.4,2.9Zm18.2,0h-6.8l-8.2-26.6H100l5.1,16.4,1.1,4.9a99.069,99.069,0,0,0,5.3-21.3h5.8a113.745,113.745,0,0,1-8.2,26.6m26-6.1a9.773,9.773,0,0,1-5.9,2.7c-2.7,0-4.1-1.6-4.1-4.2,0-2.8,1.6-4.8,7.8-4.8h2.3V169m5.4,6.1v-19c0-4.9-2.8-8.1-9.5-8.1a25.5,25.5,0,0,0-10.1,2.2l.8,3.4a23.5,23.5,0,0,1,7.8-1.6c3.8,0,5.5,1.6,5.5,4.8v2.4h-1.9c-9.4,0-13.6,3.6-13.6,9.1,0,4.7,2.8,7.4,8,7.4a12,12,0,0,0,8.2-3.4l.4,2.9Zm-76.7,4.6a14.484,14.484,0,0,1-6.8,5.1l-2.7-3.2a11.205,11.205,0,0,0,4.7-4.4c.7-1.4,1-3.3,1-7.7V139.1H66v30c0,5.8-.5,8.2-2.1,10.6" fill="#e76f00"/>
  </g>
</svg>
