<svg xmlns="http://www.w3.org/2000/svg" width="205.388" height="76.734" viewBox="0 0 205.388 76.734">
  <g id="download-4" transform="translate(-24.7 -77.865)">
    <path id="Path_22069" data-name="Path 22069" d="M40.2,101.1c-.4,0-.5-.2-.3-.5L42,97.9a1.433,1.433,0,0,1,1.1-.5H78.8c.4,0,.5.3.3.6l-1.7,2.6a1.524,1.524,0,0,1-1,.6Zm-15.1,9.2c-.4,0-.5-.2-.3-.5l2.1-2.7a1.433,1.433,0,0,1,1.1-.5H73.6a.46.46,0,0,1,.5.6l-.8,2.4a.875.875,0,0,1-.9.6Zm24.2,9.2c-.4,0-.5-.3-.3-.6l1.4-2.5a1.326,1.326,0,0,1,1-.6h20c.4,0,.6.3.6.7l-.2,2.4a.751.751,0,0,1-.7.7ZM153.1,99.3c-6.3,1.6-10.6,2.8-16.8,4.4-1.5.4-1.6.5-2.9-1a13.386,13.386,0,0,0-4.7-3.8c-6.3-3.1-12.4-2.2-18.1,1.5a21.267,21.267,0,0,0-10.2,19,15.677,15.677,0,0,0,13.5,15.7c6.8.9,12.5-1.5,17-6.6.9-1.1,1.7-2.3,2.7-3.7H114.3c-2.1,0-2.6-1.3-1.9-3,1.3-3.1,3.7-8.3,5.1-10.9a2.7,2.7,0,0,1,2.5-1.6h36.4c-.2,2.7-.2,5.4-.6,8.1a42.648,42.648,0,0,1-8.2,19.6c-7.2,9.5-16.6,15.4-28.5,17-9.8,1.3-18.9-.6-26.9-6.6a31.41,31.41,0,0,1-12.7-22.2c-1.3-10.9,1.9-20.7,8.5-29.3a44.377,44.377,0,0,1,28-17.3c9.4-1.7,18.4-.6,26.5,4.9a31.347,31.347,0,0,1,11.6,14.1c.6.9.2,1.4-1,1.7Z" fill="#00acd7"/>
    <path id="Path_22070" data-name="Path 22070" d="M186.2,154.6c-9.1-.2-17.4-2.8-24.4-8.8A31.362,31.362,0,0,1,151,126.5c-1.8-11.3,1.3-21.3,8.1-30.2,7.3-9.6,16.1-14.6,28-16.7,10.2-1.8,19.8-.8,28.5,5.1,7.9,5.4,12.8,12.7,14.1,22.3,1.7,13.5-2.2,24.5-11.5,33.9a45.823,45.823,0,0,1-24,12.8c-2.7.5-5.4.6-8,.9ZM210,114.2a28.778,28.778,0,0,0-.3-3.3c-1.8-9.9-10.9-15.5-20.4-13.3-9.3,2.1-15.3,8-17.5,17.4a16.469,16.469,0,0,0,9.2,18.9,18.333,18.333,0,0,0,16.3-.6c7.9-4.1,12.2-10.5,12.7-19.1Z" fill="#00acd7"/>
  </g>
</svg>
