<svg xmlns="http://www.w3.org/2000/svg" xmlns:xlink="http://www.w3.org/1999/xlink" width="111.8" height="111.6" viewBox="0 0 111.8 111.6">
  <defs>
    <linearGradient id="linear-gradient" x1="0.848" y1="-0.363" x2="0.583" y2="0.105" gradientUnits="objectBoundingBox">
      <stop offset="0" stop-color="#fb7655"/>
      <stop offset="0.41" stop-color="#e42b1e"/>
      <stop offset="0.99" stop-color="#900"/>
      <stop offset="1" stop-color="#900"/>
    </linearGradient>
    <linearGradient id="linear-gradient-2" x1="1.166" y1="-0.641" x2="0.018" y2="-0.226" gradientUnits="objectBoundingBox">
      <stop offset="0" stop-color="#871101"/>
      <stop offset="0.99" stop-color="#911209"/>
      <stop offset="1" stop-color="#911209"/>
    </linearGradient>
    <linearGradient id="linear-gradient-3" x1="0.757" y1="-11.624" x2="0.389" y2="-9.52" xlink:href="#linear-gradient-2"/>
    <linearGradient id="linear-gradient-4" x1="0.501" y1="-0.677" x2="0.666" y2="-1.396" gradientUnits="objectBoundingBox">
      <stop offset="0" stop-color="#fff"/>
      <stop offset="0.23" stop-color="#e57252"/>
      <stop offset="0.46" stop-color="#de3b20"/>
      <stop offset="0.99" stop-color="#a60003"/>
      <stop offset="1" stop-color="#a60003"/>
    </linearGradient>
    <linearGradient id="linear-gradient-5" x1="0.462" y1="0.703" x2="0.5" y2="0.037" gradientUnits="objectBoundingBox">
      <stop offset="0" stop-color="#fff"/>
      <stop offset="0.23" stop-color="#e4714e"/>
      <stop offset="0.56" stop-color="#be1a0d"/>
      <stop offset="0.99" stop-color="#a80d00"/>
      <stop offset="1" stop-color="#a80d00"/>
    </linearGradient>
    <linearGradient id="linear-gradient-6" x1="0.37" y1="3.013" x2="0.496" y2="2.243" gradientUnits="objectBoundingBox">
      <stop offset="0" stop-color="#fff"/>
      <stop offset="0.18" stop-color="#e46342"/>
      <stop offset="0.4" stop-color="#c82410"/>
      <stop offset="0.99" stop-color="#a80d00"/>
      <stop offset="1" stop-color="#a80d00"/>
    </linearGradient>
    <linearGradient id="linear-gradient-7" x1="0.136" y1="9.829" x2="0.857" y2="10.876" gradientUnits="objectBoundingBox">
      <stop offset="0" stop-color="#fff"/>
      <stop offset="0.54" stop-color="#c81f11"/>
      <stop offset="0.99" stop-color="#bf0905"/>
      <stop offset="1" stop-color="#bf0905"/>
    </linearGradient>
    <linearGradient id="linear-gradient-8" x1="0.273" y1="-0.298" x2="0.504" y2="-0.877" gradientUnits="objectBoundingBox">
      <stop offset="0" stop-color="#fff"/>
      <stop offset="0.31" stop-color="#de4024"/>
      <stop offset="0.99" stop-color="#bf190b"/>
      <stop offset="1" stop-color="#bf190b"/>
    </linearGradient>
    <linearGradient id="linear-gradient-9" x1="-0.207" y1="0.311" x2="1.043" y2="1.598" gradientUnits="objectBoundingBox">
      <stop offset="0" stop-color="#bd0012"/>
      <stop offset="0.07" stop-color="#fff"/>
      <stop offset="0.17" stop-color="#fff"/>
      <stop offset="0.27" stop-color="#c82f1c"/>
      <stop offset="0.33" stop-color="#820c01"/>
      <stop offset="0.46" stop-color="#a31601"/>
      <stop offset="0.72" stop-color="#b31301"/>
      <stop offset="0.99" stop-color="#e82609"/>
      <stop offset="1" stop-color="#e82609"/>
    </linearGradient>
    <linearGradient id="linear-gradient-10" x1="0.588" y1="-1.25" x2="0.12" y2="-1.099" gradientUnits="objectBoundingBox">
      <stop offset="0" stop-color="#8c0c01"/>
      <stop offset="0.54" stop-color="#990c00"/>
      <stop offset="0.99" stop-color="#a80d0e"/>
      <stop offset="1" stop-color="#a80d0e"/>
    </linearGradient>
    <linearGradient id="linear-gradient-11" x1="0.795" y1="0.228" x2="0.232" y2="0.678" gradientUnits="objectBoundingBox">
      <stop offset="0" stop-color="#7e110b"/>
      <stop offset="0.99" stop-color="#9e0c00"/>
      <stop offset="1" stop-color="#9e0c00"/>
    </linearGradient>
    <linearGradient id="linear-gradient-12" x1="0.928" y1="2.352" x2="0.597" y2="2.696" gradientUnits="objectBoundingBox">
      <stop offset="0" stop-color="#79130d"/>
      <stop offset="0.99" stop-color="#9e120b"/>
      <stop offset="1" stop-color="#9e120b"/>
    </linearGradient>
    <radialGradient id="radial-gradient" cx="0.32" cy="0.401" r="1.334" gradientTransform="matrix(0.521, 0, 0, -1, 0.153, 2.898)" gradientUnits="objectBoundingBox">
      <stop offset="0" stop-color="#a80d00"/>
      <stop offset="0.99" stop-color="#7e0e08"/>
      <stop offset="1" stop-color="#7e0e08"/>
    </radialGradient>
    <radialGradient id="radial-gradient-2" cx="0.136" cy="0.409" r="1.135" gradientTransform="matrix(0.778, 0, 0, -1, 0.03, -2.342)" gradientUnits="objectBoundingBox">
      <stop offset="0" stop-color="#a30c00"/>
      <stop offset="0.99" stop-color="#800e08"/>
      <stop offset="1" stop-color="#800e08"/>
    </radialGradient>
    <linearGradient id="linear-gradient-13" x1="0.564" y1="-2.095" x2="0.029" y2="-1.198" gradientUnits="objectBoundingBox">
      <stop offset="0" stop-color="#8b2114"/>
      <stop offset="0.43" stop-color="#9e100a"/>
      <stop offset="0.99" stop-color="#b3100c"/>
      <stop offset="1" stop-color="#b3100c"/>
    </linearGradient>
    <linearGradient id="linear-gradient-14" x1="0.308" y1="7.409" x2="0.924" y2="6.758" gradientUnits="objectBoundingBox">
      <stop offset="0" stop-color="#b31000"/>
      <stop offset="0.44" stop-color="#910f08"/>
      <stop offset="0.99" stop-color="#791c12"/>
      <stop offset="1" stop-color="#791c12"/>
    </linearGradient>
  </defs>
  <g id="download-2" transform="translate(-44.1 -44.2)">
    <path id="Path_22044" data-name="Path 22044" d="M130.7,117.8l-63.8,38,82.7-5.6,6.3-83.4Z" fill="url(#linear-gradient)"/>
    <path id="Path_22045" data-name="Path 22045" d="M149.7,150.1,142.6,101l-19.4,25.6Z" fill="url(#linear-gradient-2)"/>
    <path id="Path_22046" data-name="Path 22046" d="M149.8,150.1,97.7,146l-30.5,9.7Z" fill="url(#linear-gradient-3)"/>
    <path id="Path_22047" data-name="Path 22047" d="M67.2,155.7l13-42.6-28.6,6.1Z" fill="url(#linear-gradient-4)"/>
    <path id="Path_22048" data-name="Path 22048" d="M123.2,126.8,111.3,79.9,77,112Z" fill="url(#linear-gradient-5)"/>
    <path id="Path_22049" data-name="Path 22049" d="M153.2,80.5,120.8,54.1l-9,29.1Z" fill="url(#linear-gradient-6)"/>
    <path id="Path_22050" data-name="Path 22050" d="M138.1,44.7,119,55.2,107,44.5Z" fill="url(#linear-gradient-7)"/>
    <path id="Path_22051" data-name="Path 22051" d="M44.1,133.5l8-14.6-6.5-17.3Z" fill="url(#linear-gradient-8)"/>
    <path id="Path_22052" data-name="Path 22052" d="M45.2,101l6.5,18.4,28.2-6.3,32.2-29.9,9.1-28.9L106.9,44.2,82.6,53.3C74.9,60.5,60,74.6,59.5,74.8,58.9,75.1,49.6,92.7,45.2,101Z" fill="#fff"/>
    <path id="Path_22053" data-name="Path 22053" d="M68,68c16.6-16.5,38-26.2,46.2-17.9S113.7,78.5,97.1,95s-37.8,26.7-46,18.4S51.4,84.4,68,68Z" fill="url(#linear-gradient-9)"/>
    <path id="Path_22054" data-name="Path 22054" d="M67.2,155.7,80.1,113,123,126.8C107.5,141.2,90.3,153.5,67.2,155.7Z" fill="url(#linear-gradient-10)"/>
    <path id="Path_22055" data-name="Path 22055" d="M112.1,83.1l11,43.6c12.9-13.6,24.6-28.2,30.2-46.3.1,0-41.2,2.7-41.2,2.7Z" fill="url(#linear-gradient-11)"/>
    <path id="Path_22056" data-name="Path 22056" d="M153.3,80.6c4.4-13.3,5.4-32.3-15.3-35.9l-17,9.4Z" fill="url(#linear-gradient-12)"/>
    <path id="Path_22057" data-name="Path 22057" d="M44.1,133.3c.6,21.9,16.4,22.3,23.2,22.4L51.7,119.3Z" fill="#9e1209"/>
    <path id="Path_22058" data-name="Path 22058" d="M112.2,83.2c9.9,6.1,30,18.4,30.4,18.6.6.4,8.6-13.5,10.5-21.3Z" fill="url(#radial-gradient)"/>
    <path id="Path_22059" data-name="Path 22059" d="M80.1,112.9l17.3,33.3c10.2-5.5,18.2-12.3,25.5-19.5Z" fill="url(#radial-gradient-2)"/>
    <path id="Path_22060" data-name="Path 22060" d="M51.6,119.4l-2.4,29.1c4.6,6.3,11,6.8,17.6,6.4-4.8-12-14.4-36-15.2-35.5Z" fill="url(#linear-gradient-13)"/>
    <path id="Path_22061" data-name="Path 22061" d="M120.8,54.2,155.1,59c-1.8-7.8-7.4-12.8-17-14.3Z" fill="url(#linear-gradient-14)"/>
  </g>
</svg>
