<svg xmlns="http://www.w3.org/2000/svg" width="157.151" height="74.81" viewBox="0 0 157.151 74.81">
  <g id="flyline" transform="translate(-221.029 -162.88)">
    <path id="Path_20709" data-name="Path 20709" d="M258.51,178.66a1.633,1.633,0,0,0-.88-.75,7.566,7.566,0,0,0-1.36-.31c-.52-.05-1.2-.05-2.07-.05s-1.54,0-2.16.06l-.53.1a6.639,6.639,0,0,0-1.12.29,2.136,2.136,0,0,0-.84.61,2.22,2.22,0,0,0-.35.74l-8.88,44.34a1.29,1.29,0,0,0,.17,1.01,1.622,1.622,0,0,0,.82.59,5.892,5.892,0,0,0,1.33.3c.57.06,1.26.06,2.12.06s1.55,0,2.12-.06a6.33,6.33,0,0,0,1.44-.3,2.43,2.43,0,0,0,.98-.51,1.724,1.724,0,0,0,.47-.86l8.82-44.34A1.524,1.524,0,0,0,258.51,178.66Z" fill="#000d5c"/>
    <path id="Path_20710" data-name="Path 20710" d="M305.16,178.66a1.732,1.732,0,0,0-.85-.76,6.344,6.344,0,0,0-.83-.2l-.5-.1c-.57-.05-1.26-.05-2.12-.05s-1.54,0-2.16.06l-.53.1a6.772,6.772,0,0,0-1.08.27c-.33.16-.68.32-.75.55a1.574,1.574,0,0,0-.48.81l-8.89,44.47a1.3,1.3,0,0,0,1.04,1.46,4.856,4.856,0,0,0,1.36.31,20.843,20.843,0,0,0,2.13.06c.8,0,1.49,0,2.12-.06a6.446,6.446,0,0,0,1.44-.3,2.331,2.331,0,0,0,.92-.51,1.734,1.734,0,0,0,.48-.87l8.83-44.35A1.782,1.782,0,0,0,305.16,178.66Z" fill="#000d5c"/>
    <path id="Path_20711" data-name="Path 20711" d="M289.62,196.33a3.871,3.871,0,0,0,.29-.7l.1-.38v-.11a1.225,1.225,0,0,0-.48-.85,1.953,1.953,0,0,0-.57-.41,1.846,1.846,0,0,0-.58-.33,11.338,11.338,0,0,0-1.99-.83,17.723,17.723,0,0,0-2-.63,7.769,7.769,0,0,0-1.16-.17l-.69.05a2.006,2.006,0,0,0-.78.16,1.579,1.579,0,0,0-.71.63l-10.74,17.92-2.48-16.73a3.31,3.31,0,0,0-.27-1.04,1.477,1.477,0,0,0-.82-.75,5.1,5.1,0,0,0-1.36-.26s-1.67-.06-2.18-.06c-.86,0-1.6.06-2.17.11a6.187,6.187,0,0,0-1.56.33,1.92,1.92,0,0,0-.93.75,2.458,2.458,0,0,0-.29,1.26,4.974,4.974,0,0,0,.07.95,4.976,4.976,0,0,1,.1.87l4.7,26.64-5.22,8.73c-.17.22-2.08,3.25-2.08,3.25a2.324,2.324,0,0,0-.53,1.14,1.056,1.056,0,0,0,.51,1.16,2.8,2.8,0,0,0,1.51.49,13.722,13.722,0,0,0,2.44.17c.91,0,1.65-.05,2.38-.12l.72-.12a8.155,8.155,0,0,0,1.27-.27,2.945,2.945,0,0,0,.94-.44,8.6,8.6,0,0,0,1.6-1.86l19.89-33.3,1.13-1.8Z" fill="#000d5c"/>
    <path id="Path_20712" data-name="Path 20712" d="M315.25,192.77a9.254,9.254,0,0,0-4.49-1.03c-2.22,0-3.89.65-4.65,1.95l-5.96,30.24c.34,1.19,1.97,1.9,4.37,1.9,2,0,4.32-.55,5.06-2.04.02-.43.97-4.99,1.97-9.81C315.19,196.41,315.68,193.45,315.25,192.77Z" fill="#000d5c"/>
    <path id="Path_20713" data-name="Path 20713" d="M344.27,194.02a7.22,7.22,0,0,0-2.74-1.96,9.694,9.694,0,0,0-4.18-.77,10.922,10.922,0,0,0-3.9.69,16.318,16.318,0,0,0-3.47,1.62,14.249,14.249,0,0,0-2.82,2.3c-.21.21-.42.43-.62.67l.56-2.77a1.329,1.329,0,0,0-.07-.82c-.11-.33-.39-.6-1.04-.83a7,7,0,0,0-.89-.19c-.46-.05-1.04-.05-1.79-.05-.69,0-1.27,0-1.8.05-.28.04-1.29.26-1.29.26a2.471,2.471,0,0,0-.9.63,2.039,2.039,0,0,0-.35.74l-6.03,30.1a1.642,1.642,0,0,0,.13,1,1.432,1.432,0,0,0,.85.58,5.066,5.066,0,0,0,1.36.31c.58.06,1.26.06,2.12.06.8,0,1.5,0,2.07-.06a8.277,8.277,0,0,0,1.5-.3,2.331,2.331,0,0,0,.97-.51,1.247,1.247,0,0,0,.42-.87l2.74-13.62a15.666,15.666,0,0,1,1.47-4.13,17.047,17.047,0,0,1,2.28-3.41,10.644,10.644,0,0,1,2.73-2.25,5.076,5.076,0,0,1,2.65-.82,1.956,1.956,0,0,1,1.71.73,3.989,3.989,0,0,1,.58,2.24,14.422,14.422,0,0,1-.11,1.46,14.885,14.885,0,0,1-.21,1.57l-3.63,18.02a1.217,1.217,0,0,0,.13,1.02,1.472,1.472,0,0,0,.84.57,4.856,4.856,0,0,0,1.36.31,20.18,20.18,0,0,0,2.07.06c.86,0,1.54,0,2.12-.06a6.482,6.482,0,0,0,1.42-.29,2.084,2.084,0,0,0,.99-.52,1.734,1.734,0,0,0,.48-.87l3.74-18.55c.16-.8.27-1.6.4-2.49a16.316,16.316,0,0,0,.17-2.42,14.064,14.064,0,0,0-.46-3.49A7.944,7.944,0,0,0,344.27,194.02Z" fill="#000d5c"/>
    <path id="Path_20714" data-name="Path 20714" d="M377.41,197.01a7.363,7.363,0,0,0-2.19-2.91,11.023,11.023,0,0,0-3.81-2.06,19.842,19.842,0,0,0-11.89.34,17.381,17.381,0,0,0-8.72,7,23.284,23.284,0,0,0-2.45,4.89,24.624,24.624,0,0,0-1.43,5.2,30.843,30.843,0,0,0-.4,4.94,15.489,15.489,0,0,0,.81,5.21,9.114,9.114,0,0,0,2.6,3.78,10.833,10.833,0,0,0,4.21,2.11,21.626,21.626,0,0,0,5.77.69c1.3,0,2.6-.06,3.93-.17,1.24-.17,2.43-.33,3.45-.56a19.15,19.15,0,0,0,2.64-.8,4.668,4.668,0,0,0,1.68-.9,3.12,3.12,0,0,0,.7-1.11,5.344,5.344,0,0,0,.56-1.48,16.023,16.023,0,0,0,.32-1.77c.04-.42.08-.79.08-1.13a1.765,1.765,0,0,0-.25-1,1.186,1.186,0,0,0-1.03-.45,3.842,3.842,0,0,0-1.4.31c-.57.21-1.25.42-2.21.72a21.689,21.689,0,0,1-6.95.99c-1.95,0-3.39-.42-4.18-1.2a5.089,5.089,0,0,1-1.31-3.79l.06-1.34c.04-.36.08-.71.14-1.07h2.72a41.873,41.873,0,0,0,8.54-.79,18.458,18.458,0,0,0,6.02-2.18,9.854,9.854,0,0,0,3.58-3.53,9.237,9.237,0,0,0,1.18-4.6A7.3,7.3,0,0,0,377.41,197.01Zm-13.23,7.64a24.27,24.27,0,0,1-4.43.33h-2.14a14.685,14.685,0,0,1,.96-2.26,8.969,8.969,0,0,1,1.64-2.32,7.056,7.056,0,0,1,2.2-1.52,6.559,6.559,0,0,1,2.81-.57,4.46,4.46,0,0,1,2.74.77,2.461,2.461,0,0,1,.9,1.87,2.828,2.828,0,0,1-.44,1.53,3.671,3.671,0,0,1-1.43,1.27A9.983,9.983,0,0,1,364.18,204.65Z" fill="#000d5c"/>
    <path id="Path_20715" data-name="Path 20715" d="M242.52,190.77a3.69,3.69,0,0,0,.66-.96c.16-.36.32-.75.46-1.17a10.982,10.982,0,0,0,.35-1.28,10.145,10.145,0,0,0,.19-1.22c.03-.37.05-.68.05-.92a2.4,2.4,0,0,0-.28-1.29,1.24,1.24,0,0,0-1.13-.55h-4.24l1.53-7.69a13.1,13.1,0,0,1,.63-2.36,5.361,5.361,0,0,1,.89-1.55,2.806,2.806,0,0,1,1.17-.82,5.282,5.282,0,0,1,2.72-.18,8.373,8.373,0,0,1,.89.21l.72.22a2.376,2.376,0,0,0,.67.12,1.112,1.112,0,0,0,.91-.53,3.816,3.816,0,0,0,.49-.97,9.314,9.314,0,0,0,.33-1.19c.09-.42.17-.82.22-1.21l.14-1.05c.03-.33.05-.57.05-.71a3.013,3.013,0,0,0-.1-.87,1.437,1.437,0,0,0-.42-.71,2.535,2.535,0,0,0-.91-.51,8.819,8.819,0,0,0-1.32-.37,13.566,13.566,0,0,0-1.64-.25c-.6-.06-1.2-.08-1.8-.08a14.651,14.651,0,0,0-4.87.75,10.4,10.4,0,0,0-3.78,2.29,12.777,12.777,0,0,0-2.69,3.75,26.452,26.452,0,0,0-1.12,2.86s-.46,1.99-.51,2.26l-.61,3.33-1.06,5.27h-3.94a1.527,1.527,0,0,0-1.1.46,3.727,3.727,0,0,0-.68.92,5.853,5.853,0,0,0-.48,1.22c-.12.43-.21.85-.3,1.27a11.346,11.346,0,0,0-.17,1.19c-.03.38-.05.69-.05.92a2.333,2.333,0,0,0,.32,1.4,1.233,1.233,0,0,0,1.01.48h3.82l-6.48,32.46a1.264,1.264,0,0,0,.15.94,1.626,1.626,0,0,0,.84.63,5.769,5.769,0,0,0,1.35.28,20.547,20.547,0,0,0,2.13.08c.82,0,1.53-.02,2.11-.08a7.013,7.013,0,0,0,1.46-.28,2.377,2.377,0,0,0,.94-.54,1.658,1.658,0,0,0,.46-.84l6.51-32.66h4.46A1.439,1.439,0,0,0,242.52,190.77Z" fill="#000d5c"/>
    <path id="Path_20716" data-name="Path 20716" d="M308.33,188.22a4.531,4.531,0,0,0,1.36.31,20.843,20.843,0,0,0,2.13.06c.8,0,1.49,0,2.06-.06a6.018,6.018,0,0,0,1.51-.31,2.164,2.164,0,0,0,.92-.51,1.934,1.934,0,0,0,.48-.87l.62-3.24.29-1.84a2.261,2.261,0,0,1,.9-.1c.42,0,.79.03.87.04.52.05,1.2.05,2.12.05.8,0,1.49,0,2.06-.05a6.03,6.03,0,0,0,1.5-.31,2.331,2.331,0,0,0,.92-.51,1.763,1.763,0,0,0,.48-.87l1.23-6.34a1.6,1.6,0,0,0-.12-1.01,1.676,1.676,0,0,0-.82-.65,5.649,5.649,0,0,0-1.29-.29,11.341,11.341,0,0,0-2.16-.12,11.7,11.7,0,0,0-2.12.11,7.778,7.778,0,0,0-1.5.3,1.863,1.863,0,0,0-.92.57,1.677,1.677,0,0,0-.47.87l-.54,2.73-.51,2.42s-2.82-.17-3.7-.17a11.645,11.645,0,0,0-2.12.11,7.572,7.572,0,0,0-1.5.31,1.82,1.82,0,0,0-.92.57,1.8,1.8,0,0,0-.47.87l-.54,2.73-.77,3.74a1.55,1.55,0,0,0,.19.89A1.447,1.447,0,0,0,308.33,188.22Z" fill="#203be7"/>
  </g>
</svg>
