<svg xmlns="http://www.w3.org/2000/svg" width="120" height="19.118" viewBox="0 0 120 19.118">
  <g id="FlylineSVG_Logotype" transform="translate(-215 -454.595)">
    <rect id="Rectangle_719" data-name="Rectangle 719" width="6.307" height="19.115" transform="translate(287.096 454.598)" fill="#00aeef"/>
    <path id="Path_1435" data-name="Path 1435" d="M612.181,463.071l-.819-1.065-6.881-7.4H599.1v19.115h6.2v-9.093l.819,1.065,7.428,8.028h4.779V454.606h-6.144Z" transform="translate(-303.238 -0.009)" fill="#00aeef"/>
    <path id="Path_1436" data-name="Path 1436" d="M487.2,468.189v5.544H471.586V454.621h6.308v13.568Z" transform="translate(-202.568 -0.021)" fill="#00aeef"/>
    <path id="Path_1437" data-name="Path 1437" d="M370.75,460.559l-.628,1.42-.628-1.42-3.031-5.953h-6.772l7.1,13.927v5.188h6.2v-5.188l7.1-13.927h-6.308Z" transform="translate(-114.23 -0.009)" fill="#0e3178"/>
    <path id="Path_1438" data-name="Path 1438" d="M215,456.684a3.674,3.674,0,0,0,3.852,3.465h6.5v1.611h-6.679V463.2a3.567,3.567,0,0,0,3.74,3.364h2.939v3.724a3.637,3.637,0,0,0,3.814,3.43h3.29V454.605H215Z" transform="translate(0 -0.008)" fill="#0e3178"/>
    <path id="Path_1439" data-name="Path 1439" d="M321.837,468.178h-5.847V458.037a3.43,3.43,0,0,0-3.43-3.431H309.6v19.115h15.7v-2.079A3.465,3.465,0,0,0,321.837,468.178Z" transform="translate(-74.685 -0.009)" fill="#0e3178"/>
    <path id="Path_1440" data-name="Path 1440" d="M702.1,454.595v19.117H719.55v-5.546H708.211v-1.607h7.673v-4.826h-7.673v-1.592H719.55v-5.546Z" transform="translate(-384.55 0)" fill="#00aeef"/>
  </g>
</svg>
