<svg xmlns="http://www.w3.org/2000/svg" width="495.421" height="199.465" viewBox="0 0 495.421 199.465">
  <g id="Group_15900" data-name="Group 15900" transform="translate(-5316.753 -4296.218)">
    <g id="Group_5642" data-name="Group 5642" transform="translate(5420.973 4246.016)">
      <g id="Group_3494" data-name="Group 3494" transform="translate(40 72.163)">
        <g id="Group_3493" data-name="Group 3493">
          <g id="Group_3489" data-name="Group 3489" transform="translate(69.635)">
            <path id="Path_2527" data-name="Path 2527" d="M3393.152,4115.464a14.341,14.341,0,0,1,4.78,4.625c2.507,4.042.295,9.9,2.753,14.1.95,1.629,2.5,2.787,3.459,4.405a7.751,7.751,0,0,1,.59,6.458,21.174,21.174,0,0,0-1.875,4.7c-.32,2.959,2.244,5.347,2.818,8.26a6.335,6.335,0,0,1-5.1,7.313c-2.236.221-4.537-.957-6.67-.2-2.458.87-3.595,3.867-5.642,5.558a6.322,6.322,0,0,1-8.322-.383c-1.019-1.019-1.841-2.475-3.225-2.722s-2.645.842-3.955,1.414a6.8,6.8,0,0,1-8.108-2.888,11.435,11.435,0,0,1-.915-9.438,22.7,22.7,0,0,0,1.925-6.761,27.629,27.629,0,0,0-1.55-6.04,10.718,10.718,0,0,1,1.711-8.979,38.326,38.326,0,0,0,3.5-4.62,54.17,54.17,0,0,0,2.386-7.464,14.841,14.841,0,0,1,13.083-9.636A15.525,15.525,0,0,1,3393.152,4115.464Z" transform="translate(-3360.809 -4113.169)" fill="#171032"/>
            <g id="Group_3485" data-name="Group 3485" transform="translate(35.153 30.845)">
              <path id="Path_2528" data-name="Path 2528" d="M3388.539,4166.283c.09.028.185.058.279.081a4.524,4.524,0,0,0,2.924-1.166,5.935,5.935,0,0,0,.983-1.109c.025-.035.047-.066.068-.1h0c.034-.047.067-.094.095-.141a3.387,3.387,0,0,0,.21-.356l.014-.041a.314.314,0,0,1,.025-.093.438.438,0,0,0,.018-.088l.038-.143c.018-.1.037-.2.053-.3a.267.267,0,0,1,.014-.1h0v-.032a.862.862,0,0,1,.021-.12v-.015h0c.025-.226.042-.462.047-.7v-.486a7.991,7.991,0,0,0-.059-.814c-.04-.326-.092-.662-.167-1.018-.013-.131-.031-.266-.041-.394q-.16-1.554-.333-3.064c-.047-.422-.094-.848-.146-1.265-.254-2.086-.531-4.085-.83-5.983q-.318-2.036-.676-3.9c-.1-.5-.2-.983-.295-1.449s-.2-.911-.294-1.354c-1.452-6.335-3.344-10.7-5.808-12.065l-.025-.015a3.679,3.679,0,0,0-.983-.366c-.028-.013-.055,0-.079-.022-.077-.013-.151-.022-.228-.031a2.462,2.462,0,0,0-1,.114c-.049.019-.1.033-.142.054a2.683,2.683,0,0,0-.544.3h0a3.685,3.685,0,0,0-.954,1.03.407.407,0,0,0-.027.045,6.888,6.888,0,0,0-.564,5.432l.983,3.492,2.11,7.534.1.358.234.827,1.543,5.506,1.351,4.814.519,1.836.071.262.7,2.5.167.59.21.761.091.327h0l.131.461Z" transform="translate(-3379.821 -4128.126)" fill="#e5b5ae"/>
              <g id="Group_3484" data-name="Group 3484" transform="translate(7.331 32.191)">
                <path id="Path_2529" data-name="Path 2529" d="M3394.474,4174.721a4.17,4.17,0,0,1-.62,1.31,1.68,1.68,0,0,1-.956.686,1.191,1.191,0,0,1-.167.027c-1.261.116-2.525-1.6-2.9-2.163a1.562,1.562,0,0,1-.1-.157,6.307,6.307,0,0,1-.9-2.245,13.05,13.05,0,0,1-.169-2.728c.02-.624.055-1.295.1-2.021-.039-.132-.083-.273-.124-.43l-.016-.053c-.535-1.87-1.516-5.323-2.492-8.877-.635-2.311-1.266-4.668-1.77-6.662-.038-.151-.077-.3-.108-.437l-.073-.477h0l-.051-.336-.112-.786-.088-.613-.374-2.569.017-.017c.12-.077.236-.145.358-.209a.978.978,0,0,1,.149-.076h0l.041-.021h0a5.957,5.957,0,0,1,1.473-.524,4.522,4.522,0,0,1,3.121.393c.083.079.161.158.236.236a4.684,4.684,0,0,1,.735,1.01,1.2,1.2,0,0,1,.055.115h0a.056.056,0,0,0,.012.041c.032.1.064.2.093.3.1.289.181.576.267.859,0,0,.073.241.137.489,0,.039.026.171.046.381h0c.171,1.831.587,9.552.587,15.4.166.517.362,1.112.612,1.77a1.261,1.261,0,0,1,.049.124c.165.428.352.893.566,1.377.16.36.329.739.52,1.128C3393.892,4171.585,3394.946,4172.921,3394.474,4174.721Z" transform="translate(-3383.548 -4145.224)" fill="#fde5d3"/>
                <path id="Path_2530" data-name="Path 2530" d="M3388.765,4156.976c.083.18-.016.474-1.233,1.687-1.349,1.34-2.2,2.191-2.426,2.024s.438-1.34,1.324-2.857a2.046,2.046,0,0,1,.967-1.007C3387.909,4156.613,3388.621,4156.669,3388.765,4156.976Z" transform="translate(-3382.087 -4134.134)" fill="#fde5d3"/>
              </g>
              <path id="Path_2531" data-name="Path 2531" d="M3395.947,4178.994l-5.778.655c-4.682-20.676-8.016-35.126-9.123-38.937-.045-.164-.423-2-.893-5.7a6.949,6.949,0,0,1,.476-4.828,3.183,3.183,0,0,1,.861-.912h0a2.3,2.3,0,0,1,1.534-.405,1.555,1.555,0,0,1,.208.028.121.121,0,0,0,.038,0,.148.148,0,0,0,.042,0,6.724,6.724,0,0,1,2.043.859,11.649,11.649,0,0,1,3.884,6.545q1.481,6.955,2.781,14.335C3393.76,4160.513,3395.036,4169.981,3395.947,4178.994Z" transform="translate(-3379.722 -4128.854)" fill="#0e3178"/>
            </g>
            <path id="Path_2532" data-name="Path 2532" d="M3366.886,4166.287c-.093.028-.181.058-.277.081a4.52,4.52,0,0,1-2.926-1.166,5.874,5.874,0,0,1-.983-1.109c-.023-.035-.047-.066-.068-.1h0a.2.2,0,0,0-.095-.141.234.234,0,0,0-.271.037c-.01-.065-.036-.182-.053-.326a11.351,11.351,0,0,1-.122-1.717v-.486a7.95,7.95,0,0,1,.057-.812c.037-.328.092-.666.165-1.019.018-.13.032-.265.042-.393.108-1.037.214-2.059.333-3.064.047-.424.1-.848.147-1.265.251-2.088.531-4.086.826-5.983q.322-2.038.68-3.9c.093-.5.2-.983.3-1.45s.2-.91.293-1.354c1.451-6.334,3.345-10.7,5.809-12.064l.027-.015a3.454,3.454,0,0,1,.972-.366c.027-.015.055,0,.08-.022.075-.015.154-.025.23-.033a2.4,2.4,0,0,1,.995.116c.05.018.095.033.142.053a2.6,2.6,0,0,1,.546.3h0a3.6,3.6,0,0,1,.954,1.03.224.224,0,0,1,.03.045,6.861,6.861,0,0,1,.563,5.431l-.983,3.491-2.114,7.536-.1.359-.236.828-1.546,5.506-1.349,4.812-.518,1.839-.072.262-.7,2.5-.167.59-.212.761-.092.327h0l-.13.462Z" transform="translate(-3361.803 -4097.286)" fill="#e5b5ae"/>
            <path id="Path_2533" data-name="Path 2533" d="M3375.306,4135c-.452,3.628-.816,5.426-.895,5.7-1.064,3.736-2.917,11.271-5.414,21.5-1,3.2-3.43,4.812-5.087,4.361a3.424,3.424,0,0,1-1.966-2.035,106,106,0,0,1,1.966-16.97q.357-1.8.765-3.526c1.908-9.292,3.109-12.2,3.888-12.9l1.536-1.367h0a6.726,6.726,0,0,1,2.045-.859.1.1,0,0,0,.035,0,.148.148,0,0,0,.042,0,1.5,1.5,0,0,1,.208-.027,2.294,2.294,0,0,1,1.532.405h0a3.214,3.214,0,0,1,.863.912A7,7,0,0,1,3375.306,4135Z" transform="translate(-3361.944 -4098.002)" fill="#0e3178"/>
            <path id="Path_2534" data-name="Path 2534" d="M3384.743,4129.248v1h-13.372v-2l1.933-1.29h8Z" transform="translate(-3352.833 -4099.847)" fill="#eef4ff"/>
            <path id="Path_2535" data-name="Path 2535" d="M3396.02,4134.385a67.935,67.935,0,0,1-1.135,7.865c-.028.173-.055.34-.086.5-.1.568-.2,1.094-.277,1.554-.127.726-.246,1.448-.346,2.163-.047.33-.1.658-.151.983-.036.281-.077.568-.113.854-.328,2.478-.535,4.821-.659,7v.013c-.1.708-.2,1.412-.294,2.12.055.437.11.875.163,1.312h0c-.016.983-.016,1.915,0,2.81,0,.622.018,1.226.042,1.8.027.844.068,1.638.117,2.383s.107,1.485.168,2.134h0c.09,1.022.2,1.9.294,2.621.208,1.541.394,2.36.394,2.36h-25.615l.023-.094.25-1.086.049-.224a33.979,33.979,0,0,0,.834-3.594c.122-.711.234-1.426.315-2.133,0-.063.012-.122.016-.187.045-.372.083-.749.114-1.122a1.667,1.667,0,0,1,.025-.268c.016-.26.036-.459.036-.459,0-.122.014-.246.023-.367v-.25c.018-.208.027-.413.032-.617v-.073h0c0-.163.013-.317.013-.485,0-.117.014-.235.014-.354v-1.092c0-.336,0-.667-.014-1,.177-.957.354-1.921.533-2.879q-1.941-11.367-3.882-22.74a.106.106,0,0,1,.035,0l-.042-.015a.034.034,0,0,1-.006-.045l.006,0a.672.672,0,0,1,.278-.131c1-.347,4.326-.927,4.326-.927l1.008-.2.1-.018h.032l3.7-.735.1-.019h.075l.124-.022.767-.149.236-.046v-7.346h8v7.346h.158l.246.05.394.072.625.124,3.714.735h0l.106.022,4.006.8,1.1.3v.055A3.884,3.884,0,0,1,3396.02,4134.385Z" transform="translate(-3357.17 -4102.521)" fill="#fde5d3"/>
            <path id="Path_2536" data-name="Path 2536" d="M3368.377,4136.308a5.636,5.636,0,0,1-.2-.884C3368.241,4135.731,3368.306,4136.025,3368.377,4136.308Z" transform="translate(-3355.917 -4091.66)" fill="#f4b251"/>
            <path id="Path_2537" data-name="Path 2537" d="M3380.656,4135.433a5.254,5.254,0,0,1-.2.867C3380.526,4136.02,3380.59,4135.736,3380.656,4135.433Z" transform="translate(-3344.05 -4091.652)" fill="#f4b251"/>
            <path id="Path_2538" data-name="Path 2538" d="M3396.8,4165.268q0,.391-.018.786l-.014.475c0,.231-.02.469-.033.711a1.9,1.9,0,0,1-.014.275c-.034.549-.071,1.111-.118,1.684-.018.231-.037.446-.055.651-.081.855-.181,1.729-.3,2.633-.023.177-.051.363-.079.563a60.269,60.269,0,0,1-3.461,13.09c-.069.178-.138.349-.208.525-.041.1-.083.2-.122.308l-3.032.3-6.788.685c-.016-.307-.042-.6-.059-.893-.13-2.061-.23-3.8-.307-5.211-.014-.219-.018-.419-.028-.591,0-.131,0-.247-.014-.347a1.411,1.411,0,0,0-.01-.16v-.367a2.31,2.31,0,0,0-.014-.3c-.013-.228-.027-.5-.041-.833-.02-.364-.039-.785-.061-1.278v-.214c0-.182-.018-.368-.027-.568,0-.164-.014-.325-.023-.5s-.014-.3-.018-.433c0-.167-.014-.327-.02-.48a16.723,16.723,0,0,0-.124-2.738h0c-.169,0-.566,2.618-1.554,13.924-.007.122-.015.245-.033.372l-11.1-1.271h-.018a70.824,70.824,0,0,1-2.665-15.506v-.21c-.041-.729-.068-1.452-.083-2.163h0a.416.416,0,0,0,0-.1v-.978h0v-1.273c0-.271,0-.539.014-.8.013-.787.045-1.573.083-2.331l1.332-5.755.456-1.967.334-1.456.02-.088.405-1.748.067-.289.023-.093.25-1.083.051-.225.49-2.111.34-1.479h0a70.322,70.322,0,0,0,23.767,0h0c.1.487.2.983.3,1.471.214,1.047.421,2.089.631,3.135a.1.1,0,0,1,0,.047c.025.113.047.219.069.331.031.153.065.307.09.466.025.106.045.219.067.331.093.441.181.888.269,1.331v.013c.1.479.2.959.287,1.442.048.218.089.438.136.661l.265,1.312q.363,2.9.724,5.818C3396.811,4163.563,3396.818,4164.4,3396.8,4165.268Z" transform="translate(-3357.672 -4081.046)" fill="#ef8998"/>
            <path id="Path_2539" data-name="Path 2539" d="M3397.4,4163.273c0,.244,0,.49-.016.737,0,.148,0,.295-.014.443,0,.214-.023.434-.037.661a1.563,1.563,0,0,1-.014.251c-.032.509-.069,1.032-.114,1.561-.018.214-.037.413-.059.6-.059.711-.126,1.31-.3,2.443-.045.3-.083.522-.083.522l-3.463,38.435h-22.1c-.932-12.045-2.239-24.447-3.992-37.178q-.694-5.038-1.457-9.984l1.247-.865,1.33-5.338.454-1.827.334-1.351.016-.081.368-1.457.039-.165.063-.27.027-.084.25-1.007.049-.2.492-1.966h24.412q.318,1.45.637,2.9a.158.158,0,0,1,0,.043c.024.1.045.2.063.306.033.144.065.287.09.435a2.267,2.267,0,0,1,.069.3c.09.413.182.826.269,1.233v.014c.1.446.2.892.291,1.339.042.2.083.4.128.615l.269,1.212q.36,2.7.728,5.4C3397.406,4161.7,3397.41,4162.469,3397.4,4163.273Z" transform="translate(-3358.267 -4080.317)" fill="#1f1f3f"/>
            <path id="Path_2540" data-name="Path 2540" d="M3393.793,4151.135h-26.137l.041-.175.069-.289.021-.094.25-1.085.051-.223.486-2.112h24.417q.319,1.572.63,3.134a.223.223,0,0,1,.011.049l.065.329C3393.728,4150.828,3393.759,4150.98,3393.793,4151.135Z" transform="translate(-3356.424 -4080.32)" fill="#39203f"/>
            <path id="Path_2541" data-name="Path 2541" d="M3371.989,4128.084l-.271.591.124-.591.027-.122c.032.031.057.069.094.1Z" transform="translate(-3352.499 -4098.872)" fill="#eff0f5"/>
            <path id="Path_2542" data-name="Path 2542" d="M3395.779,4174.623c.126,1.022.258,2.043.382,3.066l-8.668.021h-2.874q-3.244.016-6.476.019h-.908l-10.609.028,3.856-18.845h0l5.532-27.052.613-3c.1.108.437.462.535.568l.983,1.044q1.871,1.98,3.737,3.972,1.395-1.593,2.8-3.191,1.18-1.354,2.375-2.712c-.094-.167-.187-.336-.277-.513.045-.056.1-.108.142-.163.021-.024.042-.049.063-.073l2.029.482h.042c1.5.354,2.991.717,4.5,1.072l.833.2.059.014c.3.069.6.141.9.214.35.108.7.223,1.048.336h0a.687.687,0,0,1,.1.031q-.7,5.069-1.408,10.136h0c-.042.226-.077.439-.114.644-.131.739-.25,1.475-.354,2.193-.045.336-.1.668-.149,1,0,0-.059.427-.118.872-.038.253-.095.9-.177,1.866-.226,1.642-.458,3.292-.686,4.937v.013c-.1.708-.2,1.413-.3,2.12.055.436.11.877.163,1.312h0Q3394.574,4164.944,3395.779,4174.623Z" transform="translate(-3357.419 -4099.037)" fill="#00aeef"/>
            <path id="Path_2543" data-name="Path 2543" d="M3384.66,4151.812c.053.35.106.7.159,1.048l4.916,29.065-13.962-.032v-4.19q0-4.162,0-8.325.021-17.9.045-35.778v-2.359q1.181-1.358,2.377-2.712c-.1-.167-.2-.336-.279-.513a1.559,1.559,0,0,1-.108-.208c.081.014.163.027.248.045.692.127,1.386.263,2.094.409h.041c1.448.3,2.928.646,4.44,1.04.293.073.588.15.891.232l.057.013c.663.178,1.312.36,1.955.551h0l.1.027h0q-.7,5.068-1.406,10.136h0c-.091.659-.822,5.92-.913,6.579C3385.295,4147.238,3384.713,4151.426,3384.66,4151.812Z" transform="translate(-3348.579 -4099.021)" fill="#0e3178"/>
            <path id="Path_2544" data-name="Path 2544" d="M3370.817,4151.812l-.173,1.048-5.329,29.065,15.125-.032v-12.516q-.024-17.9-.05-35.778v-2.359q-1.286-1.358-2.572-2.712c.1-.167.2-.336.3-.513a1.475,1.475,0,0,0,.12-.208c-.086.014-.175.027-.271.045-.748.127-1.5.263-2.268.409h-.043c-1.572.3-3.17.646-4.811,1.04-.32.073-.639.15-.965.232l-.063.013q-1.077.267-2.116.551h0l-.108.027h0q.761,5.068,1.524,10.136h0c.1.659.891,5.92.983,6.579Z" transform="translate(-3358.686 -4099.021)" fill="#0e3178"/>
            <path id="Path_2545" data-name="Path 2545" d="M3386.257,4130.3a36.245,36.245,0,0,0-6.7,2.753q-1.266.678-2.36,1.377c-.625.393-1.207.786-1.753,1.18-.341,2.012-.687,4.016-1.031,6.031h0l-.014.081v-.081q-.012-3.174-.023-6.35l.037-.041c.93-1.062,1.86-2.126,2.8-3.192q1.18-1.356,2.375-2.711c-.1-.167-.2-.336-.279-.514-.04-.066-.077-.138-.111-.209-.057-.1-.114-.214-.167-.322-.232-.468-.44-.922-.625-1.358q2.424.734,4.843,1.477c.924.568,1.847,1.141,2.777,1.707.016,0,.037.021.053.031Z" transform="translate(-3349.934 -4099.86)" fill="#eef4ff"/>
            <path id="Path_2546" data-name="Path 2546" d="M3380.221,4141.636v.09a.154.154,0,0,0-.014-.077h0q-.519-3.023-1.035-6.039c-.8-.576-1.693-1.18-2.684-1.77-.453-.274-.93-.545-1.426-.809-.236-.128-.472-.25-.7-.364a36.1,36.1,0,0,0-6-2.387c.059-.04.114-.073.173-.1l2.846-1.751q2.425-.745,4.846-1.477c-.394.768-.783,1.541-1.17,2.311l5.164,5.993Q3380.219,4138.45,3380.221,4141.636Z" transform="translate(-3355.742 -4099.852)" fill="#eef4ff"/>
            <g id="Group_3486" data-name="Group 3486" transform="translate(28.424 39.279)">
              <rect id="Rectangle_1343" data-name="Rectangle 1343" width="8.183" height="3.978" fill="#fff"/>
              <rect id="Rectangle_1344" data-name="Rectangle 1344" width="7.16" height="3.017" transform="translate(0.433 0.471)" fill="#71d6f9" opacity="0.29" style="isolation: isolate"/>
            </g>
            <g id="Group_3487" data-name="Group 3487" transform="translate(0.409 63.26)">
              <path id="Path_2547" data-name="Path 2547" d="M3389.258,4161.469a4.054,4.054,0,0,0,1.416-.307,1.677,1.677,0,0,0,.887-.774,1.179,1.179,0,0,0,.065-.158c.394-1.2-.983-2.822-1.455-3.319-.061-.069-.106-.112-.128-.136a6.287,6.287,0,0,0-1.986-1.376,12.928,12.928,0,0,0-2.617-.787c-.611-.122-1.272-.24-1.992-.362-.12-.067-.246-.142-.4-.219l-.045-.027c-1.7-.946-4.838-2.685-8.081-4.439-2.106-1.142-4.262-2.291-6.1-3.229-.138-.071-.271-.142-.4-.2l-.448-.178h0l-.314-.124-.736-.287-.45-.149a4.579,4.579,0,0,0-2.568.31,2.965,2.965,0,0,0-1.3.953,3.11,3.11,0,0,0-.3,2.643,2.979,2.979,0,0,0,.176.283,4.755,4.755,0,0,0,.816.944c.034.032.069.055.1.081h0l.038.022c.09.053.179.107.27.157.26.159.521.307.787.454,0,0,.218.126.444.246.037.019.163.063.362.131h0c1.744.589,9.167,2.753,14.865,4.063.466.275,1,.6,1.595,1,.035.028.071.053.108.079.379.259.786.544,1.217.861.319.238.646.488.983.762C3386.338,4160.2,3387.4,4161.522,3389.258,4161.469Z" transform="translate(-3362.152 -4145.338)" fill="#fde5d3"/>
              <path id="Path_2548" data-name="Path 2548" d="M3373.2,4152.052c.158.122.464.093,1.923-.82,1.609-1.006,2.633-1.648,2.521-1.905s-1.4.126-3.081.643a2.054,2.054,0,0,0-1.2.714C3373.047,4151.14,3372.934,4151.845,3373.2,4152.052Z" transform="translate(-3351.617 -4141.563)" fill="#fde5d3"/>
            </g>
            <g id="Group_3488" data-name="Group 3488" transform="translate(13.774 3.769)">
              <path id="Path_2549" data-name="Path 2549" d="M3371.834,4124.351s-2.959-.967-2.873,2.683a3.9,3.9,0,0,0,3.451,4.188s.852,6.564,8.849,6.686,7.254-6.149,7.571-10.225,1.421-11.114-3.725-12.11C3379.907,4114.554,3372.3,4114.2,3371.834,4124.351Z" transform="translate(-3368.949 -4115.086)" fill="#fde5d3"/>
            </g>
            <path id="Path_2550" data-name="Path 2550" d="M3391.466,4125a14.447,14.447,0,0,0-4.694-.829,12.082,12.082,0,0,1-4.661-.983,4.323,4.323,0,0,1-2.554-3.736,5.807,5.807,0,0,1-4.256,4.372,36.58,36.58,0,0,0-1.268,9.636,2.8,2.8,0,0,1-.339,1.5.919.919,0,0,1-1.262.3c-.028-.018-.053-.036-.079-.055a1.305,1.305,0,0,1-.071-1.265,22.793,22.793,0,0,0,1.143-4.094,4.562,4.562,0,0,0-1.194-3.919,2.592,2.592,0,0,0-3.667.11c-.027.027-.053.057-.079.086a10.391,10.391,0,0,1,4.173-8.812,15.8,15.8,0,0,1,9.526-3.007,8.44,8.44,0,0,1,7.2,2.848C3391.11,4119.661,3389.8,4122.442,3391.466,4125Z" transform="translate(-3355.633 -4112.116)" fill="#171032"/>
          </g>
          <g id="Group_3490" data-name="Group 3490" transform="translate(134.567 38.976)">
            <rect id="Rectangle_1345" data-name="Rectangle 1345" width="15.99" height="2.094" transform="translate(15.506 40.852)" fill="#eef4ff"/>
            <rect id="Rectangle_1346" data-name="Rectangle 1346" width="47.001" height="28.536" fill="#eef4ff"/>
            <rect id="Rectangle_1347" data-name="Rectangle 1347" width="43.644" height="25.598" transform="translate(1.679 1.398)" fill="#eef4ff"/>
            <rect id="Rectangle_1348" data-name="Rectangle 1348" width="25.739" height="15.097" transform="translate(10.631 6.649)" fill="#eef4ff"/>
            <path id="Path_2551" data-name="Path 2551" d="M3413.43,4167.981h-8.737l1.292-27.321h6.153Z" transform="translate(-3385.56 -4125.574)" fill="#eef4ff"/>
          </g>
          <g id="Group_3492" data-name="Group 3492" transform="translate(0 82.392)">
            <g id="Group_3491" data-name="Group 3491">
              <path id="Path_2552" data-name="Path 2552" d="M3331.056,4159.075v87.23H3524.83v-87.23Z" transform="translate(-3322.163 -4151.193)" fill="#83b7e3"/>
              <rect id="Rectangle_1349" data-name="Rectangle 1349" width="209.341" height="14.159" fill="#60a5da"/>
              <rect id="Rectangle_1350" data-name="Rectangle 1350" width="209.341" height="2.8" fill="#fff"/>
              <rect id="Rectangle_1351" data-name="Rectangle 1351" width="193.772" height="6.82" transform="translate(8.894 88.289)" fill="#60a5da"/>
            </g>
          </g>
        </g>
        <path id="Path_2553" data-name="Path 2553" d="M3384.412,4153.924q-.636,2.323-1.272,4.65l-19.7-7.08a3.616,3.616,0,0,1,2.69-6.54Z" transform="translate(-3292.352 -4082.496)" fill="#0e3178"/>
      </g>
      <g id="Group_3502" data-name="Group 3502" transform="translate(260.207 50.202)">
        <g id="Group_3501" data-name="Group 3501" transform="translate(0 27.887)">
          <g id="Group_3498" data-name="Group 3498" transform="translate(68.446 59.794)">
            <g id="Group_3495" data-name="Group 3495" transform="translate(37.542 92.606)">
              <path id="Path_2554" data-name="Path 2554" d="M3476.114,4210.257a4.279,4.279,0,0,0,5.6,2.279h0a4.28,4.28,0,0,0,2.279-5.606h0a4.282,4.282,0,0,0-5.607-2.279h0a4.281,4.281,0,0,0-2.279,5.606Z" transform="translate(-3475.777 -4204.313)" fill="#1c163f"/>
              <path id="Path_2555" data-name="Path 2555" d="M3476.6,4209.249a3.137,3.137,0,1,0,1.672-4.109A3.147,3.147,0,0,0,3476.6,4209.249Z" transform="translate(-3475.215 -4203.75)" fill="#2e2c60"/>
            </g>
            <g id="Group_3497" data-name="Group 3497">
              <rect id="Rectangle_1352" data-name="Rectangle 1352" width="1.699" height="40.476" transform="translate(0 0.661) rotate(-22.879)" fill="#bbc4f7"/>
              <g id="Group_3496" data-name="Group 3496" transform="translate(15.248 27.044)">
                <path id="Path_2556" data-name="Path 2556" d="M3464.586,4181.065l23.932,56.7a2.013,2.013,0,0,0,2.649,1.034l16.621-7.017a6.75,6.75,0,0,0,3.343-8.937l-20.08-47.573a6.748,6.748,0,0,0-8.729-3.843l-16.623,7.017a2.008,2.008,0,0,0-1.115,2.613Z" transform="translate(-3464.439 -4170.973)" fill="#2e2c60"/>
                <rect id="Rectangle_1353" data-name="Rectangle 1353" width="1.636" height="65.51" transform="matrix(0.921, -0.389, 0.389, 0.921, 9.091, 4.164)" fill="#1c163f"/>
              </g>
            </g>
          </g>
          <g id="Group_3499" data-name="Group 3499" transform="translate(29.186 152.058)">
            <path id="Path_2557" data-name="Path 2557" d="M3435.731,4210.834c.055.252.114.507.173.76.092.419.2.836.279,1.252.983.137,2.346.287,3.982.354a45.784,45.784,0,0,0,9.579-.709,74.889,74.889,0,0,0,9.933-2.248c.014-.525.028-1.047.04-1.562l.4-2.163Z" transform="translate(-3435.7 -4201.838)" fill="#eef4ff"/>
            <path id="Path_2558" data-name="Path 2558" d="M3435.75,4213.119v.015c.177.5,1.148,1.259,8.159.644a93.014,93.014,0,0,0,15.816-2.8.094.094,0,0,0,0-.033h0a8.6,8.6,0,0,0,.546-2.588,8.772,8.772,0,0,0-.657-3.875,18.86,18.86,0,0,1-8.8-.344l-.051.394-.531.084c-.226.041-.478.1-.748.169-.2.048-.393.1-.59.172a.392.392,0,0,0-.122.038l-.067.022h0a.911.911,0,0,0-.114.037c-.166.057-.318.114-.458.175-.02,0-.033.015-.053.021-.317.132-.572.26-.643.293h0c-.084.043-.179.084-.279.132-.041.023-.09.041-.138.066-.132.061-.279.124-.425.2-.185.081-.377.165-.562.241l-.35.151c-.242.1-.468.2-.653.273-.067.03-.132.057-.2.081l-.411.175-.5.208c-.124.058-.238.1-.35.152-.214.09-.413.175-.607.261-.151.062-.293.124-.431.182s-.228.1-.336.15l-.293.128a18.171,18.171,0,0,0-2.655,1.344C3438.877,4209.523,3435.326,4211.837,3435.75,4213.119Z" transform="translate(-3435.715 -4204.138)" fill="#171032"/>
          </g>
          <g id="Group_3500" data-name="Group 3500" transform="translate(0 15.839)">
            <path id="Path_2559" data-name="Path 2559" d="M3442.17,4139.775l-8.336,21.678a4.474,4.474,0,0,0,2.043,5.553,4.3,4.3,0,0,0,4.407-.627,85.956,85.956,0,0,0,11.321-19.533q1.321-3.176,2.641-6.354a14.13,14.13,0,0,0,1.031-5.024,6.348,6.348,0,0,0-.724-3.933,5.013,5.013,0,0,0-4.584-2.146c-1.746.216-2.769,1.491-4.214,3.344A21.3,21.3,0,0,0,3442.17,4139.775Z" transform="translate(-3407.894 -4128.356)" fill="#fde5d3"/>
            <path id="Path_2560" data-name="Path 2560" d="M3454.349,4139.162c-.517,1.7-2.446,6.819-3.876,10.512L3439.252,4169c-3.942-1.249-1.006-10.607-4.955-11.857.214-.647,4.133-10.993,4.458-11.874,1.217-3.308,3-7.725,3.62-9.333,1.432-3.7,2.039-4.865,3.343-5.8a6.33,6.33,0,0,1,5.252-1.119,6.637,6.637,0,0,1,4.13,4.719A9.71,9.71,0,0,1,3454.349,4139.162Z" transform="translate(-3407.153 -4128.854)" fill="#00aeef"/>
            <path id="Path_2561" data-name="Path 2561" d="M3445.722,4161.291c-12.544-12.348-17.612-17.333-17.7-17.421l-.079-.075c-.051-.051-.126-.126-.21-.214-.03-.028-.067-.056-.093-.085-.12-.054-.289-.134-.494-.236-3.736-1.878-7.445-5.941-6.508-8.169a3.076,3.076,0,0,1,2.544-1.516c2.092-.177,3.72,1.825,4.432,2.7a20.359,20.359,0,0,1,2.36,4.2c.114.25.2.456.267.6l.091.1h0l.061.073.329.368q7.274,4.38,14.749,9.258,3.537,2.306,6.936,4.617a5.035,5.035,0,0,1,.938,6.352,5.164,5.164,0,0,1-7.3-.181A4.768,4.768,0,0,1,3445.722,4161.291Z" transform="translate(-3420.494 -4124.3)" fill="#fde5d3"/>
            <path id="Path_3901" data-name="Path 3901" d="M3424.217,4141.451l4.425-4.6,23.893,16.99-3.54,7.433s-4.247,1.594-13.45-7.787S3424.217,4141.451,3424.217,4141.451Z" transform="translate(-3416.895 -4121.125)" fill="#00aeef"/>
          </g>
          <path id="Path_2563" data-name="Path 2563" d="M3460.965,4131.959q-.781.766-1.555,1.421a29.866,29.866,0,0,1-6.855,4.462,13.192,13.192,0,0,1-5.076,1.438c-.083,0-.167.011-.253.011-.246.009-.5.009-.747,0a7.18,7.18,0,0,1-4.863-1.458.841.841,0,0,1-.162-.372,1.214,1.214,0,0,1,.207-.787,5.178,5.178,0,0,1,.7-.852,7.947,7.947,0,0,1,1.919-1.28,21.02,21.02,0,0,0,1.813-1.208c.035-.023.069-.047.1-.072a29.1,29.1,0,0,0,.094-3.365,3.066,3.066,0,0,0-.012-.329v-.115a29.846,29.846,0,0,0-.34-3.4c-.016-.11-.031-.221-.051-.325-.021-.142-.048-.283-.073-.423q5.62-2.25,11.25-4.505c.03.5.057.983.084,1.483.118,2.023.232,4.052.352,6.072Z" transform="translate(-3401.224 -4120.799)" fill="#fde5d3"/>
          <path id="Path_2564" data-name="Path 2564" d="M3454.994,4122.52a34.024,34.024,0,0,1-4.959,3.973c-.435.3-.873.6-1.316.9a18.017,18.017,0,0,1-4.578,2.295h-.016a30.509,30.509,0,0,0-.417-3.873c-.016-.094-.032-.2-.047-.276a.228.228,0,0,1,.073-.026q5.581-2.243,11.178-4.478C3454.943,4121.533,3454.975,4122.022,3454.994,4122.52Z" transform="translate(-3399.117 -4120.572)" fill="#fad0c4"/>
          <path id="Path_2565" data-name="Path 2565" d="M3471.593,4211.518a25.136,25.136,0,0,1-2.189,4.358,20.682,20.682,0,0,1-1.954,2.68c-.726.833-5.013,5.539-9.355,4.735a3.143,3.143,0,0,1-2-1.028,2.666,2.666,0,0,1-.542-1.516h0a5.285,5.285,0,0,1,.648-2.687,6.03,6.03,0,0,1,2.937-2.545c2.094-.9,5.112-3.364,9.108-10.383.11-.2.212-.376.323-.57a.238.238,0,0,0,.021-.041c.023-.032.04-.069.057-.1.065.2.122.375.2.564.015.06.037.12.057.179.051.151.1.3.161.459.394,1.1.832,2.246,1.359,3.433.151.351.307.7.464,1.031C3471.109,4210.572,3471.35,4211.054,3471.593,4211.518Z" transform="translate(-3388.21 -4051.806)" fill="#eef4ff"/>
          <path id="Path_2566" data-name="Path 2566" d="M3468.558,4204.468l2.36,5.63c-.474.913-1.18,2.194-2.1,3.679-.413.66-1.156,1.845-1.844,2.754-.48.627-4.759,6.223-9.326,5.412a5.531,5.531,0,0,1-2.008-.8,3.54,3.54,0,0,1,.156-2.188,20.73,20.73,0,0,1,1.479-3.395,17,17,0,0,0,2.314-6.547l-.291-4.641Z" transform="translate(-3388.215 -4051.853)" fill="#171032"/>
          <path id="Path_2567" data-name="Path 2567" d="M3438.074,4156.56q1.652,24.713,3.312,49.428,2.743,23.722,5.482,47.45l11.748,1.376q-.787-49.635-1.573-99.269Z" transform="translate(-3404.335 -4099.045)" fill="#1b173d"/>
          <path id="Path_2568" data-name="Path 2568" d="M3484.362,4254.241c-.57.142-1.133.281-1.7.429h-.049c-.183.041-.36.088-.543.136q-4.342,1.083-8.68,2.173c-.042-.066-.076-.136-.116-.2a259.71,259.71,0,0,1-13.807-26.97c-1.63-3.71-3.115-7.09-4.523-10.728-1.127-2.932-2.21-6.031-3.271-9.6a232.492,232.492,0,0,1-5.089-23.255c-1.213-6.166-3.011-15.07-5.341-25.945,0-.12.016-.238.023-.356.026-.418.051-.841.083-1.259q.171-2.829.356-5.659,6.842.413,13.7.839,5.325.327,10.641.646a27.2,27.2,0,0,1,1.613,3.438c.135.329.259.679.393,1.045a37.013,37.013,0,0,1,1.485,14.22c-.336,10.718-.787,16.351-.787,16.351q-.322,7.822-.642,15.637c.394.7,1.039,1.9,1.771,3.448a56.276,56.276,0,0,1,2.4,6.124C3473.462,4218.429,3478.154,4233.557,3484.362,4254.241Z" transform="translate(-3401.669 -4101.499)" fill="#0e3178"/>
          <path id="Path_2569" data-name="Path 2569" d="M3468.246,4166.317a29.86,29.86,0,0,0,.02,6.1,38.948,38.948,0,0,0,2.85,11.13l-.259.079a63.031,63.031,0,0,1-10.228,2.128q-.776.094-1.585.173c-.615.057-1.223.108-1.823.146a62.78,62.78,0,0,1-12.749-.45c-1.967-.268-3.762-.606-5.373-.968-.4-.088-.786-.177-1.166-.272.674-7.227,1.046-13.158,1.191-18.054.012-.486.027-.957.031-1.422.051-2.576.042-4.849-.031-6.862-.073-2.147-.2-4-.393-5.612,0,0-.024-.2-.047-.558,0-.079-.01-.167-.016-.266-.035-.612-.067-1.541-.045-2.733a49.034,49.034,0,0,1,.37-5.284,49.929,49.929,0,0,1,1.113-5.959c.088-.36.183-.732.287-1.1a9.218,9.218,0,0,1,1.671-3.511,6.705,6.705,0,0,1,1.18-1.161h0c.647-.507,1.574-1.113,3.129-2.147,1.469-.983,2.613-1.745,3.194-2.132a3.282,3.282,0,0,0-.089.334,1.721,1.721,0,0,0,.13,1.377q1.436,2.179,12.658-2.081.947-.36,1.966-.767l.11.079a18.026,18.026,0,0,1,5.524,6.391c1.479,2.95,1.77,5.758,1.4,10.683-.095,1.242-.234,2.623-.407,4.168-.167,1.485-.329,2.854-.5,4.113-.309,2.393-.615,4.411-.9,6.17C3468.937,4161.519,3468.472,4163.992,3468.246,4166.317Z" transform="translate(-3404.571 -4115.348)" fill="#00aeef"/>
          <path id="Path_2572" data-name="Path 2572" d="M3443.738,4123.313a2.878,2.878,0,0,1,.051.324.423.423,0,0,0-.079-.021c-.016-.094-.032-.2-.047-.276A.286.286,0,0,1,3443.738,4123.313Z" transform="translate(-3399.03 -4118.37)" fill="#1b173d" opacity="0.13" style="isolation: isolate"/>
          <path id="Path_3902" data-name="Path 3902" d="M3440.711,4145.089c-1.363.052-1.113,7.7-1.125,8.686-.028,2.321-.694,5.395.93,7.269,2.252,2.6,5.98,2.657,8.965,2.405,2.055-.176,6.531-.043,7.907-2.056.9-1.3.166-3.641.158-5.106-.008-1.795-.034-3.593-.053-5.389q-.035-3.344-.073-6.691C3451.854,4144.5,3446.284,4144.884,3440.711,4145.089Z" transform="translate(-3403.075 -4101.494)" fill="#0e9bc6"/>
          <path id="Path_2573" data-name="Path 2573" d="M3476.994,4268.5c.014.054.038.111.055.165-.032-.054-.062-.107-.088-.16a.489.489,0,0,1-.055-.093c-.064-.1-.122-.2-.179-.3-.031-.043-.057-.092-.083-.134-8.027-13.754-13.569-28.632-19.085-43.424a50.553,50.553,0,0,1-3.035-10.319,82.507,82.507,0,0,1,0-13.291,63.918,63.918,0,0,0-2.752-19.79q-.676-2.257-1.526-4.468c-.164-.419-.329-.844-.5-1.27-1.573-4-3.272-8.17-2.415-12.2a8.72,8.72,0,0,1,.278-1.036,19.2,19.2,0,0,1,4.487-6.61,28.914,28.914,0,0,0,4.029-5.133c.1-.181.2-.362.3-.565a16.184,16.184,0,0,0,1.562-7.646,33.17,33.17,0,0,0-1.18-7.667,19.886,19.886,0,0,0-2.858-6.783c.512-.4,1.035-.838,1.558-1.312a17.151,17.151,0,0,1,5.526,5.9c1.477,2.723,1.77,5.316,1.4,9.862-.094,1.148-.235,2.422-.409,3.849-.167,1.37-.329,2.635-.5,3.8-.309,2.21-.616,4.073-.895,5.7-.553,3.217-1.017,5.5-1.241,7.646a25.25,25.25,0,0,0,.02,5.628,33.626,33.626,0,0,0,2.847,10.276l-.261.072c.136.3.261.628.393.964a31.613,31.613,0,0,1,1.485,13.127c-.334,9.9-.787,15.1-.787,15.1q-.319,7.226-.643,14.436c.393.646,1.041,1.755,1.77,3.184a49.143,49.143,0,0,1,2.405,5.654c1.2,3.385,5.9,17.354,12.1,36.448C3478.129,4268.239,3477.562,4268.37,3476.994,4268.5Z" transform="translate(-3396.171 -4115.32)" fill="#1b173d" opacity="0.13" style="isolation: isolate"/>
        </g>
        <path id="Path_250-2" data-name="Path 250-2" d="M3441.709,4113.4s-4.146,20.171,2.017,22.637,15.166-3.811,17.37-10.2C3462.974,4120.4,3462.777,4107.46,3441.709,4113.4Z" transform="translate(-3402.256 -4101.538)" fill="#fde5d3"/>
        <path id="Path_3903" data-name="Path 3903" d="M3449.67,4122.271c-.02-.02-.039-.06-.059-.078l-.02-.021a3.745,3.745,0,0,1-.334-1.062A3.829,3.829,0,0,0,3449.67,4122.271Z" transform="translate(-3393.85 -4092.612)" fill="#171032"/>
        <path id="Path_247" data-name="Path 247" d="M3459.26,4127.9s11.693.589,13.569,7.183,1.624,32.52,1.624,32.52a12.338,12.338,0,0,1-10.371,6.651s-11.462,5.271-11.223-3.379S3459.26,4127.9,3459.26,4127.9Z" transform="translate(-3390.764 -4089.082)" fill="#171032"/>
        <path id="Path_248" data-name="Path 248" d="M3459.573,4128.775a8.241,8.241,0,0,1,1.8,2.369c2.295,4.932,1.585,18.228,2.554,19.294a7.277,7.277,0,0,0,3.556,1.432c.588.159,1.258-.209,1.233-.775C3468.194,4139.729,3469.077,4130.271,3459.573,4128.775Z" transform="translate(-3384.405 -4087.942)" fill="#211d49"/>
        <g id="Group_60" data-name="Group 60" transform="translate(53.351 34.965)">
          <path id="Path_263" data-name="Path 263" d="M3465.246,4136.02s-5.7-9.274-9.868-7.707c-5.125,1.927-6.163,11.836,1.516,22.208l4.086,4.327,1.055,3.854s-10.423-9.2-12.875-18.129.769-12.483,5.255-14.013c5.518-1.884,8.161,1.477,11.525,6.132Z" transform="translate(-3448.314 -4126.026)" fill="#171032"/>
          <g id="Group_59" data-name="Group 59" transform="translate(1.937 1.53)">
            <path id="Path_2575" data-name="Path 2575" d="M3468.421,4182.393c-.1,1.3-.675,3.109-3.933,4.149-.445.142-1.621.638-1.621-1.64a5.787,5.787,0,0,0-.4-2.43,5.7,5.7,0,0,0-1.434-2.107l-.033-.031c-.544-.45-1.1.066-1.467.9l-1.77,1.024a10.988,10.988,0,0,1,2.456-7.117s.045-.57-.261-4.468-.96-17.087-2.36-20.452-5.433-13-5.433-13l10.293-1.243a116.69,116.69,0,0,1,2.332,17.166c.492,8.053.57,17.966.59,20.914a1.884,1.884,0,0,0,.561,1.348,8.758,8.758,0,0,1,1.17,1.463,8.28,8.28,0,0,1,1.041,2.336A8.575,8.575,0,0,1,3468.421,4182.393Z" transform="translate(-3446.525 -4117.934)" fill="#fde5d3"/>
            <path id="Path_2576" data-name="Path 2576" d="M3456.791,4158.988a5.089,5.089,0,0,0-.413,1.967c0,1.636-1.1.6-1.317-.558a3.792,3.792,0,0,1-.045-.394Z" transform="translate(-3443.775 -4095.698)" fill="#fde5d3"/>
            <path id="Path_2577" data-name="Path 2577" d="M3468.469,4183.55c-2.655,0-2.282.075-5.945.1,0,0-6.635-32.545-7.412-33.986a69.553,69.553,0,0,1-4.771-10.541c-1.7-5.372-2.008-11.1,4.509-12.265,6.18-1.107,10.9,15.24,12.91,29.967C3467.877,4157.624,3468.378,4182.7,3468.469,4183.55Z" transform="translate(-3449.299 -4126.804)" fill="#00aeef"/>
          </g>
        </g>
        <path id="Path_2579" data-name="Path 2579" d="M3458.618,4158.551a5.682,5.682,0,0,1,1.432,2.107l-3.477,2.006a1.268,1.268,0,0,1-1.732-.465,1.231,1.231,0,0,1-.167-.633,1.272,1.272,0,0,1,.631-1.1l.037-.02,1.77-1.024Z" transform="translate(-3388.885 -4062.26)" fill="#2c234f"/>
        <path id="Path_2580" data-name="Path 2580" d="M3464.917,4156.988a1.269,1.269,0,0,1-.633,1.1l-3.481,2.029a8.427,8.427,0,0,0-1.04-2.336l3.25-1.894a1.267,1.267,0,0,1,1.9,1.1Z" transform="translate(-3384.177 -4064.68)" fill="#2c234f"/>
        <path id="Path_3904" data-name="Path 3904" d="M3439.674,4145.916a.2.2,0,0,1-.071-.011.243.243,0,0,1-.165-.3c.361-1.245.611-2.568.851-3.849a27.068,27.068,0,0,1,1.563-5.858,12.2,12.2,0,0,1,6.531-6.759.246.246,0,0,1,.177.46,11.713,11.713,0,0,0-6.258,6.5,26.848,26.848,0,0,0-1.532,5.751c-.242,1.292-.493,2.627-.861,3.894A.247.247,0,0,1,3439.674,4145.916Z" transform="translate(-3403.01 -4087.562)" fill="#eaeaea"/>
        <path id="Path_3905" data-name="Path 3905" d="M3447.974,4147.953a.2.2,0,0,1-.061.033.246.246,0,0,1-.312-.153c-.421-1.228-.979-2.452-1.522-3.636a26.989,26.989,0,0,1-2.1-5.687,12.2,12.2,0,0,1,1.439-9.29.242.242,0,0,1,.34-.067.245.245,0,0,1,.069.341,11.718,11.718,0,0,0-1.369,8.917,26.846,26.846,0,0,0,2.065,5.584c.547,1.193,1.111,2.431,1.542,3.679A.247.247,0,0,1,3447.974,4147.953Z" transform="translate(-3399.064 -4087.598)" fill="#eaeaea"/>
        <path id="Path_3906" data-name="Path 3906" d="M3446.436,4128.663c-.088-.368-.188-.731-.291-1.095-.212-.76-.393-2.254-1.55-1.741a2.028,2.028,0,0,0-.893.946,10.533,10.533,0,0,0-.633,1.563q-.431,1.258-.861,2.512c-.142.409-.264.913.027,1.231a1.208,1.208,0,0,0,.488.28c.944.357,3.262,1.394,3.921.077a3.5,3.5,0,0,0,.1-1.467A9.385,9.385,0,0,0,3446.436,4128.663Z" transform="translate(-3400.548 -4090.332)" fill="#0e9bc6"/>
        <path id="Path_3907" data-name="Path 3907" d="M3447.7,4128.428a12.69,12.69,0,0,1,9.692-3.387,2.455,2.455,0,0,1,2,.881,2.15,2.15,0,0,1-.114,2.226,4.741,4.741,0,0,1-1.691,1.463,30.674,30.674,0,0,1-8.245,3.2,40.5,40.5,0,0,1-4.4.963c-1.046.14-1.259-.771-.653-1.665a19.667,19.667,0,0,1,1.606-1.7C3446.488,4129.735,3447.063,4129.043,3447.7,4128.428Z" transform="translate(-3398.884 -4090.958)" fill="#0e9bc6"/>
        <path id="Path_3908" data-name="Path 3908" d="M3449.67,4122.271c-.02-.02-.039-.06-.059-.078l-.02-.021a3.745,3.745,0,0,1-.334-1.062A3.829,3.829,0,0,0,3449.67,4122.271Z" transform="translate(-3393.85 -4092.612)" fill="#171032"/>
        <path id="Path_3909" data-name="Path 3909" d="M3470.967,4124.162c.163,3.284-.417,6.853-2.656,8.812-.472.413-.924.806-1.338,1.141-2.418,2.025-4.031,2.851-5.388,2.4a.585.585,0,0,1-.118-.059c-.039-.04-.059-.079-.138-.177a3.838,3.838,0,0,1-.413-1.161c-.236-1.023-.394-2.438-.61-3.874,2.01-2.232,1.617-8.076-2.438-5.406-1.646,1.081-1.351,3.13-1.416,4.835l-4.248.177a30.011,30.011,0,0,0-.157-3.441,14.36,14.36,0,0,0-1.611-5.584c-.912-1.469-1.935-1.1-3.355-.948a8.4,8.4,0,0,1-5.126-.985c-3.844-2.2-7.636-10.973-1.608-12.934,3.284-1.066,6.168.578,8.977,2.214,3.975,2.317,7.974,1.76,12.318,2.132,4.718.4,7.622,4.318,8.7,8.627A22.21,22.21,0,0,1,3470.967,4124.162Z" transform="translate(-3405.249 -4106.618)" fill="#171032"/>
      </g>
      <g id="Group_5641" data-name="Group 5641" transform="translate(-104.22 171.29)">
        <rect id="Rectangle_1987" data-name="Rectangle 1987" width="121.448" height="8.935" transform="translate(6.639 3.07)" fill="#274fa0"/>
        <g id="Group_5637" data-name="Group 5637" transform="translate(0 0.035)">
          <g id="Group_5636" data-name="Group 5636">
            <g id="Group_5635" data-name="Group 5635" transform="translate(6.639)">
              <rect id="Rectangle_1988" data-name="Rectangle 1988" width="5.123" height="72.687" fill="#003265"/>
            </g>
            <rect id="Rectangle_1989" data-name="Rectangle 1989" width="18.41" height="5.727" transform="translate(0 72.614)" fill="#003265"/>
          </g>
        </g>
        <g id="Group_5640" data-name="Group 5640" transform="translate(117.668)">
          <g id="Group_5639" data-name="Group 5639">
            <g id="Group_5638" data-name="Group 5638" transform="translate(6.64)">
              <rect id="Rectangle_1990" data-name="Rectangle 1990" width="5.129" height="72.682" fill="#003265"/>
            </g>
            <rect id="Rectangle_1991" data-name="Rectangle 1991" width="18.41" height="5.727" transform="translate(0 72.61)" fill="#003265"/>
          </g>
        </g>
        <rect id="Rectangle_1992" data-name="Rectangle 1992" width="1.988" height="8.931" transform="translate(122.338 3.071)" fill="#002846"/>
        <rect id="Rectangle_1993" data-name="Rectangle 1993" width="1.988" height="8.931" transform="translate(11.765 3.075)" fill="#002846"/>
      </g>
    </g>
  </g>
</svg>
