<svg xmlns="http://www.w3.org/2000/svg" width="49.578" height="38.045" viewBox="0 0 49.578 38.045">
  <g id="Group_14693" data-name="Group 14693" transform="translate(-1084.055 -751.362)">
    <path id="Path_21151" data-name="Path 21151" d="M1094.9,775.893a11.451,11.451,0,0,0,4.112,5.789,11.276,11.276,0,0,0,14.736-1.131,11.52,11.52,0,0,0,.247-15.933,11.307,11.307,0,0,0-7.565-3.586Z" fill="#fff"/>
    <path id="Path_21152" data-name="Path 21152" d="M1105.713,784.365a11.659,11.659,0,0,1-6.724-2.116,11.818,11.818,0,0,1-4.311-5.618l12.376-15.942h.006a11.744,11.744,0,0,1,7.444,3.894,11.933,11.933,0,0,1-.465,16.3,11.744,11.744,0,0,1-8.326,3.484Zm4.553-28.749-26.211,33.791h32.366l11.667-33.791Z" fill="#009744"/>
    <path id="Path_21153" data-name="Path 21153" d="M1115.365,777.933a19.3,19.3,0,0,0-2.663-1.214,12.675,12.675,0,0,0,.716-4.038h3.36a11.2,11.2,0,0,1-1.413,5.252Zm-3.944,4.111a7.284,7.284,0,0,0-1.12-1.232,12.454,12.454,0,0,0,2.271-3.733,19.762,19.762,0,0,1,2.615,1.184,11.328,11.328,0,0,1-3.766,3.781Zm-4.654,1.55a12.5,12.5,0,0,0,3.283-2.5,6.7,6.7,0,0,1,1.037,1.136,11.009,11.009,0,0,1-4.32,1.364Zm1.466-3.618a6.666,6.666,0,0,1,1.519.883,12.055,12.055,0,0,1-3.456,2.549,18.641,18.641,0,0,0,1.937-3.432Zm-2.337-.493a6.735,6.735,0,0,1,1.972.361,17.771,17.771,0,0,1-1.972,3.473Zm-.376,3.822a17.856,17.856,0,0,1-1.966-3.457,6.662,6.662,0,0,1,1.966-.366Zm-3.843-2.446a6.958,6.958,0,0,1,1.515-.883,19.247,19.247,0,0,0,1.931,3.431,11.953,11.953,0,0,1-3.444-2.548Zm-1.339,1.382a7.056,7.056,0,0,1,1.043-1.141,12.351,12.351,0,0,0,3.277,2.488,11.1,11.1,0,0,1-4.32-1.346Zm-1.484-5.161a12.611,12.611,0,0,0,2.277,3.737,7.437,7.437,0,0,0-1.127,1.238,10.934,10.934,0,0,1-3.754-3.785,20.356,20.356,0,0,1,2.6-1.19Zm-.47-4.4h3.283a19.434,19.434,0,0,0,.286,3.131,20.157,20.157,0,0,0-2.866.776,12.521,12.521,0,0,1-.7-3.906Zm3.944-3.468a20.234,20.234,0,0,0,3.194.294v2.79h-3.474a18.964,18.964,0,0,1,.28-3.083Zm1.085-3.737a6.806,6.806,0,0,0,2.109.391v3.263a19.526,19.526,0,0,1-3.128-.289,18.647,18.647,0,0,1,1.019-3.365Zm4.606.018a17.676,17.676,0,0,1,1.013,3.347,19.511,19.511,0,0,1-3.135.289v-3.257a7.1,7.1,0,0,0,2.122-.378Zm1.978-1.069a12.362,12.362,0,0,1,2.2,3.611,20.992,20.992,0,0,1-2.8.747,17.982,17.982,0,0,0-1.019-3.425,6.842,6.842,0,0,0,1.621-.932Zm-3.24-3.047a10.947,10.947,0,0,1,4.342,1.364,6.311,6.311,0,0,1-1.066,1.16,12.679,12.679,0,0,0-3.276-2.524Zm8.418,5.331a20.627,20.627,0,0,1-2.622,1.19,12.631,12.631,0,0,0-2.27-3.715,7.16,7.16,0,0,0,1.148-1.249,11.171,11.171,0,0,1,3.744,3.774Zm-5.415,5.588a20.186,20.186,0,0,0-.286-3.142,20.945,20.945,0,0,0,2.86-.77,12.247,12.247,0,0,1,.709,3.912Zm-.282,3.516a19.463,19.463,0,0,0,.28-3.131h3.283a12.449,12.449,0,0,1-.691,3.9,20.078,20.078,0,0,0-2.872-.769Zm-.078.372a19.641,19.641,0,0,1,2.819.758,12.251,12.251,0,0,1-2.21,3.635,7.1,7.1,0,0,0-1.633-.95,18.181,18.181,0,0,0,1.025-3.443Zm-3.5-.348a20.22,20.22,0,0,1,3.135.29,17.851,17.851,0,0,1-1.013,3.365,6.739,6.739,0,0,0-2.122-.384Zm-2.848,3.8a7.033,7.033,0,0,0-1.627.943,12.226,12.226,0,0,1-2.216-3.629,19.914,19.914,0,0,1,2.818-.757,19.3,19.3,0,0,0,1.025,3.443Zm-.655-3.507a20.133,20.133,0,0,1,3.128-.283V779.1a6.8,6.8,0,0,0-2.121.4,18.379,18.379,0,0,1-1.007-3.376Zm6.989-3.443a19.426,19.426,0,0,1-.28,3.071,20.263,20.263,0,0,0-3.206-.3v-2.776Zm-3.485-3.174a20.13,20.13,0,0,0,3.194-.294,18.312,18.312,0,0,1,.292,3.083H1105.9Zm-3.85,3.174h3.474v2.775a19.558,19.558,0,0,0-3.194.3,18.236,18.236,0,0,1-.28-3.077Zm14.73-.386h-3.36a12.585,12.585,0,0,0-.734-4.039,20.969,20.969,0,0,0,2.681-1.226,11.227,11.227,0,0,1,1.413,5.264Zm-9.719-11.61-.268.336-.208.275-.054.066-.184.236a11.876,11.876,0,0,1,3.389,2.542,6.622,6.622,0,0,1-1.508.864,18.357,18.357,0,0,0-1.9-3.383l-.238.314a18.531,18.531,0,0,1,1.781,3.2,6.523,6.523,0,0,1-1.972.354v-3.318l-.375.487v2.824a6.579,6.579,0,0,1-1.925-.348c-.012,0-.894,1.154-.894,1.154a18.85,18.85,0,0,0-.672,2.487c-.363-.073-.715-.151-1.072-.241l-.257.331c.417.108.835.2,1.258.282a19.6,19.6,0,0,0-.292,3.143h-3.285l.017-.457-.649.841h.25a13.019,13.019,0,0,0,.735,4.04,19.969,19.969,0,0,0-2.676,1.22,11.515,11.515,0,0,1-.856-1.977l-.263.336-.256.337a11.805,11.805,0,0,0,4.306,5.619,11.714,11.714,0,0,0,15.052-1.371,11.927,11.927,0,0,0,.462-16.3,11.767,11.767,0,0,0-7.445-3.895" fill="#f15a22"/>
    <path id="Path_21154" data-name="Path 21154" d="M1106.869,775.15l2.782,1.286-1.324-2.842,3.593-.89v-.432l-3.591-.9,1.37-2.9-2.854,1.346-.888-5.15h-.506l-.87,5.138-2.844-1.336,1.335,2.907-3.581.9v.421l3.581.877-1.293,2.872,2.8-1.271.87,5.144.494-.005Z" fill="#fff"/>
    <path id="Path_21155" data-name="Path 21155" d="M1105.722,764.947l.929,5.264,2.5-1.2-1.186,2.518,3.749.95-3.749.937,1.139,2.475-2.454-1.136-.949,5.217-.917-5.216-2.461,1.136,1.132-2.475-3.742-.937,3.742-.95-1.174-2.518,2.5,1.183Z" fill="#00a651"/>
    <path id="Path_21156" data-name="Path 21156" d="M1096.26,774.192a12.891,12.891,0,0,0,4.63,6.518,12.7,12.7,0,0,0,16.591-1.273,12.97,12.97,0,0,0,.278-17.94,12.735,12.735,0,0,0-8.517-4.037Z" fill="#fff"/>
    <path id="Path_21157" data-name="Path 21157" d="M1108.441,783.73a13.137,13.137,0,0,1-7.572-2.381,13.312,13.312,0,0,1-4.854-6.326l13.936-17.95h.006a13.226,13.226,0,0,1,8.382,4.384,13.437,13.437,0,0,1-.524,18.351,13.222,13.222,0,0,1-9.374,3.922Zm5.126-32.368-29.511,38.045H1120.5l13.136-38.045Z" fill="#009744"/>
    <path id="Path_21158" data-name="Path 21158" d="M1119.308,776.489a21.784,21.784,0,0,0-3-1.367,14.254,14.254,0,0,0,.806-4.546h3.784a12.629,12.629,0,0,1-1.59,5.913Zm-4.441,4.628a8.3,8.3,0,0,0-1.262-1.387,14,14,0,0,0,2.556-4.2,22.211,22.211,0,0,1,2.945,1.335,12.752,12.752,0,0,1-4.239,4.256Zm-5.24,1.745a14.087,14.087,0,0,0,3.7-2.815,7.541,7.541,0,0,1,1.168,1.279,12.4,12.4,0,0,1-4.863,1.536Zm1.652-4.073a7.488,7.488,0,0,1,1.711.994,13.566,13.566,0,0,1-3.891,2.868,20.893,20.893,0,0,0,2.181-3.863Zm-2.629-.556a7.543,7.543,0,0,1,2.221.406,19.942,19.942,0,0,1-2.221,3.911Zm-.425,4.306a20.145,20.145,0,0,1-2.214-3.889,7.493,7.493,0,0,1,2.214-.413Zm-4.328-2.755a7.906,7.906,0,0,1,1.7-.995,21.7,21.7,0,0,0,2.174,3.864,13.5,13.5,0,0,1-3.878-2.868Zm-1.51,1.557a7.923,7.923,0,0,1,1.175-1.286,13.883,13.883,0,0,0,3.689,2.8,12.5,12.5,0,0,1-4.864-1.515Zm-1.67-5.813a14.213,14.213,0,0,0,2.563,4.209,8.351,8.351,0,0,0-1.268,1.394,12.321,12.321,0,0,1-4.227-4.263,22.926,22.926,0,0,1,2.932-1.34Zm-.53-4.953h3.7a21.911,21.911,0,0,0,.322,3.525,22.784,22.784,0,0,0-3.227.873,14.1,14.1,0,0,1-.792-4.4Zm4.441-3.9a22.823,22.823,0,0,0,3.6.331v3.139h-3.911a21.461,21.461,0,0,1,.315-3.47Zm1.222-4.208a7.646,7.646,0,0,0,2.376.44v3.674a22.11,22.11,0,0,1-3.522-.325,21.026,21.026,0,0,1,1.146-3.789Zm5.186.02a19.827,19.827,0,0,1,1.14,3.769,21.983,21.983,0,0,1-3.529.325v-3.667a8.008,8.008,0,0,0,2.389-.427Zm2.227-1.2a13.936,13.936,0,0,1,2.476,4.066,23.859,23.859,0,0,1-3.154.839,20.208,20.208,0,0,0-1.146-3.857,7.687,7.687,0,0,0,1.825-1.049Zm-3.649-3.431a12.318,12.318,0,0,1,4.891,1.535,7.158,7.158,0,0,1-1.2,1.306,14.26,14.26,0,0,0-3.69-2.841Zm9.479,6a23.041,23.041,0,0,1-2.952,1.34,14.233,14.233,0,0,0-2.556-4.18,8.049,8.049,0,0,0,1.3-1.407,12.6,12.6,0,0,1,4.213,4.247Zm-6.1,6.292a22.928,22.928,0,0,0-.323-3.538,23.712,23.712,0,0,0,3.221-.864,13.817,13.817,0,0,1,.8,4.4Zm-.316,3.958a21.9,21.9,0,0,0,.315-3.525h3.7a14.026,14.026,0,0,1-.779,4.391,22.9,22.9,0,0,0-3.233-.864Zm-.088.422a22.22,22.22,0,0,1,3.174.852,13.787,13.787,0,0,1-2.49,4.094,7.948,7.948,0,0,0-1.836-1.071,20.5,20.5,0,0,0,1.153-3.877Zm-3.944-.395a22.809,22.809,0,0,1,3.529.325,20.106,20.106,0,0,1-1.141,3.789,7.593,7.593,0,0,0-2.388-.432Zm-3.207,4.277a7.9,7.9,0,0,0-1.831,1.06,13.755,13.755,0,0,1-2.5-4.085,22.374,22.374,0,0,1,3.173-.853,21.64,21.64,0,0,0,1.154,3.878Zm-.738-3.952a22.731,22.731,0,0,1,3.523-.317v3.673a7.674,7.674,0,0,0-2.389.449,20.636,20.636,0,0,1-1.134-3.8Zm7.869-3.874a22.007,22.007,0,0,1-.315,3.457,22.874,22.874,0,0,0-3.609-.335v-3.126Zm-3.925-3.573a22.574,22.574,0,0,0,3.6-.331,20.714,20.714,0,0,1,.329,3.471h-3.924Zm-4.334,3.573h3.912V773.7a22,22,0,0,0-3.6.338,20.432,20.432,0,0,1-.315-3.464Zm16.585-.436h-3.783a14.2,14.2,0,0,0-.825-4.546,23.887,23.887,0,0,0,3.019-1.38,12.655,12.655,0,0,1,1.59,5.926Zm-10.942-13.072-.3.379-.234.311-.061.075-.208.264a13.371,13.371,0,0,1,3.818,2.862,7.455,7.455,0,0,1-1.7.974,20.745,20.745,0,0,0-2.14-3.811l-.269.354a20.828,20.828,0,0,1,2.006,3.606,7.361,7.361,0,0,1-2.22.4v-3.735l-.423.55v3.181a7.448,7.448,0,0,1-2.167-.393c-.013,0-1.006,1.3-1.006,1.3a21.339,21.339,0,0,0-.758,2.8c-.409-.081-.805-.169-1.208-.271l-.288.372c.47.122.939.231,1.415.318a22.105,22.105,0,0,0-.328,3.539h-3.7l.02-.515-.731.948h.282a14.633,14.633,0,0,0,.823,4.545,22.393,22.393,0,0,0-3.012,1.374,12.964,12.964,0,0,1-.966-2.226l-.295.378-.289.379a13.294,13.294,0,0,0,4.849,6.327,13.188,13.188,0,0,0,16.947-1.545,13.427,13.427,0,0,0,.52-18.352,13.242,13.242,0,0,0-8.382-4.386" fill="#f15a22"/>
    <path id="Path_21159" data-name="Path 21159" d="M1109.741,773.356l3.133,1.448-1.489-3.2,4.044-1v-.488l-4.044-1.014,1.543-3.268-3.214,1.516-1-5.8h-.571l-.979,5.785-3.2-1.5,1.5,3.275-4.032,1.007v.474l4.032.988-1.456,3.233,3.146-1.433.98,5.791.556-.006Z" fill="#fff"/>
    <path id="Path_21160" data-name="Path 21160" d="M1108.45,761.867l1.047,5.927,2.817-1.346-1.335,2.835,4.22,1.07-4.22,1.054,1.281,2.79-2.765-1.279-1.065,5.871-1.032-5.873-2.771,1.279,1.275-2.789-4.214-1.053,4.213-1.069-1.322-2.836,2.819,1.333Z" fill="#00a651"/>
  </g>
</svg>
