<svg xmlns="http://www.w3.org/2000/svg" width="38.85" height="21.413" viewBox="0 0 38.85 21.413">
  <g id="Group_14692" data-name="Group 14692" transform="translate(-539.055 -1109.362)">
    <path id="Path_21146" data-name="Path 21146" d="M553.382,1109.428c-3.113-.429-4.694,1.318-6.873,2.919l-7.454,5.9,1.435.765.01.006a6.269,6.269,0,0,0,6.231-.711l3.147-2.523,1.206-.965,5.992-4.8Z" fill="#7bcbe2"/>
    <path id="Path_21147" data-name="Path 21147" d="M566.111,1113.074l-4-.73a6.507,6.507,0,0,0-5.113,1.15s-1.718,1.29-2.985,2.287l-2.819,2.251-6.519,5.229-.054.044,1.968,1.05a6.264,6.264,0,0,0,6.241-.708l5.829-4.657,4.7-3.733Z" fill="#8f174f"/>
    <path id="Path_21148" data-name="Path 21148" d="M554.012,1115.785c1.265-1,2.983-2.287,2.983-2.287a5.778,5.778,0,0,1,1.348-.785l-7.263,2.122-1.206.964-3.145,2.523a6.263,6.263,0,0,1-6.232.711c1.592.962,4.064,1.183,7.788.063l2.543-.764.362-.291Zm10.25,2.242a15.673,15.673,0,0,1,3.006-2.041l-8.13,2.63-.482.379-5.833,4.656a6.264,6.264,0,0,1-6.241.708c2.87,1.589,7.29.42,11.007-.913l.221-.181s6.222-5.076,6.444-5.238Zm9.552,5.282c-3.263-.956-4.242-.351-8.087.815l-.321.269-.009.006-6.2,4.954a6.56,6.56,0,0,1-6.391.652c2.3,1.216,4.684.915,8.759-.365l16.336-5.058Z" fill="#c8c4c3"/>
    <path id="Path_21149" data-name="Path 21149" d="M574.9,1116.476l-4.319-.79c-2.588-.487-3.812.365-6.325,2.343-.222.163-6.443,5.238-6.443,5.238l-6.985,5.684,1.967,1.049a6.559,6.559,0,0,0,6.409-.644l6.2-4.955.009-.006Z" fill="#8f174f"/>
    <path id="Path_21150" data-name="Path 21150" d="M559.132,1118.616l-14.509,4.693,6.21-4.986,13.808-4.084Zm6.6,5.508-14.9,4.824,6.762-5.5,15.042-5.077Z" fill="#b4175e"/>
  </g>
</svg>
