<svg xmlns="http://www.w3.org/2000/svg" width="49.565" height="60.877" viewBox="0 0 49.565 60.877">
  <g id="Group_14688" data-name="Group 14688" transform="translate(-1193.055 -609.362)">
    <path id="Path_21131" data-name="Path 21131" d="M1211.311,638.628c-.2.027-.413-.261-.508-.4-.027-.042-.137-.27-.107-.3s.261.042.324.093a.969.969,0,0,1,.333.561.052.052,0,0,1,0,.017.044.044,0,0,1-.008.015.046.046,0,0,1-.013.011.048.048,0,0,1-.017,0Zm-4.72-2.659c-.134.051-.461-.327-.553-.465-.169-.258-.336-.542-.514-.791a1.406,1.406,0,0,1-.389-.771c0-.045-.033-.162,0-.162.181,0,.353.336.443.462s.139.18.2.273.125.3.217.432.249.3.371.461a1.041,1.041,0,0,1,.191.273c.017.06.074.279.035.3Zm-1.349-.054c-.1,0-.143-.072-.2-.12a.762.762,0,0,1-.222-.272.78.78,0,0,1-.076-.343c0-.03,0-.039.027-.039.2,0,.4.3.476.453a.572.572,0,0,1,.065.243c0,.054-.024.078-.053.081Zm-4.482.926a.075.075,0,0,1-.021.035.066.066,0,0,1-.036.016c-.214,0-.276-.333-.371-.48a3.832,3.832,0,0,0-.238-.371,2.486,2.486,0,0,1-.176-.276,2.634,2.634,0,0,0-.154-.372c-.039-.06-.1-.111-.14-.165a2.189,2.189,0,0,1-.3-.53c-.03-.081-.03-.156-.054-.222-.044-.123-.1-.252-.139-.381a.663.663,0,0,1-.021-.243c0-.021.015-.033.03-.03.163.027.321.432.4.579s.226.3.3.45.089.335.169.479a3.1,3.1,0,0,0,.232.3,3.591,3.591,0,0,1,.241.471c.077.17.187.3.256.47a.516.516,0,0,1,.021.27Zm-.848-6.229a1.971,1.971,0,0,1-.115-.246c-.033-.093-.039-.177-.078-.264-.125-.3-.267-.6-.4-.881a.764.764,0,0,1-.074-.488c0-.021.05,0,.068,0a1.075,1.075,0,0,1,.11.1c.027.042.036.084.062.126a2.616,2.616,0,0,1,.191.3c.1.231.13.489.234.714.069.149.182.278.256.431a1.772,1.772,0,0,1,.083.255,1.157,1.157,0,0,1,.018.2c0,.075,0,.126-.036.126-.2,0-.255-.258-.33-.4Zm42.7,19.218c-.249-.93-2.93-.531-5.136-.735a30.941,30.941,0,0,1-7.674-1.645,55.286,55.286,0,0,1-8.138-3.532s-.99-.527-1.094-.6c-.2-.126-.363-.216-.562-.342a4.541,4.541,0,0,0-.437-.243,2.911,2.911,0,0,1-.434-.257c-.151-.093-.356-.2-.508-.3-.226-.141-.366-.252-.577-.408a4.23,4.23,0,0,0-.374-.234c-.1-.063-.3-.171-.39-.234-.2-.131-.321-.242-.517-.38-.122-.084-.208-.138-.353-.228a4.327,4.327,0,0,1-.4-.3,2.1,2.1,0,0,1-.235-.177c-.142-.141-.3-.266-.433-.392a4.993,4.993,0,0,0-.405-.336c-.086-.063-.232-.192-.318-.255-.22-.162-.359-.282-.579-.447-.143-.1-.262-.245-.4-.353s-.3-.258-.466-.375a2.408,2.408,0,0,1-.3-.255c-.107-.126-.209-.213-.316-.341s-.237-.189-.327-.285a2.937,2.937,0,0,0-.508-.5,1.367,1.367,0,0,1-.178-.2,1.475,1.475,0,0,0-.17-.135c-.089-.09-.115-.116-.154-.152s-.083-.081-.2-.2a2.394,2.394,0,0,1-.164-.213c-.056-.078-.107-.15-.142-.189l-.256-.276-.175-.21a1.107,1.107,0,0,1-.113-.152,1.2,1.2,0,0,0-.107-.147c-.066-.072-.113-.048-.125-.039a.187.187,0,0,0,0,.2,2.825,2.825,0,0,0,.187.3l.027.039c.021.033.041.069.059.1a1.747,1.747,0,0,0,.095.156,2.941,2.941,0,0,0,.256.3l.083.09a1.443,1.443,0,0,1,.149.2,1.671,1.671,0,0,0,.149.2.8.8,0,0,1,.077.1.8.8,0,0,0,.089.111l.149.15q.116.126.243.24c.063.054.125.12.191.186.166.2.341.4.49.6a1.7,1.7,0,0,0,.333.264,1.727,1.727,0,0,1,.27.327c.063.075.2.2.271.285a2.236,2.236,0,0,0,.49.491,1.622,1.622,0,0,1,.333.318c.06.078.247.264.315.348a.9.9,0,0,1,.235.449c-.122.033-.419-.233-.594-.347a2.582,2.582,0,0,1-.3-.24,2.716,2.716,0,0,1-.324-.282,3.88,3.88,0,0,1-.27-.3,4.828,4.828,0,0,0-.615-.6c-.2-.2-.461-.387-.663-.57l-.179-.2c-.068-.066-.151-.129-.208-.194a2.809,2.809,0,0,0-.333-.441c-.118-.09-.205-.174-.323-.264-.042-.03-.081-.084-.122-.12a.914.914,0,0,1-.17-.147l-.41-.539c-.065-.084-.155-.156-.22-.246-.137-.189-.247-.387-.383-.57-.191-.251-.464-.431-.648-.686s-.3-.567-.479-.842a2.7,2.7,0,0,0-.279-.3.914.914,0,0,1-.122-.216c-.095-.147-.205-.3-.3-.432-.125-.186-.211-.392-.336-.6a1.864,1.864,0,0,0-.143-.273q-.123-.168-.229-.348c-.086-.138-.131-.23-.19-.326s-.1-.186-.146-.255-.13-.192-.163-.243c-.116-.18-.146-.264-.268-.432-.074-.1-.151-.186-.217-.162s-.035.1-.023.144a1,1,0,0,0,.11.228c.095.177.127.261.231.423.048.078.131.255.2.351s.13.212.178.3a3.58,3.58,0,0,0,.193.4,2.494,2.494,0,0,1,.173.3,4.866,4.866,0,0,0,.327.515l.2.39c.136.207.3.405.434.618l.246.449c.081.123.191.228.271.354s.151.3.246.459.176.224.25.341c.131.2.247.39.384.579.074.1.175.192.249.3s.187.3.3.431a2.705,2.705,0,0,1,.265.3c.152.183.523.719.461.722-.22.03-.639-.455-.818-.632a4.2,4.2,0,0,1-.386-.369c-.14-.2-.244-.408-.384-.6-.05-.069-.127-.123-.178-.186a3.306,3.306,0,0,0-.3-.372c-.048-.045-.095-.087-.14-.138-.172-.225-.315-.464-.484-.7-.069-.1-.161-.18-.229-.276s-.089-.138-.14-.222-.154-.21-.223-.3a2.481,2.481,0,0,1-.133-.233c-.09-.141-.212-.261-.3-.4s-.092-.267-.166-.381c-.187-.3-.393-.6-.577-.881-.047-.075-.065-.159-.113-.234-.148-.237-.3-.5-.437-.734-.056-.087-.077-.186-.133-.273s-.173-.189-.241-.3a1.913,1.913,0,0,1-.113-.264c-.057-.123-.131-.245-.193-.362s-.06-.147-.1-.216a7.87,7.87,0,0,1-.473-.9c-.077-.162-.19-.318-.264-.48s-.167-.369-.25-.546l-.128-.359c-.089-.192-.22-.351-.3-.549-.06-.132-.089-.258-.143-.369s-.1-.126-.146-.093-.053.09-.023.2a4.4,4.4,0,0,0,.217.543c.1.228.151.462.255.692.057.126.137.249.193.372.1.216.194.438.3.645.056.122.1.236.166.35a2.108,2.108,0,0,1,.113.2c.063.147.083.3.149.441s.178.267.243.41a18.509,18.509,0,0,0,1.1,2.1c.116.183.173.4.3.6s.3.333.4.519.122.363.211.527a6.984,6.984,0,0,0,.455.687c.038.063.05.138.092.2s.125.177.181.263.113.261.2.372.211.222.3.345.182.327.3.48c.077.1.2.179.276.284.128.168.559.747.684.9a6.233,6.233,0,0,1,.692.938c.048.1.22.339.184.387-.092.062-.52-.414-.594-.486a5.937,5.937,0,0,1-.49-.615c-.036-.045-.449-.455-.485-.5s-.083-.111-.119-.165c-.113-.174-.184-.384-.3-.549a1.57,1.57,0,0,1-.217-.206c-.095-.126-.16-.273-.253-.4-.148-.2-.335-.384-.481-.6s-.274-.482-.434-.7c-.08-.108-.184-.207-.262-.324-.032-.054-.047-.105-.08-.156a2.486,2.486,0,0,1-.184-.3,2.274,2.274,0,0,0-.125-.264c-.169-.27-.339-.555-.508-.822-.078-.12-.119-.251-.2-.371-.125-.2-.3-.378-.414-.579s-.231-.524-.38-.761c-.1-.156-.214-.3-.3-.462s-.164-.369-.259-.545-.2-.3-.273-.462-.137-.342-.22-.519c-.045-.093-.113-.186-.155-.284s-.065-.243-.119-.36c-.148-.33-.368-.642-.52-.968-.11-.234-.205-.477-.3-.723a3.866,3.866,0,0,0-.131-.389c-.134-.3-.3-.618-.434-.918-.055-.16-.112-.319-.169-.479a1.069,1.069,0,0,0-.033-.138c-.062-.141-.143-.279-.2-.42l-.152-.489c-.208-.53-.4-1.127-.594-1.678-.027-.1-.033-.225-.069-.333l-.3-.848c-.056-.144-.193-.093-.16.051.041.2.068.243.1.395.015.078.03.156.047.234s.069.2.1.285c.054.168.057.336.113.5.081.227.161.449.235.683.021.117.048.234.069.351a1.627,1.627,0,0,0,.116.321c.115.3.225.566.326.851l.122.488c.042.09.1.186.143.273s.042.153.077.234c.072.183.14.372.22.555s.149.3.208.47c.027.078.027.147.054.225.175.486.362.992.567,1.448.051.114.066.234.116.351s.1.2.146.3l.062.186c.063.135.173.249.235.381a7.468,7.468,0,0,0,.553,1.055,6.425,6.425,0,0,1,.449,1.046,3.481,3.481,0,0,0,.264.459,2.109,2.109,0,0,1,.113.246,4.229,4.229,0,0,0,.274.509,1.421,1.421,0,0,1,.146.36,2.258,2.258,0,0,1,.1.408c-.033.021-.2-.084-.262-.15a1.407,1.407,0,0,1-.3-.4c-.042-.1-.128-.261-.173-.354a5.742,5.742,0,0,0-.425-.644,3.835,3.835,0,0,1-.187-.4c-.113-.246-.244-.5-.359-.752a3.314,3.314,0,0,0-.182-.3c-.062-.1-.092-.2-.154-.3a6.531,6.531,0,0,1-.4-.7c-.08-.174-.122-.348-.2-.519a1.287,1.287,0,0,0-.1-.156,2.666,2.666,0,0,1-.125-.284c-.062-.132-.151-.255-.214-.393-.119-.267-.19-.546-.315-.809-.056-.123-.154-.228-.214-.354-.089-.189-.095-.426-.184-.624-.229-.521-.49-1.064-.687-1.612-.029-.09-.038-.2-.068-.3-.083-.237-.2-.459-.3-.7-.039-.107-.048-.2-.086-.3-.057-.159-.131-.327-.191-.489a1.333,1.333,0,0,0-.041-.165c-.069-.15-.11-.33-.182-.488-.035-.081-.092-.165-.124-.255-.057-.156-.039-.357-.1-.507-.077-.225-.172-.461-.252-.683-.048-.126-.054-.252-.1-.381s-.069-.321-.128-.468-.054-.314-.1-.479-.086-.249-.128-.36c-.077-.216-.1-.444-.184-.644l-.039-.111c-.021-.054-.056-.108-.113-.093s-.059.1-.056.15a1.654,1.654,0,0,0,.113.431c.047.135.074.279.11.411.02.081.018.174.038.264s.075.246.11.371,0,.243.039.342c.08.27.166.573.259.831.038.131.044.284.08.4l.148.411c.042.114.054.225.1.333a3.634,3.634,0,0,1,.146.362c.051.168.048.33.1.486.092.255.205.5.3.743.027.087.036.183.069.273.074.213.128.441.2.654.11.3.25.6.357.9s.118.65.243.929c.063.138.193.219.253.351a2.1,2.1,0,0,1,.056.285c.036.114.09.224.128.329a2.834,2.834,0,0,1,.077.285,3.686,3.686,0,0,0,.164.333,3.852,3.852,0,0,0,.22.518,3.283,3.283,0,0,1,.232.363c.068.147.092.3.16.459.1.225.217.44.3.674a4.752,4.752,0,0,0,.206.627c.1.186.222.35.324.536l.187.411c.053.111.151.21.211.324s.151.3.214.428a2.195,2.195,0,0,0,.128.3c.092.144.157.261.249.408a2.614,2.614,0,0,1,.229.446,1.6,1.6,0,0,0,.155.333c.079.1.153.2.223.3a1.14,1.14,0,0,1,.107.471c-.075.027-.3-.177-.339-.249-.167-.2-.247-.477-.4-.7a3.723,3.723,0,0,1-.387-.632,6.2,6.2,0,0,0-.3-.573,3.218,3.218,0,0,1-.262-.392c-.05-.12-.077-.264-.127-.381-.081-.174-.241-.285-.321-.462s-.134-.4-.232-.6c-.048-.09-.113-.192-.152-.282s-.068-.225-.122-.345c-.11-.24-.279-.446-.386-.683s-.179-.513-.3-.762c-.063-.131-.17-.245-.232-.38s-.128-.366-.211-.546c-.051-.111-.125-.216-.176-.324-.071-.155-.1-.326-.169-.488l-.49-1.115c-.06-.141-.078-.3-.14-.429l-.184-.372c-.143-.323-.191-.7-.333-1.025-.072-.165-.164-.321-.229-.5-.1-.279-.14-.564-.241-.849-.152-.434-.276-.9-.431-1.319-.048-.126-.048-.26-.092-.4l-.14-.381c-.033-.1-.05-.249-.08-.381-.113-.365-.229-.731-.345-1.1-.024-.087-.03-.246-.059-.36-.018-.063-.054-.137-.075-.194s-.029-.156-.056-.243c-.083-.27-.158-.582-.241-.849-.024-.086-.033-.206-.059-.3-.119-.384-.176-.852-.327-1.2-.027-.069-.072-.141-.137-.126s-.053.1-.045.159c.021.176.084.326.113.47a1.082,1.082,0,0,0,.018.234,1.32,1.32,0,0,0,.036.216c.068.228.151.494.217.722.021.108,0,.276.033.4a10.614,10.614,0,0,0,.3,1.124,8.764,8.764,0,0,1,.226.974c.026.138.035.279.053.42a1.709,1.709,0,0,0,.137.345c.03.084.027.156.056.242.072.231.122.462.2.693.057.159.143.3.2.471.023.071.015.134.035.215.039.159.066.321.113.477.11.318.22.662.33.977.063.177.083.348.143.519.247.683.5,1.364.74,2.041l.122.45a3.868,3.868,0,0,0,.205.419c.062.135.1.36.172.546s.179.387.262.615c.039.107.077.227.125.332s.1.156.142.234c.063.135.078.3.137.441a4.306,4.306,0,0,0,.256.371,3.586,3.586,0,0,1,.136.4c.093.207.211.4.3.615.035.093.053.173.095.263s.122.2.166.3a.279.279,0,0,1,.015.054.438.438,0,0,0,.039.135,1.131,1.131,0,0,0,.113.2l.1.123a.341.341,0,0,1,.05.063,4.537,4.537,0,0,1,.17.5c.071.153.2.273.273.432s.089.417.015.429c-.3,0-.324-.432-.425-.657-.08-.174-.2-.321-.3-.488a.9.9,0,0,1-.069-.171,1.473,1.473,0,0,0-.056-.171c-.039-.084-.039-.069-.065-.129s-.113-.168-.14-.219c-.116-.189-.193-.459-.277-.6-.047-.072-.107-.144-.151-.216a3.428,3.428,0,0,1-.176-.4c-.056-.123-.148-.243-.2-.372s-.071-.341-.142-.5c-.036-.084-.1-.168-.143-.246-.086-.177-.134-.366-.22-.537-.039-.081-.113-.161-.152-.245-.068-.147-.1-.3-.178-.441-.16-.3-.33-.6-.464-.92-.077-.18-.1-.363-.178-.537s-.16-.3-.226-.45c-.044-.1-.056-.194-.095-.3-.062-.171-.14-.348-.2-.519-.036-.117-.065-.375-.1-.479s-.113-.267-.167-.393c-.083-.189-.109-.387-.193-.576s-.133-.3-.187-.449-.056-.243-.11-.363-.089-.192-.125-.285-.068-.3-.1-.437-.122-.318-.169-.48-.033-.4-.063-.468c-.166-.5-.321-1.025-.475-1.523-.072-.23-.1-.458-.167-.683-.021-.09-.023-.2-.047-.3-.045-.144-.1-.3-.149-.437-.024-.1-.039-.2-.059-.3a2.956,2.956,0,0,0-.116-.3c-.095-.3-.146-.617-.232-.9-.03-.12-.03-.279-.06-.39-.112-.36-.139-.782-.243-1.16-.03-.123-.048-.234-.072-.333-.184-.707-.264-1.5-.466-2.185a4.143,4.143,0,0,1-.024-.438,3.209,3.209,0,0,0-.131-.44c-.018-.078-.021-.129-.035-.2-.036-.117-.087-.207-.152-.183s-.054.081-.051.18a1.991,1.991,0,0,0,.051.42,2.376,2.376,0,0,0,.039.3c.052.242.093.486.121.732a1.546,1.546,0,0,0,.021.3c.021.1.095.233.116.341s.021.339.045.5a2.7,2.7,0,0,0,.1.39c.035.125,0,.212.038.3a2.5,2.5,0,0,1,.113.321c.018.126,0,.3.024.42.158.623.2,1.364.384,1.96.023.084.026.177.047.264.149.525.265,1.082.419,1.6.018.081.015.165.036.254.05.183.095.381.134.567.018.081.018.162.038.243.054.192.122.378.182.566.023.093.032.183.047.273a1.65,1.65,0,0,0,.074.225,2.727,2.727,0,0,0,.057.3,1.736,1.736,0,0,1,.083.186c.024.11.039.221.069.332a4,4,0,0,0,.166.39c.054.129.039.219.077.321.075.183.152.4.22.6s.066.324.122.489c.039.108.089.219.128.321s.036.167.065.254a2.551,2.551,0,0,0,.164.3c.044.114.024.267.059.39s.1.228.149.342a2.973,2.973,0,0,1,.068.359,1.2,1.2,0,0,0,.134.264l.107.3c.027.066.083.132.113.2.053.117.1.242.146.359a5.671,5.671,0,0,1,.124.576.584.584,0,0,1-.02.2c-.021.015-.164-.111-.217-.186a2.385,2.385,0,0,1-.244-.432c-.021-.06-.036-.117-.057-.177-.05-.128-.089-.275-.148-.41a2.214,2.214,0,0,1-.113-.231c-.039-.09-.021-.273-.072-.381s-.112-.162-.154-.255-.033-.173-.077-.251a2.831,2.831,0,0,0-.158-.285,2.359,2.359,0,0,1-.068-.3,2.473,2.473,0,0,0-.128-.372c-.054-.117-.122-.239-.172-.362-.024-.069-.036-.138-.057-.2s-.08-.2-.116-.276a2.116,2.116,0,0,0-.065-.2c-.045-.1-.1-.213-.137-.324s-.036-.185-.065-.272c-.054-.156-.107-.333-.161-.489a3.678,3.678,0,0,1-.08-.363c-.033-.123-.107-.278-.158-.419s-.044-.249-.077-.351-.128-.3-.178-.45a2.455,2.455,0,0,1-.063-.371c-.086-.3-.178-.618-.27-.918s-.113-.713-.208-1.052c-.069-.243-.152-.476-.226-.7-.027-.123-.03-.24-.063-.36-.062-.279-.16-.629-.246-.908-.045-.147-.033-.3-.075-.459s-.044-.348-.095-.518a2.438,2.438,0,0,1-.095-.3c-.027-.153-.024-.3-.044-.4s-.188-.692-.22-.8,0-.309-.021-.381-.095-.3-.107-.369a1.376,1.376,0,0,0-.039-.272c-.038-.129-.1-.426-.113-.51a2.36,2.36,0,0,0-.029-.342c-.03-.087-.075-.278-.113-.419s-.009-.348-.054-.507a2.911,2.911,0,0,0-.119-.348,2.511,2.511,0,0,1-.065-.3,2.093,2.093,0,0,0-.018-.345,2.794,2.794,0,0,1-.05-.384,2.974,2.974,0,0,0-.081-.506c-.018-.069-.012-.153-.026-.216-.057-.189-.093-.348-.185-.348s-.092.066-.062.192.047.258.083.408a2.581,2.581,0,0,1,.024.329,1.945,1.945,0,0,0,.024.216c.008.059.019.117.032.174a.93.93,0,0,1,.027.21v.231a.535.535,0,0,0,.021.149,1.071,1.071,0,0,1,.038.168v.168a.67.67,0,0,0,.03.189.989.989,0,0,1,.083.477,1.262,1.262,0,0,0,.066.545c.021.108,0,.228.021.33s.074.3.113.45,0,.233.038.35c.045.165.155.387.17.459a3.9,3.9,0,0,0,.032.4,2.587,2.587,0,0,1,.06.35,1.149,1.149,0,0,1,0,.177c0,.06.089.345.1.42a.851.851,0,0,0,.027.189,2.744,2.744,0,0,1,.092.488.842.842,0,0,0,.026.255c.03.153.09.282.122.429s0,.174.027.264c.03.137.077.26.1.389s.021.2.042.3c.044.222.077.444.136.663.036.128.113.248.149.371s.039.24.068.351.1.189.125.3,0,.183.027.272.068.207.089.3,0,.159.027.243.074.174.1.264.021.228.048.342.086.257.127.38.018.237.051.36c.071.267.16.561.247.809.038.135.032.273.08.42a2.428,2.428,0,0,0,.113.243c.033.087,0,.183.03.282.041.161.068.377.124.536s.164.327.229.5.066.365.125.554.14.3.2.459.033.3.081.441.16.266.217.419.107.351.16.528c.018.075.033.15.048.225.062.227.184.416.261.635.03.1.039.189.068.282.057.156.116.318.188.471s.145.263.2.4.065.252.119.381.11.261.157.39c.027.081.033.149.066.224.151.348.338.7.5,1.038.083.185.125.386.211.578s.152.3.217.45c.042.1.054.2.095.3.086.185.205.374.3.557a.681.681,0,0,1,.06.321.044.044,0,0,1-.018.03c-.056.015-.172-.084-.235-.147-.217-.216-.252-.627-.4-.9-.045-.081-.1-.168-.134-.255a1.832,1.832,0,0,0-.062-.177c-.095-.183-.211-.348-.3-.537-.06-.14-.069-.3-.131-.431-.247-.543-.535-1.067-.773-1.613-.11-.249-.134-.531-.229-.8a4.757,4.757,0,0,0-.217-.441c-.065-.141-.065-.243-.119-.36s-.166-.3-.229-.47c-.035-.108-.05-.222-.092-.33s-.128-.219-.178-.336a4.058,4.058,0,0,1-.155-.539,3.114,3.114,0,0,0-.107-.3c-.032-.084-.038-.186-.068-.273-.074-.2-.2-.387-.271-.6a4.328,4.328,0,0,0-.1-.459c-.062-.138-.139-.2-.184-.324s0-.273-.041-.419-.084-.279-.119-.408a1.983,1.983,0,0,1-.066-.246l-.181-.51c-.03-.086-.03-.164-.065-.242a3.068,3.068,0,0,1-.155-.3c-.042-.168-.056-.339-.1-.5-.066-.216-.143-.389-.2-.6-.015-.063-.015-.117-.03-.2-.05-.183-.077-.393-.128-.576-.018-.09-.015-.164-.035-.239-.051-.189-.11-.366-.164-.531-.027-.108-.033-.219-.065-.324-.084-.272-.161-.6-.241-.857a1.549,1.549,0,0,0-.03-.234c-.062-.207-.148-.452-.193-.674-.024-.123-.024-.243-.05-.36s-.081-.285-.113-.432v-.174c0-.053-.027-.188-.042-.281-.092-.378-.238-.843-.321-1.229-.024-.129-.027-.267-.042-.4a2.755,2.755,0,0,0-.047-.3,2.069,2.069,0,0,1-.089-.3c-.021-.17-.021-.326-.045-.5a.221.221,0,0,0,0-.036c-.042-.18-.137-.564-.158-.732s-.047-.377-.071-.563a2.986,2.986,0,0,0-.044-.375c-.021-.2-.069-.365-.09-.566-.014-.126-.006-.255-.023-.369s-.012-.2-.1-.2-.084.1-.084.186a3.755,3.755,0,0,0,.042.6c.027.233,0,.458.033.7a3.307,3.307,0,0,0,.071.39c.03.221.053.449.08.662a2.7,2.7,0,0,0,.036.3v.057q.012.065.03.129a1.7,1.7,0,0,0,.035.243c.069.257.054.539.125.788.1.375.155.788.259,1.163.029.108,0,.216.029.333l.09.35c.029.117,0,.285.044.429s.072.267.11.393.042.3.083.476a4.918,4.918,0,0,1,.131.519c.033.192.054.414.089.614s.122.372.164.555a.779.779,0,0,0,.015.186c.023.132.062.264.089.39a.4.4,0,0,0,.027.173c.062.243.136.549.211.789.017.069.026.138.041.207.048.171.1.3.119.392s.027.177.048.264.08.246.116.366.032.171.056.261a2.458,2.458,0,0,0,.116.3c.071.219.08.45.158.663.044.126.1.249.145.384s.042.272.08.407c.069.21.149.45.226.663s.143.524.226.761c.033.1.027.189.06.3.071.237.151.5.226.743.041.129.041.249.089.372.08.2.2.369.27.575s.077.354.143.516c.086.222.187.444.27.675.057.158.075.317.14.467s.131.261.187.39a3.319,3.319,0,0,1,.116.342,3.743,3.743,0,0,0,.185.35c.068.156.083.327.142.5.092.258.214.521.324.761.042.093.051.183.086.285.063.174.173.3.244.459s.086.3.152.458a1.225,1.225,0,0,1,.169.642.061.061,0,0,1-.009.037.054.054,0,0,1-.03.023c-.056.024-.118-.075-.157-.108a1.5,1.5,0,0,1-.3-.54c-.155-.338-.354-.656-.506-.986-.08-.174-.113-.36-.19-.536-.047-.108-.116-.216-.163-.324-.072-.156-.11-.315-.188-.459a5.851,5.851,0,0,1-.3-.674c-.035-.087-.038-.171-.077-.252s-.1-.171-.143-.255c-.056-.141-.1-.3-.151-.459-.122-.272-.262-.56-.366-.851s-.143-.518-.238-.791c-.038-.111-.089-.231-.128-.342s-.014-.183-.047-.276c-.086-.243-.2-.5-.3-.734a3.006,3.006,0,0,1-.113-.351c-.045-.123-.116-.3-.17-.459-.071-.194-.074-.419-.145-.626-.155-.438-.357-.9-.488-1.358-.024-.1-.018-.213-.05-.321-.072-.23-.146-.485-.217-.731s-.069-.564-.152-.83c-.119-.345-.226-.705-.333-1.047-.032-.1-.018-.209-.05-.32-.072-.264-.161-.576-.247-.819-.045-.123-.045-.257-.083-.371s-.2-.09-.187.072a3.143,3.143,0,0,0,.071.4c.015.1.015.2.039.3.041.186.1.339.151.507s.054.338.1.518c.027.09.06.189.086.273.057.18.057.372.113.537s.081.281.122.419c.027.093.021.165.048.255.047.162.1.327.151.489a1.841,1.841,0,0,0,.036.263c.036.087.062.261.1.381s.03.279.068.4c.069.225.152.461.226.674s.092.483.179.723c.148.422.3.9.44,1.337.038.11.026.221.059.341.05.183.089.366.152.546.032.087.086.174.124.255s.06.215.107.32.093.174.125.264.03.3.083.429.1.216.134.324.042.242.089.35.11.189.155.285.05.183.086.282.092.207.134.3.05.23.1.341.107.189.146.3.038.228.077.342c.065.165.166.3.235.467s.056.252.11.372.142.276.2.411c.083.18.142.375.22.548.136.3.181.645.321.948.1.224.24.437.339.656.056.123.071.252.127.372s.17.246.232.381.083.269.14.4.187.324.264.489c.045.1.063.189.107.285.084.182.223.338.3.518.044.12.086.24.127.36.09.2.235.36.327.557a3.367,3.367,0,0,0,.2.432c.13.207.217.345.341.555a5.043,5.043,0,0,1,.259.482c.068.147.175.267.244.411s.151.3.226.426.172.263.264.4c.152.234.247.48.395.717.105.165.223.329.336.488.3.423.735,1.178.922,1.433.154.207.279.45.422.666.11.167.247.332.362.488s.176.267.271.4l.074.1a45.405,45.405,0,0,0,11.236,10.491h0a14.892,14.892,0,0,0,2.734,1.46c.229.1.071.261-.042.333l-20,13c-.063.042-.217.158-.158.3s.253.042.3.024c16.05-5.728,27.7-10.437,34.823-13.873,7.22-3.483,9.645-5.473,9.381-6.465" fill="#006b6e" fill-rule="evenodd"/>
  </g>
</svg>
