<svg xmlns="http://www.w3.org/2000/svg" width="49.59" height="50.354" viewBox="0 0 49.59 50.354">
  <g id="Group_14684" data-name="Group 14684" transform="translate(-866.055 -614.362)">
    <path id="Path_21124" data-name="Path 21124" d="M866.067,634.441a4.218,4.218,0,0,0,.326,1.973,5.967,5.967,0,0,0,1.308,2.1,5.862,5.862,0,0,0,6.847,1.19c.978-.329,27.072-10.855,27.072-10.855s-10.111,26.315-10.764,27.3a5.987,5.987,0,0,0,1.18,6.906,5.9,5.9,0,0,0,2.082,1.318,4.108,4.108,0,0,0,1.957.329,6.57,6.57,0,0,0,3.569-1.253,6.655,6.655,0,0,0,2.3-3.023c.326-.329,13.047-35.856,13.373-36.842,0-.658.326-1.645.326-2.632a6.514,6.514,0,0,0-1.957-4.6,6.415,6.415,0,0,0-4.566-1.974,7.128,7.128,0,0,0-2.61.329c-.326.329-33.269,12.829-36.205,13.816a5.871,5.871,0,0,0-3.133,2.222,5.965,5.965,0,0,0-1.107,3.7" fill="#e41e26"/>
  </g>
</svg>
