<svg xmlns="http://www.w3.org/2000/svg" xmlns:xlink="http://www.w3.org/1999/xlink" width="618.104" height="378.55" viewBox="0 0 618.104 378.55">
  <defs>
    <linearGradient id="linear-gradient" x1="27.215" y1="-116.18" x2="27.215" y2="-115.299" gradientUnits="objectBoundingBox">
      <stop offset="0" stop-color="#00d9ff"/>
      <stop offset="1" stop-color="#1789e9"/>
    </linearGradient>
    <linearGradient id="linear-gradient-2" x1="23.001" y1="-92.619" x2="24.09" y2="-92.619" gradientUnits="objectBoundingBox">
      <stop offset="0" stop-color="#fd3020"/>
      <stop offset="1" stop-color="#f42e2b"/>
    </linearGradient>
    <linearGradient id="linear-gradient-3" x1="52.968" y1="-206.406" x2="51.666" y2="-205.122" xlink:href="#linear-gradient-2"/>
    <linearGradient id="linear-gradient-4" x1="32.525" y1="-161.398" x2="33.34" y2="-161.42" gradientUnits="objectBoundingBox">
      <stop offset="0" stop-color="#f4f8fd"/>
      <stop offset="1" stop-color="#ceebf4"/>
    </linearGradient>
  </defs>
  <g id="Group_14374" data-name="Group 14374" transform="translate(-715.309 -201.601)">
    <g id="Group_14263" data-name="Group 14263" transform="translate(793.395 202.101)">
      <path id="Path_17220" data-name="Path 17220" d="M1255.6-2890.649v292.512H716.078v-292.511c0-7.466,5.128-13.573,11.4-13.573H1244.2C1250.469-2904.221,1255.6-2898.113,1255.6-2890.649Z" transform="translate(-716.078 2904.221)" fill="#f9fcff" stroke="#e9e9e9" stroke-width="1"/>
      <path id="Path_17221" data-name="Path 17221" d="M1255.6-2894.68v15.286H716.088v-15.285c0-5.248,5.129-9.542,11.4-9.542h516.722C1250.474-2904.221,1255.6-2899.927,1255.6-2894.68Z" transform="translate(-716.086 2904.221)" fill="#edf1f7" stroke="#e9e9e9" stroke-width="1"/>
      <circle id="Ellipse_385" data-name="Ellipse 385" cx="4.808" cy="4.808" r="4.808" transform="translate(247.643 12.303) rotate(-45)" fill="#54699d"/>
      <path id="Path_17222" data-name="Path 17222" d="M1493.83-2871.277a2.356,2.356,0,0,1,2.353,2.354,2.356,2.356,0,0,1-2.353,2.353,2.356,2.356,0,0,1-2.353-2.353,2.357,2.357,0,0,1,2.353-2.354m0-2.455a4.809,4.809,0,0,0-4.808,4.809,4.808,4.808,0,0,0,4.808,4.808,4.807,4.807,0,0,0,4.808-4.808,4.808,4.808,0,0,0-4.808-4.809Z" transform="translate(-1261.327 2881.227)" fill="#54699d"/>
      <path id="Path_17223" data-name="Path 17223" d="M1419.279-2871.277a2.356,2.356,0,0,1,2.353,2.354,2.356,2.356,0,0,1-2.353,2.353,2.355,2.355,0,0,1-2.352-2.353,2.355,2.355,0,0,1,2.352-2.354m0-2.455a4.808,4.808,0,0,0-4.807,4.809,4.807,4.807,0,0,0,4.807,4.808,4.807,4.807,0,0,0,4.808-4.808,4.808,4.808,0,0,0-4.808-4.809Z" transform="translate(-1208.738 2881.227)" fill="#54699d"/>
      <g id="Group_13252" data-name="Group 13252" transform="translate(21.993 10.582)">
        <path id="Path_17224" data-name="Path 17224" d="M901.87-2857.492H807.387a1.841,1.841,0,0,1-1.841-1.841,1.842,1.842,0,0,1,1.841-1.842H901.87a1.842,1.842,0,0,1,1.841,1.842A1.841,1.841,0,0,1,901.87-2857.492Z" transform="translate(-805.546 2861.175)" fill="#54699d"/>
      </g>
      <g id="Group_13296" data-name="Group 13296" transform="translate(105.326 40.231)">
        <g id="Group_13253" data-name="Group 13253" transform="translate(0 0.001)">
          <path id="Path_17225" data-name="Path 17225" d="M811.225-2747.506h-3.837a1.841,1.841,0,0,1-1.841-1.842,1.841,1.841,0,0,1,1.841-1.841h3.837a1.841,1.841,0,0,1,1.841,1.841A1.842,1.842,0,0,1,811.225-2747.506Z" transform="translate(-805.546 2751.189)" fill="#54699d"/>
        </g>
        <g id="Group_13254" data-name="Group 13254" transform="translate(0 14.69)">
          <path id="Path_17226" data-name="Path 17226" d="M811.225-2687.752h-3.837a1.841,1.841,0,0,1-1.841-1.841,1.841,1.841,0,0,1,1.841-1.842h3.837a1.842,1.842,0,0,1,1.841,1.842A1.842,1.842,0,0,1,811.225-2687.752Z" transform="translate(-805.546 2691.435)" fill="#54699d"/>
        </g>
        <g id="Group_13255" data-name="Group 13255" transform="translate(0 45.847)">
          <path id="Path_17227" data-name="Path 17227" d="M811.225-2628h-3.837a1.841,1.841,0,0,1-1.841-1.841,1.841,1.841,0,0,1,1.841-1.842h3.837a1.842,1.842,0,0,1,1.841,1.842A1.841,1.841,0,0,1,811.225-2628Z" transform="translate(-805.546 2631.681)" fill="#54699d"/>
        </g>
        <g id="Group_13256" data-name="Group 13256" transform="translate(0 68.146)">
          <path id="Path_17228" data-name="Path 17228" d="M811.225-2568.238h-3.837a1.841,1.841,0,0,1-1.841-1.842,1.841,1.841,0,0,1,1.841-1.841h3.837a1.842,1.842,0,0,1,1.841,1.841A1.841,1.841,0,0,1,811.225-2568.238Z" transform="translate(-805.546 2571.921)" fill="#54699d"/>
        </g>
        <g id="Group_13257" data-name="Group 13257" transform="translate(0 90.862)">
          <path id="Path_17229" data-name="Path 17229" d="M811.225-2508.48h-3.837a1.841,1.841,0,0,1-1.841-1.841,1.841,1.841,0,0,1,1.841-1.841h3.837a1.841,1.841,0,0,1,1.841,1.841A1.841,1.841,0,0,1,811.225-2508.48Z" transform="translate(-805.546 2512.162)" fill="#54699d"/>
        </g>
        <g id="Group_13258" data-name="Group 13258" transform="translate(0 113.576)">
          <path id="Path_17230" data-name="Path 17230" d="M811.225-2448.726h-3.837a1.841,1.841,0,0,1-1.841-1.841,1.842,1.842,0,0,1,1.841-1.842h3.837a1.842,1.842,0,0,1,1.841,1.842A1.841,1.841,0,0,1,811.225-2448.726Z" transform="translate(-805.546 2452.408)" fill="#54699d"/>
        </g>
        <g id="Group_13259" data-name="Group 13259" transform="translate(0 136.291)">
          <path id="Path_17231" data-name="Path 17231" d="M811.225-2388.972h-3.837a1.841,1.841,0,0,1-1.841-1.841,1.842,1.842,0,0,1,1.841-1.841h3.837a1.842,1.842,0,0,1,1.841,1.841A1.841,1.841,0,0,1,811.225-2388.972Z" transform="translate(-805.546 2392.654)" fill="#54699d"/>
        </g>
        <g id="Group_13260" data-name="Group 13260" transform="translate(0 159.007)">
          <path id="Path_17232" data-name="Path 17232" d="M811.225-2329.211h-3.837a1.842,1.842,0,0,1-1.841-1.842,1.841,1.841,0,0,1,1.841-1.841h3.837a1.841,1.841,0,0,1,1.841,1.841A1.842,1.842,0,0,1,811.225-2329.211Z" transform="translate(-805.546 2332.894)" fill="#54699d"/>
        </g>
        <g id="Group_13261" data-name="Group 13261" transform="translate(0 181.721)">
          <path id="Path_17233" data-name="Path 17233" d="M811.225-2269.457h-3.837a1.841,1.841,0,0,1-1.841-1.841,1.841,1.841,0,0,1,1.841-1.841h3.837a1.842,1.842,0,0,1,1.841,1.841A1.841,1.841,0,0,1,811.225-2269.457Z" transform="translate(-805.546 2273.14)" fill="#54699d"/>
        </g>
        <g id="Group_13262" data-name="Group 13262" transform="translate(0 204.018)">
          <path id="Path_17234" data-name="Path 17234" d="M811.225-2209.7h-3.837a1.841,1.841,0,0,1-1.841-1.841,1.842,1.842,0,0,1,1.841-1.842h3.837a1.842,1.842,0,0,1,1.841,1.842A1.842,1.842,0,0,1,811.225-2209.7Z" transform="translate(-805.546 2213.385)" fill="#54699d"/>
        </g>
        <g id="Group_13263" data-name="Group 13263" transform="translate(0 235.177)">
          <path id="Path_17235" data-name="Path 17235" d="M811.225-2149.943h-3.837a1.841,1.841,0,0,1-1.841-1.841,1.842,1.842,0,0,1,1.841-1.842h3.837a1.842,1.842,0,0,1,1.841,1.842A1.841,1.841,0,0,1,811.225-2149.943Z" transform="translate(-805.546 2153.626)" fill="#54699d"/>
        </g>
        <g id="Group_13264" data-name="Group 13264" transform="translate(0 249.865)">
          <path id="Path_17236" data-name="Path 17236" d="M811.225-2090.189h-3.837a1.841,1.841,0,0,1-1.841-1.841,1.842,1.842,0,0,1,1.841-1.842h3.837a1.842,1.842,0,0,1,1.841,1.842A1.841,1.841,0,0,1,811.225-2090.189Z" transform="translate(-805.546 2093.872)" fill="#54699d"/>
        </g>
        <g id="Group_13265" data-name="Group 13265" transform="translate(20.695 0.001)">
          <path id="Path_17237" data-name="Path 17237" d="M924.333-2747.506H891.574a1.841,1.841,0,0,1-1.841-1.842,1.841,1.841,0,0,1,1.841-1.841h32.759a1.841,1.841,0,0,1,1.841,1.841A1.842,1.842,0,0,1,924.333-2747.506Z" transform="translate(-889.733 2751.189)" fill="#54699d"/>
        </g>
        <g id="Group_13267" data-name="Group 13267" transform="translate(64.145 0)">
          <g id="Group_13266" data-name="Group 13266">
            <path id="Path_17238" data-name="Path 17238" d="M1050.721-2747.51a1.841,1.841,0,0,1-1.841-1.842,1.842,1.842,0,0,1,1.841-1.841h32.759a1.841,1.841,0,0,1,1.842,1.841,1.842,1.842,0,0,1-1.842,1.841Z" transform="translate(-1048.88 2751.194)" fill="#00aeef"/>
          </g>
        </g>
        <g id="Group_13268" data-name="Group 13268" transform="translate(33.296 14.69)">
          <path id="Path_17239" data-name="Path 17239" d="M976.551-2687.752H932.977a1.841,1.841,0,0,1-1.841-1.841,1.841,1.841,0,0,1,1.841-1.842h43.574a1.841,1.841,0,0,1,1.841,1.842A1.841,1.841,0,0,1,976.551-2687.752Z" transform="translate(-931.136 2691.435)" fill="#66c1dd"/>
        </g>
        <g id="Group_13269" data-name="Group 13269" transform="translate(86.854 14.69)">
          <path id="Path_17240" data-name="Path 17240" d="M1159.063-2687.752h-20.357a1.841,1.841,0,0,1-1.841-1.841,1.841,1.841,0,0,1,1.841-1.842h20.357a1.842,1.842,0,0,1,1.842,1.842A1.842,1.842,0,0,1,1159.063-2687.752Z" transform="translate(-1136.865 2691.435)" fill="#54699d"/>
        </g>
        <g id="Group_13271" data-name="Group 13271" transform="translate(114.667 14.69)">
          <g id="Group_13270" data-name="Group 13270">
            <path id="Path_17241" data-name="Path 17241" d="M1265.16-2687.752H1244.8a1.841,1.841,0,0,1-1.841-1.841,1.841,1.841,0,0,1,1.841-1.842h20.355a1.842,1.842,0,0,1,1.842,1.842A1.842,1.842,0,0,1,1265.16-2687.752Z" transform="translate(-1242.963 2691.435)" fill="#00aeef"/>
          </g>
        </g>
        <g id="Group_13272" data-name="Group 13272" transform="translate(42.133 45.847)">
          <path id="Path_17242" data-name="Path 17242" d="M992.338-2628H967.826a1.841,1.841,0,0,1-1.841-1.841,1.841,1.841,0,0,1,1.841-1.842h24.512a1.842,1.842,0,0,1,1.841,1.842A1.841,1.841,0,0,1,992.338-2628Z" transform="translate(-965.985 2631.681)" fill="#54699d"/>
        </g>
        <g id="Group_13273" data-name="Group 13273" transform="translate(42.567 68.146)">
          <path id="Path_17243" data-name="Path 17243" d="M1012.694-2568.238H967.826a1.841,1.841,0,0,1-1.841-1.842,1.841,1.841,0,0,1,1.841-1.841h44.868a1.841,1.841,0,0,1,1.842,1.841A1.841,1.841,0,0,1,1012.694-2568.238Z" transform="translate(-965.985 2571.921)" fill="#54699d"/>
        </g>
        <g id="Group_13274" data-name="Group 13274" transform="translate(96.713 68.144)">
          <path id="Path_17244" data-name="Path 17244" d="M1203.874-2568.243H1174.93a1.842,1.842,0,0,1-1.842-1.842,1.842,1.842,0,0,1,1.842-1.841h28.943a1.841,1.841,0,0,1,1.841,1.841A1.842,1.842,0,0,1,1203.874-2568.243Z" transform="translate(-1173.089 2571.926)" fill="#66c1dd"/>
        </g>
        <g id="Group_13275" data-name="Group 13275" transform="translate(135.033 68.144)">
          <path id="Path_17245" data-name="Path 17245" d="M1362.084-2568.243h-46.119a1.842,1.842,0,0,1-1.842-1.842,1.842,1.842,0,0,1,1.842-1.841h46.119a1.841,1.841,0,0,1,1.841,1.841A1.842,1.842,0,0,1,1362.084-2568.243Z" transform="translate(-1314.124 2571.926)" fill="#00aeef"/>
        </g>
        <g id="Group_13277" data-name="Group 13277" transform="translate(55.636 90.862)">
          <g id="Group_13276" data-name="Group 13276">
            <path id="Path_17246" data-name="Path 17246" d="M1051.791-2508.48h-33.417a1.841,1.841,0,0,1-1.841-1.841,1.841,1.841,0,0,1,1.841-1.841h33.417a1.841,1.841,0,0,1,1.841,1.841A1.841,1.841,0,0,1,1051.791-2508.48Z" transform="translate(-1016.532 2512.162)" fill="#66c1dd"/>
          </g>
        </g>
        <g id="Group_13278" data-name="Group 13278" transform="translate(96.557 90.862)">
          <path id="Path_17247" data-name="Path 17247" d="M1206.973-2508.48h-33.417a1.841,1.841,0,0,1-1.841-1.841,1.841,1.841,0,0,1,1.841-1.841h33.417a1.841,1.841,0,0,1,1.841,1.841A1.841,1.841,0,0,1,1206.973-2508.48Z" transform="translate(-1171.714 2512.162)" fill="#54699d"/>
        </g>
        <g id="Group_13279" data-name="Group 13279" transform="translate(42.015 113.576)">
          <path id="Path_17248" data-name="Path 17248" d="M985.658-2448.726H967.826a1.841,1.841,0,0,1-1.841-1.841,1.842,1.842,0,0,1,1.841-1.842h17.832a1.842,1.842,0,0,1,1.841,1.842A1.841,1.841,0,0,1,985.658-2448.726Z" transform="translate(-965.985 2452.408)" fill="#54699d"/>
        </g>
        <g id="Group_13280" data-name="Group 13280" transform="translate(66.752 113.576)">
          <path id="Path_17249" data-name="Path 17249" d="M1080.115-2448.726h-17.832a1.841,1.841,0,0,1-1.841-1.841,1.842,1.842,0,0,1,1.841-1.842h17.832a1.842,1.842,0,0,1,1.841,1.842A1.841,1.841,0,0,1,1080.115-2448.726Z" transform="translate(-1060.442 2452.408)" fill="#54699d"/>
        </g>
        <g id="Group_13282" data-name="Group 13282" transform="translate(92.9 113.576)">
          <g id="Group_13281" data-name="Group 13281">
            <path id="Path_17250" data-name="Path 17250" d="M1205.418-2448.726h-48.683a1.841,1.841,0,0,1-1.841-1.841,1.842,1.842,0,0,1,1.841-1.842h48.683a1.842,1.842,0,0,1,1.841,1.842A1.841,1.841,0,0,1,1205.418-2448.726Z" transform="translate(-1154.894 2452.408)" fill="#00aeef"/>
          </g>
        </g>
        <g id="Group_13284" data-name="Group 13284" transform="translate(150.279 113.576)">
          <g id="Group_13283" data-name="Group 13283">
            <path id="Path_17251" data-name="Path 17251" d="M1395.821-2448.726h-17.833a1.841,1.841,0,0,1-1.841-1.841,1.842,1.842,0,0,1,1.841-1.842h17.833a1.842,1.842,0,0,1,1.841,1.842A1.841,1.841,0,0,1,1395.821-2448.726Z" transform="translate(-1376.146 2452.408)" fill="#66c1dd"/>
          </g>
        </g>
        <g id="Group_13285" data-name="Group 13285" transform="translate(55.584 136.291)">
          <path id="Path_17252" data-name="Path 17252" d="M1049.882-2388.972h-31.509a1.841,1.841,0,0,1-1.841-1.841,1.842,1.842,0,0,1,1.841-1.841h31.509a1.842,1.842,0,0,1,1.841,1.841A1.841,1.841,0,0,1,1049.882-2388.972Z" transform="translate(-1016.532 2392.654)" fill="#00aeef"/>
        </g>
        <g id="Group_13286" data-name="Group 13286" transform="translate(56.388 159.007)">
          <path id="Path_17253" data-name="Path 17253" d="M1074.692-2329.211h-56.318a1.842,1.842,0,0,1-1.841-1.842,1.841,1.841,0,0,1,1.841-1.841h56.318a1.841,1.841,0,0,1,1.841,1.841A1.841,1.841,0,0,1,1074.692-2329.211Z" transform="translate(-1016.532 2332.894)" fill="#54699d"/>
        </g>
        <g id="Group_13288" data-name="Group 13288" transform="translate(123.286 159.007)">
          <g id="Group_13287" data-name="Group 13287">
            <path id="Path_17254" data-name="Path 17254" d="M1299.985-2329.211h-31.806a1.842,1.842,0,0,1-1.841-1.842,1.841,1.841,0,0,1,1.841-1.841h31.806a1.841,1.841,0,0,1,1.841,1.841A1.842,1.842,0,0,1,1299.985-2329.211Z" transform="translate(-1266.337 2332.894)" fill="#66c1dd"/>
          </g>
        </g>
        <g id="Group_13289" data-name="Group 13289" transform="translate(42.281 181.721)">
          <path id="Path_17255" data-name="Path 17255" d="M999.971-2269.457H967.826a1.841,1.841,0,0,1-1.841-1.841,1.841,1.841,0,0,1,1.841-1.841h32.145a1.841,1.841,0,0,1,1.841,1.841A1.841,1.841,0,0,1,999.971-2269.457Z" transform="translate(-965.985 2273.14)" fill="#00aeef"/>
        </g>
        <g id="Group_13290" data-name="Group 13290" transform="translate(55.317 204.018)">
          <path id="Path_17256" data-name="Path 17256" d="M1039.068-2209.7h-20.695a1.841,1.841,0,0,1-1.841-1.841,1.842,1.842,0,0,1,1.841-1.842h20.695a1.842,1.842,0,0,1,1.841,1.842A1.841,1.841,0,0,1,1039.068-2209.7Z" transform="translate(-1016.532 2213.385)" fill="#66c1dd"/>
        </g>
        <g id="Group_13291" data-name="Group 13291" transform="translate(83.993 204.018)">
          <path id="Path_17257" data-name="Path 17257" d="M1160.113-2209.7h-34.35a1.842,1.842,0,0,1-1.841-1.841,1.842,1.842,0,0,1,1.841-1.842h34.35a1.842,1.842,0,0,1,1.841,1.842A1.841,1.841,0,0,1,1160.113-2209.7Z" transform="translate(-1123.922 2213.385)" fill="#54699d"/>
        </g>
        <g id="Group_13292" data-name="Group 13292" transform="translate(32.945 235.177)">
          <path id="Path_17258" data-name="Path 17258" d="M954.944-2149.943H932.977a1.841,1.841,0,0,1-1.841-1.841,1.842,1.842,0,0,1,1.841-1.842h21.967a1.842,1.842,0,0,1,1.841,1.842A1.841,1.841,0,0,1,954.944-2149.943Z" transform="translate(-931.136 2153.626)" fill="#54699d"/>
        </g>
        <g id="Group_13294" data-name="Group 13294" transform="translate(63.72 235.177)">
          <g id="Group_13293" data-name="Group 13293">
            <path id="Path_17259" data-name="Path 17259" d="M1097.578-2149.943h-50.91a1.841,1.841,0,0,1-1.841-1.841,1.842,1.842,0,0,1,1.841-1.842h50.91a1.842,1.842,0,0,1,1.841,1.842A1.841,1.841,0,0,1,1097.578-2149.943Z" transform="translate(-1044.827 2153.626)" fill="#00aeef"/>
          </g>
        </g>
        <g id="Group_13295" data-name="Group 13295" transform="translate(42.347 249.865)">
          <path id="Path_17260" data-name="Path 17260" d="M1003.152-2090.189H967.826a1.841,1.841,0,0,1-1.841-1.841,1.842,1.842,0,0,1,1.841-1.842h35.326a1.842,1.842,0,0,1,1.841,1.842A1.841,1.841,0,0,1,1003.152-2090.189Z" transform="translate(-965.985 2093.872)" fill="#54699d"/>
        </g>
      </g>
    </g>
    <g id="Group_14271" data-name="Group 14271" transform="translate(715.309 333)">
      <g id="Rectangle_3219" data-name="Rectangle 3219" fill="#fff" stroke="#e9e9e9" stroke-width="1">
        <rect width="571.288" height="114.15" rx="10" stroke="none"/>
        <rect x="0.5" y="0.5" width="570.288" height="113.15" rx="9.5" fill="none"/>
      </g>
      <g id="Group_13506" data-name="Group 13506" transform="translate(46.052 77.859)" opacity="0.9">
        <g id="Group_5069" data-name="Group 5069">
          <path id="Path_3626" data-name="Path 3626" d="M-7594.279,7349.72c2.087.016,3.434-.324,4.988,1.6l5.1,6.718-3.7-.025a2.8,2.8,0,0,1-2.593-1.7Z" transform="translate(7594.279 -7349.706)" fill="url(#linear-gradient)"/>
          <path id="Path_3627" data-name="Path 3627" d="M-7585.888,7355.912l8.05,10.414-5.517-.036a4.282,4.282,0,0,1-3.761-2.584l-2.444-4.387.647-2.3Z" transform="translate(7597.384 -7345.625)" fill="url(#linear-gradient-2)"/>
          <path id="Path_3628" data-name="Path 3628" d="M-7588.86,7360.507c.331-1.681,3-3.056,4.406-2.821l-1.44-1.888-2.318.535-1.474,2.658Z" transform="translate(7597.292 -7345.697)" fill="url(#linear-gradient-3)"/>
          <path id="Path_3629" data-name="Path 3629" d="M-7588.4,7360.972l-1.873-3.347c-.547-1.042-.091-2.268,1.847-2.482s5.3-.549,6.29,1.6C-7584.764,7356.438-7588.657,7357.276-7588.4,7360.972Z" transform="translate(7596.77 -7346.236)" fill="url(#linear-gradient-4)"/>
        </g>
        <g id="Group_5070" data-name="Group 5070" transform="translate(19.994 19.653)">
          <path id="Path_3630" data-name="Path 3630" d="M-7581.914,7361.683l-.3,0v-.115l.718.006v.114h-.3l.018.935h-.125Z" transform="translate(7582.211 -7361.564)" fill="#6a8dd9"/>
          <path id="Path_3631" data-name="Path 3631" d="M-7580.889,7362.163c-.009-.146-.02-.322-.022-.453h0c-.033.122-.068.254-.115.4l-.16.508h-.1l-.164-.5c-.047-.151-.087-.284-.116-.409h0c0,.132,0,.3-.012.464l-.018.452-.122,0,.054-1.048h.158l.171.512a3.5,3.5,0,0,1,.105.352h0a3.554,3.554,0,0,1,.1-.352l.162-.507h.16l.076,1.051h-.123Z" transform="translate(7582.538 -7361.563)" fill="#6a8dd9"/>
        </g>
      </g>
      <g id="Group_13760" data-name="Group 13760" transform="translate(46.052 31.693)" opacity="0.9">
        <g id="Group_5069-2" data-name="Group 5069">
          <path id="Path_3626-2" data-name="Path 3626" d="M-7594.279,7349.72c2.087.016,3.434-.324,4.988,1.6l5.1,6.718-3.7-.025a2.8,2.8,0,0,1-2.593-1.7Z" transform="translate(7594.279 -7349.706)" fill="url(#linear-gradient)"/>
          <path id="Path_3627-2" data-name="Path 3627" d="M-7585.888,7355.912l8.05,10.414-5.517-.036a4.282,4.282,0,0,1-3.761-2.584l-2.444-4.387.647-2.3Z" transform="translate(7597.384 -7345.625)" fill="url(#linear-gradient-2)"/>
          <path id="Path_3628-2" data-name="Path 3628" d="M-7588.86,7360.507c.331-1.681,3-3.056,4.406-2.821l-1.44-1.888-2.318.535-1.474,2.658Z" transform="translate(7597.292 -7345.697)" fill="url(#linear-gradient-3)"/>
          <path id="Path_3629-2" data-name="Path 3629" d="M-7588.4,7360.972l-1.873-3.347c-.547-1.042-.091-2.268,1.847-2.482s5.3-.549,6.29,1.6C-7584.764,7356.438-7588.657,7357.276-7588.4,7360.972Z" transform="translate(7596.77 -7346.236)" fill="url(#linear-gradient-4)"/>
        </g>
        <g id="Group_5070-2" data-name="Group 5070" transform="translate(19.994 19.653)">
          <path id="Path_3630-2" data-name="Path 3630" d="M-7581.914,7361.683l-.3,0v-.115l.718.006v.114h-.3l.018.935h-.125Z" transform="translate(7582.211 -7361.564)" fill="#6a8dd9"/>
          <path id="Path_3631-2" data-name="Path 3631" d="M-7580.889,7362.163c-.009-.146-.02-.322-.022-.453h0c-.033.122-.068.254-.115.4l-.16.508h-.1l-.164-.5c-.047-.151-.087-.284-.116-.409h0c0,.132,0,.3-.012.464l-.018.452-.122,0,.054-1.048h.158l.171.512a3.5,3.5,0,0,1,.105.352h0a3.554,3.554,0,0,1,.1-.352l.162-.507h.16l.076,1.051h-.123Z" transform="translate(7582.538 -7361.563)" fill="#6a8dd9"/>
        </g>
      </g>
      <line id="Line_42" data-name="Line 42" y2="96.85" transform="translate(429.185 7.541)" fill="none" stroke="#707070" stroke-width="1" opacity="0.2"/>
      <g id="Group_14359" data-name="Group 14359" transform="translate(15.107 12.333)">
        <path id="Path_17237-2" data-name="Path 17237" d="M924.333-2747.506H891.574a1.841,1.841,0,0,1-1.841-1.842,1.841,1.841,0,0,1,1.841-1.841h32.759a1.841,1.841,0,0,1,1.841,1.841A1.842,1.842,0,0,1,924.333-2747.506Z" transform="translate(-889.733 2751.189)" fill="#54699d"/>
      </g>
    </g>
    <g id="Group_14354" data-name="Group 14354" transform="translate(997.416 369.333)">
      <path id="Path_17237-3" data-name="Path 17237" d="M924.333-2747.506H891.574a1.841,1.841,0,0,1-1.841-1.842,1.841,1.841,0,0,1,1.841-1.841h32.759a1.841,1.841,0,0,1,1.841,1.841A1.842,1.842,0,0,1,924.333-2747.506Z" transform="translate(-889.733 2751.189)" fill="#54699d"/>
    </g>
    <g id="Group_14355" data-name="Group 14355" transform="translate(785.018 345.021)">
      <path id="Path_17239-2" data-name="Path 17239" d="M1015.253-2687.752H934.546c-1.883,0-3.41-.824-3.41-1.841s1.528-1.842,3.41-1.842h80.706c1.883,0,3.411.824,3.411,1.842S1017.136-2687.752,1015.253-2687.752Z" transform="translate(-931.136 2691.435)" fill="#66c1dd"/>
    </g>
    <g id="Group_14356" data-name="Group 14356" transform="translate(1076.416 345.333)">
      <path id="Path_17237-4" data-name="Path 17237" d="M924.333-2747.506H891.574a1.841,1.841,0,0,1-1.841-1.842,1.841,1.841,0,0,1,1.841-1.841h32.759a1.841,1.841,0,0,1,1.841,1.841A1.842,1.842,0,0,1,924.333-2747.506Z" transform="translate(-889.733 2751.189)" fill="#54699d"/>
    </g>
    <g id="Group_14357" data-name="Group 14357" transform="translate(790.389 362.021)">
      <g id="Group_13270-2" data-name="Group 13270">
        <path id="Path_17241-2" data-name="Path 17241" d="M1307.431-2687.752h-59.12c-2.952,0-5.348-.824-5.348-1.841s2.4-1.842,5.348-1.842h59.12c2.953,0,5.349.824,5.349,1.842S1310.383-2687.752,1307.431-2687.752Z" transform="translate(-1242.963 2691.435)" fill="#00aeef"/>
      </g>
    </g>
    <g id="Group_14358" data-name="Group 14358" transform="translate(790.416 373.333)">
      <path id="Path_17237-5" data-name="Path 17237" d="M941.119-2747.506H892.467c-1.51,0-2.734-.824-2.734-1.842s1.225-1.841,2.734-1.841h48.652c1.51,0,2.735.824,2.735,1.841S942.629-2747.506,941.119-2747.506Z" transform="translate(-889.733 2751.189)" fill="#54699d"/>
    </g>
    <g id="Group_14360" data-name="Group 14360" transform="translate(790.389 417.021)">
      <g id="Group_13270-3" data-name="Group 13270">
        <path id="Path_17241-3" data-name="Path 17241" d="M1307.431-2687.752h-59.12c-2.952,0-5.348-.824-5.348-1.841s2.4-1.842,5.348-1.842h59.12c2.953,0,5.349.824,5.349,1.842S1310.383-2687.752,1307.431-2687.752Z" transform="translate(-1242.963 2691.435)" fill="#00aeef"/>
      </g>
    </g>
    <path id="Path_20721" data-name="Path 20721" d="M941.119-2747.506H892.467c-1.51,0-2.734-.824-2.734-1.842s1.225-1.841,2.734-1.841h48.652c1.51,0,2.735.824,2.735,1.841S942.629-2747.506,941.119-2747.506Z" transform="translate(-99.316 3179.521)" fill="#54699d"/>
    <g id="Group_14361" data-name="Group 14361" transform="translate(730.018 373.021)">
      <path id="Path_17239-3" data-name="Path 17239" d="M945.735-2687.752H931.728c-.327,0-.592-.824-.592-1.841s.265-1.842.592-1.842h14.008c.327,0,.592.824.592,1.842S946.062-2687.752,945.735-2687.752Z" transform="translate(-931.136 2691.435)" fill="#66c1dd"/>
    </g>
    <g id="Group_14362" data-name="Group 14362" transform="translate(730.018 425.021)">
      <path id="Path_17239-4" data-name="Path 17239" d="M945.735-2687.752H931.728c-.327,0-.592-.824-.592-1.841s.265-1.842.592-1.842h14.008c.327,0,.592.824.592,1.842S946.062-2687.752,945.735-2687.752Z" transform="translate(-931.136 2691.435)" fill="#66c1dd"/>
    </g>
    <g id="Group_14363" data-name="Group 14363" transform="translate(997.416 423.333)">
      <path id="Path_17237-6" data-name="Path 17237" d="M924.333-2747.506H891.574a1.841,1.841,0,0,1-1.841-1.842,1.841,1.841,0,0,1,1.841-1.841h32.759a1.841,1.841,0,0,1,1.841,1.841A1.842,1.842,0,0,1,924.333-2747.506Z" transform="translate(-889.733 2751.189)" fill="#54699d"/>
    </g>
    <g id="Group_14364" data-name="Group 14364" transform="translate(1094.637 362.021)">
      <g id="Group_13270-4" data-name="Group 13270">
        <path id="Path_17241-4" data-name="Path 17241" d="M1260.109-2687.752h-15.724a1.673,1.673,0,0,1-1.422-1.841,1.673,1.673,0,0,1,1.422-1.842h15.724a1.673,1.673,0,0,1,1.422,1.842A1.673,1.673,0,0,1,1260.109-2687.752Z" transform="translate(-1242.963 2691.435)" fill="#00aeef"/>
      </g>
    </g>
    <g id="Group_14365" data-name="Group 14365" transform="translate(1094.637 417.021)">
      <g id="Group_13270-5" data-name="Group 13270">
        <path id="Path_17241-5" data-name="Path 17241" d="M1260.109-2687.752h-15.724a1.673,1.673,0,0,1-1.422-1.841,1.673,1.673,0,0,1,1.422-1.842h15.724a1.673,1.673,0,0,1,1.422,1.842A1.673,1.673,0,0,1,1260.109-2687.752Z" transform="translate(-1242.963 2691.435)" fill="#00aeef"/>
      </g>
    </g>
    <g id="Group_14366" data-name="Group 14366" transform="translate(1085.43 373.333)">
      <path id="Path_17237-7" data-name="Path 17237" d="M917.674-2747.506H891.22a1.693,1.693,0,0,1-1.487-1.842,1.692,1.692,0,0,1,1.487-1.841h26.454a1.693,1.693,0,0,1,1.487,1.841A1.693,1.693,0,0,1,917.674-2747.506Z" transform="translate(-889.733 2751.189)" fill="#54699d"/>
    </g>
    <g id="Group_14367" data-name="Group 14367" transform="translate(1085.43 428.333)">
      <path id="Path_17237-8" data-name="Path 17237" d="M917.674-2747.506H891.22a1.693,1.693,0,0,1-1.487-1.842,1.692,1.692,0,0,1,1.487-1.841h26.454a1.693,1.693,0,0,1,1.487,1.841A1.693,1.693,0,0,1,917.674-2747.506Z" transform="translate(-889.733 2751.189)" fill="#54699d"/>
    </g>
    <g id="Group_14368" data-name="Group 14368" transform="translate(1171.637 345.021)">
      <g id="Group_13270-6" data-name="Group 13270">
        <path id="Path_17241-6" data-name="Path 17241" d="M1260.109-2687.752h-15.724a1.673,1.673,0,0,1-1.422-1.841,1.673,1.673,0,0,1,1.422-1.842h15.724a1.673,1.673,0,0,1,1.422,1.842A1.673,1.673,0,0,1,1260.109-2687.752Z" transform="translate(-1242.963 2691.435)" fill="#00aeef"/>
      </g>
    </g>
    <path id="Path_20722" data-name="Path 20722" d="M917.674-2747.506H891.22a1.693,1.693,0,0,1-1.487-1.842,1.692,1.692,0,0,1,1.487-1.841h26.454a1.693,1.693,0,0,1,1.487,1.841A1.693,1.693,0,0,1,917.674-2747.506Z" transform="translate(281.697 3103.521)" fill="#54699d"/>
    <g id="Group_14369" data-name="Group 14369" transform="translate(1171.389 375.174)">
      <g id="Group_13270-7" data-name="Group 13270">
        <path id="Path_17241-7" data-name="Path 17241" d="M1287.466-2683.787h-40.812a3.76,3.76,0,0,1-3.692-3.823,3.76,3.76,0,0,1,3.692-3.824h40.812a3.76,3.76,0,0,1,3.692,3.824A3.76,3.76,0,0,1,1287.466-2683.787Z" transform="translate(-1242.963 2691.435)" fill="#00aeef"/>
      </g>
    </g>
    <g id="Group_14370" data-name="Group 14370" transform="translate(1171.018 390.021)">
      <path id="Path_17239-5" data-name="Path 17239" d="M990.438-2685.31h-56.9c-1.327,0-2.4-1.371-2.4-3.062s1.077-3.062,2.4-3.062h56.9c1.328,0,2.4,1.371,2.4,3.063S991.766-2685.31,990.438-2685.31Z" transform="translate(-931.136 2691.435)" fill="#66c1dd"/>
    </g>
    <g id="Group_14372" data-name="Group 14372">
      <g id="Rectangle_3570" data-name="Rectangle 3570" transform="translate(715.309 466)" fill="#fff" stroke="#e9e9e9" stroke-width="1">
        <rect width="571.288" height="114.15" rx="10" stroke="none"/>
        <rect x="0.5" y="0.5" width="570.288" height="113.15" rx="9.5" fill="none"/>
      </g>
      <path id="Path_20723" data-name="Path 20723" d="M-7594.279,7349.72c2.087.016,3.434-.324,4.988,1.6l5.1,6.718-3.7-.025a2.8,2.8,0,0,1-2.593-1.7Z" transform="translate(8355.641 -6805.846)" fill="url(#linear-gradient)"/>
      <path id="Path_20724" data-name="Path 20724" d="M-7585.888,7355.912l8.05,10.414-5.517-.036a4.282,4.282,0,0,1-3.761-2.584l-2.444-4.387.647-2.3Z" transform="translate(8358.746 -6801.766)" fill="url(#linear-gradient-2)"/>
      <path id="Path_20725" data-name="Path 20725" d="M-7588.4,7360.972l-1.873-3.347c-.547-1.042-.091-2.268,1.847-2.482s5.3-.549,6.29,1.6C-7584.764,7356.438-7588.657,7357.276-7588.4,7360.972Z" transform="translate(8358.131 -6802.377)" fill="url(#linear-gradient-4)"/>
      <path id="Path_20726" data-name="Path 20726" d="M-7594.279,7349.72c2.087.016,3.434-.324,4.988,1.6l5.1,6.718-3.7-.025a2.8,2.8,0,0,1-2.593-1.7Z" transform="translate(8355.641 -6852.012)" fill="url(#linear-gradient)"/>
      <path id="Path_20727" data-name="Path 20727" d="M-7585.888,7355.912l8.05,10.414-5.517-.036a4.282,4.282,0,0,1-3.761-2.584l-2.444-4.387.647-2.3Z" transform="translate(8358.746 -6847.932)" fill="url(#linear-gradient-2)"/>
      <path id="Path_20728" data-name="Path 20728" d="M-7588.4,7360.972l-1.873-3.347c-.547-1.042-.091-2.268,1.847-2.482s5.3-.549,6.29,1.6C-7584.764,7356.438-7588.657,7357.276-7588.4,7360.972Z" transform="translate(8358.131 -6848.543)" fill="url(#linear-gradient-4)"/>
      <line id="Line_44" data-name="Line 44" y2="96.85" transform="translate(1144.494 473.541)" fill="none" stroke="#707070" stroke-width="1" opacity="0.2"/>
      <path id="Path_20729" data-name="Path 20729" d="M924.333-2747.506H891.574a1.841,1.841,0,0,1-1.841-1.842,1.841,1.841,0,0,1,1.841-1.841h32.759a1.841,1.841,0,0,1,1.841,1.841A1.842,1.842,0,0,1,924.333-2747.506Z" transform="translate(-159.316 3229.521)" fill="#54699d"/>
      <path id="Path_20730" data-name="Path 20730" d="M924.333-2747.506H891.574a1.841,1.841,0,0,1-1.841-1.842,1.841,1.841,0,0,1,1.841-1.841h32.759a1.841,1.841,0,0,1,1.841,1.841A1.842,1.842,0,0,1,924.333-2747.506Z" transform="translate(107.684 3253.521)" fill="#54699d"/>
      <path id="Path_20731" data-name="Path 20731" d="M1015.253-2687.752H934.546c-1.883,0-3.41-.824-3.41-1.841s1.528-1.842,3.41-1.842h80.706c1.883,0,3.411.824,3.411,1.842S1017.136-2687.752,1015.253-2687.752Z" transform="translate(-146.119 3169.456)" fill="#66c1dd"/>
      <path id="Path_20732" data-name="Path 20732" d="M924.333-2747.506H891.574a1.841,1.841,0,0,1-1.841-1.842,1.841,1.841,0,0,1,1.841-1.841h32.759a1.841,1.841,0,0,1,1.841,1.841A1.842,1.842,0,0,1,924.333-2747.506Z" transform="translate(186.684 3229.521)" fill="#54699d"/>
      <path id="Path_20733" data-name="Path 20733" d="M1307.431-2687.752h-59.12c-2.952,0-5.348-.824-5.348-1.841s2.4-1.842,5.348-1.842h59.12c2.953,0,5.349.824,5.349,1.842S1310.383-2687.752,1307.431-2687.752Z" transform="translate(-452.574 3186.456)" fill="#00aeef"/>
      <path id="Path_20734" data-name="Path 20734" d="M941.119-2747.506H892.467c-1.51,0-2.734-.824-2.734-1.842s1.225-1.841,2.734-1.841h48.652c1.51,0,2.735.824,2.735,1.841S942.629-2747.506,941.119-2747.506Z" transform="translate(-99.316 3257.521)" fill="#54699d"/>
      <path id="Path_20735" data-name="Path 20735" d="M1307.431-2687.752h-59.12c-2.952,0-5.348-.824-5.348-1.841s2.4-1.842,5.348-1.842h59.12c2.953,0,5.349.824,5.349,1.842S1310.383-2687.752,1307.431-2687.752Z" transform="translate(-452.574 3241.456)" fill="#00aeef"/>
      <path id="Path_20736" data-name="Path 20736" d="M941.119-2747.506H892.467c-1.51,0-2.734-.824-2.734-1.842s1.225-1.841,2.734-1.841h48.652c1.51,0,2.735.824,2.735,1.841S942.629-2747.506,941.119-2747.506Z" transform="translate(-99.316 3312.521)" fill="#54699d"/>
      <path id="Path_20737" data-name="Path 20737" d="M945.735-2687.752H931.728c-.327,0-.592-.824-.592-1.841s.265-1.842.592-1.842h14.008c.327,0,.592.824.592,1.842S946.062-2687.752,945.735-2687.752Z" transform="translate(-201.119 3197.456)" fill="#66c1dd"/>
      <path id="Path_20738" data-name="Path 20738" d="M945.735-2687.752H931.728c-.327,0-.592-.824-.592-1.841s.265-1.842.592-1.842h14.008c.327,0,.592.824.592,1.842S946.062-2687.752,945.735-2687.752Z" transform="translate(-201.119 3249.456)" fill="#66c1dd"/>
      <path id="Path_20739" data-name="Path 20739" d="M924.333-2747.506H891.574a1.841,1.841,0,0,1-1.841-1.842,1.841,1.841,0,0,1,1.841-1.841h32.759a1.841,1.841,0,0,1,1.841,1.841A1.842,1.842,0,0,1,924.333-2747.506Z" transform="translate(107.684 3307.521)" fill="#54699d"/>
      <path id="Path_20740" data-name="Path 20740" d="M1260.109-2687.752h-15.724a1.673,1.673,0,0,1-1.422-1.841,1.673,1.673,0,0,1,1.422-1.842h15.724a1.673,1.673,0,0,1,1.422,1.842A1.673,1.673,0,0,1,1260.109-2687.752Z" transform="translate(-148.326 3186.456)" fill="#00aeef"/>
      <path id="Path_20741" data-name="Path 20741" d="M1260.109-2687.752h-15.724a1.673,1.673,0,0,1-1.422-1.841,1.673,1.673,0,0,1,1.422-1.842h15.724a1.673,1.673,0,0,1,1.422,1.842A1.673,1.673,0,0,1,1260.109-2687.752Z" transform="translate(-148.326 3241.456)" fill="#00aeef"/>
      <path id="Path_20742" data-name="Path 20742" d="M917.674-2747.506H891.22a1.693,1.693,0,0,1-1.487-1.842,1.692,1.692,0,0,1,1.487-1.841h26.454a1.693,1.693,0,0,1,1.487,1.841A1.693,1.693,0,0,1,917.674-2747.506Z" transform="translate(195.697 3257.521)" fill="#54699d"/>
      <path id="Path_20743" data-name="Path 20743" d="M917.674-2747.506H891.22a1.693,1.693,0,0,1-1.487-1.842,1.692,1.692,0,0,1,1.487-1.841h26.454a1.693,1.693,0,0,1,1.487,1.841A1.693,1.693,0,0,1,917.674-2747.506Z" transform="translate(195.697 3312.521)" fill="#54699d"/>
      <g id="Group_14371" data-name="Group 14371" transform="translate(1171.637 478.021)">
        <g id="Group_13270-8" data-name="Group 13270">
          <path id="Path_17241-8" data-name="Path 17241" d="M1260.109-2687.752h-15.724a1.673,1.673,0,0,1-1.422-1.841,1.673,1.673,0,0,1,1.422-1.842h15.724a1.673,1.673,0,0,1,1.422,1.842A1.673,1.673,0,0,1,1260.109-2687.752Z" transform="translate(-1242.963 2691.435)" fill="#00aeef"/>
        </g>
      </g>
      <path id="Path_20744" data-name="Path 20744" d="M917.674-2747.506H891.22a1.693,1.693,0,0,1-1.487-1.842,1.692,1.692,0,0,1,1.487-1.841h26.454a1.693,1.693,0,0,1,1.487,1.841A1.693,1.693,0,0,1,917.674-2747.506Z" transform="translate(281.697 3236.521)" fill="#54699d"/>
      <path id="Path_20745" data-name="Path 20745" d="M1287.466-2683.787h-40.812a3.76,3.76,0,0,1-3.692-3.824,3.76,3.76,0,0,1,3.692-3.824h40.812a3.76,3.76,0,0,1,3.692,3.824A3.76,3.76,0,0,1,1287.466-2683.787Z" transform="translate(-71.574 3199.609)" fill="#00aeef"/>
      <path id="Path_20746" data-name="Path 20746" d="M990.438-2685.31h-56.9c-1.327,0-2.4-1.371-2.4-3.062s1.077-3.062,2.4-3.062h56.9c1.328,0,2.4,1.371,2.4,3.063S991.766-2685.31,990.438-2685.31Z" transform="translate(239.881 3214.456)" fill="#66c1dd"/>
      <path id="Path_20748" data-name="Path 20748" d="M924.333-2747.506H891.574a1.841,1.841,0,0,1-1.841-1.842,1.841,1.841,0,0,1,1.841-1.841h32.759a1.841,1.841,0,0,1,1.841,1.841A1.842,1.842,0,0,1,924.333-2747.506Z" transform="translate(56.684 3253.521)" fill="#54699d"/>
      <path id="Path_20749" data-name="Path 20749" d="M924.333-2747.506H891.574a1.841,1.841,0,0,1-1.841-1.842,1.841,1.841,0,0,1,1.841-1.841h32.759a1.841,1.841,0,0,1,1.841,1.841A1.842,1.842,0,0,1,924.333-2747.506Z" transform="translate(56.684 3307.521)" fill="#54699d"/>
    </g>
    <g id="Group_14373" data-name="Group 14373" transform="translate(946.416 369.333)">
      <path id="Path_17237-9" data-name="Path 17237" d="M924.333-2747.506H891.574a1.841,1.841,0,0,1-1.841-1.842,1.841,1.841,0,0,1,1.841-1.841h32.759a1.841,1.841,0,0,1,1.841,1.841A1.842,1.842,0,0,1,924.333-2747.506Z" transform="translate(-889.733 2751.189)" fill="#54699d"/>
    </g>
    <path id="Path_20747" data-name="Path 20747" d="M924.333-2747.506H891.574a1.841,1.841,0,0,1-1.841-1.842,1.841,1.841,0,0,1,1.841-1.841h32.759a1.841,1.841,0,0,1,1.841,1.841A1.842,1.842,0,0,1,924.333-2747.506Z" transform="translate(56.684 3174.521)" fill="#54699d"/>
    <path id="Path_20750" data-name="Path 20750" d="M926.153-2747.506H891.671a1.892,1.892,0,0,1-1.938-1.842,1.891,1.891,0,0,1,1.938-1.841h34.482a1.891,1.891,0,0,1,1.938,1.841A1.892,1.892,0,0,1,926.153-2747.506Z" transform="translate(281.697 3179.521)" fill="#54699d"/>
    <path id="Path_20751" data-name="Path 20751" d="M926.153-2747.506H891.671a1.892,1.892,0,0,1-1.938-1.842,1.891,1.891,0,0,1,1.938-1.841h34.482a1.891,1.891,0,0,1,1.938,1.841A1.892,1.892,0,0,1,926.153-2747.506Z" transform="translate(281.697 3168.521)" fill="#54699d"/>
    <path id="Path_20752" data-name="Path 20752" d="M926.153-2747.506H891.671a1.892,1.892,0,0,1-1.938-1.842,1.891,1.891,0,0,1,1.938-1.841h34.482a1.891,1.891,0,0,1,1.938,1.841A1.892,1.892,0,0,1,926.153-2747.506Z" transform="translate(281.697 3312.521)" fill="#54699d"/>
    <path id="Path_20753" data-name="Path 20753" d="M926.153-2747.506H891.671a1.892,1.892,0,0,1-1.938-1.842,1.891,1.891,0,0,1,1.938-1.841h34.482a1.891,1.891,0,0,1,1.938,1.841A1.892,1.892,0,0,1,926.153-2747.506Z" transform="translate(281.697 3301.209)" fill="#54699d"/>
  </g>
</svg>
