<svg xmlns="http://www.w3.org/2000/svg" xmlns:xlink="http://www.w3.org/1999/xlink" width="72.181" height="63.291" viewBox="0 0 72.181 63.291">
  <defs>
    <linearGradient id="linear-gradient" x1="1.177" y1="3.538" x2="0.293" y2="-0.077" gradientUnits="objectBoundingBox">
      <stop offset="0" stop-color="#30acef"/>
      <stop offset="1" stop-color="#fff"/>
    </linearGradient>
    <linearGradient id="linear-gradient-2" x1="0.483" y1="0.876" x2="0.543" y2="-0.458" xlink:href="#linear-gradient"/>
    <linearGradient id="linear-gradient-3" x1="0.412" y1="2.506" x2="0.611" y2="-2.024" xlink:href="#linear-gradient"/>
    <linearGradient id="linear-gradient-4" x1="0.4" y1="2.546" x2="0.622" y2="-1.984" xlink:href="#linear-gradient"/>
  </defs>
  <g id="Group_13412" data-name="Group 13412" transform="translate(2036.075 605.848)">
    <rect id="Rectangle_3193" data-name="Rectangle 3193" width="54.73" height="40.836" rx="5" transform="translate(-2036.075 -605.848)" opacity="0.8" fill="url(#linear-gradient)"/>
    <g id="Group_13409" data-name="Group 13409" transform="translate(-2017.829 -576.108)" opacity="0.8">
      <g id="Group_13408" data-name="Group 13408" transform="translate(0 0)">
        <path id="Path_20331" data-name="Path 20331" d="M-1960.69-516.175c-.955-.353-1.774-.643-1.774-.643l-.866-2.06s.145-.322.353-.81c0-.005,0-.005.005-.016a22.734,22.734,0,0,0,1.473-3.891l-1.421-1.385-1.24-1.214c-.187-.177-4.731,1.893-4.731,1.893l-2.1-.845s-1.847-4.6-2.1-4.6h-3.761c-.259,0-1.976,4.612-1.976,4.612l-2.091.846s-4.643-1.971-4.819-1.8l-2.667,2.61c-.177.176,1.94,4.628,1.94,4.628l-.866,2.049s-4.7,1.811-4.7,2.055v3.689a18.117,18.117,0,0,0,3.289,1.421l1.427.519.861,2.049s-2.013,4.534-1.837,4.705l2.662,2.61a6.9,6.9,0,0,0,1.888-.654c1.318-.545,2.843-1.245,2.843-1.245l1.909.783.187.073s1.463,3.642,1.961,4.441c.067.1.114.156.14.156h3.761c.259,0,1.977-4.612,1.977-4.612l2.1-.851s4.633,1.971,4.809,1.805l2.666-2.609c.187-.182-1.94-4.628-1.94-4.628l.861-2.06s4.705-1.811,4.705-2.055v-3.689A14.922,14.922,0,0,0-1960.69-516.175Zm-14.2,8.576a5.516,5.516,0,0,1-2.324-.5,5.388,5.388,0,0,1-3.17-4.877,5.438,5.438,0,0,1,5.494-5.37,5.554,5.554,0,0,1,4.462,2.242,5.237,5.237,0,0,1,1.032,3.128,4.923,4.923,0,0,1-.088.96,5.41,5.41,0,0,1-3.455,4.067A5.534,5.534,0,0,1-1974.894-507.6Z" transform="translate(1992.03 529.747)" fill="url(#linear-gradient-2)"/>
      </g>
    </g>
    <g id="Group_13411" data-name="Group 13411" transform="translate(-1987.329 -582.309)">
      <g id="Group_13410" data-name="Group 13410" transform="translate(0 0)">
        <path id="Path_20332" data-name="Path 20332" d="M-1891.46-533.232c-.551-.444-1.026-.818-1.026-.818l-.113-1.549s.167-.18.412-.455c0,0,0,0,.007-.009a15.819,15.819,0,0,0,1.835-2.236l-.629-1.228-.547-1.075a25.8,25.8,0,0,0-3.538.2l-1.193-1.023a25.646,25.646,0,0,0-.363-3.5l-2.478-.835a24.514,24.514,0,0,0-2.326,2.6l-1.565.093a27,27,0,0,0-2.777-2.253l-2.336,1.127a25.264,25.264,0,0,0,.251,3.48l-1.026,1.158a27.314,27.314,0,0,0-3.553.31l-.819,2.43a12.582,12.582,0,0,0,1.852,1.667l.825.659.113,1.542a26.105,26.105,0,0,0-2.255,2.693l1.174,2.31a4.794,4.794,0,0,0,1.389-.011c.989-.066,2.15-.189,2.15-.189l1.084.94.107.089s.155,2.724.306,3.361c.021.084.041.128.058.134l2.478.835a24.544,24.544,0,0,0,2.326-2.6l1.573-.094a28.138,28.138,0,0,0,2.768,2.257l2.337-1.127a24.1,24.1,0,0,0-.251-3.48l1.025-1.166a27.371,27.371,0,0,0,3.557-.309l.819-2.43A10.37,10.37,0,0,0-1891.46-533.232Zm-11.263,2.5a3.831,3.831,0,0,1-1.42-.847,3.746,3.746,0,0,1-1.006-3.917,3.781,3.781,0,0,1,4.812-2.318,3.86,3.86,0,0,1,2.442,2.467,3.643,3.643,0,0,1-.014,2.291,3.4,3.4,0,0,1-.271.612,3.761,3.761,0,0,1-3.179,1.913A3.851,3.851,0,0,1-1902.723-530.736Z" transform="translate(1913.247 545.763)" fill="#09376e"/>
      </g>
    </g>
    <path id="Path_142" data-name="Path 142" d="M-2000.918-571.63a2.9,2.9,0,0,0,3.045,2.726h5.138v1.268h-5.279v1.134a2.815,2.815,0,0,0,2.958,2.647h2.323v2.93a2.87,2.87,0,0,0,3.015,2.7h2.6v-15.04h-13.8Z" transform="translate(-21.826 -19.684)" fill="url(#linear-gradient-3)"/>
    <path id="Path_143" data-name="Path 143" d="M-1952.243-562.586h-4.622v-7.977a2.707,2.707,0,0,0-2.711-2.7h-2.34v15.04h12.411v-1.637a2.732,2.732,0,0,0-2.738-2.727Z" transform="translate(-45.171 -19.686)" fill="url(#linear-gradient-4)"/>
  </g>
</svg>
