<svg xmlns="http://www.w3.org/2000/svg" xmlns:xlink="http://www.w3.org/1999/xlink" width="76.098" height="76.27" viewBox="0 0 76.098 76.27">
  <defs>
    <linearGradient id="linear-gradient" x1="1.349" y1="1.394" x2="-0.134" y2="-0.168" gradientUnits="objectBoundingBox">
      <stop offset="0" stop-color="#30acef"/>
      <stop offset="1" stop-color="#fff"/>
    </linearGradient>
    <linearGradient id="linear-gradient-2" x1="1.443" y1="1.349" x2="-0.266" y2="-0.514" xlink:href="#linear-gradient"/>
  </defs>
  <g id="Group_13404" data-name="Group 13404" transform="translate(2233.358 953.979)">
    <path id="Path_20324" data-name="Path 20324" d="M-2209.312-946.176l-22.378-14.032a1.221,1.221,0,0,1,.006-2.029l21.715-13.417a2.13,2.13,0,0,1,2.273.008l22.378,14.032a1.221,1.221,0,0,1-.006,2.028l-21.716,13.418A2.129,2.129,0,0,1-2209.312-946.176Z" transform="translate(-0.245 22)" fill="#09376e"/>
    <path id="Path_20325" data-name="Path 20325" d="M-2184.815-934.587v24.373a2.412,2.412,0,0,1-1.09,2.05l-22.18,13.91a2.8,2.8,0,0,1-3,0l-22.182-13.91a2.41,2.41,0,0,1-1.09-2.05v-24.373a.713.713,0,0,1,1.067-.669l22.115,13.868a2.964,2.964,0,0,0,3.18,0l22.113-13.867A.713.713,0,0,1-2184.815-934.587Z" transform="translate(1 -1.752)" fill="#09376e"/>
    <path id="Path_20326" data-name="Path 20326" d="M-2145.358-903.161l-22.378-14.032a1.221,1.221,0,0,1,.006-2.028l21.716-13.417a2.13,2.13,0,0,1,2.273.008l22.378,14.032a1.221,1.221,0,0,1-.006,2.028l-21.716,13.417A2.128,2.128,0,0,1-2145.358-903.161Z" transform="translate(-37.643 -3.154)" opacity="0.8" fill="url(#linear-gradient)"/>
    <path id="Path_20327" data-name="Path 20327" d="M-2120.862-891.572V-867.2a2.412,2.412,0,0,1-1.09,2.05l-22.181,13.91a2.794,2.794,0,0,1-3,0l-22.183-13.91a2.412,2.412,0,0,1-1.09-2.05v-24.373a.713.713,0,0,1,1.067-.669l22.116,13.867a2.963,2.963,0,0,0,3.18,0l22.113-13.867A.713.713,0,0,1-2120.862-891.572Z" transform="translate(-36.398 -26.906)" opacity="0.8" fill="url(#linear-gradient-2)"/>
  </g>
</svg>
