<svg xmlns="http://www.w3.org/2000/svg" xmlns:xlink="http://www.w3.org/1999/xlink" width="72.772" height="61.649" viewBox="0 0 72.772 61.649">
  <defs>
    <linearGradient id="linear-gradient" y1="0.5" x2="1" y2="0.5" gradientUnits="objectBoundingBox">
      <stop offset="0" stop-color="#7ee8f6"/>
      <stop offset="1" stop-color="#b59afe"/>
    </linearGradient>
    <linearGradient id="linear-gradient-2" x1="1.195" y1="2.777" x2="0.106" y2="-0.217" gradientUnits="objectBoundingBox">
      <stop offset="0" stop-color="#30acef"/>
      <stop offset="1" stop-color="#fff"/>
    </linearGradient>
    <linearGradient id="linear-gradient-3" x1="0.218" y1="1.023" x2="0.786" y2="-0.029" xlink:href="#linear-gradient-2"/>
    <linearGradient id="linear-gradient-4" x1="-0.156" y1="1.814" x2="0.735" y2="0.029" xlink:href="#linear-gradient-2"/>
  </defs>
  <g id="Group_13402" data-name="Group 13402" transform="translate(2307.91 860.915)">
    <g id="Group_13399" data-name="Group 13399" transform="translate(-2293.302 -860.915)">
      <g id="Group_13396" data-name="Group 13396">
        <g id="Group_13395" data-name="Group 13395" opacity="0.3" style="mix-blend-mode: multiply;isolation: isolate">
          <rect id="Rectangle_3189" data-name="Rectangle 3189" width="58.165" height="48.949" rx="10.348" fill="url(#linear-gradient)"/>
        </g>
      </g>
      <rect id="Rectangle_3190" data-name="Rectangle 3190" width="58.165" height="48.949" rx="10.348" fill="url(#linear-gradient-2)"/>
      <g id="Group_13397" data-name="Group 13397" transform="translate(7.925 14.875)">
        <path id="Path_20320" data-name="Path 20320" d="M-2255.379-803.737l-1.051-1.239,3.444-2.923a16.833,16.833,0,0,1,3.329-2.383,6.228,6.228,0,0,1,4.361-.588,8.712,8.712,0,0,1,2.488,1.267,10.08,10.08,0,0,0,1.559.9,6.453,6.453,0,0,0,6.429-1.431,21.3,21.3,0,0,0,4.4-6l.021-.037c1.621-2.845,3.637-6.384,6.589-8.943,1.968-1.7,4.017-2.238,5.623-1.465l-.7,1.463c-1.452-.7-3.317.764-3.854,1.229-2.742,2.377-4.682,5.782-6.241,8.519l-.021.037a22.516,22.516,0,0,1-4.772,6.446c-2.465,2.06-5.646,2.719-8.1,1.681a11.5,11.5,0,0,1-1.817-1.037,7.4,7.4,0,0,0-2.021-1.058,4.626,4.626,0,0,0-3.212.474,15.574,15.574,0,0,0-3,2.167Z" transform="translate(2256.43 826.929)" fill="#09376e"/>
      </g>
      <g id="Group_13398" data-name="Group 13398" transform="translate(41.706 11.909)">
        <circle id="Ellipse_412" data-name="Ellipse 412" cx="2.489" cy="2.489" r="2.489" transform="translate(0 1.905) rotate(-22.5)" fill="#09376e"/>
        <circle id="Ellipse_413" data-name="Ellipse 413" cx="0.79" cy="0.79" r="0.79" transform="translate(2.462 2.462)" fill="#fff"/>
      </g>
    </g>
    <g id="Group_13401" data-name="Group 13401" transform="translate(-2307.91 -838.507)">
      <ellipse id="Ellipse_414" data-name="Ellipse 414" cx="19.819" cy="19.62" rx="19.819" ry="19.62" fill="url(#linear-gradient-3)"/>
      <ellipse id="Ellipse_415" data-name="Ellipse 415" cx="16.645" cy="16.479" rx="16.645" ry="16.479" transform="translate(3.174 3.142)" fill="#febf00"/>
      <ellipse id="Ellipse_416" data-name="Ellipse 416" cx="16.645" cy="16.479" rx="16.645" ry="16.479" transform="translate(3.174 3.142)" fill="#fff"/>
      <ellipse id="Ellipse_417" data-name="Ellipse 417" cx="15.709" cy="15.552" rx="15.709" ry="15.552" transform="translate(4.109 4.068)" fill="url(#linear-gradient-4)"/>
      <g id="Group_13400" data-name="Group 13400" transform="translate(15.464 10.553)">
        <path id="Path_20321" data-name="Path 20321" d="M-2263.681-774.61a3.794,3.794,0,0,1-.18,1.569,3.436,3.436,0,0,1-.767,1.255,4.27,4.27,0,0,1-1.281.905,6.391,6.391,0,0,1-1.714.519l-.038,2.15a.373.373,0,0,1-.034.143.261.261,0,0,1-.122.11,1.143,1.143,0,0,1-.254.086,2.889,2.889,0,0,1-.411.058,3.459,3.459,0,0,1-.516.011,1.066,1.066,0,0,1-.311-.06.275.275,0,0,1-.156-.133.357.357,0,0,1-.031-.2l.047-2.04a7.773,7.773,0,0,1-.82-.09,6.58,6.58,0,0,1-.7-.154,4.3,4.3,0,0,1-.552-.192,1.428,1.428,0,0,1-.358-.207.677.677,0,0,1-.192-.326,3.28,3.28,0,0,1-.1-.659q-.028-.339-.025-.56a1.194,1.194,0,0,1,.042-.344.336.336,0,0,1,.112-.175.334.334,0,0,1,.171-.059.854.854,0,0,1,.391.12,6.871,6.871,0,0,0,.665.277,6.015,6.015,0,0,0,.968.253,5.022,5.022,0,0,0,1.313.045,2.856,2.856,0,0,0,1.7-.572,1.38,1.38,0,0,0,.476-1.2,1.233,1.233,0,0,0-.307-.768,2.245,2.245,0,0,0-.7-.491,5.846,5.846,0,0,0-.956-.344q-.528-.143-1.083-.31a9.193,9.193,0,0,1-1.091-.4,4.006,4.006,0,0,1-.977-.614,3.05,3.05,0,0,1-.732-.939,3.659,3.659,0,0,1-.357-1.391,3.579,3.579,0,0,1,.14-1.38,3.14,3.14,0,0,1,.631-1.129,3.632,3.632,0,0,1,1.092-.835,5.75,5.75,0,0,1,1.519-.508l.039-2.019a.315.315,0,0,1,.034-.138.3.3,0,0,1,.122-.11.852.852,0,0,1,.249-.085,3.558,3.558,0,0,1,.417-.053,3.624,3.624,0,0,1,.516-.011,1.089,1.089,0,0,1,.321.06.256.256,0,0,1,.151.134.621.621,0,0,1,.046.2l-.048,1.9c.188.012.387.032.6.063a5.069,5.069,0,0,1,.592.118,4.91,4.91,0,0,1,.5.16,1.163,1.163,0,0,1,.319.165.747.747,0,0,1,.144.159.812.812,0,0,1,.086.2,2.208,2.208,0,0,1,.059.3c.016.116.03.25.042.4q.025.309.025.509a1.137,1.137,0,0,1-.03.309.3.3,0,0,1-.078.147.2.2,0,0,1-.117.044.925.925,0,0,1-.389-.1q-.26-.109-.636-.23a7.25,7.25,0,0,0-.86-.212,3.932,3.932,0,0,0-1.052-.046,3.447,3.447,0,0,0-.879.171,1.683,1.683,0,0,0-.576.327,1.112,1.112,0,0,0-.3.456,1.349,1.349,0,0,0-.066.557,1.242,1.242,0,0,0,.313.767,2.137,2.137,0,0,0,.706.495,6.5,6.5,0,0,0,.971.344q.538.148,1.1.313a10.144,10.144,0,0,1,1.106.4,3.891,3.891,0,0,1,.986.6,3.1,3.1,0,0,1,.736.924A3.463,3.463,0,0,1-2263.681-774.61Z" transform="translate(2272.58 785.609)" fill="#09376e"/>
      </g>
    </g>
  </g>
</svg>
