<svg xmlns="http://www.w3.org/2000/svg" width="349.9" height="203.725" viewBox="0 0 349.9 203.725">
  <path id="klm-4" d="M168.5,0h11c.1,3.7.1,7.4.1,11.2h11c0,3.7,0,7.3-.1,11H179.6V33c-3.6.2-7.2.2-10.9.2v-11h-11c-.1-3.6-.1-7.3-.1-11h11.1c-.1-3.7.3-7.5-.2-11.2ZM104.9,30.9c11.1-2.7,23.2,6.5,23,18,.8,10.1-7.9,19.5-18,19.7A18.842,18.842,0,0,1,90.3,54c-2.8-10,4.5-21.2,14.6-23.1Zm44,0c11.1-2.6,23.2,6.6,22.9,18.1.9,10.3-8.5,19.9-18.8,19.7-9.1.4-17.6-6.7-19-15.7-2-9.8,5.1-20.3,14.9-22.1Zm44,0c10.7-2.5,22.4,6,22.8,17.1a18.768,18.768,0,0,1-10.1,18.5,19.462,19.462,0,0,1-22.1-3.1,19.243,19.243,0,0,1-2.9-24,19.031,19.031,0,0,1,12.3-8.5Zm44.1,0c9.6-2.2,20,4.4,22.2,14A19.431,19.431,0,0,1,252,65.1a19.117,19.117,0,1,1-15-34.2ZM108.5,96.4c-.3-7.6-.2-15.3-.1-22.9,44,.1,87.9,0,131.9.1V96.4c-43.9-.1-87.9-.2-131.8,0ZM0,115.8H33.3v31.9c11-10.5,21.8-21.3,32.8-31.9H99.7c-12.9,13.1-26.2,25.9-39,39.1,16.1,15.6,31.7,31.9,48,47.3.1-28.8,0-57.6.1-86.4h34.1v65.6c18.1-.1,36.2.1,54.4-.1.2,7.4,0,14.8.1,22.2H65.2c-10.4-10.6-21-21-31.5-31.5-.2,10.5,0,21-.1,31.5-11.2-.1-22.4,0-33.6-.1Zm206.6,0c18.3-.1,36.6.1,54.8-.1,5.8,15.7,10.8,31.6,16.3,47.5a6.662,6.662,0,0,0,1.3-2.1c5.2-15.1,10.5-30.1,15.8-45.2h55.1v87.7c-11.2.1-22.5.1-33.8.1,0-20.2.1-40.4-.1-60.6-1.6.9-1.7,2.9-2.4,4.4-6.5,18.8-13.2,37.4-19.8,56.2-10.6,0-21.2.1-31.7-.1-6.6-19.2-13.5-38.2-20.2-57.4a3.187,3.187,0,0,0-1.8-2.4v59.8H206.4c.2-29.4.2-58.6.2-87.8Z" fill="#8e969f"/>
</svg>
