<svg xmlns="http://www.w3.org/2000/svg" xmlns:xlink="http://www.w3.org/1999/xlink" width="497.137" height="179.126" viewBox="0 0 497.137 179.126">
  <defs>
    <linearGradient id="linear-gradient" x1="-401.8" y1="197.823" x2="-401.706" y2="197.91" gradientUnits="objectBoundingBox">
      <stop offset="0" stop-color="#f5f7f7"/>
      <stop offset="1" stop-color="#f5f7f7" stop-opacity="0.302"/>
    </linearGradient>
    <linearGradient id="linear-gradient-2" x1="-462.099" y1="277.605" x2="-461.972" y2="277.77" xlink:href="#linear-gradient"/>
    <linearGradient id="linear-gradient-3" x1="-405.71" y1="197.823" x2="-405.616" y2="197.91" xlink:href="#linear-gradient"/>
    <linearGradient id="linear-gradient-4" x1="-466.591" y1="277.605" x2="-466.465" y2="277.77" xlink:href="#linear-gradient"/>
    <linearGradient id="linear-gradient-5" x1="0.584" y1="1.226" x2="0.236" y2="-1.43" gradientUnits="objectBoundingBox">
      <stop offset="0" stop-color="#ccc"/>
      <stop offset="1" stop-color="#fff"/>
    </linearGradient>
    <linearGradient id="linear-gradient-6" x1="0.719" y1="2.448" x2="0.091" y2="-3.057" xlink:href="#linear-gradient-5"/>
  </defs>
  <g id="Group_15901" data-name="Group 15901" transform="translate(-647.863 -442.988)">
    <g id="Group_15899" data-name="Group 15899" transform="translate(662.838 385.585)">
      <g id="Group_5952" data-name="Group 5952" transform="translate(18.962 57.903)">
        <path id="Rectangle_1396" data-name="Rectangle 1396" d="M2609.732,4125.256h0a33.854,33.854,0,0,1,33.857,33.854V4192.9a33.853,33.853,0,0,1-33.857,33.854h0a33.856,33.856,0,0,1-33.855-33.854v-33.792A33.856,33.856,0,0,1,2609.732,4125.256Z" transform="translate(-2360.563 -4125.256)" fill="#d5e6ef" opacity="0.15" style="isolation: isolate"/>
        <g id="Group_3988" data-name="Group 3988" transform="translate(228.635 23.393)">
          <path id="Path_2964" data-name="Path 2964" d="M2620.585,4149.256V4180.2a11.861,11.861,0,0,1-11.512,12.111h-14.806a11.04,11.04,0,0,1-5.659-1.573,11.835,11.835,0,0,1-2.618-2.147,12.1,12.1,0,0,1-2.086-3.12,12.546,12.546,0,0,1-1.154-5.272v-30.942a12.4,12.4,0,0,1,3.393-8.564,11.217,11.217,0,0,1,8.125-3.538h14.806a11.238,11.238,0,0,1,8.126,3.538,12.369,12.369,0,0,1,3.376,8.111C2620.582,4148.953,2620.585,4149.1,2620.585,4149.256Z" transform="translate(-2582.75 -4137.152)" fill="#83b7e3"/>
          <path id="Path_2965" data-name="Path 2965" d="M2615.529,4154.94v15.211a15.387,15.387,0,0,1-2.223,7.987,15.82,15.82,0,0,1-1.646,2.244,15.488,15.488,0,0,1-22.33,1.024,15.867,15.867,0,0,1-2.362-2.841,15.425,15.425,0,0,1-2.492-8.411v-15.211a15.376,15.376,0,0,1,.24-2.7,15.618,15.618,0,0,1,11-12.22,15.456,15.456,0,0,1,15.254,3.954,15.366,15.366,0,0,1,4.555,10.964Z" transform="translate(-2581.08 -4134.964)" fill="#a7d7ff"/>
          <g id="Group_12-2-9" data-name="Group 12-2-9" transform="translate(20.916 43.169)" opacity="0.7">
            <path id="Path_2966" data-name="Path 2966" d="M2604.693,4159.1a15.582,15.582,0,0,1-1.647,2.246h-9.66l4.187-.311a2.112,2.112,0,0,1,.6-.422c.466-.22.889-.232.967-.036a5.956,5.956,0,0,1,.722-.5c1.066-.619,2.036-.718,2.163-.212a.466.466,0,0,1,0,.246,6.014,6.014,0,0,1,1.357-.7A5.366,5.366,0,0,1,2604.693,4159.1Z" transform="translate(-2593.386 -4159.104)" fill="#fff"/>
          </g>
          <g id="Group_12-2-10" data-name="Group 12-2-10" transform="translate(27.466 23.639)" opacity="0.7">
            <path id="Path_2967" data-name="Path 2967" d="M2603.69,4149.323v1.112h-6.973l2.321-.169a1.089,1.089,0,0,1,.338-.238c.251-.12.492-.127.533-.019a3.344,3.344,0,0,1,.393-.276c.59-.344,1.129-.394,1.2-.116a.4.4,0,0,1,0,.136,3,3,0,0,1,.748-.395A1.636,1.636,0,0,1,2603.69,4149.323Z" transform="translate(-2596.717 -4149.172)" fill="#fff"/>
          </g>
          <g id="Group_12-2-11" data-name="Group 12-2-11" transform="translate(4.376 17.681)" opacity="0.7">
            <path id="Fill_10-7" data-name="Fill 10-7" d="M2598.239,4148.074a.71.71,0,0,0,.116-.456c-.043-.254-.289-.407-.659-.45a.791.791,0,0,0,.063-.425c-.11-.677-1.359-.8-2.787-.273a5.835,5.835,0,0,0-1.354.7.588.588,0,0,0,0-.244c-.126-.5-1.1-.407-2.164.21a5.884,5.884,0,0,0-.72.5c-.081-.2-.5-.2-.97.035a2.133,2.133,0,0,0-.605.421l-4.185.311h16.506Z" transform="translate(-2584.975 -4146.144)" fill="#fff"/>
          </g>
          <path id="Path_2968" data-name="Path 2968" d="M2614.914,4150.615l-27.948,27.952a15.431,15.431,0,0,1-2.491-8.413v-15.211a14.989,14.989,0,0,1,.188-2.375c.01-.111.031-.217.049-.327l11-12.22a15.569,15.569,0,0,1,19.2,10.594Z" transform="translate(-2581.083 -4134.965)" opacity="0.27" fill="url(#linear-gradient)" style="isolation: isolate"/>
          <path id="Path_2969" data-name="Path 2969" d="M2613.143,4147.441v4.765l-23.5,23.5a15.357,15.357,0,0,1-2.7-2.058Z" transform="translate(-2578.698 -4127.208)" opacity="0.27" fill="url(#linear-gradient-2)" style="isolation: isolate"/>
          <g id="Group_77-3" data-name="Group 77-3" transform="translate(3.392 27.525)" opacity="0.47">
            <path id="Path_106-3" data-name="Path 106-3" d="M2591.4,4152.849l-2.629.033-1.522-1.648a.051.051,0,0,1,0-.073l0,0a.054.054,0,0,1,.036-.01h0a1.608,1.608,0,0,1,.709.15Z" transform="translate(-2581.813 -4151.149)" fill="#e5e8f0"/>
            <path id="Path_107-3" data-name="Path 107-3" d="M2587.514,4151.183l1.432,1.548,1.943-.026-3.17-1.447A2,2,0,0,0,2587.514,4151.183Z" transform="translate(-2581.538 -4151.116)" fill="#192f77"/>
            <path id="Path_2970" data-name="Path 2970" d="M2585.47,4152.18l-.995.01v-.852l.289.272a.956.956,0,0,0,.613.259h.086Z" transform="translate(-2584.475 -4150.966)" fill="#192f77"/>
            <path id="Path_2971" data-name="Path 2971" d="M2601.849,4152.568a.294.294,0,0,1-.155.259l-.063.024-1.53.37a8.087,8.087,0,0,1-1.84.231l-4.875.063-2.2.027-.853.013-2.9.035a7.744,7.744,0,0,1-2.959-.547V4151.7h.9l5.229-.066h.55l.972-.012,7.258-.093a2.157,2.157,0,0,1,.875.18h.012l.7.306h0l.7.312a.246.246,0,0,1,.07.045.266.266,0,0,1,.044.047l.011.016.014.024A.258.258,0,0,1,2601.849,4152.568Z" transform="translate(-2584.475 -4150.784)" fill="#30acef"/>
            <path id="Path_2972" data-name="Path 2972" d="M2601.8,4152.418l-.866.208a9.011,9.011,0,0,1-2.039.256l-4.326.056-2.883.035-.85.012-3.933.049a8.46,8.46,0,0,1-2.421-.32v-1.019h.9l5.229-.066h.551l.972-.013,7.258-.09a2.138,2.138,0,0,1,.875.177h.012l.7.307h0l.7.312a.234.234,0,0,1,.071.045.17.17,0,0,1,.043.047Z" transform="translate(-2584.469 -4150.786)" fill="#fff"/>
            <path id="Path_111-3" data-name="Path 111-3" d="M2592.3,4151.937l1.28-.014-.7-.314h-.59a.163.163,0,0,0-.158.165h0a.158.158,0,0,0,.154.163Z" transform="translate(-2577.078 -4150.706)" fill="#192f77" opacity="0.112" style="isolation: isolate"/>
            <g id="Group_36-3" data-name="Group 36-3" transform="translate(4.904 1.141)" opacity="0.112">
              <path id="Rectangle_3-3" data-name="Rectangle 3-3" d="M2591.372,4151.965h0a.116.116,0,0,1-.12-.116h0a.116.116,0,0,1,.116-.119h0a.119.119,0,0,1,.12.115h0a.116.116,0,0,1-.108.12Z" transform="translate(-2582.83 -4151.729)" fill="#192f77"/>
              <path id="Rectangle_4-3" data-name="Rectangle 4-3" d="M2591.016,4151.968h0a.119.119,0,0,1-.12-.118h0a.119.119,0,0,1,.116-.12h0a.12.12,0,0,1,.12.116h0a.12.12,0,0,1-.118.122Z" transform="translate(-2583.174 -4151.728)" fill="#192f77"/>
              <path id="Rectangle_5-3" data-name="Rectangle 5-3" d="M2590.659,4151.973h0a.121.121,0,0,1-.122-.118h0a.119.119,0,0,1,.116-.12h0a.116.116,0,0,1,.12.116h0a.115.115,0,0,1-.11.122Z" transform="translate(-2583.521 -4151.723)" fill="#192f77"/>
              <path id="Rectangle_6-3" data-name="Rectangle 6-3" d="M2590.3,4151.977h0a.118.118,0,0,1-.122-.113v0h0a.12.12,0,0,1,.118-.119h0a.117.117,0,0,1,.12.115h0a.115.115,0,0,1-.112.12Z" transform="translate(-2583.865 -4151.717)" fill="#192f77"/>
              <path id="Rectangle_7-3" data-name="Rectangle 7-3" d="M2589.944,4151.981h0a.12.12,0,0,1-.12-.116h0a.121.121,0,0,1,.12-.12h0a.114.114,0,0,1,.118.114v0h0a.117.117,0,0,1-.114.118Z" transform="translate(-2584.21 -4151.713)" fill="#192f77"/>
              <path id="Rectangle_8-3" data-name="Rectangle 8-3" d="M2589.587,4151.985h0a.119.119,0,0,1-.12-.116h0a.12.12,0,0,1,.118-.12h0a.119.119,0,0,1,.122.116h0a.119.119,0,0,1-.114.12Z" transform="translate(-2584.555 -4151.709)" fill="#192f77"/>
              <path id="Rectangle_9-3" data-name="Rectangle 9-3" d="M2589.232,4151.992h0a.12.12,0,0,1-.122-.118h0a.12.12,0,0,1,.117-.12h0a.117.117,0,0,1,.12.116v0h0a.115.115,0,0,1-.112.12Z" transform="translate(-2584.9 -4151.705)" fill="#192f77"/>
              <path id="Rectangle_10-3" data-name="Rectangle 10-3" d="M2588.878,4151.994h0a.113.113,0,0,1-.12-.107v-.009h0a.118.118,0,0,1,.114-.12h0a.118.118,0,0,1,.119.112v0h0a.116.116,0,0,1-.114.12Z" transform="translate(-2585.24 -4151.701)" fill="#192f77"/>
              <path id="Rectangle_11-3" data-name="Rectangle 11-3" d="M2588.514,4152h0a.114.114,0,0,1-.118-.113v0h0a.119.119,0,0,1,.114-.118h0a.118.118,0,0,1,.12.115h0a.115.115,0,0,1-.112.12Z" transform="translate(-2585.59 -4151.696)" fill="#192f77"/>
              <path id="Rectangle_12-3" data-name="Rectangle 12-3" d="M2588.161,4152h0a.12.12,0,0,1-.12-.117h0a.118.118,0,0,1,.116-.12h0a.117.117,0,0,1,.12.111v0h0a.117.117,0,0,1-.11.121Z" transform="translate(-2585.933 -4151.695)" fill="#192f77"/>
              <path id="Rectangle_13-3" data-name="Rectangle 13-3" d="M2587.8,4152.01h0a.12.12,0,0,1-.12-.12h0a.118.118,0,0,1,.116-.117h0a.115.115,0,0,1,.12.112v0h0a.118.118,0,0,1-.114.121Z" transform="translate(-2586.279 -4151.688)" fill="#192f77"/>
              <path id="Rectangle_14-3" data-name="Rectangle 14-3" d="M2587.447,4152.011h0a.12.12,0,0,1-.122-.118h0a.119.119,0,0,1,.118-.118h0a.115.115,0,0,1,.12.112v0h0a.115.115,0,0,1-.112.12Z" transform="translate(-2586.625 -4151.685)" fill="#192f77"/>
              <path id="Rectangle_15-3" data-name="Rectangle 15-3" d="M2587.089,4152.017h0a.12.12,0,0,1-.12-.116h0a.119.119,0,0,1,.116-.12h0a.116.116,0,0,1,.12.116h0a.117.117,0,0,1-.116.12Z" transform="translate(-2586.969 -4151.679)" fill="#192f77"/>
            </g>
            <path id="Path_112-3" data-name="Path 112-3" d="M2593,4152.107l-4.053.049-2.24,2.557a.106.106,0,0,0,0,.148l0,0a.1.1,0,0,0,.071.028h.1a1.809,1.809,0,0,0,.787-.185Z" transform="translate(-2582.352 -4150.224)" fill="#e5e8f0"/>
            <path id="Path_113-3" data-name="Path 113-3" d="M2587.124,4154.721a.106.106,0,0,0-.026.047,1.356,1.356,0,0,0,.155-.067l5.329-2.593-3.2.039Z" transform="translate(-2581.94 -4150.224)" fill="#192f77"/>
          </g>
        </g>
        <path id="Rectangle_1396-2" data-name="Rectangle 1396" d="M2674.442,4125.256h0a33.854,33.854,0,0,1,33.857,33.854V4192.9a33.853,33.853,0,0,1-33.857,33.854h0a33.856,33.856,0,0,1-33.855-33.854v-33.792A33.856,33.856,0,0,1,2674.442,4125.256Z" transform="translate(-2265.884 -4125.256)" fill="#d5e6ef" opacity="0.15" style="isolation: isolate"/>
        <g id="Group_3988-2" data-name="Group 3988" transform="translate(388.219 23.393)">
          <path id="Path_2964-2" data-name="Path 2964" d="M2685.3,4149.256V4180.2a11.86,11.86,0,0,1-11.512,12.111h-14.806a11.04,11.04,0,0,1-5.659-1.573,11.846,11.846,0,0,1-2.618-2.147,12.083,12.083,0,0,1-2.086-3.12,12.547,12.547,0,0,1-1.155-5.272v-30.942a12.4,12.4,0,0,1,3.393-8.564,11.217,11.217,0,0,1,8.125-3.538h14.806a11.236,11.236,0,0,1,8.125,3.538,12.369,12.369,0,0,1,3.376,8.111C2685.292,4148.953,2685.3,4149.1,2685.3,4149.256Z" transform="translate(-2647.46 -4137.152)" fill="#83b7e3"/>
          <path id="Path_2965-2" data-name="Path 2965" d="M2680.239,4154.94v15.211a15.387,15.387,0,0,1-2.222,7.987,15.823,15.823,0,0,1-1.646,2.244,15.488,15.488,0,0,1-22.33,1.024,15.772,15.772,0,0,1-2.359-2.841,15.406,15.406,0,0,1-2.494-8.411v-15.211a15.376,15.376,0,0,1,.24-2.7,15.619,15.619,0,0,1,11-12.22,15.457,15.457,0,0,1,15.254,3.954,15.367,15.367,0,0,1,4.554,10.964Z" transform="translate(-2645.79 -4134.964)" fill="#a7d7ff"/>
          <g id="Group_12-2-9-2" data-name="Group 12-2-9" transform="translate(20.916 43.169)" opacity="0.7">
            <path id="Path_2966-2" data-name="Path 2966" d="M2669.4,4159.1a15.622,15.622,0,0,1-1.648,2.246h-9.66l4.187-.311a2.1,2.1,0,0,1,.6-.422c.466-.22.891-.232.967-.036a5.924,5.924,0,0,1,.722-.5c1.066-.619,2.035-.718,2.163-.212a.476.476,0,0,1,0,.246,6,6,0,0,1,1.356-.7A5.369,5.369,0,0,1,2669.4,4159.1Z" transform="translate(-2658.096 -4159.104)" fill="#fff"/>
          </g>
          <g id="Group_12-2-10-2" data-name="Group 12-2-10" transform="translate(27.468 23.639)" opacity="0.7">
            <path id="Path_2967-2" data-name="Path 2967" d="M2668.4,4149.323v1.112h-6.971l2.318-.169a1.1,1.1,0,0,1,.338-.238c.251-.12.492-.127.533-.019a3.31,3.31,0,0,1,.394-.276c.59-.344,1.128-.394,1.2-.116a.4.4,0,0,1,0,.136,3.031,3.031,0,0,1,.746-.395A1.64,1.64,0,0,1,2668.4,4149.323Z" transform="translate(-2661.428 -4149.172)" fill="#fff"/>
          </g>
          <g id="Group_12-2-11-2" data-name="Group 12-2-11" transform="translate(4.376 17.681)" opacity="0.7">
            <path id="Fill_10-7-2" data-name="Fill 10-7" d="M2662.949,4148.074a.7.7,0,0,0,.114-.456c-.04-.254-.285-.407-.657-.45a.791.791,0,0,0,.063-.425c-.11-.677-1.358-.8-2.786-.273a5.829,5.829,0,0,0-1.355.7.572.572,0,0,0,0-.244c-.126-.5-1.1-.407-2.164.21a6.055,6.055,0,0,0-.721.5c-.079-.2-.5-.2-.968.035a2.136,2.136,0,0,0-.606.421l-4.185.311h16.507Z" transform="translate(-2649.685 -4146.144)" fill="#fff"/>
          </g>
          <path id="Path_2968-2" data-name="Path 2968" d="M2679.625,4150.615l-27.948,27.952a15.435,15.435,0,0,1-2.491-8.413v-15.211a15.046,15.046,0,0,1,.188-2.375c.01-.111.032-.217.049-.327l11-12.22a15.57,15.57,0,0,1,19.2,10.594Z" transform="translate(-2645.793 -4134.965)" opacity="0.27" fill="url(#linear-gradient-3)" style="isolation: isolate"/>
          <path id="Path_2969-2" data-name="Path 2969" d="M2677.853,4147.441v4.765l-23.5,23.5a15.357,15.357,0,0,1-2.7-2.058Z" transform="translate(-2643.407 -4127.208)" opacity="0.27" fill="url(#linear-gradient-4)" style="isolation: isolate"/>
          <g id="Group_77-3-2" data-name="Group 77-3" transform="translate(3.392 27.525)" opacity="0.47">
            <path id="Path_106-3-2" data-name="Path 106-3" d="M2656.107,4152.849l-2.631.033-1.52-1.648a.051.051,0,0,1,0-.073l0,0a.054.054,0,0,1,.036-.01h0a1.606,1.606,0,0,1,.709.15Z" transform="translate(-2646.523 -4151.149)" fill="#e5e8f0"/>
            <path id="Path_107-3-2" data-name="Path 107-3" d="M2652.224,4151.183l1.431,1.548,1.943-.026-3.17-1.447A2.03,2.03,0,0,0,2652.224,4151.183Z" transform="translate(-2646.248 -4151.116)" fill="#192f77"/>
            <path id="Path_2970-2" data-name="Path 2970" d="M2650.18,4152.18l-.995.01v-.852l.289.272a.956.956,0,0,0,.613.259h.086Z" transform="translate(-2649.185 -4150.966)" fill="#192f77"/>
            <path id="Path_2971-2" data-name="Path 2971" d="M2666.559,4152.568a.293.293,0,0,1-.155.259l-.063.024-1.53.37a8.081,8.081,0,0,1-1.84.231l-4.875.063-2.2.027-.854.013-2.9.035a7.744,7.744,0,0,1-2.959-.547V4151.7h.9l5.229-.066h.551l.971-.012,7.258-.093a2.155,2.155,0,0,1,.875.18h.012l.7.306h0l.7.312a.248.248,0,0,1,.071.045.283.283,0,0,1,.043.047l.011.016.014.024A.252.252,0,0,1,2666.559,4152.568Z" transform="translate(-2649.185 -4150.784)" fill="#30acef"/>
            <path id="Path_2972-2" data-name="Path 2972" d="M2666.508,4152.418l-.866.208a9,9,0,0,1-2.039.256l-4.326.056-2.883.035-.849.012-3.933.049a8.464,8.464,0,0,1-2.421-.32v-1.019h.9l5.229-.066h.55l.972-.013,7.258-.09a2.14,2.14,0,0,1,.875.177h.012l.7.307h0l.7.312a.229.229,0,0,1,.071.045.17.17,0,0,1,.043.047Z" transform="translate(-2649.179 -4150.786)" fill="#fff"/>
            <path id="Path_111-3-2" data-name="Path 111-3" d="M2657.008,4151.937l1.28-.014-.7-.314H2657a.163.163,0,0,0-.157.165h0a.157.157,0,0,0,.153.163Z" transform="translate(-2641.789 -4150.706)" fill="#192f77" opacity="0.112" style="isolation: isolate"/>
            <g id="Group_36-3-2" data-name="Group 36-3" transform="translate(4.904 1.141)" opacity="0.112">
              <path id="Rectangle_3-3-2" data-name="Rectangle 3-3" d="M2656.082,4151.965h0a.116.116,0,0,1-.12-.116h0a.116.116,0,0,1,.116-.119h0a.119.119,0,0,1,.12.115h0a.116.116,0,0,1-.108.12Z" transform="translate(-2647.54 -4151.729)" fill="#192f77"/>
              <path id="Rectangle_4-3-2" data-name="Rectangle 4-3" d="M2655.726,4151.968h0a.119.119,0,0,1-.12-.118h0a.117.117,0,0,1,.116-.12h0a.12.12,0,0,1,.12.116h0a.12.12,0,0,1-.118.122Z" transform="translate(-2647.884 -4151.728)" fill="#192f77"/>
              <path id="Rectangle_5-3-2" data-name="Rectangle 5-3" d="M2655.369,4151.973h0a.12.12,0,0,1-.122-.118h0a.119.119,0,0,1,.116-.12h0a.116.116,0,0,1,.12.116h0a.114.114,0,0,1-.11.122Z" transform="translate(-2648.231 -4151.723)" fill="#192f77"/>
              <path id="Rectangle_6-3-2" data-name="Rectangle 6-3" d="M2655.013,4151.977h0a.118.118,0,0,1-.122-.113v0h0a.119.119,0,0,1,.118-.119h0a.115.115,0,0,1,.12.115h0a.115.115,0,0,1-.112.12Z" transform="translate(-2648.574 -4151.717)" fill="#192f77"/>
              <path id="Rectangle_7-3-2" data-name="Rectangle 7-3" d="M2654.654,4151.981h0a.12.12,0,0,1-.12-.116h0a.121.121,0,0,1,.12-.12h0a.114.114,0,0,1,.118.114v0h0a.117.117,0,0,1-.114.118Z" transform="translate(-2648.92 -4151.713)" fill="#192f77"/>
              <path id="Rectangle_8-3-2" data-name="Rectangle 8-3" d="M2654.3,4151.985h0a.119.119,0,0,1-.12-.116h0a.12.12,0,0,1,.118-.12h0a.119.119,0,0,1,.122.116h0a.117.117,0,0,1-.114.12Z" transform="translate(-2649.265 -4151.709)" fill="#192f77"/>
              <path id="Rectangle_9-3-2" data-name="Rectangle 9-3" d="M2653.942,4151.992h0a.12.12,0,0,1-.122-.118h0a.12.12,0,0,1,.118-.12h0a.117.117,0,0,1,.12.116v0h0a.115.115,0,0,1-.112.12Z" transform="translate(-2649.61 -4151.705)" fill="#192f77"/>
              <path id="Rectangle_10-3-2" data-name="Rectangle 10-3" d="M2653.588,4151.994h0a.113.113,0,0,1-.12-.107v-.009h0a.118.118,0,0,1,.112-.12h.006a.12.12,0,0,1,.12.112v0h0a.117.117,0,0,1-.114.12Z" transform="translate(-2649.95 -4151.701)" fill="#192f77"/>
              <path id="Rectangle_11-3-2" data-name="Rectangle 11-3" d="M2653.224,4152h0a.115.115,0,0,1-.118-.113v0h0a.117.117,0,0,1,.114-.118h0a.118.118,0,0,1,.12.115h0a.115.115,0,0,1-.112.12Z" transform="translate(-2650.3 -4151.696)" fill="#192f77"/>
              <path id="Rectangle_12-3-2" data-name="Rectangle 12-3" d="M2652.871,4152h0a.12.12,0,0,1-.12-.117h0a.118.118,0,0,1,.116-.12h0a.117.117,0,0,1,.12.111v0h0a.118.118,0,0,1-.11.121Z" transform="translate(-2650.643 -4151.695)" fill="#192f77"/>
              <path id="Rectangle_13-3-2" data-name="Rectangle 13-3" d="M2652.513,4152.01h0a.12.12,0,0,1-.12-.12h0a.118.118,0,0,1,.116-.117h0a.115.115,0,0,1,.12.112v0h0a.118.118,0,0,1-.114.121Z" transform="translate(-2650.989 -4151.688)" fill="#192f77"/>
              <path id="Rectangle_14-3-2" data-name="Rectangle 14-3" d="M2652.157,4152.011h0a.12.12,0,0,1-.122-.118h0a.119.119,0,0,1,.118-.118h0a.115.115,0,0,1,.12.112v0h0a.115.115,0,0,1-.112.12Z" transform="translate(-2651.335 -4151.685)" fill="#192f77"/>
              <path id="Rectangle_15-3-2" data-name="Rectangle 15-3" d="M2651.8,4152.017h0a.12.12,0,0,1-.12-.116h0a.119.119,0,0,1,.116-.12h0a.116.116,0,0,1,.12.116h0a.118.118,0,0,1-.116.12Z" transform="translate(-2651.679 -4151.679)" fill="#192f77"/>
            </g>
            <path id="Path_112-3-2" data-name="Path 112-3" d="M2657.706,4152.107l-4.052.049-2.24,2.557a.106.106,0,0,0,0,.148l0,0a.1.1,0,0,0,.071.028h.1a1.812,1.812,0,0,0,.787-.185Z" transform="translate(-2647.062 -4150.224)" fill="#e5e8f0"/>
            <path id="Path_113-3-2" data-name="Path 113-3" d="M2651.834,4154.721a.105.105,0,0,0-.025.047,1.349,1.349,0,0,0,.155-.067l5.329-2.593-3.2.039Z" transform="translate(-2646.65 -4150.224)" fill="#192f77"/>
          </g>
        </g>
        <g id="Group_3990" data-name="Group 3990" transform="translate(160.988 15.237)">
          <path id="Path_2974" data-name="Path 2974" d="M2600.764,4210.052s3.261,5.133,4.72,5.738a51.179,51.179,0,0,0,7.529,3,5.42,5.42,0,0,1,4.588,3.963h-25.863a11.07,11.07,0,0,1,0-5.812c.924-2.521,1.056-12.628,1.056-12.628Z" transform="translate(-2512.495 -4059.725)" fill="#171032"/>
          <path id="Path_2975" data-name="Path 2975" d="M2553.6,4159.867c.537.463.087-.619.607-.231a28.977,28.977,0,0,0,6.9,3.89,12.743,12.743,0,0,0,4.993,1.075h.248c.239,0,.481-.02.724-.041a6.96,6.96,0,0,0,4.607-1.709.783.783,0,0,0,.129-.37,1.136,1.136,0,0,0-.248-.737,4.942,4.942,0,0,0-.732-.787,7.68,7.68,0,0,0-1.933-1.117c-.625-.321-1.235-.673-1.825-1.054-.032-.02-.069-.042-.1-.065a27.58,27.58,0,0,1-.3-3.244v-.432a28.581,28.581,0,0,1,.12-3.31,2.13,2.13,0,0,1,.03-.317c.012-.137.029-.277.045-.413l-11.152-3.658c0,.481,0,.958.011,1.438q.021,2.949.038,5.9A14.277,14.277,0,0,1,2553.6,4159.867Z" transform="translate(-2548.982 -4118.271)" fill="#fde5d3"/>
          <path id="Path_2976" data-name="Path 2976" d="M2554.688,4149.007a32.911,32.911,0,0,0,5.038,3.54c.439.265.877.527,1.328.787a17.512,17.512,0,0,0,4.564,1.933h.018a29.065,29.065,0,0,1,.163-3.768c0-.092.022-.183.029-.271a.4.4,0,0,0-.072-.024q-5.531-1.82-11.079-3.638C2554.688,4148.05,2554.688,4148.526,2554.688,4149.007Z" transform="translate(-2547.939 -4118.103)" fill="#fad0c4"/>
          <path id="Path_2977" data-name="Path 2977" d="M2560.328,4149.417c-.014.1-.023.208-.032.317a.493.493,0,0,1,.075-.024c0-.092.02-.185.027-.271C2560.375,4149.431,2560.351,4149.423,2560.328,4149.417Z" transform="translate(-2542.508 -4116.252)" fill="#1b173d" opacity="0.13" style="isolation: isolate"/>
          <path id="Path_250" data-name="Path 250" d="M2573.79,4140.959s.6,19.933-5.689,21.26-13.834-6.155-14.876-12.617C2552.341,4144.089,2554.681,4131.78,2573.79,4140.959Z" transform="translate(-2549.494 -4128.504)" fill="#fde5d3"/>
          <path id="Path_2979" data-name="Path 2979" d="M2591.771,4190.292s-1.683,25.761.844,36.637c0,0,7.53,1.517,11.1.618l.944-26.315Z" transform="translate(-2512.618 -4073.272)" fill="#1b173d"/>
          <path id="Path_2980" data-name="Path 2980" d="M2610.246,4209.534a29.67,29.67,0,0,0,5.205,5.24,51.265,51.265,0,0,0,7.529,3,5.411,5.411,0,0,1,4.588,3.963h-25.863a11.12,11.12,0,0,1,0-5.812c.926-2.521-2.476-10.569-2.476-10.569Z" transform="translate(-2504.879 -4058.717)" fill="#171032"/>
          <path id="Path_2981" data-name="Path 2981" d="M2612.508,4194.99a5.443,5.443,0,0,0-6.952-2.929l-2.12-.456-13.62-9.58c-1.4-.983-18.125-19.706-18.125-19.706l-15.807,3.343s24.752,21.883,28.351,24.308c5.949,4.008,20.51,6.519,20.51,6.519a6.2,6.2,0,0,0,3.793.752c2.23-.227,1.638.055,3.224-.073S2612.508,4194.99,2612.508,4194.99Z" transform="translate(-2546.771 -4102.638)" fill="#edd8ca"/>
          <path id="Path_2982" data-name="Path 2982" d="M2557.792,4183.551l27.637-3.107s34.508-.026,42.232,4.146c9.6,5.187,24.581,51.455,24.581,51.455s-3.343,3.387-9.814,1.609c-3.565-.983-20.343-27.188-22.9-36.7-1.33-4.94-45.471,5.211-53.992,1.644S2557.792,4183.551,2557.792,4183.551Z" transform="translate(-2544.945 -4082.789)" fill="#0e3178"/>
          <path id="Path_2983" data-name="Path 2983" d="M2591.182,4207.109a1,1,0,0,1-.561.375c-1.591.34-5.219,1.847-9.2,2.907a33.578,33.578,0,0,1-4.645.949,34.1,34.1,0,0,1-5.638.268,50.626,50.626,0,0,1-8.149-1.019c-.639-.124-2.125-.529-2.243-1.18-.142-.71-.311-1.75-.521-3.058-.049-.309-.1-.636-.155-.983-.036-.223-.073-.458-.114-.7-.011-.055-.018-.109-.027-.168-.02-.108-.036-.219-.053-.331q-.079-.488-.167-1.01l-.069-.4c-.183-1.077-.393-2.25-.619-3.492-.057-.312-.122-.626-.183-.95-.248-1.282-.527-2.643-.841-4.057-.077-.356-.16-.714-.24-1.074s-.167-.727-.251-1.095c-.27-1.133-.555-2.295-.87-3.482-.293-1.107-.6-2.23-.942-3.373q-.54-1.876-1-3.736c-.095-.38-.183-.766-.271-1.145q-.262-1.106-.488-2.2c-.429-2.047-.769-4.059-1.019-6.007-1.119-8.652-.446-16.043,2.6-19.632a9.655,9.655,0,0,1,4.207.517c.5.112,1.007.232,1.506.354a9.808,9.808,0,0,0,6.46-.692l2.431,1.317a20.692,20.692,0,0,1,8.633,8.63,55.937,55.937,0,0,1,2.741,6.827c1,2.93,2.027,6.308,3.017,9.81q.23.81.457,1.632c.456,1.655.91,3.315,1.347,4.967.446,1.7.871,3.38,1.268,5.023l.028.115c.1.314.183.669.256.983.2.8.393,1.585.57,2.349C2590.148,4201.542,2591.289,4206.972,2591.182,4207.109Z" transform="translate(-2550.138 -4112.515)" fill="url(#linear-gradient-5)"/>
          <path id="Path_4000" data-name="Path 4000" d="M2553.713,4154.258l1.77-3.008s10.973.885,11.15,1.239a6.749,6.749,0,0,0,1.416,2.3A15.657,15.657,0,0,1,2553.713,4154.258Z" transform="translate(-2548.87 -4114.351)" fill="#0e3178"/>
          <path id="Path_4001" data-name="Path 4001" d="M2563.641,4171.938c-3.982-3.214-8.088-6.674-11.108-10.659.073.777.146,1.554.248,2.354.25,1.946.592,3.958,1.021,6q.227,1.094.488,2.2c.088.379.177.765.271,1.145q.466,1.863,1,3.736c.338,1.143.649,2.268.942,3.373.314,1.189.6,2.352.87,3.484.084.368.167.733.251,1.093s.163.72.24,1.074c.314,1.416.594,2.774.841,4.059.061.318.126.635.183.95.226,1.242.437,2.415.619,3.492l.069.4c.059.346.114.683.167,1.008.018.112.034.225.053.333.012.059.016.111.027.168.042.239.075.475.114.7.055.348.108.675.155.983.21,1.308.378,2.346.521,3.056.116.65,1.6,1.056,2.241,1.18a50.411,50.411,0,0,0,8.151,1.019,33.89,33.89,0,0,0,5.638-.268,33.493,33.493,0,0,0,4.643-.949c.456-.113-.323-3.38-1.343-7.037C2573.231,4188.281,2568.885,4179.745,2563.641,4171.938Z" transform="translate(-2550.012 -4103.6)" fill="#0e3178" opacity="0.16" style="isolation: isolate"/>
          <g id="Group_3989" data-name="Group 3989" transform="translate(10.586 42.589)">
            <path id="Path_2987" data-name="Path 2987" d="M2573.363,4167.075q5.162,13.43,10.329,26.861a5.542,5.542,0,0,1-2.531,6.883,5.34,5.34,0,0,1-5.461-.787,106.608,106.608,0,0,1-14.025-24.2q-1.634-3.935-3.271-7.866a17.446,17.446,0,0,1-1.276-6.226,7.865,7.865,0,0,1,.895-4.869,6.227,6.227,0,0,1,5.681-2.658c2.163.271,3.43,1.849,5.221,4.153A26.472,26.472,0,0,1,2573.363,4167.075Z" transform="translate(-2556.228 -4153.368)" fill="#fde5d3"/>
            <path id="Path_2988" data-name="Path 2988" d="M2557.76,4166.1c.641,2.1,3.03,8.455,4.8,13.025.479,1.231.911,2.337,1.247,3.2,4.889-1.546,9.4-4.215,14.291-5.763-.264-.8-.617-1.8-1.022-2.894-1.51-4.1-3.717-9.569-4.488-11.563-1.77-4.584-2.524-6.029-4.129-7.187-1.856-1.4-4.154-1.317-6.42-.788-2.58.967-4.592,2.573-5.215,5.258C2556.4,4161.064,2556.656,4162.462,2557.76,4166.1Z" transform="translate(-2556.633 -4153.77)" fill="url(#linear-gradient-6)"/>
            <path id="Path_2989" data-name="Path 2989" d="M2572.985,4184.93c21.612,2.924,30.339,4.105,30.492,4.13l.134.02c.088.013.216.029.37.047.045,0,.1.021.153.025.142.075.352.185.606.307,4.684,2.244,11.471,2.786,12.944.18a3.825,3.825,0,0,0-.449-3.645c-1.417-2.187-4.613-2.261-6.012-2.295a25.057,25.057,0,0,0-5.9.867c-.331.077-.6.146-.787.2l-.167-.015h-.118l-.611-.043q-9.808-3.8-20.253-7.435-4.94-1.709-9.787-3.295a6.246,6.246,0,0,0-6.934,3.9C2565.925,4180.719,2568.544,4184.652,2572.985,4184.93Z" transform="translate(-2547.057 -4134.336)" fill="#fde5d3"/>
            <path id="Path_2990" data-name="Path 2990" d="M2559.649,4169.348c.479,1.231.913,2.336,1.249,3.2,4.887-1.548,9.4-4.214,14.291-5.762-.266-.8-.621-1.8-1.024-2.894-2.149.787-4.287,1.593-6.431,2.4l-5.354,2.02C2561.468,4168.653,2560.562,4169,2559.649,4169.348Z" transform="translate(-2553.719 -4143.989)" fill="#0e3178"/>
          </g>
          <g id="Group_5947" data-name="Group 5947">
            <path id="Path_4002" data-name="Path 4002" d="M2579.333,4139.973a10.122,10.122,0,0,1,.633,3.152,5.475,5.475,0,0,1-.482,3.1,7.468,7.468,0,0,1-2.493,1.978,19,19,0,0,1-3.189,1.049,5.786,5.786,0,0,0-2.423,1.4,4.565,4.565,0,0,0-1.038,2.753,31.917,31.917,0,0,0-.287,4.061.576.576,0,0,1-.118.444c-.132.14-.073.157-.425.242a5.163,5.163,0,0,1-1.724.216c-.5-.094-.358-1.364-.362-1.642-.012-1.01.228-1.7-.267-2.6-.962-1.74-3.68-2.694-4.869-.718s.273,3.843,1.632,5.351c.218.239-.256,1.524-.416,1.806-1.554,2.725-4.292,5.667-7.5,3.905-.275-.152-.346-.31-.537-.766a5.468,5.468,0,0,1-.093-2.194,8.38,8.38,0,0,0-.025-2.114,2.538,2.538,0,0,0-.325-1.015,15.224,15.224,0,0,0-1.957-2.117,6.2,6.2,0,0,1-1.065-1.837,12.123,12.123,0,0,1-.531-2.081,5.512,5.512,0,0,1-.1-.648c-.028-.2-.024-.164-.032-.24a17.272,17.272,0,0,1,.081-4.1,13.433,13.433,0,0,1,.309-1.317,2.949,2.949,0,0,1,.1-.393c1.272-3.5,3.679-4.822,7.177-5.484a14.12,14.12,0,0,0,5.7-2.055c2.761-1.837,5.221-6.125,9.015-4.871C2576.533,4134.159,2578.377,4137.354,2579.333,4139.973Z" transform="translate(-2551.25 -4133.004)" fill="#171032"/>
          </g>
        </g>
        <g id="Group_4005" data-name="Group 4005" transform="translate(127.196 51.196)">
          <g id="Group_4002" data-name="Group 4002">
            <g id="Group_4001" data-name="Group 4001" transform="translate(15.124 90.264)">
              <path id="Path_3023" data-name="Path 3023" d="M2618.491,4231.807h-57.1a18.847,18.847,0,0,1-15.419-6.926,10.715,10.715,0,0,1,.061-13.216l12.389-16.738,9.243,4.247-12.389,16.739a3.822,3.822,0,0,0-.024,4.769,7.5,7.5,0,0,0,6.141,2.7h47.117c5.506,0,9.98,3.773,9.98,8.429Z" transform="translate(-2543.725 -4194.927)" fill="#4f88d6"/>
            </g>
            <path id="Path_3024" data-name="Path 3024" d="M2571.147,4252.438l-4.869.937a12.7,12.7,0,0,1-5.64-.2,12.871,12.871,0,0,1-9.39-10l-14.98-77.951a12.883,12.883,0,0,1,10.188-15.038l1.681-.323,2.215-.427.969-.185a12.883,12.883,0,0,1,15.038,10.188l14.981,77.952A12.881,12.881,0,0,1,2571.147,4252.438Z" transform="translate(-2536.028 -4149.026)" fill="#a2cdfc"/>
            <path id="Path_3025" data-name="Path 3025" d="M2564.206,4200.766h-.887a3.313,3.313,0,0,1-3.259-2.691l-8.082-38.626a12.878,12.878,0,0,0-8.977-9.884l.615-.12.972-.185a12.879,12.879,0,0,1,15.036,10.188l7.842,37.363a3.323,3.323,0,0,1-2.627,3.894A3.282,3.282,0,0,1,2564.206,4200.766Z" transform="translate(-2529.301 -4149.019)" fill="#0e3178"/>
            <path id="Path_3026" data-name="Path 3026" d="M2631.169,4236.729v7.928a4.856,4.856,0,0,1-.024.589,8.983,8.983,0,0,1-8.936,8.373h-60.064a8.984,8.984,0,0,1-7.935-4.817,12.793,12.793,0,0,1-2.2-3.523,12.474,12.474,0,0,1-.639-1.977c-.043-.174-.083-.349-.12-.527l-.872-4.546-.352-1.829-13.766-71.581a12.88,12.88,0,0,1,10.19-15.034l1.682-.327a12.879,12.879,0,0,1,8.062,9.577l13.215,68.739h52.782a8.985,8.985,0,0,1,8.948,8.521A2.106,2.106,0,0,1,2631.169,4236.729Z" transform="translate(-2536.034 -4148.608)" fill="#83b7e3"/>
          </g>
          <g id="Group_4003" data-name="Group 4003" transform="translate(29.203 57.336)">
            <path id="Path_3027" data-name="Path 3027" d="M2608.465,4182.01v.756a1.536,1.536,0,0,1-1.53,1.531H2552.05l-.9-4.662v-.045l-.271-1.408h53.764A3.839,3.839,0,0,1,2608.465,4182.01Z" transform="translate(-2550.884 -4178.182)" fill="#a2cdfc"/>
          </g>
          <g id="Group_4004" data-name="Group 4004" transform="translate(29.476 58.739)">
            <path id="Path_3028" data-name="Path 3028" d="M2606.482,4182.725v.879h-54.564l-.9-4.662v-.045h51.646A3.839,3.839,0,0,1,2606.482,4182.725Z" transform="translate(-2551.023 -4178.896)" fill="#83b7e3"/>
          </g>
          <path id="Path_3029" data-name="Path 3029" d="M2624.29,4194.068v1.465a.825.825,0,0,1-.271.04H2543.65a.944.944,0,0,1-.149-.012l-.356-1.829a.983.983,0,0,1,.5-.136h80.369a.972.972,0,0,1,.26.035C2624.288,4193.779,2624.29,4193.922,2624.29,4194.068Z" transform="translate(-2529.161 -4105.949)" fill="#4f88d6" opacity="0.5" style="isolation: isolate"/>
          <path id="Path_3030" data-name="Path 3030" d="M2623.632,4197.209v1.326a5.4,5.4,0,0,1-.021.589.857.857,0,0,1-.238.032h-78.9a12.563,12.563,0,0,1-.644-1.979h79.545A.934.934,0,0,1,2623.632,4197.209Z" transform="translate(-2528.501 -4102.486)" fill="#4f88d6" opacity="0.5" style="isolation: isolate"/>
        </g>
        <g id="Group_3990-2" data-name="Group 3990" transform="translate(342.768 30.787)">
          <path id="Path_2974-2" data-name="Path 2974" d="M2672.713,4210.052s3.26,5.133,4.72,5.738a51.179,51.179,0,0,0,7.529,3,5.417,5.417,0,0,1,4.588,3.963h-25.863a11.07,11.07,0,0,1,0-5.812c.924-2.521,1.056-12.628,1.056-12.628Z" transform="translate(-2586.7 -4075.275)" fill="#171032"/>
          <path id="Path_2975-2" data-name="Path 2975" d="M2625.669,4158.962c.4.588.246-.574.647-.063a28.988,28.988,0,0,0,5.624,5.577,12.718,12.718,0,0,0,4.531,2.36l.237.064c.232.063.47.111.71.152a6.941,6.941,0,0,0,4.895-.428.783.783,0,0,0,.224-.321,1.148,1.148,0,0,0-.043-.777,5.022,5.022,0,0,0-.5-.951,7.687,7.687,0,0,0-1.567-1.589,20.887,20.887,0,0,1-1.483-1.5.988.988,0,0,1-.078-.088,27.776,27.776,0,0,1,.572-3.209l.084-.309.029-.107a29.028,29.028,0,0,1,.991-3.159,2.066,2.066,0,0,1,.113-.3c.047-.13.1-.259.153-.387q-4.887-3.237-9.787-6.478c-.126.462-.252.922-.368,1.388q-.762,2.85-1.526,5.7A14.282,14.282,0,0,1,2625.669,4158.962Z" transform="translate(-2623.069 -4130.227)" fill="#fde5d3"/>
          <path id="Path_2976-2" data-name="Path 2976" d="M2628.148,4149.056a32.938,32.938,0,0,0,3.922,4.745c.354.371.708.741,1.073,1.111a17.517,17.517,0,0,0,3.89,3.071l.018,0a29.219,29.219,0,0,1,1.154-3.591c.023-.089.069-.169.1-.254a.37.37,0,0,0-.065-.039q-4.849-3.221-9.72-6.442C2628.4,4148.131,2628.276,4148.591,2628.148,4149.056Z" transform="translate(-2620.673 -4130.023)" fill="#fad0c4"/>
          <path id="Path_2977-2" data-name="Path 2977" d="M2632.276,4149.417c-.014.1-.023.208-.031.317a.493.493,0,0,1,.075-.024c0-.092.02-.185.028-.271A.671.671,0,0,0,2632.276,4149.417Z" transform="translate(-2616.713 -4128.326)" fill="#1b173d" opacity="0.13" style="isolation: isolate"/>
          <path id="Path_250-2" data-name="Path 250" d="M2650.027,4145.374s-4.694,19.382-11.112,19-11.712-9.6-11.007-16.105C2628.514,4142.715,2634.028,4131.463,2650.027,4145.374Z" transform="translate(-2620.967 -4138.691)" fill="#fde5d3"/>
          <path id="Path_2979-2" data-name="Path 2979" d="M2663.72,4190.292s-1.683,25.761.843,36.637c0,0,7.53,1.517,11.1.618l.944-26.315Z" transform="translate(-2586.824 -4088.822)" fill="#05496b"/>
          <path id="Path_2980-2" data-name="Path 2980" d="M2682.194,4209.534a29.67,29.67,0,0,0,5.205,5.24,51.384,51.384,0,0,0,7.53,3,5.413,5.413,0,0,1,4.588,3.963h-25.864a11.12,11.12,0,0,1,0-5.812c.926-2.521-2.476-10.569-2.476-10.569Z" transform="translate(-2579.085 -4074.267)" fill="#171032"/>
          <g id="Group_5948" data-name="Group 5948" transform="translate(7.109 44.603)">
            <path id="Path_2981-2" data-name="Path 2981" d="M2682.163,4161.485c-3.691.992-4.7,4.528-5.333,7.836-.435.9-1.19,1.637-1.552,2.566-6.011,2.817-7.447,9.923-16.314,9.252-3.644-.276-13.584-11.938-15.3-17.089a128.607,128.607,0,0,0-15.707,2.548c6.405,7.65,21.234,23.7,29.765,23.522,14.1-.3,15.952-11.27,23.21-18.656a18,18,0,0,0,2.454-5.206c.333-1.824.6-2.355.733-3.706S2682.89,4161.288,2682.163,4161.485Z" transform="translate(-2627.962 -4161.374)" fill="#edd8ca"/>
          </g>
          <path id="Path_2982-2" data-name="Path 2982" d="M2629.741,4183.551l27.637-3.107s34.508-.026,42.232,4.146c9.6,5.187,24.582,51.455,24.582,51.455s-3.343,3.387-9.815,1.609c-3.565-.983-20.343-27.188-22.9-36.7-1.329-4.94-45.471,5.211-53.992,1.644S2629.741,4183.551,2629.741,4183.551Z" transform="translate(-2619.152 -4098.338)" fill="#005081"/>
          <path id="Path_4022" data-name="Path 4022" d="M2663.126,4207.1a.878.878,0,0,1-.55.374c-1.593.354-5.211,1.848-9.2,2.91a32.607,32.607,0,0,1-10.285,1.22,49.463,49.463,0,0,1-5.9-.59c-.767-.139-1.495-.275-2.242-.434-.649-.118-2.124-.53-2.242-1.18-.059-.295-.118-.629-.2-1.022-.1-.57-.2-1.259-.335-2.025-.039-.314-.1-.63-.157-.983-.04-.217-.059-.452-.118-.708a.491.491,0,0,0-.02-.157c-.02-.118-.04-.217-.059-.335-.04-.334-.1-.668-.158-1l-.078-.413c-.1-.609-.217-1.238-.335-1.908-.079-.511-.176-1.042-.275-1.572-.059-.315-.118-.629-.177-.965-.079-.373-.157-.746-.236-1.14-.177-.924-.394-1.907-.609-2.91-.079-.354-.158-.708-.236-1.082-.1-.354-.177-.728-.255-1.081q-.266-1.151-.59-2.36c-.079-.373-.177-.747-.275-1.141-.216-.806-.452-1.633-.688-2.458-.079-.295-.157-.609-.255-.9-.374-1.258-.708-2.5-1-3.736-.1-.374-.2-.768-.275-1.141-.138-.531-.236-1.062-.354-1.593-.059-.217-.1-.413-.138-.61-.216-1.022-.413-2.044-.57-3.027v-.021c-.177-1-.334-1.985-.452-2.949-.216-1.612-.354-3.187-.433-4.7-.079-1.317-.1-2.6-.059-3.815.138-4.856,1.1-8.789,3.087-11.13a9.863,9.863,0,0,1,4.208.511c.492.118,1,.236,1.514.354a9.742,9.742,0,0,0,6.45-.688l2.438,1.317a21.456,21.456,0,0,1,5.093,3.775,20.78,20.78,0,0,1,2.537,3.187,14.565,14.565,0,0,1,1,1.672,53,53,0,0,1,2.222,5.368c.177.472.354.963.511,1.455.236.669.453,1.356.688,2.084.747,2.262,1.475,4.74,2.222,7.3.039.139.079.295.118.434.138.55.294,1.081.452,1.632.138.511.275,1,.413,1.515.315,1.159.63,2.319.924,3.46.354,1.317.688,2.635,1,3.914.1.374.2.747.276,1.1l.02.118c.1.314.177.669.255.983.118.472.236.925.354,1.4v.021c.079.314.138.629.216.924.57,2.4,1.1,4.621,1.514,6.49.314,1.415.57,2.654.787,3.638A18.031,18.031,0,0,1,2663.126,4207.1Z" transform="translate(-2624.347 -4125.379)" fill="#00aeef"/>
          <g id="Group_5949" data-name="Group 5949" transform="translate(0.964 42.63)" opacity="0.25">
            <path id="Path_4023" data-name="Path 4023" d="M2658.663,4180.7l-25.486,6.549c-.767-.139-1.495-.275-2.242-.434-.649-.118-2.124-.53-2.242-1.18-.059-.295-.118-.629-.2-1.022l29.379-7.551C2658.191,4178.476,2658.447,4179.715,2658.663,4180.7Z" transform="translate(-2621.3 -4144.24)" fill="#fff"/>
            <path id="Path_4024" data-name="Path 4024" d="M2657.1,4175.048v.021l-28.908,7.433c-.079-.511-.176-1.042-.275-1.572-.059-.315-.118-.629-.177-.965-.079-.373-.157-.746-.236-1.14l28.691-7.374c.1.374.2.747.276,1.1l.02.118c.1.314.177.669.255.983C2656.867,4174.124,2656.985,4174.577,2657.1,4175.048Z" transform="translate(-2622.256 -4149.661)" fill="#fff"/>
            <path id="Path_4025" data-name="Path 4025" d="M2655.575,4169.46l-28.455,7.314c-.079-.373-.177-.747-.275-1.141-.216-.806-.452-1.633-.688-2.458l28.436-7.3c.039.139.079.295.118.434.138.55.294,1.081.452,1.632C2655.3,4168.456,2655.438,4168.948,2655.575,4169.46Z" transform="translate(-2623.561 -4155.045)" fill="#fff"/>
            <path id="Path_4026" data-name="Path 4026" d="M2653.646,4163.909l-28.1,7.218c-.059-.217-.1-.413-.138-.61-.216-1.022-.413-2.044-.57-3.027v-.021l27.609-7.1c.177.472.354.963.511,1.455C2653.194,4162.494,2653.41,4163.182,2653.646,4163.909Z" transform="translate(-2624.837 -4160.37)" fill="#fff"/>
          </g>
          <path id="Path_4027" data-name="Path 4027" d="M2635.589,4171.938c-3.982-3.214-8.087-6.674-11.108-10.659.075.777.146,1.554.248,2.354.25,1.946.592,3.958,1.021,6q.227,1.094.488,2.2c.088.379.177.765.271,1.145q.467,1.863,1,3.736.508,1.714.942,3.373c.315,1.189.6,2.352.87,3.484.084.368.167.733.251,1.093s.164.72.24,1.074c.316,1.416.594,2.774.842,4.059.061.318.127.635.183.95.226,1.242.438,2.415.62,3.492l.068.4c.059.346.114.683.167,1.008.018.112.034.225.054.333.012.059.018.111.027.168.041.239.077.475.114.7.055.348.108.675.155.983.213,1.308.38,2.346.521,3.056.116.65,1.6,1.056,2.242,1.18a50.432,50.432,0,0,0,8.151,1.019,33.9,33.9,0,0,0,5.639-.268,33.479,33.479,0,0,0,4.642-.949c.457-.113-.322-3.38-1.343-7.037C2645.181,4188.281,2640.834,4179.745,2635.589,4171.938Z" transform="translate(-2624.217 -4116.862)" fill="#0e3178" opacity="0.16" style="isolation: isolate"/>
          <g id="Group_3989-2" data-name="Group 3989" transform="translate(8.329 29.65)">
            <path id="Path_2987-2" data-name="Path 2987" d="M2645.312,4167.075q5.162,13.43,10.328,26.861a5.542,5.542,0,0,1-2.531,6.883,5.341,5.341,0,0,1-5.461-.787,106.634,106.634,0,0,1-14.024-24.2q-1.634-3.935-3.271-7.866a17.489,17.489,0,0,1-1.276-6.226,7.862,7.862,0,0,1,.9-4.869,6.227,6.227,0,0,1,5.681-2.658c2.163.271,3.429,1.849,5.221,4.153A26.481,26.481,0,0,1,2645.312,4167.075Z" transform="translate(-2628.177 -4153.368)" fill="#fde5d3"/>
            <path id="Path_2988-2" data-name="Path 2988" d="M2629.708,4166.1c.641,2.1,3.031,8.455,4.8,13.025.478,1.231.913,2.337,1.247,3.2,4.889-1.546,9.4-4.215,14.292-5.763-.265-.8-.619-1.8-1.022-2.894-1.512-4.1-3.718-9.569-4.489-11.563-1.77-4.584-2.525-6.029-4.13-7.187-1.856-1.4-4.153-1.317-6.42-.788-2.58.967-4.592,2.573-5.215,5.258C2628.354,4161.064,2628.605,4162.462,2629.708,4166.1Z" transform="translate(-2628.582 -4153.77)" fill="#00aeef"/>
            <path id="Path_2990-2" data-name="Path 2990" d="M2631.6,4169.348c.478,1.231.913,2.336,1.249,3.2,4.887-1.548,9.4-4.214,14.291-5.762-.265-.8-.621-1.8-1.024-2.894-2.149.787-4.287,1.593-6.43,2.4l-5.355,2.02C2633.417,4168.653,2632.511,4169,2631.6,4169.348Z" transform="translate(-2625.668 -4143.989)" fill="#0e3178"/>
          </g>
          <g id="Group_5950" data-name="Group 5950" transform="translate(43.795 28.259)">
            <path id="Path_4028" data-name="Path 4028" d="M2667.943,4153.339c.5-.372.95-.442,1.109.248-.047,2.82-.13,9.778-.083,14-1.734,1.425-4.125,3.361-5.771,4.71-1.646-1.762-3.371-5.011-4.907-6.871-.785-.952-1.677-1.981-.794-3.105a27.57,27.57,0,0,1,3.288-3.132A92.14,92.14,0,0,1,2667.943,4153.339Z" transform="translate(-2636.457 -4153.063)" fill="#1b173d" fill-rule="evenodd"/>
            <path id="Path_4029" data-name="Path 4029" d="M2651.163,4172.979a34.738,34.738,0,0,1-4.041-3.261,1.468,1.468,0,0,1-.5-1.093,1.665,1.665,0,0,1,.663-.972q4.675-4.186,9.368-8.35a65.355,65.355,0,0,1,5.777-4.739.859.859,0,0,1,.425-.189.834.834,0,0,1,.447.15,52.1,52.1,0,0,1,5.567,3.622c.962.718,1.9,1.469,2.835,2.22q3.714,2.977,7.425,5.953c-5.49,4.532-11.063,8.962-16.636,13.391a1.473,1.473,0,0,1-2.328-.036A107.938,107.938,0,0,0,2651.163,4172.979Z" transform="translate(-2646.618 -4151.793)" fill="#0e3178" fill-rule="evenodd"/>
          </g>
          <path id="Path_2989-2" data-name="Path 2989" d="M2648.446,4193.795c15.9-14.925,22.323-20.952,22.439-21.057l.1-.091c.067-.061.159-.148.269-.257.029-.035.083-.065.118-.1.147-.062.366-.157.62-.276,4.7-2.22,9.4-7.144,8.3-9.93a3.821,3.821,0,0,0-3.109-1.952c-2.592-.279-4.667,2.153-5.573,3.217a25.015,25.015,0,0,0-3.048,5.125c-.149.3-.27.561-.344.735l-.116.12h0l-.074.092-.419.446q-9.138,5.212-18.546,11.029-4.44,2.754-8.729,5.515a6.245,6.245,0,0,0-1.345,7.843C2640.726,4196.619,2645.429,4197.065,2648.446,4193.795Z" transform="translate(-2610.996 -4117.994)" fill="#fde5d3"/>
        </g>
        <g id="Group_4005-2" data-name="Group 4005" transform="translate(296.789 51.109)">
          <g id="Group_4002-2" data-name="Group 4002">
            <g id="Group_4001-2" data-name="Group 4001" transform="translate(15.125 90.264)">
              <path id="Path_3023-2" data-name="Path 3023" d="M2690.44,4231.807h-57.1a18.846,18.846,0,0,1-15.419-6.926,10.715,10.715,0,0,1,.061-13.216l12.389-16.738,9.243,4.247-12.389,16.739a3.822,3.822,0,0,0-.023,4.769,7.5,7.5,0,0,0,6.141,2.7h47.118c5.505,0,9.979,3.773,9.979,8.429Z" transform="translate(-2615.674 -4194.927)" fill="#4f88d6"/>
            </g>
            <path id="Path_3024-2" data-name="Path 3024" d="M2643.1,4252.438l-4.869.937a12.7,12.7,0,0,1-5.64-.2,12.874,12.874,0,0,1-9.39-10l-14.98-77.951a12.883,12.883,0,0,1,10.188-15.038l1.682-.323,2.214-.427.97-.185a12.884,12.884,0,0,1,15.038,10.188l14.98,77.952A12.88,12.88,0,0,1,2643.1,4252.438Z" transform="translate(-2607.977 -4149.026)" fill="#a2cdfc"/>
            <path id="Path_3025-2" data-name="Path 3025" d="M2636.155,4200.766h-.887a3.313,3.313,0,0,1-3.258-2.691l-8.083-38.626a12.877,12.877,0,0,0-8.977-9.884l.616-.12.972-.185a12.879,12.879,0,0,1,15.036,10.188l7.842,37.363a3.322,3.322,0,0,1-2.627,3.894A3.279,3.279,0,0,1,2636.155,4200.766Z" transform="translate(-2601.249 -4149.019)" fill="#0e3178"/>
            <path id="Path_3026-2" data-name="Path 3026" d="M2703.118,4236.729v7.928a4.956,4.956,0,0,1-.023.589,8.983,8.983,0,0,1-8.936,8.373h-60.064a8.984,8.984,0,0,1-7.935-4.817,12.714,12.714,0,0,1-2.842-5.5c-.043-.174-.083-.349-.12-.527l-.869-4.546-.354-1.829-13.766-71.581a12.881,12.881,0,0,1,10.191-15.034l1.681-.327a12.887,12.887,0,0,1,8.065,9.577l13.213,68.739h52.785a8.984,8.984,0,0,1,8.945,8.521A2.106,2.106,0,0,1,2703.118,4236.729Z" transform="translate(-2607.983 -4148.608)" fill="#83b7e3"/>
          </g>
          <g id="Group_4003-2" data-name="Group 4003" transform="translate(29.203 57.336)">
            <path id="Path_3027-2" data-name="Path 3027" d="M2680.414,4182.01v.756a1.536,1.536,0,0,1-1.53,1.531H2624l-.9-4.662v-.045l-.271-1.408H2676.6A3.838,3.838,0,0,1,2680.414,4182.01Z" transform="translate(-2622.833 -4178.182)" fill="#a2cdfc"/>
          </g>
          <g id="Group_4004-2" data-name="Group 4004" transform="translate(29.476 58.739)">
            <path id="Path_3028-2" data-name="Path 3028" d="M2678.431,4182.725v.879h-54.564l-.895-4.662v-.045h51.646A3.838,3.838,0,0,1,2678.431,4182.725Z" transform="translate(-2622.972 -4178.896)" fill="#83b7e3"/>
          </g>
          <path id="Path_3029-2" data-name="Path 3029" d="M2696.24,4194.068v1.465a.826.826,0,0,1-.271.04H2615.6a.946.946,0,0,1-.15-.012l-.356-1.829a.986.986,0,0,1,.5-.136h80.368a.969.969,0,0,1,.26.035C2696.238,4193.779,2696.24,4193.922,2696.24,4194.068Z" transform="translate(-2601.11 -4105.949)" fill="#4f88d6" opacity="0.5" style="isolation: isolate"/>
          <path id="Path_3030-2" data-name="Path 3030" d="M2695.58,4197.209v1.326a5.4,5.4,0,0,1-.021.589.851.851,0,0,1-.237.032h-78.9a12.306,12.306,0,0,1-.641-1.979h79.543A.93.93,0,0,1,2695.58,4197.209Z" transform="translate(-2600.449 -4102.486)" fill="#4f88d6" opacity="0.5" style="isolation: isolate"/>
        </g>
        <path id="Path_3031" data-name="Path 3031" d="M2594.14,4172.565h-48.92a1.5,1.5,0,1,0,0,3.007h48.92a1.5,1.5,0,1,0,0-3.007Z" transform="translate(-2410.804 -4077.156)" fill="#83b7e3"/>
        <path id="Rectangle_1398" data-name="Rectangle 1398" d="M2560.9,4206.325h29.633a5,5,0,0,1,5,5h0a5,5,0,0,1-5,5H2560.9a5,5,0,0,1-5-5h0A5,5,0,0,1,2560.9,4206.325Z" transform="translate(-2390.342 -4042.538)" fill="#69a7ef"/>
        <path id="Rectangle_1398-2" data-name="Rectangle 1398" d="M2632,4206.325h29.633a5,5,0,0,1,5,5h0a5,5,0,0,1-5,5H2632a5.005,5.005,0,0,1-5-5h0A5.006,5.006,0,0,1,2632,4206.325Z" transform="translate(-2293.966 -4042.538)" fill="#69a7ef"/>
        <path id="Path_3042" data-name="Path 3042" d="M2533.249,4155.96c-.438.079-.883.14-1.325.2a30.577,30.577,0,0,1-5.089.266,40.4,40.4,0,0,1-5.1-.667,4.055,4.055,0,0,1-1.1-.295h0" transform="translate(-2438.634 -4094.563)" fill="none"/>
        <g id="Group_5951" data-name="Group 5951" transform="translate(347.372 18.572)">
          <path id="Path_4030" data-name="Path 4030" d="M2656.689,4140.14a6.477,6.477,0,0,1,.023,1.222c-.23,2.946-.678,6.01-2.735,8.228-1.549,1.671-3.773,1.523-5.9,1.974a6.534,6.534,0,0,0-5.278,4.4,3.477,3.477,0,0,1-.934,1.691,1.316,1.316,0,0,1-1.569.049c-1.5-1.145.342-2.7.161-4.049s-1.729-2.973-3.227-2.528c-2.525.749-1.672,3.476-.988,5.444.118.337-.583,1.176-.838,1.367-2.524,1.88-5.234,3.2-8.044.749-.753-.653-.889-2.8-.909-3.606-.153-6.613,1.583-12.867,6.854-17.053.9-.714,1.787-1.723,2.926-2,2.293-.566,3.718,2.273,6.035,1.312,1.444-.6,2.893-2.623,4.588-1.109,1.148,1.024,1.839,2.922,3.2,1.323,1-1.174,1.717-2.483,3.677-1.742A4.759,4.759,0,0,1,2656.689,4140.14Z" transform="translate(-2626.447 -4135.59)" fill="#171032"/>
        </g>
        <path id="Rectangle_1396-3" data-name="Rectangle 1396" d="M2609.732,4125.256h0a33.854,33.854,0,0,1,33.857,33.854V4192.9a33.853,33.853,0,0,1-33.857,33.854h0a33.856,33.856,0,0,1-33.855-33.854v-33.792A33.856,33.856,0,0,1,2609.732,4125.256Z" transform="translate(-2527.73 -4125.256)" fill="#d5e6ef" stroke="#707070" stroke-width="1" opacity="0.15" style="isolation: isolate"/>
        <g id="Group_3988-3" data-name="Group 3988" transform="translate(63.085 23.617)">
          <path id="Path_2964-3" data-name="Path 2964" d="M2620.585,4149.256V4180.2a11.861,11.861,0,0,1-11.512,12.111h-14.806a11.04,11.04,0,0,1-5.659-1.573,11.835,11.835,0,0,1-2.618-2.147,12.1,12.1,0,0,1-2.086-3.12,12.546,12.546,0,0,1-1.154-5.272v-30.942a12.4,12.4,0,0,1,3.393-8.564,11.217,11.217,0,0,1,8.125-3.538h14.806a11.238,11.238,0,0,1,8.126,3.538,12.369,12.369,0,0,1,3.376,8.111C2620.582,4148.953,2620.585,4149.1,2620.585,4149.256Z" transform="translate(-2582.75 -4137.152)" fill="#83b7e3"/>
          <path id="Path_2965-3" data-name="Path 2965" d="M2615.529,4154.94v15.211a15.387,15.387,0,0,1-2.223,7.987,15.82,15.82,0,0,1-1.646,2.244,15.488,15.488,0,0,1-22.33,1.024,15.867,15.867,0,0,1-2.362-2.841,15.425,15.425,0,0,1-2.492-8.411v-15.211a15.376,15.376,0,0,1,.24-2.7,15.618,15.618,0,0,1,11-12.22,15.456,15.456,0,0,1,15.254,3.954,15.366,15.366,0,0,1,4.555,10.964Z" transform="translate(-2581.08 -4134.964)" fill="#a7d7ff"/>
          <g id="Group_12-2-9-3" data-name="Group 12-2-9" transform="translate(20.916 43.169)" opacity="0.7">
            <path id="Path_2966-3" data-name="Path 2966" d="M2604.693,4159.1a15.582,15.582,0,0,1-1.647,2.246h-9.66l4.187-.311a2.112,2.112,0,0,1,.6-.422c.466-.22.889-.232.967-.036a5.956,5.956,0,0,1,.722-.5c1.066-.619,2.036-.718,2.163-.212a.466.466,0,0,1,0,.246,6.014,6.014,0,0,1,1.357-.7A5.366,5.366,0,0,1,2604.693,4159.1Z" transform="translate(-2593.386 -4159.104)" fill="#fff"/>
          </g>
          <g id="Group_12-2-10-3" data-name="Group 12-2-10" transform="translate(27.466 23.639)" opacity="0.7">
            <path id="Path_2967-3" data-name="Path 2967" d="M2603.69,4149.323v1.112h-6.973l2.321-.169a1.089,1.089,0,0,1,.338-.238c.251-.12.492-.127.533-.019a3.344,3.344,0,0,1,.393-.276c.59-.344,1.129-.394,1.2-.116a.4.4,0,0,1,0,.136,3,3,0,0,1,.748-.395A1.636,1.636,0,0,1,2603.69,4149.323Z" transform="translate(-2596.717 -4149.172)" fill="#fff"/>
          </g>
          <g id="Group_12-2-11-3" data-name="Group 12-2-11" transform="translate(4.376 17.681)" opacity="0.7">
            <path id="Fill_10-7-3" data-name="Fill 10-7" d="M2598.239,4148.074a.71.71,0,0,0,.116-.456c-.043-.254-.289-.407-.659-.45a.791.791,0,0,0,.063-.425c-.11-.677-1.359-.8-2.787-.273a5.835,5.835,0,0,0-1.354.7.588.588,0,0,0,0-.244c-.126-.5-1.1-.407-2.164.21a5.884,5.884,0,0,0-.72.5c-.081-.2-.5-.2-.97.035a2.133,2.133,0,0,0-.605.421l-4.185.311h16.506Z" transform="translate(-2584.975 -4146.144)" fill="#fff"/>
          </g>
          <path id="Path_2968-3" data-name="Path 2968" d="M2614.914,4150.615l-27.948,27.952a15.431,15.431,0,0,1-2.491-8.413v-15.211a14.989,14.989,0,0,1,.188-2.375c.01-.111.031-.217.049-.327l11-12.22a15.569,15.569,0,0,1,19.2,10.594Z" transform="translate(-2581.083 -4134.965)" opacity="0.27" fill="url(#linear-gradient)" style="isolation: isolate"/>
          <path id="Path_2969-3" data-name="Path 2969" d="M2613.143,4147.441v4.765l-23.5,23.5a15.357,15.357,0,0,1-2.7-2.058Z" transform="translate(-2578.698 -4127.208)" opacity="0.27" fill="url(#linear-gradient-2)" style="isolation: isolate"/>
          <g id="Group_77-3-3" data-name="Group 77-3" transform="translate(3.392 27.525)" opacity="0.47">
            <path id="Path_106-3-3" data-name="Path 106-3" d="M2591.4,4152.849l-2.629.033-1.522-1.648a.051.051,0,0,1,0-.073l0,0a.054.054,0,0,1,.036-.01h0a1.608,1.608,0,0,1,.709.15Z" transform="translate(-2581.813 -4151.149)" fill="#e5e8f0"/>
            <path id="Path_107-3-3" data-name="Path 107-3" d="M2587.514,4151.183l1.432,1.548,1.943-.026-3.17-1.447A2,2,0,0,0,2587.514,4151.183Z" transform="translate(-2581.538 -4151.116)" fill="#192f77"/>
            <path id="Path_2970-3" data-name="Path 2970" d="M2585.47,4152.18l-.995.01v-.852l.289.272a.956.956,0,0,0,.613.259h.086Z" transform="translate(-2584.475 -4150.966)" fill="#192f77"/>
            <path id="Path_2971-3" data-name="Path 2971" d="M2601.849,4152.568a.294.294,0,0,1-.155.259l-.063.024-1.53.37a8.087,8.087,0,0,1-1.84.231l-4.875.063-2.2.027-.853.013-2.9.035a7.744,7.744,0,0,1-2.959-.547V4151.7h.9l5.229-.066h.55l.972-.012,7.258-.093a2.157,2.157,0,0,1,.875.18h.012l.7.306h0l.7.312a.246.246,0,0,1,.07.045.266.266,0,0,1,.044.047l.011.016.014.024A.258.258,0,0,1,2601.849,4152.568Z" transform="translate(-2584.475 -4150.784)" fill="#30acef"/>
            <path id="Path_2972-3" data-name="Path 2972" d="M2601.8,4152.418l-.866.208a9.011,9.011,0,0,1-2.039.256l-4.326.056-2.883.035-.85.012-3.933.049a8.46,8.46,0,0,1-2.421-.32v-1.019h.9l5.229-.066h.551l.972-.013,7.258-.09a2.138,2.138,0,0,1,.875.177h.012l.7.307h0l.7.312a.234.234,0,0,1,.071.045.17.17,0,0,1,.043.047Z" transform="translate(-2584.469 -4150.786)" fill="#fff"/>
            <path id="Path_111-3-3" data-name="Path 111-3" d="M2592.3,4151.937l1.28-.014-.7-.314h-.59a.163.163,0,0,0-.158.165h0a.158.158,0,0,0,.154.163Z" transform="translate(-2577.078 -4150.706)" fill="#192f77" opacity="0.112" style="isolation: isolate"/>
            <g id="Group_36-3-3" data-name="Group 36-3" transform="translate(4.904 1.141)" opacity="0.112">
              <path id="Rectangle_3-3-3" data-name="Rectangle 3-3" d="M2591.372,4151.965h0a.116.116,0,0,1-.12-.116h0a.116.116,0,0,1,.116-.119h0a.119.119,0,0,1,.12.115h0a.116.116,0,0,1-.108.12Z" transform="translate(-2582.83 -4151.729)" fill="#192f77"/>
              <path id="Rectangle_4-3-3" data-name="Rectangle 4-3" d="M2591.016,4151.968h0a.119.119,0,0,1-.12-.118h0a.119.119,0,0,1,.116-.12h0a.12.12,0,0,1,.12.116h0a.12.12,0,0,1-.118.122Z" transform="translate(-2583.174 -4151.728)" fill="#192f77"/>
              <path id="Rectangle_5-3-3" data-name="Rectangle 5-3" d="M2590.659,4151.973h0a.121.121,0,0,1-.122-.118h0a.119.119,0,0,1,.116-.12h0a.116.116,0,0,1,.12.116h0a.115.115,0,0,1-.11.122Z" transform="translate(-2583.521 -4151.723)" fill="#192f77"/>
              <path id="Rectangle_6-3-3" data-name="Rectangle 6-3" d="M2590.3,4151.977h0a.118.118,0,0,1-.122-.113v0h0a.12.12,0,0,1,.118-.119h0a.117.117,0,0,1,.12.115h0a.115.115,0,0,1-.112.12Z" transform="translate(-2583.865 -4151.717)" fill="#192f77"/>
              <path id="Rectangle_7-3-3" data-name="Rectangle 7-3" d="M2589.944,4151.981h0a.12.12,0,0,1-.12-.116h0a.121.121,0,0,1,.12-.12h0a.114.114,0,0,1,.118.114v0h0a.117.117,0,0,1-.114.118Z" transform="translate(-2584.21 -4151.713)" fill="#192f77"/>
              <path id="Rectangle_8-3-3" data-name="Rectangle 8-3" d="M2589.587,4151.985h0a.119.119,0,0,1-.12-.116h0a.12.12,0,0,1,.118-.12h0a.119.119,0,0,1,.122.116h0a.119.119,0,0,1-.114.12Z" transform="translate(-2584.555 -4151.709)" fill="#192f77"/>
              <path id="Rectangle_9-3-3" data-name="Rectangle 9-3" d="M2589.232,4151.992h0a.12.12,0,0,1-.122-.118h0a.12.12,0,0,1,.117-.12h0a.117.117,0,0,1,.12.116v0h0a.115.115,0,0,1-.112.12Z" transform="translate(-2584.9 -4151.705)" fill="#192f77"/>
              <path id="Rectangle_10-3-3" data-name="Rectangle 10-3" d="M2588.878,4151.994h0a.113.113,0,0,1-.12-.107v-.009h0a.118.118,0,0,1,.114-.12h0a.118.118,0,0,1,.119.112v0h0a.116.116,0,0,1-.114.12Z" transform="translate(-2585.24 -4151.701)" fill="#192f77"/>
              <path id="Rectangle_11-3-3" data-name="Rectangle 11-3" d="M2588.514,4152h0a.114.114,0,0,1-.118-.113v0h0a.119.119,0,0,1,.114-.118h0a.118.118,0,0,1,.12.115h0a.115.115,0,0,1-.112.12Z" transform="translate(-2585.59 -4151.696)" fill="#192f77"/>
              <path id="Rectangle_12-3-3" data-name="Rectangle 12-3" d="M2588.161,4152h0a.12.12,0,0,1-.12-.117h0a.118.118,0,0,1,.116-.12h0a.117.117,0,0,1,.12.111v0h0a.117.117,0,0,1-.11.121Z" transform="translate(-2585.933 -4151.695)" fill="#192f77"/>
              <path id="Rectangle_13-3-3" data-name="Rectangle 13-3" d="M2587.8,4152.01h0a.12.12,0,0,1-.12-.12h0a.118.118,0,0,1,.116-.117h0a.115.115,0,0,1,.12.112v0h0a.118.118,0,0,1-.114.121Z" transform="translate(-2586.279 -4151.688)" fill="#192f77"/>
              <path id="Rectangle_14-3-3" data-name="Rectangle 14-3" d="M2587.447,4152.011h0a.12.12,0,0,1-.122-.118h0a.119.119,0,0,1,.118-.118h0a.115.115,0,0,1,.12.112v0h0a.115.115,0,0,1-.112.12Z" transform="translate(-2586.625 -4151.685)" fill="#192f77"/>
              <path id="Rectangle_15-3-3" data-name="Rectangle 15-3" d="M2587.089,4152.017h0a.12.12,0,0,1-.12-.116h0a.119.119,0,0,1,.116-.12h0a.116.116,0,0,1,.12.116h0a.117.117,0,0,1-.116.12Z" transform="translate(-2586.969 -4151.679)" fill="#192f77"/>
            </g>
            <path id="Path_112-3-3" data-name="Path 112-3" d="M2593,4152.107l-4.053.049-2.24,2.557a.106.106,0,0,0,0,.148l0,0a.1.1,0,0,0,.071.028h.1a1.809,1.809,0,0,0,.787-.185Z" transform="translate(-2582.352 -4150.224)" fill="#e5e8f0"/>
            <path id="Path_113-3-3" data-name="Path 113-3" d="M2587.124,4154.721a.106.106,0,0,0-.026.047,1.356,1.356,0,0,0,.155-.067l5.329-2.593-3.2.039Z" transform="translate(-2581.94 -4150.224)" fill="#192f77"/>
          </g>
        </g>
        <g id="Group_3990-3" data-name="Group 3990" transform="translate(0 15.208)">
          <path id="Path_2974-3" data-name="Path 2974" d="M2600.764,4210.052s3.261,5.133,4.72,5.738a51.179,51.179,0,0,0,7.529,3,5.42,5.42,0,0,1,4.588,3.963h-25.863a11.07,11.07,0,0,1,0-5.812c.924-2.521,1.056-12.628,1.056-12.628Z" transform="translate(-2512.495 -4059.725)" fill="#171032"/>
          <path id="Path_2975-3" data-name="Path 2975" d="M2553.6,4159.867c.537.463.087-.619.607-.231a28.977,28.977,0,0,0,6.9,3.89,12.743,12.743,0,0,0,4.993,1.075h.248c.239,0,.481-.02.724-.041a6.96,6.96,0,0,0,4.607-1.709.783.783,0,0,0,.129-.37,1.136,1.136,0,0,0-.248-.737,4.942,4.942,0,0,0-.732-.787,7.68,7.68,0,0,0-1.933-1.117c-.625-.321-1.235-.673-1.825-1.054-.032-.02-.069-.042-.1-.065a27.58,27.58,0,0,1-.3-3.244v-.432a28.581,28.581,0,0,1,.12-3.31,2.13,2.13,0,0,1,.03-.317c.012-.137.029-.277.045-.413l-11.152-3.658c0,.481,0,.958.011,1.438q.021,2.949.038,5.9A14.277,14.277,0,0,1,2553.6,4159.867Z" transform="translate(-2548.982 -4118.271)" fill="#fde5d3"/>
          <path id="Path_2976-3" data-name="Path 2976" d="M2554.688,4149.007a32.911,32.911,0,0,0,5.038,3.54c.439.265.877.527,1.328.787a17.512,17.512,0,0,0,4.564,1.933h.018a29.065,29.065,0,0,1,.163-3.768c0-.092.022-.183.029-.271a.4.4,0,0,0-.072-.024q-5.531-1.82-11.079-3.638C2554.688,4148.05,2554.688,4148.526,2554.688,4149.007Z" transform="translate(-2547.939 -4118.103)" fill="#fad0c4"/>
          <path id="Path_2977-3" data-name="Path 2977" d="M2560.328,4149.417c-.014.1-.023.208-.032.317a.493.493,0,0,1,.075-.024c0-.092.02-.185.027-.271C2560.375,4149.431,2560.351,4149.423,2560.328,4149.417Z" transform="translate(-2542.508 -4116.252)" fill="#1b173d" opacity="0.13" style="isolation: isolate"/>
          <path id="Path_250-3" data-name="Path 250" d="M2573.79,4140.959s.6,19.933-5.689,21.26-13.834-6.155-14.876-12.617C2552.341,4144.089,2554.681,4131.78,2573.79,4140.959Z" transform="translate(-2549.494 -4128.504)" fill="#fde5d3"/>
          <path id="Path_2979-3" data-name="Path 2979" d="M2591.771,4190.292s-1.683,25.761.844,36.637c0,0,7.53,1.517,11.1.618l.944-26.315Z" transform="translate(-2512.618 -4073.272)" fill="#1b173d"/>
          <path id="Path_2980-3" data-name="Path 2980" d="M2610.246,4209.534a29.67,29.67,0,0,0,5.205,5.24,51.265,51.265,0,0,0,7.529,3,5.411,5.411,0,0,1,4.588,3.963h-25.863a11.12,11.12,0,0,1,0-5.812c.926-2.521-2.476-10.569-2.476-10.569Z" transform="translate(-2504.879 -4058.717)" fill="#171032"/>
          <path id="Path_2981-3" data-name="Path 2981" d="M2612.508,4194.99a5.443,5.443,0,0,0-6.952-2.929l-2.12-.456-13.62-9.58c-1.4-.983-18.125-19.706-18.125-19.706l-15.807,3.343s24.752,21.883,28.351,24.308c5.949,4.008,20.51,6.519,20.51,6.519a6.2,6.2,0,0,0,3.793.752c2.23-.227,1.638.055,3.224-.073S2612.508,4194.99,2612.508,4194.99Z" transform="translate(-2546.771 -4102.638)" fill="#edd8ca"/>
          <path id="Path_2982-3" data-name="Path 2982" d="M2557.792,4183.551l27.637-3.107s34.508-.026,42.232,4.146c9.6,5.187,24.581,51.455,24.581,51.455s-3.343,3.387-9.814,1.609c-3.565-.983-20.343-27.188-22.9-36.7-1.33-4.94-45.471,5.211-53.992,1.644S2557.792,4183.551,2557.792,4183.551Z" transform="translate(-2544.945 -4082.789)" fill="#0e3178"/>
          <path id="Path_2983-2" data-name="Path 2983" d="M2591.182,4207.109a1,1,0,0,1-.561.375c-1.591.34-5.219,1.847-9.2,2.907a33.578,33.578,0,0,1-4.645.949,34.1,34.1,0,0,1-5.638.268,50.626,50.626,0,0,1-8.149-1.019c-.639-.124-2.125-.529-2.243-1.18-.142-.71-.311-1.75-.521-3.058-.049-.309-.1-.636-.155-.983-.036-.223-.073-.458-.114-.7-.011-.055-.018-.109-.027-.168-.02-.108-.036-.219-.053-.331q-.079-.488-.167-1.01l-.069-.4c-.183-1.077-.393-2.25-.619-3.492-.057-.312-.122-.626-.183-.95-.248-1.282-.527-2.643-.841-4.057-.077-.356-.16-.714-.24-1.074s-.167-.727-.251-1.095c-.27-1.133-.555-2.295-.87-3.482-.293-1.107-.6-2.23-.942-3.373q-.54-1.876-1-3.736c-.095-.38-.183-.766-.271-1.145q-.262-1.106-.488-2.2c-.429-2.047-.769-4.059-1.019-6.007-1.119-8.652-.446-16.043,2.6-19.632a9.655,9.655,0,0,1,4.207.517c.5.112,1.007.232,1.506.354a9.808,9.808,0,0,0,6.46-.692l2.431,1.317a20.692,20.692,0,0,1,8.633,8.63,55.937,55.937,0,0,1,2.741,6.827c1,2.93,2.027,6.308,3.017,9.81q.23.81.457,1.632c.456,1.655.91,3.315,1.347,4.967.446,1.7.871,3.38,1.268,5.023l.028.115c.1.314.183.669.256.983.2.8.393,1.585.57,2.349C2590.148,4201.542,2591.289,4206.972,2591.182,4207.109Z" transform="translate(-2550.138 -4112.515)" fill="url(#linear-gradient-5)"/>
          <path id="Path_4000-2" data-name="Path 4000" d="M2553.713,4154.258l1.77-3.008s10.973.885,11.15,1.239a6.749,6.749,0,0,0,1.416,2.3A15.657,15.657,0,0,1,2553.713,4154.258Z" transform="translate(-2548.87 -4114.351)" fill="#0e3178"/>
          <path id="Path_4001-2" data-name="Path 4001" d="M2563.641,4171.938c-3.982-3.214-8.088-6.674-11.108-10.659.073.777.146,1.554.248,2.354.25,1.946.592,3.958,1.021,6q.227,1.094.488,2.2c.088.379.177.765.271,1.145q.466,1.863,1,3.736c.338,1.143.649,2.268.942,3.373.314,1.189.6,2.352.87,3.484.084.368.167.733.251,1.093s.163.72.24,1.074c.314,1.416.594,2.774.841,4.059.061.318.126.635.183.95.226,1.242.437,2.415.619,3.492l.069.4c.059.346.114.683.167,1.008.018.112.034.225.053.333.012.059.016.111.027.168.042.239.075.475.114.7.055.348.108.675.155.983.21,1.308.378,2.346.521,3.056.116.65,1.6,1.056,2.241,1.18a50.411,50.411,0,0,0,8.151,1.019,33.89,33.89,0,0,0,5.638-.268,33.493,33.493,0,0,0,4.643-.949c.456-.113-.323-3.38-1.343-7.037C2573.231,4188.281,2568.885,4179.745,2563.641,4171.938Z" transform="translate(-2550.012 -4103.6)" fill="#0e3178" opacity="0.16" style="isolation: isolate"/>
          <g id="Group_3989-3" data-name="Group 3989" transform="translate(10.586 42.589)">
            <path id="Path_2987-3" data-name="Path 2987" d="M2573.363,4167.075q5.162,13.43,10.329,26.861a5.542,5.542,0,0,1-2.531,6.883,5.34,5.34,0,0,1-5.461-.787,106.608,106.608,0,0,1-14.025-24.2q-1.634-3.935-3.271-7.866a17.446,17.446,0,0,1-1.276-6.226,7.865,7.865,0,0,1,.895-4.869,6.227,6.227,0,0,1,5.681-2.658c2.163.271,3.43,1.849,5.221,4.153A26.472,26.472,0,0,1,2573.363,4167.075Z" transform="translate(-2556.228 -4153.368)" fill="#fde5d3"/>
            <path id="Path_2988-3" data-name="Path 2988" d="M2557.76,4166.1c.641,2.1,3.03,8.455,4.8,13.025.479,1.231.911,2.337,1.247,3.2,4.889-1.546,9.4-4.215,14.291-5.763-.264-.8-.617-1.8-1.022-2.894-1.51-4.1-3.717-9.569-4.488-11.563-1.77-4.584-2.524-6.029-4.129-7.187-1.856-1.4-4.154-1.317-6.42-.788-2.58.967-4.592,2.573-5.215,5.258C2556.4,4161.064,2556.656,4162.462,2557.76,4166.1Z" transform="translate(-2556.633 -4153.77)" fill="url(#linear-gradient-6)"/>
            <path id="Path_2989-3" data-name="Path 2989" d="M2572.985,4184.93c21.612,2.924,30.339,4.105,30.492,4.13l.134.02c.088.013.216.029.37.047.045,0,.1.021.153.025.142.075.352.185.606.307,4.684,2.244,11.471,2.786,12.944.18a3.825,3.825,0,0,0-.449-3.645c-1.417-2.187-4.613-2.261-6.012-2.295a25.057,25.057,0,0,0-5.9.867c-.331.077-.6.146-.787.2l-.167-.015h-.118l-.611-.043q-9.808-3.8-20.253-7.435-4.94-1.709-9.787-3.295a6.246,6.246,0,0,0-6.934,3.9C2565.925,4180.719,2568.544,4184.652,2572.985,4184.93Z" transform="translate(-2547.057 -4134.336)" fill="#fde5d3"/>
            <path id="Path_2990-3" data-name="Path 2990" d="M2559.649,4169.348c.479,1.231.913,2.336,1.249,3.2,4.887-1.548,9.4-4.214,14.291-5.762-.266-.8-.621-1.8-1.024-2.894-2.149.787-4.287,1.593-6.431,2.4l-5.354,2.02C2561.468,4168.653,2560.562,4169,2559.649,4169.348Z" transform="translate(-2553.719 -4143.989)" fill="#0e3178"/>
          </g>
          <g id="Group_5947-2" data-name="Group 5947">
            <path id="Path_4002-2" data-name="Path 4002" d="M2579.333,4139.973a10.122,10.122,0,0,1,.633,3.152,5.475,5.475,0,0,1-.482,3.1,7.468,7.468,0,0,1-2.493,1.978,19,19,0,0,1-3.189,1.049,5.786,5.786,0,0,0-2.423,1.4,4.565,4.565,0,0,0-1.038,2.753,31.917,31.917,0,0,0-.287,4.061.576.576,0,0,1-.118.444c-.132.14-.073.157-.425.242a5.163,5.163,0,0,1-1.724.216c-.5-.094-.358-1.364-.362-1.642-.012-1.01.228-1.7-.267-2.6-.962-1.74-3.68-2.694-4.869-.718s.273,3.843,1.632,5.351c.218.239-.256,1.524-.416,1.806-1.554,2.725-4.292,5.667-7.5,3.905-.275-.152-.346-.31-.537-.766a5.468,5.468,0,0,1-.093-2.194,8.38,8.38,0,0,0-.025-2.114,2.538,2.538,0,0,0-.325-1.015,15.224,15.224,0,0,0-1.957-2.117,6.2,6.2,0,0,1-1.065-1.837,12.123,12.123,0,0,1-.531-2.081,5.512,5.512,0,0,1-.1-.648c-.028-.2-.024-.164-.032-.24a17.272,17.272,0,0,1,.081-4.1,13.433,13.433,0,0,1,.309-1.317,2.949,2.949,0,0,1,.1-.393c1.272-3.5,3.679-4.822,7.177-5.484a14.12,14.12,0,0,0,5.7-2.055c2.761-1.837,5.221-6.125,9.015-4.871C2576.533,4134.159,2578.377,4137.354,2579.333,4139.973Z" transform="translate(-2551.25 -4133.004)" fill="#171032"/>
          </g>
        </g>
      </g>
    </g>
    <g id="Group_4005-3" data-name="Group 4005" transform="translate(647.863 494.953)">
      <g id="Group_4002-3" data-name="Group 4002">
        <g id="Group_4001-3" data-name="Group 4001" transform="translate(15.124 90.264)">
          <path id="Path_3023-3" data-name="Path 3023" d="M2618.491,4231.807h-57.1a18.847,18.847,0,0,1-15.419-6.926,10.715,10.715,0,0,1,.061-13.216l12.389-16.738,9.243,4.247-12.389,16.739a3.822,3.822,0,0,0-.024,4.769,7.5,7.5,0,0,0,6.141,2.7h47.117c5.506,0,9.98,3.773,9.98,8.429Z" transform="translate(-2543.725 -4194.927)" fill="#4f88d6"/>
        </g>
        <path id="Path_3024-3" data-name="Path 3024" d="M2571.147,4252.438l-4.869.937a12.7,12.7,0,0,1-5.64-.2,12.871,12.871,0,0,1-9.39-10l-14.98-77.951a12.883,12.883,0,0,1,10.188-15.038l1.681-.323,2.215-.427.969-.185a12.883,12.883,0,0,1,15.038,10.188l14.981,77.952A12.881,12.881,0,0,1,2571.147,4252.438Z" transform="translate(-2536.028 -4149.026)" fill="#a2cdfc"/>
        <path id="Path_3025-3" data-name="Path 3025" d="M2564.206,4200.766h-.887a3.313,3.313,0,0,1-3.259-2.691l-8.082-38.626a12.878,12.878,0,0,0-8.977-9.884l.615-.12.972-.185a12.879,12.879,0,0,1,15.036,10.188l7.842,37.363a3.323,3.323,0,0,1-2.627,3.894A3.282,3.282,0,0,1,2564.206,4200.766Z" transform="translate(-2529.301 -4149.019)" fill="#0e3178"/>
        <path id="Path_3026-3" data-name="Path 3026" d="M2631.169,4236.729v7.928a4.856,4.856,0,0,1-.024.589,8.983,8.983,0,0,1-8.936,8.373h-60.064a8.984,8.984,0,0,1-7.935-4.817,12.793,12.793,0,0,1-2.2-3.523,12.474,12.474,0,0,1-.639-1.977c-.043-.174-.083-.349-.12-.527l-.872-4.546-.352-1.829-13.766-71.581a12.88,12.88,0,0,1,10.19-15.034l1.682-.327a12.879,12.879,0,0,1,8.062,9.577l13.215,68.739h52.782a8.985,8.985,0,0,1,8.948,8.521A2.106,2.106,0,0,1,2631.169,4236.729Z" transform="translate(-2536.034 -4148.608)" fill="#83b7e3"/>
      </g>
      <g id="Group_4003-3" data-name="Group 4003" transform="translate(29.203 57.336)">
        <path id="Path_3027-3" data-name="Path 3027" d="M2608.465,4182.01v.756a1.536,1.536,0,0,1-1.53,1.531H2552.05l-.9-4.662v-.045l-.271-1.408h53.764A3.839,3.839,0,0,1,2608.465,4182.01Z" transform="translate(-2550.884 -4178.182)" fill="#a2cdfc"/>
      </g>
      <g id="Group_4004-3" data-name="Group 4004" transform="translate(29.476 58.739)">
        <path id="Path_3028-3" data-name="Path 3028" d="M2606.482,4182.725v.879h-54.564l-.9-4.662v-.045h51.646A3.839,3.839,0,0,1,2606.482,4182.725Z" transform="translate(-2551.023 -4178.896)" fill="#83b7e3"/>
      </g>
      <path id="Path_3029-3" data-name="Path 3029" d="M2624.29,4194.068v1.465a.825.825,0,0,1-.271.04H2543.65a.944.944,0,0,1-.149-.012l-.356-1.829a.983.983,0,0,1,.5-.136h80.369a.972.972,0,0,1,.26.035C2624.288,4193.779,2624.29,4193.922,2624.29,4194.068Z" transform="translate(-2529.161 -4105.949)" fill="#4f88d6" opacity="0.5" style="isolation: isolate"/>
      <path id="Path_3030-3" data-name="Path 3030" d="M2623.632,4197.209v1.326a5.4,5.4,0,0,1-.021.589.857.857,0,0,1-.238.032h-78.9a12.563,12.563,0,0,1-.644-1.979h79.545A.934.934,0,0,1,2623.632,4197.209Z" transform="translate(-2528.501 -4102.486)" fill="#4f88d6" opacity="0.5" style="isolation: isolate"/>
    </g>
  </g>
</svg>
