<svg xmlns="http://www.w3.org/2000/svg" width="36.031" height="29.849" viewBox="0 0 36.031 29.849">
  <path id="Path_21995" data-name="Path 21995" d="M309.1,200.8a7.959,7.959,0,0,0,2.389.545,36.617,36.617,0,0,0,3.742.105c1.406,0,2.618,0,3.619-.105a10.572,10.572,0,0,0,2.653-.545,3.8,3.8,0,0,0,1.616-.9,3.4,3.4,0,0,0,.843-1.528l1.089-5.692.509-3.233a3.973,3.973,0,0,1,1.581-.176c.738,0,1.388.053,1.528.07.914.088,2.108.088,3.725.088,1.405,0,2.618,0,3.619-.088a10.594,10.594,0,0,0,2.635-.545,4.1,4.1,0,0,0,1.616-.9,3.1,3.1,0,0,0,.843-1.528l2.161-11.139a2.816,2.816,0,0,0-.211-1.774,2.944,2.944,0,0,0-1.441-1.142,9.924,9.924,0,0,0-2.266-.509,19.925,19.925,0,0,0-3.795-.211,20.558,20.558,0,0,0-3.725.193,13.664,13.664,0,0,0-2.635.527,3.273,3.273,0,0,0-1.616,1,2.945,2.945,0,0,0-.826,1.528l-.949,4.8-.9,4.252s-4.954-.3-6.5-.3a20.461,20.461,0,0,0-3.725.193,13.3,13.3,0,0,0-2.635.545,3.2,3.2,0,0,0-1.616,1,3.152,3.152,0,0,0-.826,1.528l-.949,4.8-1.353,6.571a2.724,2.724,0,0,0,.334,1.564A2.542,2.542,0,0,0,309.1,200.8Z" transform="translate(-307.31 -171.6)" fill="#203be7"/>
</svg>
