<svg xmlns="http://www.w3.org/2000/svg" width="185.932" height="185.998" viewBox="0 0 185.932 185.998">
  <g id="lufthansa-2" transform="translate(-3.411 -3.379)">
    <path id="Path_20771" data-name="Path 20771" d="M96.377,5.379c50.009,0,90.966,41.021,90.966,91.031,0,49.945-40.957,90.967-90.966,90.967S5.411,146.42,5.411,96.41,46.369,5.379,96.377,5.379Z" fill="none" stroke="#8e969f" stroke-width="4" fill-rule="evenodd"/>
    <path id="Path_20772" data-name="Path 20772" d="M96.314,10.644A85.682,85.682,0,0,0,38.986,159.966a85.662,85.662,0,0,0,114.656-127.3,86.307,86.307,0,0,0-57.328-22.02Z" fill="none" fill-rule="evenodd"/>
    <path id="Path_20773" data-name="Path 20773" d="M17.544,72.915l1.99-3.531,10.271,5.2,2.247-3.916,39.609,22.34L70.634,94.87,47.588,83.635c8.859,7.9,19.773,16.306,32.227,16.306,14.379,0,25.935-11.363,32.226-23.368,3.275-.257,6.549-.514,9.887-.514,16.756,0,34.152,3.273,50.268,7.96l5.52,1.605,1.477.386-4.814,4.172c-14.316-4.108-29.08-7.318-43.975-8.217l-1.67,2.375a195.388,195.388,0,0,1,36.016,6.034l4.172,1.092,3.018.77-4.814,4.108c-13.8-3.723-28.119-6.355-42.5-6.419l-1.477,1.862c14.188.513,27.99,3.081,41.791,6.356l-4.494,3.787a216.788,216.788,0,0,0-41.213-4.752L117.823,99.1h2.76a168.126,168.126,0,0,1,33.961,3.98l3.723.836-4.688,3.916a134.314,134.314,0,0,0-25.357-2.633c-11.17,0-22.66,2.055-32.8,6.869,12.069,13.354,28.7,24.459,47.313,24.459h.191l-6.033,6.8c-22.6-6.869-43.4-18.295-62.656-31.842C63.64,104.047,53.818,95.446,43.161,88.063A201.362,201.362,0,0,0,20.307,74.325l-2.763-1.41Z" fill="#8e969f" fill-rule="evenodd"/>
  </g>
</svg>
