<svg xmlns="http://www.w3.org/2000/svg" xmlns:xlink="http://www.w3.org/1999/xlink" width="49" height="51.277" viewBox="0 0 49 51.277">
  <defs>
    <linearGradient id="linear-gradient" x1="0.39" y1="0.823" x2="0.634" y2="0.107" gradientUnits="objectBoundingBox">
      <stop offset="0" stop-color="#f0f0f0"/>
      <stop offset="0.143" stop-color="#efefef" stop-opacity="0.984"/>
      <stop offset="0.27" stop-color="#efefef" stop-opacity="0.941"/>
      <stop offset="0.391" stop-color="#efefef" stop-opacity="0.863"/>
      <stop offset="0.509" stop-color="#efefef" stop-opacity="0.757"/>
      <stop offset="0.624" stop-color="#eee" stop-opacity="0.62"/>
      <stop offset="0.738" stop-color="#ededed" stop-opacity="0.451"/>
      <stop offset="0.849" stop-color="#ececec" stop-opacity="0.251"/>
      <stop offset="0.957" stop-color="#ececec" stop-opacity="0.024"/>
      <stop offset="0.967" stop-color="#ececec" stop-opacity="0"/>
      <stop offset="1" stop-color="#ececec" stop-opacity="0"/>
    </linearGradient>
    <linearGradient id="linear-gradient-2" y1="0.5" x2="1" y2="0.5" gradientUnits="objectBoundingBox">
      <stop offset="0" stop-color="#9f9f9f"/>
      <stop offset="1" stop-color="#9f9f9f" stop-opacity="0.502"/>
    </linearGradient>
    <linearGradient id="linear-gradient-3" x1="0.09" y1="1.065" x2="0.849" y2="0.018" xlink:href="#linear-gradient-2"/>
  </defs>
  <g id="Group_14520" data-name="Group 14520" transform="translate(-5677.592 -80.058)">
    <circle id="Ellipse_463" data-name="Ellipse 463" cx="23.815" cy="23.815" r="23.815" transform="translate(5677.592 80.058)" fill="url(#linear-gradient)"/>
    <g id="Group_14520-2" data-name="Group 14520" transform="translate(5689.545 104.126)">
      <path id="Path_20815" data-name="Path 20815" d="M5709.85,136.946l-4.179,21.481-.546,2.812,27.893-.138c1.252-.006,2.361-1.117,2.764-2.769l4.945-20.28c.306-1.254-.364-2.557-1.314-2.557l-28.232.03C5710.559,135.526,5710.013,136.108,5709.85,136.946Z" transform="translate(-5705.125 -135.496)" fill="#858585"/>
    </g>
    <path id="Path_20816" data-name="Path 20816" d="M5708.1,135.923a2.211,2.211,0,0,1,2-1.974l28.231-.03a1.866,1.866,0,0,1,1.474.765,3.148,3.148,0,0,1,.508,2.639l-4.946,20.28c-.478,1.961-1.855,3.284-3.425,3.292l-28.728.142Z" transform="translate(-14.496 -30.478)" fill="#fff"/>
    <g id="Group_14522" data-name="Group 14522" transform="translate(5677.967 98.735)">
      <g id="Group_14521" data-name="Group 14521" transform="translate(0)">
        <path id="Path_20817" data-name="Path 20817" d="M5685.288,155.887a2.564,2.564,0,0,1-2.489-2.3l-2.742-22a2.728,2.728,0,0,1,.646-2.139,2.461,2.461,0,0,1,1.83-.847l17.717-.092,2.873-3.055a2.435,2.435,0,0,1,1.776-.783l6.476-.021a2.565,2.565,0,0,1,2.5,2.3l2.953,23.8c.014.14.283,2.865,2.638,2.865a4.167,4.167,0,0,0,.9-.106l1.167-.258-.367,1.137c-.14.432-.821,1.438-4.136,1.438-.116,0-.236,0-.359,0l-31.373.062Z" transform="translate(-5679.35 -123.971)" fill="#fff"/>
        <path id="Path_20818" data-name="Path 20818" d="M5726.333,128.128a2.527,2.527,0,0,0-2.009-1.027l-10.525.01-.14-1.133a3.249,3.249,0,0,0-3.167-2.9h-.014L5704,123.1a3.149,3.149,0,0,0-2.273,1l-2.673,2.841-17.422.089a3.159,3.159,0,0,0-2.341,1.081,3.425,3.425,0,0,0-.812,2.677l2.742,22a3.249,3.249,0,0,0,3.169,2.9l31.378-.062c.123,0,.243,0,.359,0a10.8,10.8,0,0,0,2.394-.229,3.532,3.532,0,0,0,.811-.243c.007,0,.011-.007.014-.007a2.829,2.829,0,0,0,1.331-.958,5.593,5.593,0,0,0,1.341-2.554l4.947-20.277A3.832,3.832,0,0,0,5726.333,128.128ZM5684.4,154.31a1.877,1.877,0,0,1-1.811-1.7l-2.741-22a1.919,1.919,0,0,1,1.8-2.218l12.315-.062,5.7-.031,1.108-1.178,1.965-2.091a1.775,1.775,0,0,1,1.28-.568l6.476-.02h.007a1.87,1.87,0,0,1,1.807,1.7l.121.969.17,1.369,2.664,21.462s.291,3.464,3.316,3.464a4.978,4.978,0,0,0,1.048-.12.24.24,0,0,1-.035.062,2.7,2.7,0,0,1-.746.52.406.406,0,0,1-.082.031c-.12.044-.253.086-.407.127-.007,0-.011,0-.018,0a9.219,9.219,0,0,1-2.2.219c-.113,0-.229,0-.345,0l-27.164.055-4.224.007Zm41.242-23.282-4.945,20.281c-.032.123-.065.246-.106.362l-1.267.281a3.374,3.374,0,0,1-.75.089c-1.654,0-1.917-1.849-1.954-2.218l0-.038v-.017l-2.642-21.287,10.354-.01C5725.272,128.47,5725.942,129.774,5725.637,131.027Z" transform="translate(-5678.457 -123.079)" fill="url(#linear-gradient-2)"/>
      </g>
    </g>
    <path id="Path_20819" data-name="Path 20819" d="M5719.457,163.215l-3.68-3.31,3.32-3.566a.983.983,0,0,0-.062-1.4l-.02-.017a.984.984,0,0,0-1.378.061l-3.343,3.591-3.705-3.333a.984.984,0,1,0-1.315,1.463l3.679,3.31-3.32,3.566a.984.984,0,0,0,.062,1.4l.019.017a.984.984,0,0,0,1.378-.061l3.344-3.591,3.7,3.333a.984.984,0,0,0,1.317-1.463Z" transform="translate(-17.743 -42.218)" fill="url(#linear-gradient-3)"/>
  </g>
</svg>
