<svg xmlns="http://www.w3.org/2000/svg" width="28.867" height="32.497" viewBox="0 0 28.867 32.497">
  <path id="download" d="M56.046,66.822a2.808,2.808,0,0,1-1.262-.322L50.8,64.15c-.594-.322-.3-.445-.124-.519a6.352,6.352,0,0,0,1.781-.816.318.318,0,0,1,.3.025L55.8,64.67a.418.418,0,0,0,.346,0l11.923-6.9a.314.314,0,0,0,.173-.322V43.669a.314.314,0,0,0-.173-.322L56.194,36.471a.418.418,0,0,0-.346,0L43.925,43.347a.336.336,0,0,0-.173.322V57.447a.336.336,0,0,0,.173.322l3.265,1.88c1.756.89,2.869-.148,2.869-1.187V44.881a.354.354,0,0,1,.346-.346H51.94a.354.354,0,0,1,.346.346v13.6c0,2.35-1.286,3.735-3.537,3.735A5.105,5.105,0,0,1,46,61.479L42.862,59.7A2.546,2.546,0,0,1,41.6,57.521v-13.8a2.494,2.494,0,0,1,1.262-2.177l11.923-6.9a2.631,2.631,0,0,1,2.5,0l11.923,6.9a2.546,2.546,0,0,1,1.262,2.177V57.5a2.494,2.494,0,0,1-1.262,2.177l-11.923,6.9A2.988,2.988,0,0,1,56.046,66.822Zm3.686-9.474c-5.219,0-6.308-2.4-6.308-4.428a.354.354,0,0,1,.346-.346h1.558a.307.307,0,0,1,.322.3c.247,1.583.915,2.35,4.081,2.35,2.5,0,3.587-.569,3.587-1.9,0-.767-.3-1.336-4.205-1.732-3.265-.322-5.293-1.039-5.293-3.636,0-2.424,2.028-3.859,5.442-3.859,3.834,0,5.714,1.311,5.937,4.18a.412.412,0,0,1-.1.272.4.4,0,0,1-.247.124H63.293a.342.342,0,0,1-.322-.272c-.346-1.633-1.286-2.177-3.735-2.177-2.746,0-3.067.965-3.067,1.682,0,.866.4,1.138,4.081,1.608s5.417,1.163,5.417,3.735C65.668,55.864,63.516,57.348,59.731,57.348Z" transform="translate(-41.6 -34.325)" fill="#539e43"/>
</svg>
