<svg xmlns="http://www.w3.org/2000/svg" xmlns:xlink="http://www.w3.org/1999/xlink" width="144.043" height="144.043" viewBox="0 0 144.043 144.043">
  <defs>
    <filter id="Path_3642" x="0" y="0" width="144.043" height="144.043" filterUnits="userSpaceOnUse">
      <feOffset input="SourceAlpha"/>
      <feGaussianBlur stdDeviation="12.5" result="blur"/>
      <feFlood flood-color="#32bef2" flood-opacity="0.051"/>
      <feComposite operator="in" in2="blur"/>
      <feComposite in="SourceGraphic"/>
    </filter>
  </defs>
  <g id="Group_13373" data-name="Group 13373" transform="translate(37.5 37.5)">
    <g id="Group_5086" data-name="Group 5086" transform="translate(0 0)">
      <g transform="matrix(1, 0, 0, 1, -37.5, -37.5)" filter="url(#Path_3642)">
        <path id="Path_3642-2" data-name="Path 3642" d="M34.522,0A34.522,34.522,0,1,1,0,34.522,34.522,34.522,0,0,1,34.522,0Z" transform="translate(37.5 37.5)" fill="#fcfcfc"/>
      </g>
    </g>
    <g id="Group_5072" data-name="Group 5072" transform="translate(26.452 17.037)" opacity="0.9">
      <path id="Path_3632" data-name="Path 3632" d="M-7497.863,7413.138l-22.531-.149-.411-24.523,22.942,24.673Z" transform="translate(7520.806 -7388.465)" fill="#f75d5f" fill-rule="evenodd"/>
      <path id="Path_3633" data-name="Path 3633" d="M-7510.709,7399.447s.378,0,.316.208c0,0,.072.541-.685.268,0,0-.124.063-.124.133,0,0,.644.82,1.068.008,0,0,.122-.205.563-.064a1.466,1.466,0,0,0,1.672-1.352s.5-.063.558-.4l.249-.135s.125,0,.119-.27a2.9,2.9,0,0,0-1.575-.354s-.189-.2-.375-.071c0,0-.311.136-.311.2,0,0,0,.207.634.414,0,0-.3.954-.809.4,0,0-.919-2.527-5.064-2.688a10.694,10.694,0,0,1-6.185-2.019,9.017,9.017,0,0,0,5.772,3.649s2.521.7,2.516,4.238a22.185,22.185,0,0,1,1.933,2.806s1.477,2.054,2.108,2.193c0,0,.245-.268-.264-.68a23.563,23.563,0,0,0-1.859-2.4s-2.188-3.215-.383-4.021a.207.207,0,0,1,.124-.067Z" transform="translate(7520.971 -7382.554)" fill="#fff" fill-rule="evenodd"/>
      <path id="Path_3634" data-name="Path 3634" d="M-7518.925,7403.529l2.02-3.053,2.008.013.178,3.065-1.317-.007-.01-.546-1.192-.007-.3.544-1.383-.01Zm2.791-2.162-.553.884.626,0Zm8.194,2.234,2.017-3.051,2.01.01.178,3.068-1.319-.009-.009-.546-1.131-.009-.367.544-1.378-.008Zm2.786-2.16-.55.882.626,0Zm-8.311,2.124-1.13-.011.891-3.058,1.441.009.4,1.3.421-1.292,1.194.007-.894,3.061-1.378-.008-.527-1.3-.415,1.292Zm3.4-3.044,3.517.021-.292,1.159-1.069-.007-.593,1.9-1.321-.009.534-1.9-1.067-.007.292-1.157Zm8.364.874c-.057.408,1.758.078,1.714,1.306-.05.747-1.046,1.219-2.239,1.072,0,0-.439-.071-.756-.141a3.948,3.948,0,0,1-.632-.209l.3-.814c1.642.625,1.634.216,1.634.216.12-.409-1.882-.013-1.716-1.309.115-.742.8-1.085,2.055-1,0,0,.377.068.692.141a6.105,6.105,0,0,1,.7.209l-.241.678c-1.51-.416-1.507-.144-1.507-.144Z" transform="translate(7522.919 -7374.961)" fill-rule="evenodd"/>
      <path id="Path_3635" data-name="Path 3635" d="M-7517.276,7403.314l.386.614-1.256-.008-.191-.272a5.068,5.068,0,0,1-1.383-.079,1.1,1.1,0,0,1-.9-1.1c.079-2.723,3.355-1.954,3.355-1.954a1.089,1.089,0,0,1,.894,1.03,1.929,1.929,0,0,1-.908,1.765Zm-.831-.822a.627.627,0,0,0,.3-.612.433.433,0,0,0-.32-.411s-1.068-.211-1.113.744a.359.359,0,0,0,.317.341.789.789,0,0,0,.441,0,.991.991,0,0,0,.373-.064Z" transform="translate(7521.017 -7375.021)" fill-rule="evenodd"/>
    </g>
  </g>
</svg>
