<svg xmlns="http://www.w3.org/2000/svg" xmlns:xlink="http://www.w3.org/1999/xlink" width="38.951" height="38.951" viewBox="0 0 38.951 38.951">
  <defs>
    <linearGradient id="linear-gradient" x1="0.526" y1="1.523" x2="0.492" y2="0.034" gradientUnits="objectBoundingBox">
      <stop offset="0" stop-color="#99a0a8"/>
      <stop offset="1" stop-color="#99a0a8" stop-opacity="0.502"/>
    </linearGradient>
  </defs>
  <g id="Group_14237" data-name="Group 14237" transform="translate(-4776.816 -226.036)">
    <path id="Path_20703" data-name="Path 20703" d="M4804.488,264.987h-16.394a1.033,1.033,0,0,1-.73-1.763l1.846-1.847,1.147-4.587h-8.411a5.13,5.13,0,0,1-5.131-5.131V231.167a5.13,5.13,0,0,1,5.131-5.131h28.689a5.131,5.131,0,0,1,5.131,5.131v20.492a5.131,5.131,0,0,1-5.131,5.131h-8.412l1.147,4.587,1.847,1.847a1.033,1.033,0,0,1-.73,1.763Zm-13.9-2.066H4802l-.286-.286a1.027,1.027,0,0,1-.271-.48l-1.342-5.365h-7.608l-1.341,5.365a1.033,1.033,0,0,1-.272.48Zm-.444-1.016h0Zm-11.262-13.312v3.066a3.065,3.065,0,0,0,3.065,3.065h28.689a3.065,3.065,0,0,0,3.065-3.065v-3.066Zm0-2.066h34.82V231.167a3.065,3.065,0,0,0-3.065-3.065h-28.689a3.065,3.065,0,0,0-3.065,3.065Z" transform="translate(0 0)" fill="url(#linear-gradient)"/>
  </g>
</svg>
