<svg xmlns="http://www.w3.org/2000/svg" width="90" height="90" viewBox="0 0 90 90">
  <g id="Group_15640" data-name="Group 15640" transform="translate(1296 -13545)">
    <g id="Group_15639" data-name="Group 15639">
      <g id="Group_15610" data-name="Group 15610" transform="translate(-105 220)">
        <g id="Group_15599" data-name="Group 15599" transform="translate(-630 -219)">
          <g id="Rectangle_3882" data-name="Rectangle 3882" transform="translate(-561 13544)" fill="#fff" stroke="#e9e9e9" stroke-width="1.9">
            <rect width="90" height="90" rx="15" stroke="none"/>
            <rect x="0.95" y="0.95" width="88.1" height="88.1" rx="14.05" fill="none"/>
          </g>
        </g>
      </g>
      <g id="Group_15641" data-name="Group 15641" transform="translate(-2037.528 12703.463)">
        <path id="Path_21100" data-name="Path 21100" d="M796.641,885.637a107.331,107.331,0,0,0-10.008,3.924c-.032.019-1.38.281-1.46.3-.76-.167-10.867-3.1-16.248-1.582-2.638.749-10.61,2.575-10.61,2.575-.8.219.466.3.847.257s1.683-.224,3.247-.515a46.258,46.258,0,0,1,6.483-.719,27.654,27.654,0,0,1,11.522,1.894c.293.12.412.258.434.429.032.467-.831,1.221-1.174,1.407a7.06,7.06,0,0,0,1.754-.12,5.009,5.009,0,0,1,.94-.11,22.231,22.231,0,0,0,2.308-.243,12.531,12.531,0,0,0,4.149-1.325l.076-.038c.657-.31,6.57-2.432,6.57-2.432,3.514-1.273,5.013-.043,9.237-.439s7.6-1.482,10.17-1.668c.488-.034-.619-.32-.918-.348-1.254-.129-7.2,0-9.019-.224C800.985,886.181,798.031,885.375,796.641,885.637Z" transform="translate(0 3.151)" fill="#243572"/>
        <path id="Path_21101" data-name="Path 21101" d="M799.515,890.683a24.116,24.116,0,0,1-.718,4.363,3.071,3.071,0,0,1-.1.367c-.024.081.042.148.17.148h1.878c.108,0,.227-.033.236-.086a1.684,1.684,0,0,0,.076-.281,28.372,28.372,0,0,0,.646-4.511,14.492,14.492,0,0,0-.085-1.516c-.68.129-1.4.257-2.155.343C799.487,889.9,799.515,890.292,799.515,890.683Z" transform="translate(7.37 3.151)" fill="#243572"/>
        <path id="Path_21102" data-name="Path 21102" d="M801.029,886.051a16.278,16.278,0,0,0-1.815-4.038,13.11,13.11,0,0,1-2.582-.081h-.167a13.618,13.618,0,0,1,2.211,3.975c.1.01.2.029.3.038a19.534,19.534,0,0,0,2.051.106" transform="translate(7.37 1.397)" fill="#243572"/>
        <path id="Path_21103" data-name="Path 21103" d="M769.324,890.683a28.6,28.6,0,0,0,.642,4.51c.028.11.061.253.071.281.014.053.119.086.246.086h1.878c.108,0,.184-.067.166-.148s-.076-.248-.109-.367a25.345,25.345,0,0,1-.7-4.291c-.758-.09-1.5-.157-2.2-.171" transform="translate(1.783 3.151)" fill="#243572"/>
        <path id="Path_21104" data-name="Path 21104" d="M771.963,887.166a13.934,13.934,0,0,1,1.934-4.343,24.586,24.586,0,0,0-2.756.372,15.946,15.946,0,0,0-1.418,3.971,17.428,17.428,0,0,1,2.24,0" transform="translate(1.894 1.582)" fill="#243572"/>
        <path id="Path_21105" data-name="Path 21105" d="M776.606,879.788a13.883,13.883,0,0,1,15.949-1.288,8.866,8.866,0,0,1,1.3-.462,5.284,5.284,0,0,1,1.991.086,16.108,16.108,0,0,0-23.155,2.6c.808-.22,1.521-.425,1.98-.587a8.526,8.526,0,0,1,1.934-.348" transform="translate(4.083)" fill="#243572"/>
        <path id="Path_21106" data-name="Path 21106" d="M794.005,878.71a62.351,62.351,0,0,0-6.9,3.113c-.033,0-.964.215-1.022.224-.524-.133-7.492-2.45-11.2-1.239-1.82.581-7.313,2.04-7.313,2.04-.558.162.317.224.581.2.26-.048,1.163-.191,2.236-.41a28.537,28.537,0,0,1,4.482-.576,16.76,16.76,0,0,1,7.947,1.51.437.437,0,0,1,.2.13.446.446,0,0,1,.1.215c.014.362-.581.963-.813,1.111a4.355,4.355,0,0,0,1.21-.1,2.927,2.927,0,0,1,.653-.076c.349-.038.832-.067,1.579-.205a7.873,7.873,0,0,0,2.864-1.049l.052-.014c.454-.267,4.52-1.945,4.52-1.945,2.453-1.005,3.479-.034,6.4-.349s5.238-1.168,7.005-1.315c.341-.039-.425-.253-.628-.277-.861-.105-4.959-.01-6.222-.192C797,879.144,794.956,878.5,794.005,878.71Z" transform="translate(7.37 0.915)" fill="#243572"/>
      </g>
    </g>
  </g>
</svg>
