<svg xmlns="http://www.w3.org/2000/svg" width="90" height="90" viewBox="0 0 90 90">
  <g id="Group_15586" data-name="Group 15586" transform="translate(561 -13544)">
    <g id="Rectangle_3882" data-name="Rectangle 3882" transform="translate(-561 13544)" fill="#fff" stroke="#e9e9e9" stroke-width="1.9">
      <rect width="90" height="90" rx="15" stroke="none"/>
      <rect x="0.95" y="0.95" width="88.1" height="88.1" rx="14.05" fill="none"/>
    </g>
    <g id="Group_15587" data-name="Group 15587" transform="translate(-1624.844 13197.439)">
      <path id="Path_21107" data-name="Path 21107" d="M1133.337,394.709a10.6,10.6,0,0,1-8.267,6.867,5.445,5.445,0,0,1,.778,3.609,8.018,8.018,0,0,1-7.761,6.769,9.9,9.9,0,0,1-8.5-5c-2.2-3.472-2.509-8.985-2.354-10.653a25.727,25.727,0,0,0-5.155,7.318,33.466,33.466,0,0,0-2.431,11.771,1.618,1.618,0,0,1-.642.373,5.035,5.035,0,0,1-2.49-1.119,3.172,3.172,0,0,1-.953-1.373,35.518,35.518,0,0,1,5.894-13.968c3.793-5.748,9.648-9.3,16.593-11.437,5.018-1.55,10.232-1.884,13.811,1.177a5.122,5.122,0,0,1,1.478,5.669Zm-29.567-3.178a26.807,26.807,0,0,1-7,6.886c-5.35,3.453-9.2,3.688-11.127,2.452a2.985,2.985,0,0,1-.6-.49c-1.5-1.589-1.245-4.414.506-6.729a6.693,6.693,0,0,1,3.034-2.315,2.778,2.778,0,0,1-1.517-2.374,7.467,7.467,0,0,1,3.89-6.591c2.1-1.079,6.634-2.158,9.96,2.844A23.074,23.074,0,0,1,1103.77,391.531Zm21.981-21.03c-.292-2.884-3.346-3.944-6.711-2.492a10.112,10.112,0,0,0-3.988,3.159,3.266,3.266,0,0,0-1.148-3.159c-1.848-1.354-5.213-.353-7.508,2.158a13.99,13.99,0,0,0-3.541,8.73,16.736,16.736,0,0,0,4.2,10.712,36.737,36.737,0,0,0,15.192-10.5,14.786,14.786,0,0,0,3.307-6.141,7.9,7.9,0,0,0,.195-2.471Z" fill="#82c341"/>
      <path id="Path_21108" data-name="Path 21108" d="M1122.249,379.113a14.79,14.79,0,0,0,3.307-6.14c.02-.079.039-.157.059-.256-.428,1.746-4.085,6.259-9.143,10.1-5.252,3.982-8.248,5.983-9.4,6.768A36.6,36.6,0,0,0,1122.249,379.113ZM1096.767,398.4a26.823,26.823,0,0,0,7-6.886,37.951,37.951,0,0,1-11.5,8.063c-2.879,1.236-5.7,1.706-6.633,1.255C1087.566,402.086,1091.417,401.85,1096.767,398.4Zm36.57-3.689a6.178,6.178,0,0,0,.273-1.353,8,8,0,0,1-3.5,5.355,9.714,9.714,0,0,1-6.069,1.629,6.088,6.088,0,0,1,1.031,1.216A10.544,10.544,0,0,0,1133.337,394.709Z" fill="#3cb14a"/>
      <path id="Path_21109" data-name="Path 21109" d="M1107.777,392.748c-.02.019-.039.019-.039.039a.045.045,0,0,1,.012-.027.039.039,0,0,1,.027-.012Z" fill="#f9ed32"/>
      <path id="Path_21110" data-name="Path 21110" d="M1107.738,392.767c-6.244,4.513-8.365,12.634-8.715,22.973a1.6,1.6,0,0,0,.642-.373,33.52,33.52,0,0,1,2.432-11.77,25.675,25.675,0,0,1,5.155-7.318,30.487,30.487,0,0,1,.544-3.531.086.086,0,0,0-.058.019Z" fill="#3cb14a"/>
    </g>
  </g>
</svg>
