<svg xmlns="http://www.w3.org/2000/svg" width="90" height="90" viewBox="0 0 90 90">
  <g id="Group_15642" data-name="Group 15642" transform="translate(1296 -13545)">
    <g id="Group_15639" data-name="Group 15639">
      <g id="Group_15610" data-name="Group 15610" transform="translate(-105 220)">
        <g id="Group_15599" data-name="Group 15599" transform="translate(-630 -219)">
          <g id="Rectangle_3882" data-name="Rectangle 3882" transform="translate(-561 13544)" fill="#fff" stroke="#e9e9e9" stroke-width="1.9">
            <rect width="90" height="90" rx="15" stroke="none"/>
            <rect x="0.95" y="0.95" width="88.1" height="88.1" rx="14.05" fill="none"/>
          </g>
        </g>
      </g>
      <g id="Group_15643" data-name="Group 15643" transform="translate(-2142.844 12705.029)">
        <path id="Path_21111" data-name="Path 21111" d="M901.309,877.2a3.423,3.423,0,0,1,1.743.463c.917.416,1.926.925,3.255,1.572,0,0,2.11-1.526,2.247-1.619a1.085,1.085,0,0,1,1.651.324,42.845,42.845,0,0,1,3.027,7.492.8.8,0,0,1-.55,1.017,7.659,7.659,0,0,1-1.376.232c-.78.092-.734.74-.734,1.11v4.717a2.878,2.878,0,0,1-2.98,2.821h-5.687a3.866,3.866,0,0,1-3.852-3.746V880.394a3.2,3.2,0,0,1,3.256-3.191" fill="#002c5a"/>
        <path id="Path_21112" data-name="Path 21112" d="M873.933,895.331v2.081h21.6a10.877,10.877,0,0,0,.78-3.838V879.562a3.36,3.36,0,0,1,2.705-3.469c.046,0,.138-.046.184-.046a27.973,27.973,0,0,1,16.646,1.48c.687.323.825-.232.779-.463a6.816,6.816,0,0,0-6.649-6.937,11.311,11.311,0,0,0-6.236,1.573c-.046.046-.138,0-.23-.093a9.406,9.406,0,0,0-3.622-2.081c-.229-.046-.275-.416,0-.416a27.258,27.258,0,0,1,7.52.231c.275.046.505-.139.367-.37-.092-.185-.138-.278-.275-.6a3.416,3.416,0,0,0-2.109-1.619,46.01,46.01,0,0,0-11.143-1.387,51.053,51.053,0,0,0-10.456,1.156c-.275.046-.687.185-.779.185a.284.284,0,0,0-.184.462l.459.463a.522.522,0,0,1-.046.74l-8.346,7.538h5.732a.751.751,0,0,1,.513.222.762.762,0,0,1,.221.518.751.751,0,0,1-.688.74h-7.428L871,879.469h9.721a.787.787,0,0,1,.688.74.748.748,0,0,1-.688.74H869.348l-2.293,2.127h19.626a.787.787,0,0,1,.688.74.731.731,0,0,1-.688.786H867.055v2.082h19.58a.728.728,0,0,1,.688.786.75.75,0,0,1-.733.693H867.055v2.082h25.587a.731.731,0,0,1,.688.786.751.751,0,0,1-.688.74H873.933v2.081h18.755a.759.759,0,0,1,.642.786.749.749,0,0,1-.642.74Zm6.879,7.122v2.127h4.356a11.018,11.018,0,0,0,6.42-2.127Zm0-3.561,12.519,2.081a9.748,9.748,0,0,0,1.513-2.081Z" fill="#002c5a"/>
      </g>
    </g>
  </g>
</svg>
