<svg xmlns="http://www.w3.org/2000/svg" width="90" height="90" viewBox="0 0 90 90">
  <g id="Group_15582" data-name="Group 15582" transform="translate(561 -13544)">
    <g id="Rectangle_3882" data-name="Rectangle 3882" transform="translate(-561 13544)" fill="#fff" stroke="#e9e9e9" stroke-width="1.9">
      <rect width="90" height="90" rx="15" stroke="none"/>
      <rect x="0.95" y="0.95" width="88.1" height="88.1" rx="14.05" fill="none"/>
    </g>
    <g id="Group_15583" data-name="Group 15583" transform="translate(-1406.844 13197.225)">
      <path id="Path_21116" data-name="Path 21116" d="M891.659,402.1c0-1.643.7-1.878,2.327-.939,2.793,1.643,5.586,3.051,5.586,3.051,0-.939.932-1.643,2.561-1.173a27.674,27.674,0,0,0,3.258.7s-.931-2.113-1.4-3.052c-.7-1.643,0-2.582.7-2.817,0,0-.931-.7-1.63-1.174-1.4-.939-1.163-2.112.233-2.582,1.862-.939,4.423-1.878,4.423-1.878a2.344,2.344,0,0,1-.7-3.286c.931-1.409,2.561-3.521,2.561-3.521h-4.423a2.128,2.128,0,0,1-2.1-2.348s-2.56,1.878-4.422,3.052c-1.629,1.174-3.026,0-2.793-1.878.466-2.817.7-6.1.7-6.1-.931.939-2.56.7-3.491-.7-1.164-2.348-2.328-5.165-2.328-5.165s-1.163,2.817-2.327,5.165a2.216,2.216,0,0,1-3.259.939s.233,3.286.7,6.1c.233,1.643-1.163,2.817-2.793,1.643-1.862-1.174-4.655-3.051-4.655-3.051a2.25,2.25,0,0,1-2.095,2.347h-4.422s1.629,2.113,2.56,3.521a2.414,2.414,0,0,1-.7,3.287,39.874,39.874,0,0,0,4.423,1.877c1.4.7,1.862,1.644.232,2.583a11.625,11.625,0,0,1-1.629,1.173c.931.235,1.629,1.174.931,2.817-.466.939-1.4,3.052-1.4,3.052a27.726,27.726,0,0,1,3.259-.7,1.866,1.866,0,0,1,2.56,1.173s2.793-1.643,5.586-3.051c1.4-.939,2.328-.47,2.328.939v3.99a14.968,14.968,0,0,1-1.164,6.1c-10.474-1.174-19.319-9.625-19.319-20.892A21.418,21.418,0,1,1,893.288,412.2v2.817c12.569-1.174,22.345-11.268,22.345-23.709,0-13.381-11.173-23.944-24.9-23.944-13.5,0-24.673,10.563-24.673,23.709,0,11.5,8.612,21.127,20.017,23.239,1.862.469,3.026.7,4.19,1.878,1.164-2.348,1.4-7.042,1.4-9.624Z" fill="#f01428"/>
    </g>
  </g>
</svg>
