<svg xmlns="http://www.w3.org/2000/svg" width="90" height="90" viewBox="0 0 90 90">
  <g id="Group_15606" data-name="Group 15606" transform="translate(1191 -13325)">
    <g id="Group_15599" data-name="Group 15599" transform="translate(-630 -219)">
      <g id="Rectangle_3882" data-name="Rectangle 3882" transform="translate(-561 13544)" fill="#fff" stroke="#e9e9e9" stroke-width="1.9">
        <rect width="90" height="90" rx="15" stroke="none"/>
        <rect x="0.95" y="0.95" width="88.1" height="88.1" rx="14.05" fill="none"/>
      </g>
    </g>
    <g id="Group_15607" data-name="Group 15607" transform="translate(-1710.055 12730.638)">
      <path id="Path_21115" data-name="Path 21115" d="M569.846,614.362c-5.645,0-10.872,4.025-13.841,6.946a214.215,214.215,0,0,0-16.15,17.341h47.082l2.118-4.725H551.06a80.338,80.338,0,0,1,9.04-9.781c1.55-1.456,5.609-5.1,9.746-5.1,2.712,0,4.85,1.706,4.85,4.016a3.041,3.041,0,0,1-1.93,2.93,3.186,3.186,0,0,0-.7-2.494,3.16,3.16,0,0,0-2.317-1.144,3.538,3.538,0,0,0-3.434,2.035,3.576,3.576,0,0,0-.332,1.367,5.157,5.157,0,0,0,3.505,4.569,5.118,5.118,0,0,0,2,.251,7.8,7.8,0,0,0,8.333-7.984c0-3.962-3.848-8.221-9.981-8.221Zm-30.791,26.744a150.6,150.6,0,0,0,5.745,13.939c2.774,5.8,7.382,9.308,12.994,9.308a8.489,8.489,0,0,0,8.852-7.891,7.06,7.06,0,0,0-4.452-6.74,7.01,7.01,0,0,0-2.8-.489c-4.2,0-5.085,3.175-5.085,3.969a3.575,3.575,0,0,0,3.485,3.544,2.943,2.943,0,0,0,3.3-2.457,2.552,2.552,0,0,1,.942,2.173c0,1.512-1.273,3.448-4.237,3.448-2.365,0-5.842-1.25-8.239-6.33-2.819-5.948-3.014-7.7-3.014-7.7h37.148l2.118-4.772Z" fill="#231f20"/>
    </g>
  </g>
</svg>
