<svg xmlns="http://www.w3.org/2000/svg" xmlns:xlink="http://www.w3.org/1999/xlink" width="90" height="90" viewBox="0 0 90 90">
  <defs>
    <linearGradient id="linear-gradient" x1="0.5" x2="0.5" y2="1" gradientUnits="objectBoundingBox">
      <stop offset="0" stop-color="#eb2023"/>
      <stop offset="1" stop-color="#761012"/>
    </linearGradient>
    <linearGradient id="linear-gradient-2" x1="0.5" x2="0.5" y2="1" gradientUnits="objectBoundingBox">
      <stop offset="0" stop-color="#e7ebee"/>
      <stop offset="1" stop-color="#747677"/>
    </linearGradient>
    <linearGradient id="linear-gradient-3" x1="0.5" x2="0.5" y2="1" gradientUnits="objectBoundingBox">
      <stop offset="0" stop-color="#05aee9"/>
      <stop offset="0.773" stop-color="#05a0d7"/>
      <stop offset="1" stop-color="#035775"/>
    </linearGradient>
  </defs>
  <g id="Group_15594" data-name="Group 15594" transform="translate(561 -13544)">
    <g id="Rectangle_3882" data-name="Rectangle 3882" transform="translate(-561 13544)" fill="#fff" stroke="#e9e9e9" stroke-width="1.9">
      <rect width="90" height="90" rx="15" stroke="none"/>
      <rect x="0.95" y="0.95" width="88.1" height="88.1" rx="14.05" fill="none"/>
    </g>
    <g id="Group_15595" data-name="Group 15595" transform="translate(-1297.844 13080.306)">
      <path id="Path_21119" data-name="Path 21119" d="M778.593,518.611l5.575,9.344c1.729,2.8,4.576,4.072,8.129,4.072h14.336l-16.794-20.521-2.383-1.369-6.287,2.069-3.186,4.647Z" fill="url(#linear-gradient)"/>
      <path id="Path_21120" data-name="Path 21120" d="M778.593,520.932l-5.013-8.359a4.717,4.717,0,0,1-.769-2.746c0-1.063.449-1.646,2.175-2.569,2.011-.971,6.06-1.394,10.233-1.394,6.782,0,8.408,2.2,9.1,4.564a9.612,9.612,0,0,0-3.208-.384c-7.145,0-12.856,3.5-12.856,8.795a7.186,7.186,0,0,0,.338,2.093Z" transform="translate(1 0.15)" fill="url(#linear-gradient-2)"/>
      <path id="Path_21121" data-name="Path 21121" d="M757.055,485.367h6.738a6.332,6.332,0,0,1,5.161,2.325c1.316,1.207,5.31,6.658,13.752,17.3h-9.132c-3.736,0-4.92-.647-6.363-2.865Z" fill="url(#linear-gradient-3)"/>
    </g>
  </g>
</svg>
