<svg xmlns="http://www.w3.org/2000/svg" width="90" height="90" viewBox="0 0 90 90">
  <g id="Group_15613" data-name="Group 15613" transform="translate(1296 -13545)">
    <g id="Group_15610" data-name="Group 15610" transform="translate(-105 220)">
      <g id="Group_15599" data-name="Group 15599" transform="translate(-630 -219)">
        <g id="Rectangle_3882" data-name="Rectangle 3882" transform="translate(-561 13544)" fill="#fff" stroke="#e9e9e9" stroke-width="1.9">
          <rect width="90" height="90" rx="15" stroke="none"/>
          <rect x="0.95" y="0.95" width="88.1" height="88.1" rx="14.05" fill="none"/>
        </g>
      </g>
    </g>
    <g id="Group_15614" data-name="Group 15614" transform="translate(-2137.075 12955.309)">
      <path id="Path_21124" data-name="Path 21124" d="M866.065,630.574a3.406,3.406,0,0,0,.263,1.593,4.818,4.818,0,0,0,1.056,1.7,4.733,4.733,0,0,0,5.528.961c.79-.266,21.859-8.765,21.859-8.765s-8.164,21.247-8.691,22.044a4.834,4.834,0,0,0,.953,5.576,4.761,4.761,0,0,0,1.681,1.064,3.317,3.317,0,0,0,1.58.266A5.3,5.3,0,0,0,893.176,654a5.374,5.374,0,0,0,1.859-2.441c.263-.266,10.534-28.951,10.8-29.747,0-.531.263-1.328.263-2.125a5.259,5.259,0,0,0-1.58-3.718,5.18,5.18,0,0,0-3.687-1.594,5.755,5.755,0,0,0-2.107.266c-.263.266-26.862,10.359-29.233,11.155a4.741,4.741,0,0,0-2.53,1.794,4.816,4.816,0,0,0-.894,2.987" fill="#e41e26"/>
    </g>
  </g>
</svg>
