<svg xmlns="http://www.w3.org/2000/svg" width="90" height="90" viewBox="0 0 90 90">
  <g id="Group_15698" data-name="Group 15698" transform="translate(2661 -13435)">
    <g id="Group_15692" data-name="Group 15692" transform="translate(-105)">
      <g id="Group_15685" data-name="Group 15685" transform="translate(-105 110)">
        <g id="Group_15675" data-name="Group 15675" transform="translate(-105)">
          <g id="Group_15671" data-name="Group 15671" transform="translate(-105)">
            <g id="Group_15666" data-name="Group 15666" transform="translate(-945 -220)">
              <g id="Group_15639" data-name="Group 15639">
                <g id="Group_15659" data-name="Group 15659">
                  <g id="Group_15610" data-name="Group 15610" transform="translate(-105 220)">
                    <g id="Group_15599" data-name="Group 15599" transform="translate(-630 -219)">
                      <g id="Rectangle_3882" data-name="Rectangle 3882" transform="translate(-561 13544)" fill="#fff" stroke="#e9e9e9" stroke-width="1.9">
                        <rect width="90" height="90" rx="15" stroke="none"/>
                        <rect x="0.95" y="0.95" width="88.1" height="88.1" rx="14.05" fill="none"/>
                      </g>
                    </g>
                  </g>
                </g>
              </g>
            </g>
          </g>
        </g>
      </g>
    </g>
    <g id="g1792" transform="translate(-2632.19 13517.16)">
      <path id="path1794" d="M-7.073-27.24C.8-33.554,6.435-38.957,8.117-41.9a3.3,3.3,0,0,0,.541-3.087c-.741-1.636-3.327-2.146-6.538-1.52a252.72,252.72,0,0,1,43.564-5.8.266.266,0,0,1,.27.216.251.251,0,0,1-.17.293A142.116,142.116,0,0,0-4.031-23.674a.155.155,0,0,1-.062.031l-9.339,1.621a.127.127,0,0,1-.136-.074.127.127,0,0,1,.036-.15c2.284-1.706,4.448-3.381,6.46-4.994" transform="translate(0 0)" fill="#e31f27"/>
    </g>
  </g>
</svg>
