<svg xmlns="http://www.w3.org/2000/svg" height="800" width="1200" viewBox="-8.241075 -3.219575 71.42265 19.31745"><path d="M15.6236 10.3477h-1.7142V4.0312h1.7142v5.708zm-.8565-7.0159c-.5478 0-.9758-.4237-.9758-.963 0-.526.4371-.9533.9758-.9533.5546 0 .9882.4184.9882.9532 0 .531-.4424.963-.9882.963m17.8952 7.1469c-.968 0-1.7734-.334-2.3283-.9662-.5055-.5747-.7853-1.3885-.7853-2.2895 0-.9275.3288-1.7745.93-2.3862.5975-.6114 1.4297-.9476 2.3392-.9476.7133 0 1.2894.1566 1.8383.4646l-.0579 1.4125c-.4455-.3362-1.0128-.5284-1.597-.5284-1.0068 0-1.7378.8018-1.7378 1.9057 0 .8869.4512 1.9216 1.7248 1.9216.6103 0 1.1334-.2473 1.4929-.4562l.4494 1.2192c-.4561.3122-1.361.6505-2.2683.6505m-24.498-.1308H6.3465l-.8474-2.153H2.5344l-.7952 2.153H0l3.3976-8.782h1.2499zm-5.0905-3.591h1.875l-.657-1.8686a10.062 10.062 0 01-.2581-.8004c-.06.2243-.1475.4737-.2537.7736zm10.318-2.7257h-1.7155l-1.5265 4.094-1.501-4.094H6.9204l2.3075 5.629c.1743.4374.4389.6882.9398.6882h.5962zm5.1767 6.4476c-1.234 0-2.0962-.8463-2.0962-2.057 0-1.2754.9688-2.0391 2.6558-2.0963l1.023-.0363v-.0847c0-.7994-.6195-.967-1.1384-.967-.5172 0-1.0202.1553-1.5776.4908l-.581-1.112c.6879-.4575 1.556-.727 2.5107-.727 1.7 0 2.527.7574 2.527 2.3152v2.8882c0 .5556.048.9292.1453 1.256h-.9896c-.4216 0-.5856-.169-.7112-.5053-.5041.4265-1.0837.6354-1.7678.6354m1.5826-2.9577l-.8103.024c-1.0337.031-1.1525.4487-1.1525.7588 0 .4932.347.7874.9285.7874.4081 0 .7567-.1185 1.0343-.3513zm17.2429 2.9577c-1.2334 0-2.097-.8463-2.097-2.057 0-1.2754.9687-2.0391 2.6571-2.0963l1.0224-.0363v-.0847c0-.7994-.6195-.967-1.1377-.967-.518 0-1.021.1553-1.5784.4908l-.5803-1.112c.6865-.4575 1.5558-.727 2.5107-.727 1.7 0 2.527.7574 2.527 2.3152v2.8882c0 .5556.048.9292.1446 1.256h-.9895c-.4216 0-.5856-.169-.7112-.5053-.5041.4265-1.0837.6354-1.7678.6354m1.5826-2.9577l-.8104.024c-1.0336.031-1.1525.4487-1.1525.7588 0 .4932.3464.7874.9285.7874.4096 0 .756-.1185 1.0344-.3513zm-10.1899 2.8267H27.071V6.6481c0-.876-.26-1.2671-.8392-1.2671-.4509 0-.9384.2003-1.4912.6145v4.3522h-1.7142V4.0312h.6559c.4995 0 .8117.1916.9535.5828l.009.0332c.7289-.5242 1.3868-.7581 2.1206-.7581.9772 0 2.021.6018 2.021 2.2899zm23.6437-.1826c-.211-.653-.8763-1.1613-3.2156-1.3377.374.4336.767.847 1.1797 1.235h1.1878c.4925 0 .709.0414.848.1027m-8.9758-6.7493c-.109 2.5316 1.2471 5.0821 5.7175 5.4074l.0441.004C46.9452 6.1895 45.4148 2.812 44.8006 0c0 0-1.247 1.1-1.3462 3.4156m6.9398 6.6469c-1.761 0-4.8023.0007-4.8023.0007.063.1496.2843.2543.7846.284 2.9986.1778 3.4237 2.5311 7.7149 2.5311.3778 0 .6127-.0219.849-.0667-1.695-.5214-3.2197-1.502-4.5462-2.7492" fill="#da291c"/></svg>