<svg xmlns="http://www.w3.org/2000/svg" width="90" height="90" viewBox="0 0 90 90">
  <g id="Group_15615" data-name="Group 15615" transform="translate(1296 -13545)">
    <g id="Group_15610" data-name="Group 15610" transform="translate(-105 220)">
      <g id="Group_15599" data-name="Group 15599" transform="translate(-630 -219)">
        <g id="Rectangle_3882" data-name="Rectangle 3882" transform="translate(-561 13544)" fill="#fff" stroke="#e9e9e9" stroke-width="1.9">
          <rect width="90" height="90" rx="15" stroke="none"/>
          <rect x="0.95" y="0.95" width="88.1" height="88.1" rx="14.05" fill="none"/>
        </g>
      </g>
    </g>
    <g id="Group_15616" data-name="Group 15616" transform="translate(-2245.528 12957.102)">
      <path id="Path_21130" data-name="Path 21130" d="M985.654,653.525c0,2.165-2.367,3.909-5.306,3.909s-5.293-1.744-5.293-3.909,2.367-3.918,5.3-3.918S985.654,651.363,985.654,653.525Zm3.7-9.336c0,1.813-2.071,3.273-4.642,3.289s-4.655-1.477-4.655-3.289,2.077-3.257,4.655-3.257,4.642,1.438,4.642,3.25Zm3.041-7.8c0,1.45-1.769,2.631-3.945,2.631s-3.971-1.181-3.971-2.631,1.782-2.632,3.971-2.632S992.4,634.951,992.4,636.392Zm8.091-21.26c0,.573-.924,1.04-2.065,1.04s-2.071-.467-2.071-1.04.931-1.039,2.071-1.039S1000.48,614.547,1000.487,615.132Zm2.39-6.017c0,.414-.694.744-1.552.744s-1.552-.329-1.559-.744.694-.753,1.559-.753S1002.876,608.691,1002.876,609.115Zm-1.128,2.866c0,.484-.8.862-1.8.868s-1.785-.4-1.785-.868.8-.858,1.785-.858,1.8.385,1.8.858Zm-6.785,17.575c0,1.175-1.509,2.122-3.373,2.122s-3.363-.944-3.363-2.122,1.51-2.112,3.363-2.112,3.373.957,3.373,2.126Zm2.225-5.688c0,.928-1.285,1.694-2.886,1.694s-2.873-.766-2.873-1.694,1.285-1.71,2.873-1.71S997.189,622.92,997.189,623.867Zm.829,29.02c0,1.951-2.153,3.514-4.81,3.514s-4.816-1.57-4.816-3.514,2.16-3.527,4.81-3.527S998.017,650.94,998.017,652.887Zm10.582-2.922c0,1.714-1.943,3.1-4.339,3.1s-4.333-1.382-4.333-3.1,1.943-3.115,4.333-3.115S1008.6,648.249,1008.6,649.965Zm5.4-5.971c0,1.343-1.587,2.441-3.56,2.441s-3.537-1.1-3.537-2.441,1.587-2.464,3.537-2.464S1014,642.63,1014,643.994Zm-5.168-10.659c0,.9-1.16,1.622-2.577,1.622s-2.6-.72-2.6-1.622,1.161-1.645,2.6-1.645,2.577.737,2.577,1.645Zm-9.74-14.249c0,.75-1.091,1.362-2.446,1.362s-2.439-.615-2.439-1.362,1.094-1.352,2.439-1.352S999.092,618.344,999.092,619.087Zm13.962,18.7c0,1.1-1.345,1.975-3.018,1.975s-3.008-.892-3.008-1.975,1.348-1.974,3.018-1.974S1013.054,636.711,1013.054,637.786Z" fill="#ee452a"/>
    </g>
  </g>
</svg>
