<svg xmlns="http://www.w3.org/2000/svg" height="800" width="1200" version="1.0" viewBox="-14.8494 -3.729 128.6948 22.374"><path d="M3.224 13.728c0 .658-.72 1.188-1.614 1.188-.891 0-1.61-.53-1.61-1.188 0-.655.72-1.191 1.612-1.191.892-.002 1.612.534 1.612 1.191M4.35 10.89c0 .551-.63.995-1.412 1-.784-.005-1.416-.449-1.416-1 0-.551.632-.988 1.416-.988.782-.003 1.412.437 1.412.988m.925-2.368c0 .441-.538.8-1.203.802-.667 0-1.208-.359-1.208-.802 0-.44.542-.8 1.208-.8.665 0 1.203.362 1.203.8m2.461-6.464c-.002.174-.281.316-.628.316s-.63-.142-.63-.316c0-.177.283-.316.63-.316.347 0 .626.138.628.316M8.463.229c0 .126-.211.226-.472.226-.263 0-.472-.1-.474-.226 0-.124.211-.229.474-.229.261 0 .472.105.472.229m-.343.867c0 .147-.242.262-.547.264-.299 0-.543-.117-.543-.264 0-.144.244-.261.543-.261.304 0 .547.117.547.261M6.056 6.442c0 .357-.459.645-1.026.645-.563 0-1.023-.288-1.023-.645 0-.355.459-.646 1.023-.646.567.001 1.026.291 1.026.646m.677-1.733c0 .282-.391.515-.878.515-.483 0-.874-.233-.874-.515 0-.288.391-.52.874-.52.487 0 .878.232.878.52m.252 8.821c0 .593-.655 1.068-1.463 1.068s-1.465-.477-1.465-1.068c0-.591.657-1.072 1.463-1.072.81 0 1.465.48 1.465 1.072m3.219-.888c0 .521-.591.941-1.32.941-.727 0-1.318-.42-1.318-.941 0-.521.591-.947 1.318-.947.728-.001 1.32.425 1.32.947m1.643-1.815c0 .408-.483.742-1.083.742-.593 0-1.076-.334-1.076-.742 0-.415.483-.749 1.076-.749.598 0 1.083.334 1.083.749m-1.572-3.236c0 .274-.353.493-.784.493-.437 0-.79-.219-.79-.493 0-.272.353-.497.79-.497.432 0 .784.224.784.497M7.312 3.26c0 .228-.332.414-.744.414-.409 0-.742-.187-.742-.414 0-.227.333-.411.742-.411.411 0 .744.185.744.411m4.247 5.684c0 .334-.409.603-.918.603-.505 0-.915-.271-.915-.603 0-.328.41-.601.918-.601.505.002.915.273.915.601" fill="#EE452A"/><path d="M16.688 13.479V4.677h1.404v3.251c.45-.158.878-.237 1.28-.237.878 0 1.556.291 2.039.875.418.507.629 1.172.629 1.986 0 1.068-.356 1.873-1.07 2.403-.619.471-1.48.703-2.58.703-.469 0-1.038-.057-1.702-.179m1.404-4.474v3.48c.2.031.382.05.543.05 1.311 0 1.967-.632 1.967-1.892 0-.613-.164-1.076-.485-1.386-.285-.274-.663-.414-1.147-.414-.276.002-.568.054-.878.162m5.391 4.578V8.201c.817-.333 1.642-.5 2.479-.5.4 0 .778.054 1.129.165v1.185c-.298-.11-.628-.161-.984-.161-.413 0-.817.073-1.217.223v4.473m3.132-5.791h1.407v3.455c0 .483.103.812.303.981.175.153.476.229.896.229.283 0 .595-.039.94-.107V7.795h1.41v5.587c-.942.184-1.763.275-2.47.275-.891 0-1.539-.18-1.943-.536-.211-.205-.354-.451-.438-.749-.07-.266-.105-.617-.105-1.064m6.499 2.075v-1.282c.553.347 1.076.521 1.568.521.626 0 .94-.196.94-.589 0-.268-.186-.481-.553-.652l-.569-.27c-.525-.243-.889-.512-1.105-.801-.187-.252-.281-.556-.281-.901 0-.562.224-.996.676-1.31.395-.271.901-.409 1.526-.409.514 0 1.015.106 1.491.318v1.211c-.474-.292-.938-.44-1.392-.44-.626 0-.937.187-.937.56 0 .149.063.278.191.377.118.091.387.228.802.429.577.293.966.555 1.161.775.25.29.378.639.378 1.055 0 .584-.233 1.035-.69 1.352-.4.279-.926.419-1.583.419-.562-.003-1.104-.124-1.623-.363m5.021 0v-1.282c.558.347 1.082.521 1.572.521.626 0 .94-.196.94-.589 0-.268-.187-.481-.558-.652l-.564-.27c-.527-.243-.892-.512-1.105-.801-.189-.252-.285-.556-.285-.901 0-.562.228-.996.679-1.31.391-.271.896-.409 1.526-.409.516 0 1.01.106 1.493.318v1.211c-.477-.292-.938-.44-1.396-.44-.624 0-.935.187-.935.56 0 .149.063.278.191.377.12.091.384.228.803.429.577.293.964.555 1.159.775.253.29.376.639.376 1.055 0 .584-.231 1.035-.689 1.352-.398.279-.927.419-1.581.419-.561-.003-1.104-.124-1.626-.363m10.298-2.427h-3.97c.059 1.07.658 1.611 1.792 1.611.694 0 1.324-.201 1.884-.614v1.181c-.65.393-1.35.588-2.099.588-.986 0-1.741-.291-2.262-.886-.452-.509-.678-1.203-.678-2.067 0-.99.289-1.773.874-2.352.511-.5 1.161-.752 1.946-.752.553 0 1.034.139 1.441.404.358.234.623.548.797.939.186.416.274 1.057.274 1.924m-3.878-.983h2.52c-.063-.808-.454-1.212-1.175-1.212-.382 0-.69.123-.931.363-.215.212-.351.492-.414.849m5.327-5.272h1.409v8.908h-1.409zm2.966 8.706v-1.282c.553.347 1.078.521 1.571.521.623 0 .937-.196.937-.589 0-.268-.185-.481-.556-.652l-.565-.27c-.524-.243-.891-.512-1.104-.801-.191-.252-.283-.556-.283-.901 0-.562.225-.996.68-1.31.392-.271.897-.409 1.523-.409.516 0 1.012.106 1.488.318v1.211c-.471-.292-.937-.44-1.387-.44-.631 0-.938.187-.938.56 0 .149.062.278.19.377.113.091.385.228.801.429.578.293.966.555 1.162.775.25.29.379.639.379 1.055 0 .584-.231 1.035-.692 1.352-.401.279-.928.419-1.581.419-.565-.003-1.102-.124-1.625-.363m7.728-3.889V8.283c.735-.396 1.488-.592 2.248-.592.832 0 1.373.244 1.623.733.125.247.191.703.191 1.375v3.669c-.995.145-1.805.213-2.43.213-.73 0-1.248-.146-1.563-.447-.274-.266-.407-.661-.407-1.187 0-.79.33-1.345.994-1.666.438-.215 1.104-.368 1.993-.468l.117-.01v-.207c0-.344-.065-.573-.207-.691-.125-.107-.33-.16-.624-.16-.608 0-1.257.217-1.935.649m2.793 3.01v-1.541c-.723.06-1.217.167-1.489.333-.235.145-.349.357-.349.646 0 .438.252.654.768.654.286.003.641-.029 1.07-.092m2.989-7.307h1.448v1.506h-1.448zm.024 2.611h1.407v5.777h-1.407zm3.221 5.775V8.201c.817-.333 1.642-.5 2.484-.5.396 0 .772.054 1.126.165v1.185c-.301-.11-.63-.161-.984-.161-.417 0-.82.073-1.217.223v4.473m3.332-8.909h1.41v8.908h-1.41zm3.214.52h1.45v1.506h-1.45zm.022 2.611h1.408v5.777h-1.408zm3.226 5.775V8.089c.909-.262 1.781-.389 2.622-.389.909 0 1.55.194 1.922.59.309.333.465.859.465 1.582v3.711h-1.41V9.968c0-.438-.098-.734-.297-.9-.179-.146-.465-.223-.855-.223-.332 0-.68.055-1.037.16v4.578m10.319-2.627H89.97c.059 1.07.655 1.611 1.786 1.611.7 0 1.328-.201 1.888-.614v1.181c-.648.393-1.352.588-2.097.588-.985 0-1.741-.291-2.264-.886-.448-.509-.679-1.203-.679-2.067 0-.99.293-1.773.873-2.352.511-.5 1.162-.752 1.945-.752.555 0 1.035.139 1.443.404.359.234.622.548.801.939.18.416.271 1.057.271 1.924m-3.874-.983h2.52c-.063-.808-.454-1.212-1.178-1.212-.379 0-.69.123-.93.363-.215.212-.349.492-.412.849m5.044 3.434v-1.282c.555.347 1.078.521 1.57.521.625 0 .938-.196.938-.589 0-.268-.188-.481-.558-.652l-.566-.27c-.521-.243-.891-.512-1.105-.801-.186-.252-.279-.556-.279-.902 0-.562.222-.996.676-1.31.393-.271.898-.409 1.525-.409.515 0 1.014.106 1.488.318v1.211c-.47-.292-.938-.44-1.395-.44-.619 0-.932.187-.932.56 0 .149.063.278.188.377.118.091.389.228.804.429.578.293.967.555 1.162.775.25.29.373.639.373 1.055 0 .584-.229 1.035-.686 1.352-.403.279-.928.419-1.582.419-.559-.002-1.103-.123-1.621-.362" fill="#011F65"/></svg>