<svg xmlns="http://www.w3.org/2000/svg" width="90" height="90" viewBox="0 0 90 90">
  <g id="Group_15619" data-name="Group 15619" transform="translate(1296 -13545)">
    <g id="Group_15610" data-name="Group 15610" transform="translate(-105 220)">
      <g id="Group_15599" data-name="Group 15599" transform="translate(-630 -219)">
        <g id="Rectangle_3882" data-name="Rectangle 3882" transform="translate(-561 13544)" fill="#fff" stroke="#e9e9e9" stroke-width="1.9">
          <rect width="90" height="90" rx="15" stroke="none"/>
          <rect x="0.95" y="0.95" width="88.1" height="88.1" rx="14.05" fill="none"/>
        </g>
      </g>
    </g>
    <g id="Group_15620" data-name="Group 15620" transform="translate(-2467.092 12950.372)">
      <path id="Path_21131" data-name="Path 21131" d="M1210.025,636.566c-.182.025-.384-.243-.472-.368-.025-.039-.127-.251-.1-.279s.243.039.3.086a.9.9,0,0,1,.309.521.05.05,0,0,1,0,.016.04.04,0,0,1-.036.029Zm-4.387-2.472c-.125.047-.429-.3-.514-.432-.157-.24-.312-.5-.478-.735a1.308,1.308,0,0,1-.361-.717c0-.042-.031-.151,0-.151.168,0,.328.312.412.43s.129.167.185.254.116.279.2.4.231.278.345.428a.97.97,0,0,1,.177.254c.016.056.069.259.033.279Zm-1.254-.05c-.094,0-.133-.067-.19-.112a.708.708,0,0,1-.207-.253.725.725,0,0,1-.071-.319c0-.028,0-.036.025-.036.182,0,.373.279.443.421a.528.528,0,0,1,.06.226c0,.05-.022.073-.049.075Zm-4.166.861a.07.07,0,0,1-.02.033.062.062,0,0,1-.033.015c-.2,0-.257-.31-.345-.446a3.484,3.484,0,0,0-.221-.345,2.335,2.335,0,0,1-.164-.257,2.431,2.431,0,0,0-.143-.346c-.036-.056-.091-.1-.13-.153a2.032,2.032,0,0,1-.276-.493c-.028-.075-.028-.145-.05-.206-.041-.114-.091-.234-.129-.354a.615.615,0,0,1-.02-.226c0-.019.014-.031.028-.028.152.025.3.4.375.538s.21.279.276.418.083.311.157.445a2.9,2.9,0,0,0,.216.279,3.336,3.336,0,0,1,.224.438c.072.158.174.278.238.437a.479.479,0,0,1,.02.251Zm-.788-5.79a1.814,1.814,0,0,1-.107-.229c-.031-.086-.036-.164-.073-.245-.116-.278-.248-.557-.367-.819a.71.71,0,0,1-.069-.454c0-.02.046,0,.063,0a.983.983,0,0,1,.1.1c.025.039.034.078.058.117a2.418,2.418,0,0,1,.177.279c.1.215.121.455.218.664.064.139.169.258.238.4a1.637,1.637,0,0,1,.077.237,1.078,1.078,0,0,1,.016.19c0,.07,0,.117-.033.117-.182,0-.237-.24-.307-.374Zm39.694,17.864c-.231-.865-2.723-.494-4.774-.683a28.756,28.756,0,0,1-7.133-1.529,51.393,51.393,0,0,1-7.565-3.283s-.92-.49-1.017-.557c-.188-.117-.338-.2-.522-.318a4.212,4.212,0,0,0-.406-.226,2.7,2.7,0,0,1-.4-.239c-.141-.087-.331-.181-.472-.279-.21-.131-.34-.234-.536-.379a3.95,3.95,0,0,0-.348-.217c-.1-.059-.276-.159-.363-.217-.182-.122-.3-.225-.481-.353-.113-.078-.193-.128-.328-.212a3.991,3.991,0,0,1-.371-.279,1.934,1.934,0,0,1-.219-.165c-.132-.131-.276-.247-.4-.364a4.571,4.571,0,0,0-.377-.312c-.08-.059-.216-.178-.3-.237-.2-.151-.334-.262-.538-.415-.133-.1-.243-.228-.374-.328s-.276-.24-.433-.349a2.229,2.229,0,0,1-.276-.237c-.1-.117-.194-.2-.293-.317s-.221-.176-.3-.265a2.737,2.737,0,0,0-.472-.466,1.266,1.266,0,0,1-.165-.187,1.372,1.372,0,0,0-.158-.125c-.083-.084-.107-.108-.143-.141s-.077-.075-.188-.184a2.244,2.244,0,0,1-.153-.2c-.052-.072-.1-.139-.132-.176l-.238-.257-.163-.2a1.029,1.029,0,0,1-.1-.141,1.109,1.109,0,0,0-.1-.137c-.061-.067-.105-.045-.116-.036a.174.174,0,0,0,0,.181,2.655,2.655,0,0,0,.174.278l.025.036c.02.031.038.064.055.095a1.651,1.651,0,0,0,.088.145,2.728,2.728,0,0,0,.238.279l.077.084a1.335,1.335,0,0,1,.139.184,1.535,1.535,0,0,0,.138.183.754.754,0,0,1,.072.092.73.73,0,0,0,.083.1l.138.139q.108.117.226.223c.058.05.116.112.177.173.154.184.317.367.455.557a1.58,1.58,0,0,0,.309.245,1.6,1.6,0,0,1,.251.3c.059.07.188.19.252.265a2.081,2.081,0,0,0,.456.456,1.514,1.514,0,0,1,.31.3c.056.072.229.245.293.323a.839.839,0,0,1,.219.417c-.114.031-.39-.217-.552-.323a2.407,2.407,0,0,1-.277-.223,2.538,2.538,0,0,1-.3-.262,3.683,3.683,0,0,1-.251-.279,4.5,4.5,0,0,0-.572-.557c-.191-.19-.429-.36-.616-.53l-.166-.181c-.063-.061-.14-.12-.193-.18a2.612,2.612,0,0,0-.31-.41c-.11-.084-.191-.162-.3-.245-.039-.028-.075-.078-.113-.112a.847.847,0,0,1-.158-.137l-.381-.5c-.061-.078-.144-.145-.2-.229-.127-.176-.23-.36-.356-.53-.178-.233-.431-.4-.6-.638s-.277-.527-.445-.783a2.506,2.506,0,0,0-.259-.279.853.853,0,0,1-.113-.2c-.088-.137-.191-.279-.276-.4-.116-.173-.2-.364-.312-.557a1.717,1.717,0,0,0-.133-.254q-.114-.156-.213-.323c-.08-.128-.122-.214-.177-.3s-.1-.173-.135-.237-.121-.178-.152-.226c-.108-.167-.136-.245-.249-.4-.069-.095-.14-.173-.2-.151s-.033.092-.021.134a.938.938,0,0,0,.1.212c.088.165.118.243.215.393.045.073.122.237.183.326s.121.2.165.278a3.329,3.329,0,0,0,.179.376,2.334,2.334,0,0,1,.161.279,4.492,4.492,0,0,0,.3.479l.19.362c.126.192.276.377.4.574l.229.417c.075.114.177.212.252.329s.14.279.229.427.164.208.232.317c.122.184.23.363.357.538.069.095.163.179.232.279s.174.278.276.4a2.514,2.514,0,0,1,.246.279c.141.17.486.668.429.671-.2.028-.594-.423-.76-.587a3.876,3.876,0,0,1-.359-.343c-.13-.181-.227-.379-.357-.557-.046-.064-.118-.114-.165-.173a3.078,3.078,0,0,0-.276-.346c-.045-.042-.089-.081-.13-.128-.16-.209-.293-.431-.45-.646-.064-.089-.15-.167-.213-.257s-.083-.128-.13-.206-.143-.2-.207-.279a2.362,2.362,0,0,1-.124-.216c-.084-.131-.2-.243-.277-.374s-.085-.248-.154-.354c-.174-.279-.365-.557-.536-.819-.044-.07-.06-.148-.105-.218-.138-.22-.276-.462-.406-.682-.052-.081-.072-.173-.124-.254s-.161-.176-.224-.279a1.775,1.775,0,0,1-.105-.245c-.053-.114-.122-.228-.179-.336s-.056-.137-.1-.2a7.312,7.312,0,0,1-.44-.836c-.072-.151-.177-.3-.245-.446s-.156-.343-.232-.507l-.119-.334c-.083-.178-.2-.326-.276-.51-.056-.123-.083-.24-.133-.343s-.091-.117-.136-.086-.049.084-.021.181a4.123,4.123,0,0,0,.2.5c.094.212.141.429.237.643.053.117.127.232.179.346.095.2.18.407.277.6.052.113.094.219.154.325a2.028,2.028,0,0,1,.1.181c.058.137.077.279.138.41s.166.248.226.381a17.2,17.2,0,0,0,1.02,1.951c.108.17.161.376.276.557s.277.31.374.482.113.337.2.49a6.481,6.481,0,0,0,.423.639c.036.059.047.128.086.19s.116.165.168.244.105.243.182.346.2.206.276.321.169.3.277.446c.072.1.185.166.257.264.119.156.52.694.636.837a5.8,5.8,0,0,1,.643.872c.045.095.2.315.171.36-.085.058-.483-.385-.552-.452a5.524,5.524,0,0,1-.456-.572c-.033-.042-.417-.423-.451-.465s-.077-.1-.111-.153c-.1-.162-.171-.357-.276-.51a1.464,1.464,0,0,1-.2-.191c-.088-.117-.149-.254-.235-.374-.138-.19-.311-.357-.447-.558s-.255-.448-.4-.654c-.074-.1-.171-.192-.244-.3-.03-.05-.044-.1-.074-.145a2.3,2.3,0,0,1-.171-.278,2.1,2.1,0,0,0-.116-.245c-.157-.251-.315-.516-.472-.764-.073-.112-.111-.233-.182-.345-.116-.184-.277-.351-.385-.538s-.215-.487-.353-.707c-.091-.145-.2-.279-.276-.429s-.152-.343-.241-.507-.188-.279-.254-.429-.127-.318-.2-.482c-.042-.087-.1-.173-.144-.264s-.06-.226-.11-.335c-.138-.307-.342-.6-.484-.9-.1-.218-.191-.443-.276-.672a3.563,3.563,0,0,0-.122-.362c-.125-.279-.276-.574-.4-.853-.051-.149-.1-.3-.157-.445a.926.926,0,0,0-.031-.128c-.057-.131-.133-.259-.182-.39l-.141-.455c-.193-.493-.367-1.048-.552-1.56-.025-.095-.031-.209-.064-.31l-.276-.788c-.052-.134-.179-.086-.149.047.038.184.063.226.091.367.014.072.028.145.044.218s.064.181.088.265c.05.156.053.312.1.463.075.211.15.417.219.635.02.109.044.218.064.326a1.521,1.521,0,0,0,.108.3c.107.278.209.526.3.791l.113.454c.039.084.1.173.133.254s.039.142.071.218c.067.17.13.346.2.516s.139.278.193.437c.025.072.025.137.05.209.163.452.336.922.527,1.346.047.106.061.218.108.326s.094.186.136.278l.058.173c.058.125.161.231.218.354a6.944,6.944,0,0,0,.514.981,5.988,5.988,0,0,1,.417.972,3.238,3.238,0,0,0,.245.427,1.922,1.922,0,0,1,.105.229,3.951,3.951,0,0,0,.255.473,1.312,1.312,0,0,1,.136.335,2.062,2.062,0,0,1,.088.379c-.031.019-.188-.078-.244-.139a1.313,1.313,0,0,1-.276-.371c-.039-.089-.119-.243-.161-.329a5.326,5.326,0,0,0-.4-.6,3.571,3.571,0,0,1-.174-.374c-.105-.229-.227-.462-.334-.7a3.074,3.074,0,0,0-.169-.279c-.057-.092-.085-.189-.143-.279a6.1,6.1,0,0,1-.368-.646c-.074-.162-.113-.324-.188-.482a1.162,1.162,0,0,0-.094-.145,2.524,2.524,0,0,1-.116-.264c-.058-.123-.14-.237-.2-.365-.111-.248-.177-.508-.293-.752-.052-.114-.143-.212-.2-.329-.083-.176-.089-.4-.171-.58-.213-.484-.455-.989-.639-1.5-.027-.084-.035-.181-.063-.279-.077-.22-.185-.427-.276-.647-.036-.1-.045-.189-.08-.278-.053-.148-.122-.3-.177-.455a1.235,1.235,0,0,0-.038-.153c-.064-.139-.1-.307-.169-.454-.032-.075-.085-.154-.115-.237-.053-.145-.036-.332-.089-.471-.071-.209-.16-.428-.234-.635-.044-.117-.05-.234-.091-.354s-.064-.3-.119-.435-.05-.292-.1-.445-.08-.231-.119-.335c-.071-.2-.1-.413-.171-.6l-.036-.1c-.019-.05-.052-.1-.1-.086s-.055.092-.052.139a1.543,1.543,0,0,0,.1.4c.044.126.069.259.1.382.019.075.017.162.035.245s.07.229.1.345,0,.226.037.318c.074.251.154.533.241.772.035.122.041.264.074.37l.137.382c.039.106.05.209.091.31a3.41,3.41,0,0,1,.136.336c.047.156.044.307.1.452.086.237.191.463.276.691.025.081.034.17.064.254.069.2.119.41.188.608.1.278.232.557.332.836s.109.6.226.864c.059.128.179.2.235.326a1.979,1.979,0,0,1,.052.265c.033.106.084.208.119.306a2.625,2.625,0,0,1,.072.265,3.376,3.376,0,0,0,.153.309,3.582,3.582,0,0,0,.2.482,3.027,3.027,0,0,1,.216.338c.063.137.086.279.149.427.091.209.2.409.276.627a4.387,4.387,0,0,0,.191.583c.091.173.206.325.3.5l.174.382c.049.1.14.2.2.3s.14.278.2.4a2.018,2.018,0,0,0,.119.279c.085.134.146.243.231.379a2.42,2.42,0,0,1,.213.415,1.491,1.491,0,0,0,.144.31q.11.134.207.279a1.058,1.058,0,0,1,.1.438c-.07.025-.277-.164-.315-.231-.155-.19-.23-.443-.37-.647a3.454,3.454,0,0,1-.36-.588,5.707,5.707,0,0,0-.276-.533,2.994,2.994,0,0,1-.243-.364c-.047-.112-.072-.245-.118-.354-.075-.162-.224-.265-.3-.43s-.125-.373-.216-.557c-.045-.084-.1-.179-.141-.262s-.063-.209-.114-.321c-.1-.223-.259-.415-.359-.635s-.166-.477-.276-.708c-.059-.122-.158-.228-.216-.353s-.119-.34-.2-.508c-.047-.1-.116-.2-.164-.3-.066-.144-.091-.3-.157-.454l-.455-1.036c-.056-.131-.073-.279-.13-.4l-.171-.346c-.133-.3-.177-.649-.31-.953-.067-.153-.152-.3-.213-.462-.094-.259-.13-.524-.224-.789-.141-.4-.257-.836-.4-1.226-.045-.117-.045-.242-.086-.367l-.13-.354c-.031-.095-.046-.232-.074-.354-.105-.339-.213-.68-.321-1.025-.022-.081-.028-.229-.055-.335-.017-.059-.05-.127-.07-.18s-.027-.145-.052-.226c-.077-.251-.147-.541-.224-.789-.022-.08-.031-.191-.055-.278-.111-.357-.164-.792-.3-1.115-.025-.064-.067-.131-.127-.117s-.049.089-.042.148c.02.164.078.3.105.437a1,1,0,0,0,.017.217,1.226,1.226,0,0,0,.033.2c.063.212.14.459.2.671.02.1,0,.257.031.371a9.852,9.852,0,0,0,.276,1.045,8.111,8.111,0,0,1,.21.905c.024.128.032.259.049.39a1.6,1.6,0,0,0,.127.321c.028.078.025.145.052.225.067.215.113.429.19.644.053.148.133.279.186.438.022.066.014.125.033.2.036.148.061.3.105.443.1.3.2.615.307.908.058.165.077.324.133.483.23.635.461,1.268.688,1.9l.113.418a3.542,3.542,0,0,0,.191.39c.057.125.1.335.16.507s.166.36.243.572c.036.1.072.211.116.309s.1.145.132.218c.059.125.073.279.127.41a3.961,3.961,0,0,0,.238.345,3.311,3.311,0,0,1,.126.374c.087.192.2.368.277.572.033.087.049.161.088.244s.113.184.154.279a.273.273,0,0,1,.014.05.407.407,0,0,0,.036.125,1.068,1.068,0,0,0,.105.19l.094.114a.309.309,0,0,1,.046.059,4.269,4.269,0,0,1,.158.462c.066.142.185.254.254.4s.083.388.014.4c-.276,0-.3-.4-.4-.611-.074-.162-.191-.3-.276-.453a.85.85,0,0,1-.064-.159,1.346,1.346,0,0,0-.052-.159c-.036-.078-.036-.064-.06-.12s-.105-.156-.13-.2c-.108-.176-.179-.427-.257-.557-.044-.067-.1-.134-.141-.2a3.168,3.168,0,0,1-.164-.374c-.052-.114-.138-.226-.191-.346s-.066-.317-.132-.462c-.033-.078-.1-.156-.133-.229-.08-.165-.125-.34-.2-.5-.036-.075-.1-.15-.141-.228-.063-.137-.1-.279-.166-.41-.149-.279-.307-.558-.431-.855-.071-.167-.1-.337-.165-.5s-.149-.279-.21-.418c-.041-.091-.052-.18-.088-.278-.057-.159-.13-.323-.188-.482-.033-.109-.061-.349-.094-.445s-.1-.248-.155-.365c-.077-.176-.1-.36-.179-.535s-.124-.278-.174-.417-.052-.226-.1-.337-.083-.178-.116-.265-.063-.279-.094-.406-.113-.3-.157-.446-.031-.368-.058-.435c-.154-.462-.3-.953-.442-1.416-.067-.214-.1-.426-.155-.635-.019-.084-.021-.19-.044-.279-.042-.134-.1-.278-.138-.406-.022-.092-.036-.187-.055-.279a2.729,2.729,0,0,0-.108-.279c-.088-.279-.136-.573-.216-.836-.028-.112-.028-.259-.056-.363-.1-.335-.129-.727-.226-1.078-.028-.114-.045-.218-.067-.31-.171-.657-.245-1.392-.433-2.031a3.833,3.833,0,0,1-.022-.407,3,3,0,0,0-.122-.409c-.017-.073-.02-.12-.033-.181-.034-.109-.081-.192-.141-.17s-.05.075-.047.167a1.841,1.841,0,0,0,.047.39,2.212,2.212,0,0,0,.036.278c.048.225.086.452.112.68a1.435,1.435,0,0,0,.02.279c.019.1.088.217.108.317s.02.315.042.463a2.512,2.512,0,0,0,.094.362c.033.116,0,.2.035.278a2.272,2.272,0,0,1,.105.3c.017.117,0,.279.022.39.147.579.19,1.268.357,1.822.021.078.024.165.044.245.138.488.246,1.006.389,1.488.017.075.014.153.033.236.047.17.089.354.125.527.017.075.017.151.035.226.05.178.113.351.169.526.021.086.03.17.044.254a1.536,1.536,0,0,0,.069.209,2.52,2.52,0,0,0,.053.279,1.6,1.6,0,0,1,.077.173c.022.1.036.206.064.309a3.721,3.721,0,0,0,.154.362c.05.12.036.2.072.3.07.17.141.373.2.557s.061.3.113.455c.036.1.083.2.119.3s.033.155.06.236a2.393,2.393,0,0,0,.152.279c.041.106.022.248.055.362s.1.212.138.318a2.741,2.741,0,0,1,.063.334,1.107,1.107,0,0,0,.125.245l.1.279c.025.061.077.123.1.181.049.109.091.225.136.334a5.194,5.194,0,0,1,.115.535.548.548,0,0,1-.018.19c-.02.014-.153-.1-.2-.173a2.223,2.223,0,0,1-.227-.4c-.02-.056-.034-.109-.053-.165-.047-.119-.083-.256-.138-.381a2.01,2.01,0,0,1-.105-.215c-.036-.084-.02-.254-.067-.354s-.1-.151-.143-.237-.031-.161-.072-.233a2.648,2.648,0,0,0-.147-.265,2.208,2.208,0,0,1-.063-.279,2.3,2.3,0,0,0-.119-.346c-.05-.109-.113-.222-.16-.336-.022-.064-.034-.128-.053-.19s-.074-.184-.108-.257c-.017-.064-.037-.127-.06-.19-.042-.095-.088-.2-.128-.3s-.033-.172-.06-.253c-.05-.145-.1-.31-.15-.455a3.444,3.444,0,0,1-.074-.337c-.031-.114-.1-.258-.147-.39s-.041-.231-.072-.326-.119-.279-.166-.418a2.284,2.284,0,0,1-.059-.345c-.08-.279-.165-.574-.251-.853s-.1-.663-.193-.978c-.064-.226-.141-.442-.21-.654-.025-.114-.028-.223-.058-.335-.058-.259-.149-.585-.229-.844-.042-.137-.031-.279-.07-.427s-.041-.323-.088-.482a2.244,2.244,0,0,1-.088-.279c-.025-.142-.022-.282-.041-.374s-.175-.643-.2-.744,0-.287-.02-.354-.089-.282-.1-.343a1.293,1.293,0,0,0-.036-.253c-.035-.12-.094-.4-.1-.474a2.2,2.2,0,0,0-.027-.318c-.028-.081-.07-.258-.105-.39s-.008-.323-.05-.471a2.717,2.717,0,0,0-.111-.323,2.262,2.262,0,0,1-.06-.278,1.927,1.927,0,0,0-.017-.321,2.567,2.567,0,0,1-.046-.357,2.765,2.765,0,0,0-.075-.47c-.017-.064-.011-.142-.024-.2-.053-.176-.086-.323-.172-.323s-.086.061-.058.178.044.24.077.379a2.445,2.445,0,0,1,.022.306,1.88,1.88,0,0,0,.022.2c.008.055.018.109.03.162a.85.85,0,0,1,.025.2V611a.5.5,0,0,0,.02.138.991.991,0,0,1,.035.156v.156a.626.626,0,0,0,.028.176.914.914,0,0,1,.077.443,1.175,1.175,0,0,0,.062.507c.02.1,0,.212.02.307s.069.279.1.418,0,.217.035.325c.042.153.144.36.158.427a3.613,3.613,0,0,0,.03.371,2.423,2.423,0,0,1,.056.325,1.065,1.065,0,0,1,0,.165c0,.056.083.321.094.39a.8.8,0,0,0,.025.176,2.539,2.539,0,0,1,.086.454.79.79,0,0,0,.024.237c.028.142.084.262.114.4s0,.162.025.245c.028.127.071.242.094.362s.02.187.039.279c.041.206.072.413.126.616.034.119.105.231.139.345s.036.223.063.326.092.176.116.279,0,.17.025.253.063.192.083.279,0,.148.025.226.069.162.089.245.02.212.045.318.08.239.118.353.017.22.047.335c.066.248.149.521.229.752.035.126.03.254.075.391a2.265,2.265,0,0,0,.1.226c.031.081,0,.17.028.262.038.15.063.351.115.5s.152.3.213.463.061.339.116.515.13.279.185.427.031.279.075.41.149.247.2.389.1.326.149.491c.017.07.031.139.045.209.058.211.171.387.243.59.028.095.036.176.063.262.053.145.108.3.175.438s.135.244.191.373.061.234.111.354.1.243.146.363c.025.075.031.138.061.208.141.323.314.65.461.965.077.172.116.359.2.537s.141.279.2.418c.039.095.05.184.088.279.08.172.191.348.276.518a.632.632,0,0,1,.056.3.042.042,0,0,1-.006.016.049.049,0,0,1-.011.012c-.052.014-.16-.078-.219-.137-.2-.2-.234-.583-.375-.836-.042-.075-.088-.156-.125-.237a1.69,1.69,0,0,0-.058-.165c-.088-.17-.2-.323-.276-.5-.056-.13-.064-.278-.122-.4-.23-.5-.5-.992-.719-1.5-.1-.232-.124-.494-.213-.744a4.383,4.383,0,0,0-.2-.41c-.06-.131-.06-.226-.111-.335s-.154-.278-.213-.437c-.033-.1-.046-.206-.086-.307s-.119-.2-.165-.312a3.773,3.773,0,0,1-.144-.5,2.91,2.91,0,0,0-.1-.279c-.03-.078-.035-.173-.063-.254-.069-.19-.182-.36-.252-.557a3.955,3.955,0,0,0-.094-.427c-.057-.128-.129-.19-.171-.3s0-.254-.038-.389-.078-.259-.11-.379a1.8,1.8,0,0,1-.061-.229l-.168-.474c-.028-.08-.028-.153-.06-.225a2.818,2.818,0,0,1-.144-.279c-.039-.156-.052-.315-.089-.466-.061-.2-.133-.362-.191-.557-.014-.059-.014-.109-.028-.187-.047-.17-.072-.365-.119-.536-.017-.084-.014-.152-.033-.222-.047-.176-.1-.34-.152-.493-.025-.1-.031-.2-.06-.3-.078-.253-.15-.557-.224-.8a1.441,1.441,0,0,0-.028-.218c-.057-.193-.137-.42-.179-.626-.022-.114-.022-.226-.046-.335s-.075-.265-.1-.4v-.162c0-.049-.025-.175-.039-.261-.086-.352-.221-.784-.3-1.143-.022-.12-.025-.248-.039-.374a2.553,2.553,0,0,0-.044-.279,1.911,1.911,0,0,1-.083-.279c-.02-.158-.02-.3-.042-.462a.191.191,0,0,0,0-.033c-.039-.167-.127-.524-.147-.68s-.044-.35-.066-.523a2.756,2.756,0,0,0-.041-.349c-.02-.181-.064-.339-.084-.526-.013-.117-.005-.237-.021-.343s-.011-.181-.094-.181-.078.095-.078.173a3.5,3.5,0,0,0,.039.558c.025.217,0,.426.031.646a3.058,3.058,0,0,0,.066.363c.028.205.049.417.074.615a2.5,2.5,0,0,0,.034.279v.053c.007.04.017.08.028.12a1.582,1.582,0,0,0,.032.226c.064.239.05.5.116.732.094.349.144.732.241,1.081.027.1,0,.2.027.31s.056.218.084.325,0,.265.041.4.067.248.1.365.039.279.077.442a4.61,4.61,0,0,1,.122.482c.031.178.05.385.083.571s.113.346.153.516a.738.738,0,0,0,.014.173c.022.123.058.245.083.362a.365.365,0,0,0,.025.161c.057.226.126.51.2.733.016.064.024.128.038.192.045.159.094.278.111.364s.025.164.045.245.074.229.108.34.03.159.052.243a2.292,2.292,0,0,0,.108.278c.066.2.074.418.147.616.041.117.1.232.135.357s.039.253.074.378c.064.2.138.418.21.616s.133.487.21.707c.031.089.025.176.056.279.066.22.141.465.21.69.038.12.038.232.083.346.074.187.182.343.251.534s.072.329.133.48c.08.206.174.413.251.628.053.147.07.295.13.434s.122.243.174.362a3.059,3.059,0,0,1,.108.318,3.434,3.434,0,0,0,.172.325c.063.145.077.3.132.463.086.24.2.484.3.707.039.086.047.17.08.265.058.162.161.279.227.427s.08.278.141.426a1.139,1.139,0,0,1,.157.6.055.055,0,0,1-.008.034.049.049,0,0,1-.028.021c-.052.022-.11-.07-.146-.1a1.4,1.4,0,0,1-.276-.5c-.144-.314-.329-.61-.47-.916-.074-.162-.105-.335-.177-.5-.044-.1-.108-.2-.152-.3-.067-.145-.1-.293-.175-.427a5.474,5.474,0,0,1-.276-.627c-.033-.081-.035-.159-.071-.234s-.1-.159-.133-.237c-.052-.131-.089-.279-.14-.427-.114-.253-.244-.521-.34-.791s-.133-.481-.221-.735c-.035-.1-.083-.215-.119-.318s-.013-.17-.044-.257c-.08-.226-.188-.465-.276-.682a2.837,2.837,0,0,1-.105-.326c-.042-.114-.108-.279-.158-.427-.066-.18-.069-.389-.135-.582-.144-.407-.332-.836-.454-1.262-.022-.1-.017-.2-.046-.3-.067-.214-.136-.451-.2-.68s-.064-.524-.141-.771c-.111-.321-.21-.655-.31-.973-.03-.095-.017-.194-.047-.3-.067-.245-.15-.535-.229-.761-.042-.114-.042-.239-.077-.345s-.185-.084-.174.067a2.908,2.908,0,0,0,.066.37c.014.092.014.184.036.279.038.173.094.315.14.471s.05.314.1.481c.025.084.056.176.08.254.053.167.053.346.105.5s.075.261.114.389c.025.087.02.153.045.237.044.151.094.3.141.455a1.712,1.712,0,0,0,.033.245c.034.081.057.242.094.354s.028.259.063.371c.064.209.141.428.21.627s.085.449.166.672c.138.392.276.836.409,1.243.035.1.024.205.055.317.046.17.083.34.141.508.03.081.08.162.115.237s.056.2.1.3.086.162.116.245.028.279.077.4.092.2.125.3.039.225.083.325.1.176.144.265.046.17.08.262.086.193.125.279.046.214.091.317.1.176.136.279.036.212.072.318c.06.153.154.279.219.434s.052.234.1.346.132.257.19.382c.077.167.132.349.2.509.126.279.168.6.3.881.1.208.223.406.315.61.052.114.066.234.118.346s.158.229.215.354.077.25.13.373.174.3.246.455c.042.089.058.176.1.265.078.169.207.314.277.482q.062.167.118.335c.084.181.219.335.3.518a3.156,3.156,0,0,0,.183.4c.121.192.2.321.317.516a4.7,4.7,0,0,1,.241.448c.063.137.162.248.227.382s.141.279.21.4.16.244.245.375c.141.218.229.446.367.667.1.153.207.306.312.453.277.393.683,1.095.857,1.332.143.192.259.418.392.619.1.155.23.309.336.454s.164.248.252.374l.069.095a42.207,42.207,0,0,0,10.444,9.752h0a13.847,13.847,0,0,0,2.542,1.357c.213.089.066.243-.039.31L1197.891,665.6c-.059.039-.2.147-.147.278s.235.039.277.022c14.919-5.324,25.75-9.7,32.37-12.9,6.711-3.237,8.965-5.087,8.72-6.009" fill="#006b6e" fill-rule="evenodd"/>
    </g>
  </g>
</svg>
