<svg xmlns="http://www.w3.org/2000/svg" width="90" height="90" viewBox="0 0 90 90">
  <g id="Group_15623" data-name="Group 15623" transform="translate(1296 -13545)">
    <g id="Group_15610" data-name="Group 15610" transform="translate(-105 220)">
      <g id="Group_15599" data-name="Group 15599" transform="translate(-630 -219)">
        <g id="Rectangle_3882" data-name="Rectangle 3882" transform="translate(-561 13544)" fill="#fff" stroke="#e9e9e9" stroke-width="1.9">
          <rect width="90" height="90" rx="15" stroke="none"/>
          <rect x="0.95" y="0.95" width="88.1" height="88.1" rx="14.05" fill="none"/>
        </g>
      </g>
    </g>
    <g id="Group_15624" data-name="Group 15624" transform="translate(-1923.844 12819.738)">
      <path id="Path_21132" data-name="Path 21132" d="M654.255,756.62a7.507,7.507,0,0,1,.541-2.258,17.1,17.1,0,0,0,4.172,3.807,19.732,19.732,0,0,0,7.8,2.872,24.975,24.975,0,0,0,5.8.2c.419-.036.838-.082,1.253-.151a20.153,20.153,0,0,1-4.476,1.72,20.931,20.931,0,0,1-8.73.3,15.227,15.227,0,0,1-2.086-.511,7.878,7.878,0,0,1-2.279-1.179,5.06,5.06,0,0,1-1.586-1.991,5.64,5.64,0,0,1-.41-2.8Z" fill="#06a7e0"/>
      <path id="Path_21133" data-name="Path 21133" d="M648.136,763.971a9.107,9.107,0,0,1,0-2.418,26.386,26.386,0,0,0,3.835,2.186,21.8,21.8,0,0,0,5.317,1.613,32.952,32.952,0,0,0,9.7.073,59.57,59.57,0,0,0,10.108-2.284A43.635,43.635,0,0,1,664.54,769.6a24.728,24.728,0,0,1-7.137,1.141,16.146,16.146,0,0,1-5.12-.8,5.727,5.727,0,0,1-2.261-1.5,6.99,6.99,0,0,1-1.53-2.789,9.811,9.811,0,0,1-.356-1.68Zm22.9,5.347a36.3,36.3,0,0,0,3.322-2.28,31.4,31.4,0,0,1-5.778,6.674,19.129,19.129,0,0,1-3.775,2.517,11.528,11.528,0,0,1-2.644.958,8.139,8.139,0,0,1-2.669.1,5.675,5.675,0,0,1-2.039-.621,4.371,4.371,0,0,1-1.508-1.33,5.7,5.7,0,0,1-.927-2.539,11.176,11.176,0,0,0,3.817.634,16.154,16.154,0,0,0,3.816-.474A24.9,24.9,0,0,0,667,771.455a35.88,35.88,0,0,0,4.038-2.137Z" fill="#06a7e0"/>
      <path id="Path_21134" data-name="Path 21134" d="M683.944,758.117a21.8,21.8,0,0,1,4.453-.02,8.615,8.615,0,0,1,2.553.635,3.116,3.116,0,0,1,1.03.718,1.8,1.8,0,0,1,.484,1.077,2.818,2.818,0,0,1-.169,1.16,4.134,4.134,0,0,0-1.844-.923,8.012,8.012,0,0,0-1.595-.215,3.094,3.094,0,0,1-2.66,1.163,2.36,2.36,0,0,1-1.425-.688c-.108-.1-.211-.217-.315-.327a2.955,2.955,0,0,0,2.712-.266,31.469,31.469,0,0,0-4.15-.277,47.6,47.6,0,0,0-6.072.37c-.653.076-1.3.182-1.952.274a21.934,21.934,0,0,1,4.161-1.7,24.937,24.937,0,0,1,4.789-.977Zm.485,6.131a19.365,19.365,0,0,1,8.65-1.507,10,10,0,0,1,3.014.679,2.757,2.757,0,0,1,1.261.953,1.838,1.838,0,0,1,.264,1.233,3.838,3.838,0,0,1-.79,1.8,1.75,1.75,0,0,0-.512-1.012,2.155,2.155,0,0,0-1.3-.505,7.428,7.428,0,0,0-2.321.242,21.3,21.3,0,0,0-2.673.865,39.531,39.531,0,0,0-4.386,2.06q-3.222,2.082-6.307,4.368c-1.485,1.106-2.937,2.256-4.335,3.472-.945.824-1.862,1.684-2.727,2.594a14.559,14.559,0,0,0-1.764,2.182,29.931,29.931,0,0,1,1.517-4.109,8.326,8.326,0,0,1,1.448-2.263,28.191,28.191,0,0,0-2.77,2.375c-.366.374-.746.733-1.1,1.115a58.814,58.814,0,0,0-4.627,5.518q-.684.91-1.328,1.852c.422-1.208.867-2.41,1.4-3.574a29.406,29.406,0,0,1,4.779-7.205c.675-.773,1.384-1.517,2.115-2.237q1.4-1.4,2.908-2.687c1.152-.991,2.326-1.959,3.56-2.845a29.38,29.38,0,0,1,6.033-3.364Z" fill="#039482"/>
    </g>
  </g>
</svg>
