<svg xmlns="http://www.w3.org/2000/svg" width="90" height="90" viewBox="0 0 90 90">
  <g id="Group_15588" data-name="Group 15588" transform="translate(561 -13544)">
    <g id="Rectangle_3882" data-name="Rectangle 3882" transform="translate(-561 13544)" fill="#fff" stroke="#e9e9e9" stroke-width="1.9">
      <rect width="90" height="90" rx="15" stroke="none"/>
      <rect x="0.95" y="0.95" width="88.1" height="88.1" rx="14.05" fill="none"/>
    </g>
    <g id="Group_15589" data-name="Group 15589" transform="translate(-1733.844 13197.807)">
      <path id="Path_21135" data-name="Path 21135" d="M1242.633,373.362h-14.189l-35.389,35.663h35.389Z" fill="#0093d0"/>
      <path id="Path_21136" data-name="Path 21136" d="M1226.043,377.371a1.648,1.648,0,0,1-.773-.771,1.665,1.665,0,0,1,.451-2.019,1.63,1.63,0,0,1,2.051,0,1.662,1.662,0,0,1-.322,2.79v.473a4.929,4.929,0,0,1,1.491.446,3.982,3.982,0,0,1,.607-.028,3.239,3.239,0,0,1,3.479,3.229,2.3,2.3,0,0,1-.653,1.55,2.259,2.259,0,0,1-1.528.677,2.05,2.05,0,0,1-1.988-2.31,3.661,3.661,0,0,0-.11.891v5.9a5.137,5.137,0,0,1-10.159,0v-5.9a3.169,3.169,0,0,0-.138-.891,2.1,2.1,0,0,1-1.987,2.31,2.257,2.257,0,0,1-1.528-.677,2.3,2.3,0,0,1-.653-1.55,3.238,3.238,0,0,1,3.478-3.229,3.991,3.991,0,0,1,.608.028,4.088,4.088,0,0,1,1.49-.446v-.473a1.651,1.651,0,0,1-.773-.771,1.668,1.668,0,0,1,.451-2.019,1.631,1.631,0,0,1,2.052,0,1.662,1.662,0,0,1-.322,2.79v.612a2.566,2.566,0,0,1,.414.168,2.215,2.215,0,0,1,1.325-1.17v-.5a1.624,1.624,0,0,1-.65-.563,1.645,1.645,0,0,1,.478-2.3,1.618,1.618,0,0,1,2.267.555,1.649,1.649,0,0,1,.224.835,1.669,1.669,0,0,1-.249.867,1.65,1.65,0,0,1-.662.608v.5a2.215,2.215,0,0,1,1.325,1.17l.414-.168-.11-.612Z" fill="#fff"/>
      <path id="Path_21137" data-name="Path 21137" d="M1232.336,376.118c0-1.531-1.021-2.756-3.146-2.756-1.408,0-3.065,1.2-3.065,4.232v4.51a4.367,4.367,0,0,1,1.905-.78v-4.2a1.873,1.873,0,0,1,1.684-2.088,1.4,1.4,0,0,0-.5,1.086,1.578,1.578,0,0,0,.457,1.112,1.55,1.55,0,0,0,2.206,0A1.581,1.581,0,0,0,1232.336,376.118Z" fill="#ed1b2f"/>
      <path id="Path_21138" data-name="Path 21138" d="M1214.863,376.118c0-1.531,1.021-2.756,3.147-2.756,1.407,0,3.091,1.2,3.091,4.232v4.51a4.363,4.363,0,0,0-1.9-.78v-4.2a1.873,1.873,0,0,0-1.684-2.088,1.4,1.4,0,0,1,.5,1.086,1.582,1.582,0,0,1-.458,1.1,1.552,1.552,0,0,1-1.088.461,1.511,1.511,0,0,1-.61-.1,1.535,1.535,0,0,1-.521-.334,1.559,1.559,0,0,1-.35-.514A1.576,1.576,0,0,1,1214.863,376.118Z" fill="#ed1b2f"/>
      <path id="Path_21139" data-name="Path 21139" d="M1223.613,378.846a4.327,4.327,0,0,0,4.445-3.758v-1a4.8,4.8,0,0,0-2.733,1.754,1.83,1.83,0,1,0-3.423,0,4.8,4.8,0,0,0-2.733-1.754v1A4.278,4.278,0,0,0,1223.613,378.846Z" fill="#ed1b2f"/>
      <path id="Path_21140" data-name="Path 21140" d="M1223.862,375.617v1.253a1.682,1.682,0,0,1,.793.325,1.707,1.707,0,0,1,.532.677,1.637,1.637,0,1,1-3.147,0,1.748,1.748,0,0,1,.536-.672,1.72,1.72,0,0,1,.789-.33v-1.253a1.148,1.148,0,0,1-.631-.4,1.164,1.164,0,0,1-.252-.71,1.15,1.15,0,0,1,.333-.8,1.13,1.13,0,0,1,.8-.336,1.106,1.106,0,0,1,.436.084,1.089,1.089,0,0,1,.368.247,1.135,1.135,0,0,1,.328.81,1.165,1.165,0,0,1-.252.71,1.148,1.148,0,0,1-.631.4Z" fill="#ed1b2f"/>
      <path id="Path_21141" data-name="Path 21141" d="M1220.743,375.645v1.308a3.606,3.606,0,0,1,2.65,3.48v4.232a4.059,4.059,0,0,0-1.657,1.977,1.227,1.227,0,0,0-.193-.2V380.99a3.977,3.977,0,0,0-2.429-3.842,3.072,3.072,0,0,1,1.132-.223v-1.308a1.132,1.132,0,0,1-.55-.3,1.147,1.147,0,0,1-.271-1.184,1.134,1.134,0,0,1,.941-.76,1.131,1.131,0,0,1,1.086.527,1.142,1.142,0,0,1,.174.607,1.2,1.2,0,0,1-.251.722,1.187,1.187,0,0,1-.632.42Z" fill="#ed1b2f"/>
      <path id="Path_21142" data-name="Path 21142" d="M1226.981,375.645v1.28a3.072,3.072,0,0,1,1.132.223,3.988,3.988,0,0,0-2.429,3.842v5.457l-.194.2a3.828,3.828,0,0,0-1.656-1.977v-4.232a3.6,3.6,0,0,1,2.65-3.48v-1.336a1.129,1.129,0,0,1-.549-.3,1.142,1.142,0,0,1,.67-1.944,1.131,1.131,0,0,1,1.086.527,1.151,1.151,0,0,1,.173.607,1.121,1.121,0,0,1-.232.736,1.105,1.105,0,0,1-.651.406Z" fill="#ed1b2f"/>
    </g>
  </g>
</svg>
