<svg xmlns="http://www.w3.org/2000/svg" height="800" width="1200" xml:space="preserve" y="0" x="0" id="Layer_1" version="1.1" viewBox="-150 -38.5 1300 231"><style id="style2081" type="text/css">.st0{fill:#98002e}.st1{fill:#e31837}.st2{fill:#003d79}</style><g id="g2105"><path id="path2085" d="M185.7 137.6l-89.3-43V0zm7.1 16.4l-96.4-40.7V154z" class="st0"/><path id="polyline2087" class="st1" d="M7.1 137.6L96.4 0v94.6l-89.3 43"/><path id="polyline2089" class="st1" d="M0 154h96.4v-40.7L0 154"/><path id="path2091" d="M200.6 125.8c3.5 0 6.4 2.8 6.4 6.3s-2.8 6.4-6.3 6.4-6.4-2.8-6.4-6.3c0-3.6 2.8-6.4 6.3-6.4zm0 11.7c3 0 5.4-2.4 5.4-5.4 0-3-2.4-5.4-5.4-5.4-3 0-5.4 2.4-5.4 5.4 0 3 2.4 5.4 5.4 5.4zm-1.4-1.7h-.9v-7.3h2.8c1.7 0 2.3.7 2.3 2 .1 1.1-.8 2-1.8 2.1l2.2 3.2h-1l-2.2-3.2h-1.3zm0-4.1h1.2c1 0 2.1-.1 2.1-1.3 0-.9-.9-1.2-1.6-1.2h-1.6v2.5z" class="st0"/><g id="g2103"><path id="path2093" d="M268.1 137.6h43.3c44.6 0 71.1-23.1 71.1-61.4S356 14.9 311.4 14.9h-43.3zm27.4-101.4h15.9c28.9 0 43.4 14.3 43.4 40s-14.5 40-43.4 40h-15.9z" class="st2"/><path id="polygon2095" class="st2" d="M527.8 63.1h-52.1V36.2h58.9V14.9h-86.4v122.7h88.3v-21.3h-60.8V84.4h52.1z"/><path id="polygon2097" class="st2" d="M639.8 14.9h-27.5v122.7h80.4v-21.3h-52.9z"/><path id="polygon2099" class="st2" d="M730.6 36.2h41.2v101.4h27.6V36.2h41.3V14.9H730.6z"/><path id="path2101" d="M1000 137.6h-28.7l-12-30.7h-49.9l-12 30.7h-26.8l51.3-123.2h27.7zm-48.5-51.3l-17.1-43.6-17.2 43.6z" class="st2"/></g></g></svg>