<svg xmlns="http://www.w3.org/2000/svg" width="90" height="90" viewBox="0 0 90 90">
  <g id="Group_15687" data-name="Group 15687" transform="translate(2556 -13435)">
    <g id="Group_15685" data-name="Group 15685" transform="translate(-105 110)">
      <g id="Group_15675" data-name="Group 15675" transform="translate(-105)">
        <g id="Group_15671" data-name="Group 15671" transform="translate(-105)">
          <g id="Group_15666" data-name="Group 15666" transform="translate(-945 -220)">
            <g id="Group_15639" data-name="Group 15639">
              <g id="Group_15659" data-name="Group 15659">
                <g id="Group_15610" data-name="Group 15610" transform="translate(-105 220)">
                  <g id="Group_15599" data-name="Group 15599" transform="translate(-630 -219)">
                    <g id="Rectangle_3882" data-name="Rectangle 3882" transform="translate(-561 13544)" fill="#fff" stroke="#e9e9e9" stroke-width="1.9">
                      <rect width="90" height="90" rx="15" stroke="none"/>
                      <rect x="0.95" y="0.95" width="88.1" height="88.1" rx="14.05" fill="none"/>
                    </g>
                  </g>
                </g>
              </g>
            </g>
          </g>
        </g>
      </g>
    </g>
    <path id="EasyJet-Logo" d="M7.97,10.173H3.909c-.185,0-.268.106-.268.3a1.915,1.915,0,0,0,.6,1.33,1.792,1.792,0,0,0,1.309.633,2.685,2.685,0,0,0,.923-.19,2.769,2.769,0,0,0,.839-.485.854.854,0,0,1,.47-.253c.151,0,.3.106.436.338a1.272,1.272,0,0,1,.218.718,2.042,2.042,0,0,1-.772,1.5,4.427,4.427,0,0,1-3.154,1.287,3.971,3.971,0,0,1-3.037-1.33A5.228,5.228,0,0,1,.5,12.452,6.7,6.7,0,0,1,0,9.877,6.207,6.207,0,0,1,.872,6.606,4.912,4.912,0,0,1,2.8,4.727a3.94,3.94,0,0,1,1.9-.464A3.757,3.757,0,0,1,7.483,5.424a4.285,4.285,0,0,1,.923,1.393,4.4,4.4,0,0,1,.4,1.773A2.656,2.656,0,0,1,8.574,9.75.73.73,0,0,1,7.97,10.173ZM4.144,8.146h.872q.554,0,.554-.633a1.525,1.525,0,0,0-.268-.95A.8.8,0,0,0,4.6,6.2a.854.854,0,0,0-.755.485,1.8,1.8,0,0,0-.252.908.722.722,0,0,0,.117.464A.954.954,0,0,0,4.144,8.146ZM14.279,4.221a3.593,3.593,0,0,1,2.534.95,2.742,2.742,0,0,1,.772,1.161A5.736,5.736,0,0,1,17.8,8.125l-.017,1.6A8.1,8.1,0,0,0,17.97,11.9a.585.585,0,0,0,.185.3,1.105,1.105,0,0,0,.369.127c.185.042.268.19.268.464a2.129,2.129,0,0,1-.336,1.076,2.987,2.987,0,0,1-.856.95,2.3,2.3,0,0,1-1.359.485,1.619,1.619,0,0,1-1.426-.781c-.117-.19-.235-.274-.336-.274a.723.723,0,0,0-.453.274,2.787,2.787,0,0,1-1.946.781,2.714,2.714,0,0,1-1.829-.612,2.864,2.864,0,0,1-.721-1.055,3.376,3.376,0,0,1-.268-1.351A2.942,2.942,0,0,1,9.983,10.3a4.142,4.142,0,0,1,3.373-1.372.96.96,0,0,0,.621-.127.856.856,0,0,0,.134-.57,5.591,5.591,0,0,0-.185-1.667c-.134-.338-.336-.507-.621-.507a.644.644,0,0,0-.453.19,3.158,3.158,0,0,0-.5.718c-.5.908-1.04,1.372-1.594,1.372a.861.861,0,0,1-.688-.317A1.2,1.2,0,0,1,9.8,7.2a1.934,1.934,0,0,1,.336-1.034,3.1,3.1,0,0,1,.906-.908,5.638,5.638,0,0,1,3.238-1.034Zm-.587,6.268a.8.8,0,0,0-.654.38,1.554,1.554,0,0,0-.285.929,1.59,1.59,0,0,0,.2.844.593.593,0,0,0,.52.317c.453,0,.688-.485.688-1.456a2.127,2.127,0,0,0-.1-.8A.372.372,0,0,0,13.691,10.489ZM22.8,4.221a7.617,7.617,0,0,1,1.409.232,2.374,2.374,0,0,0,.319.042,1.822,1.822,0,0,0,.57-.19.9.9,0,0,1,.336-.106q.4,0,.805.633a5,5,0,0,1,.537,1.119,3.426,3.426,0,0,1,.2,1.055,1.108,1.108,0,0,1-.235.718.79.79,0,0,1-.6.3.82.82,0,0,1-.537-.19,7.172,7.172,0,0,1-.755-.8c-.369-.443-.671-.675-.906-.675a.527.527,0,0,0-.419.232.815.815,0,0,0-.185.528c0,.359.268.675.805.992A7.492,7.492,0,0,1,26.376,9.9a3.135,3.135,0,0,1,.654,2,3.317,3.317,0,0,1-1.057,2.511,3.047,3.047,0,0,1-2.215.886,7.945,7.945,0,0,1-1.225-.148c-.554-.084-.872-.127-.94-.127a1.2,1.2,0,0,0-.252.042c-.168.021-.285.042-.369.042a.819.819,0,0,1-.638-.253,4.056,4.056,0,0,1-.654-1.266,4.62,4.62,0,0,1-.3-1.477c0-.654.2-.992.621-.992a.606.606,0,0,1,.436.19,10.923,10.923,0,0,1,.856,1.076,3.9,3.9,0,0,0,.587.654.743.743,0,0,0,.5.169.59.59,0,0,0,.453-.19A.711.711,0,0,0,23,12.515c0-.317-.218-.612-.671-.886a6.313,6.313,0,0,1-2-1.773,3.748,3.748,0,0,1-.621-2.11,3.82,3.82,0,0,1,.621-2.216A2.913,2.913,0,0,1,22.8,4.221Zm13.155,5.34-1.141,3.926a17.506,17.506,0,0,1-.856,2.385,7.216,7.216,0,0,1-.973,1.583,3.424,3.424,0,0,1-2.7,1.351,2.653,2.653,0,0,1-2.064-.844,2.357,2.357,0,0,1-.6-1.646,2.249,2.249,0,0,1,.419-1.393,1.274,1.274,0,0,1,1.04-.57,1.182,1.182,0,0,1,1.007.528,1.463,1.463,0,0,1,.235.422c.034.127.1.4.185.8.067.317.2.485.436.485a.554.554,0,0,0,.453-.3,1.237,1.237,0,0,0,.185-.718,5.762,5.762,0,0,0-.453-1.709L29.044,8.315a6.446,6.446,0,0,0-.487-1.076,2.641,2.641,0,0,0-.721-.528.729.729,0,0,1-.3-.338,1.1,1.1,0,0,1-.117-.485c0-.633.5-1.076,1.527-1.309a10.8,10.8,0,0,1,2.315-.232A3.816,3.816,0,0,1,32.7,4.58a1.1,1.1,0,0,1,.7,1.076,1.289,1.289,0,0,1-.2.633,1.24,1.24,0,0,0-.185.612,2.211,2.211,0,0,0,.084.549c.067.19.185.507.386.95.218.507.4.76.57.76.185,0,.369-.232.554-.675A3.329,3.329,0,0,0,34.9,7.2a1.272,1.272,0,0,0-.218-.8,1.61,1.61,0,0,1-.336-.844,1.031,1.031,0,0,1,.587-.886,3.246,3.246,0,0,1,1.56-.338c1.225,0,1.829.359,1.829,1.1a1.108,1.108,0,0,1-.185.654,1.675,1.675,0,0,1-.671.464,1.424,1.424,0,0,0-.654.654,14.983,14.983,0,0,0-.856,2.364ZM45.789,0a9.092,9.092,0,0,1,1.963.211A2.52,2.52,0,0,1,48.927.7a1.069,1.069,0,0,1,.352.844.93.93,0,0,1-.134.528,2.081,2.081,0,0,1-.554.464,1.125,1.125,0,0,0-.57.76c-.05.3-.1,1.435-.134,3.4-.017,1.921-.034,3.06-.05,3.44s-.05.76-.1,1.119a5.1,5.1,0,0,1-1.007,2.49A4.251,4.251,0,0,1,45.135,14.9a5.212,5.212,0,0,1-2.047.422,6.056,6.056,0,0,1-1.913-.317,5.64,5.64,0,0,1-1.661-.865,3.047,3.047,0,0,1-.923-1.224,3.934,3.934,0,0,1-.352-1.646,2.918,2.918,0,0,1,.537-1.794,1.7,1.7,0,0,1,1.359-.718,1.766,1.766,0,0,1,1.359.591,2.14,2.14,0,0,1,.554,1.5,4.824,4.824,0,0,1-.1.76.989.989,0,0,0-.017.232.815.815,0,0,0,.2.57.655.655,0,0,0,.52.211,1.028,1.028,0,0,0,.923-.654,3.638,3.638,0,0,0,.352-1.709l-.017-.992-.017-2.659c-.05-1.6-.084-2.554-.117-2.849a1.52,1.52,0,0,0-.2-.7.762.762,0,0,0-.235-.274,4.861,4.861,0,0,0-.537-.211.612.612,0,0,1-.352-.3,1,1,0,0,1-.151-.528,1.207,1.207,0,0,1,.369-.929A2.8,2.8,0,0,1,43.86.253,7.476,7.476,0,0,1,45.789,0Zm11.9,10.173H53.642c-.185,0-.268.106-.268.3a1.915,1.915,0,0,0,.6,1.33,1.792,1.792,0,0,0,1.309.633,2.685,2.685,0,0,0,.923-.19,2.769,2.769,0,0,0,.839-.485.854.854,0,0,1,.47-.253c.151,0,.3.106.436.338a1.272,1.272,0,0,1,.218.718,2.042,2.042,0,0,1-.772,1.5,4.427,4.427,0,0,1-3.154,1.287,3.971,3.971,0,0,1-3.037-1.33,5.228,5.228,0,0,1-.973-1.562,6.7,6.7,0,0,1-.5-2.575A6.207,6.207,0,0,1,50.6,6.606a4.912,4.912,0,0,1,1.93-1.878,3.94,3.94,0,0,1,1.9-.464,3.757,3.757,0,0,1,2.785,1.161,4.285,4.285,0,0,1,.923,1.393,4.4,4.4,0,0,1,.4,1.773,2.656,2.656,0,0,1-.235,1.161.733.733,0,0,1-.621.422ZM53.86,8.146h.872q.554,0,.554-.633a1.525,1.525,0,0,0-.268-.95.8.8,0,0,0-.7-.359.854.854,0,0,0-.755.485,1.8,1.8,0,0,0-.252.908.722.722,0,0,0,.117.464A1.011,1.011,0,0,0,53.86,8.146ZM64.078,7.07v3.651a1.962,1.962,0,0,0,.252,1.055.76.76,0,0,0,.654.422,1.769,1.769,0,0,0,.889-.38.434.434,0,0,1,.252-.106c.134,0,.268.106.386.317a1.378,1.378,0,0,1,.168.675,1.873,1.873,0,0,1-.587,1.287,3.934,3.934,0,0,1-2.97,1.309,2.747,2.747,0,0,1-2.215-.971,3.867,3.867,0,0,1-.839-2.575v-5a.607.607,0,0,0-.05-.317q-.05-.063-.252-.063H58.91a.391.391,0,0,1-.319-.106.99.99,0,0,1-.067-.485V5.3a.589.589,0,0,1,.2-.485l3.943-3.124a.669.669,0,0,1,.369-.106h.7a.293.293,0,0,1,.285.127,1.1,1.1,0,0,1,.067.485V3.651a.762.762,0,0,0,.084.422.452.452,0,0,0,.352.106h1.594c.218,0,.352.042.419.148a1.268,1.268,0,0,1,.1.633v.633a1.471,1.471,0,0,1-.117.718.49.49,0,0,1-.436.19h-1.56a.391.391,0,0,0-.319.106.666.666,0,0,0-.134.464Z" transform="translate(-2544.339 13470.598)" fill="#f60"/>
  </g>
</svg>
