<svg xmlns="http://www.w3.org/2000/svg" width="90" height="90" viewBox="0 0 90 90">
  <g id="Group_15663" data-name="Group 15663" transform="translate(2136 -13435)">
    <g id="Group_15660" data-name="Group 15660" transform="translate(-840 -110)">
      <g id="Group_15610" data-name="Group 15610" transform="translate(-105 220)">
        <g id="Group_15599" data-name="Group 15599" transform="translate(-630 -219)">
          <g id="Rectangle_3882" data-name="Rectangle 3882" transform="translate(-561 13544)" fill="#fff" stroke="#e9e9e9" stroke-width="1.9">
            <rect width="90" height="90" rx="15" stroke="none"/>
            <rect x="0.95" y="0.95" width="88.1" height="88.1" rx="14.05" fill="none"/>
          </g>
        </g>
      </g>
      <g id="Group_15664" data-name="Group 15664" transform="translate(-1809.554 12469.891)">
        <path id="Path_21146" data-name="Path 21146" d="M553.382,1109.428c-3.113-.429-4.694,1.318-6.873,2.919l-7.454,5.9,1.435.765.01.006a6.269,6.269,0,0,0,6.231-.711l3.147-2.523,1.206-.965,5.992-4.8Z" fill="#7bcbe2"/>
        <path id="Path_21147" data-name="Path 21147" d="M566.111,1113.074l-4-.73a6.507,6.507,0,0,0-5.113,1.15s-1.718,1.29-2.985,2.287l-2.819,2.251-6.519,5.229-.054.044,1.968,1.05a6.264,6.264,0,0,0,6.241-.708l5.829-4.657,4.7-3.733Z" fill="#8f174f"/>
        <path id="Path_21148" data-name="Path 21148" d="M554.066,1115.785c1.27-1,2.995-2.287,2.995-2.287a5.806,5.806,0,0,1,1.353-.785l-7.292,2.122-1.211.964-3.158,2.523a6.309,6.309,0,0,1-6.257.711c1.6.962,4.08,1.183,7.819.063l2.553-.764.363-.291Zm10.291,2.242a15.739,15.739,0,0,1,3.018-2.041l-8.162,2.63-.484.379-5.856,4.656a6.309,6.309,0,0,1-6.266.708c2.881,1.589,7.319.42,11.051-.913l.222-.181s6.247-5.076,6.47-5.238Zm9.59,5.282c-3.276-.956-4.259-.351-8.119.815l-.322.269-.009.006-6.221,4.954a6.608,6.608,0,0,1-6.416.652c2.312,1.216,4.7.915,8.794-.365l16.4-5.058Z" transform="translate(0 0.082)" fill="#c8c4c3"/>
        <path id="Path_21149" data-name="Path 21149" d="M574.9,1116.476l-4.319-.79c-2.588-.487-3.812.365-6.325,2.343-.222.163-6.443,5.238-6.443,5.238l-6.985,5.684,1.967,1.049a6.559,6.559,0,0,0,6.409-.644l6.2-4.955.009-.006Z" transform="translate(0.149 0.082)" fill="#8f174f"/>
        <path id="Path_21150" data-name="Path 21150" d="M559.209,1118.616l-14.586,4.693,6.243-4.986,13.881-4.084Zm6.634,5.508-14.981,4.824,6.8-5.5,15.122-5.077Z" transform="translate(0 0.082)" fill="#b4175e"/>
      </g>
    </g>
  </g>
</svg>
