<svg xmlns="http://www.w3.org/2000/svg" width="90" height="90" viewBox="0 0 90 90">
  <g id="Group_15646" data-name="Group 15646" transform="translate(1296 -13545)">
    <g id="Group_15639" data-name="Group 15639">
      <g id="Group_15610" data-name="Group 15610" transform="translate(-105 220)">
        <g id="Group_15599" data-name="Group 15599" transform="translate(-630 -219)">
          <g id="Rectangle_3882" data-name="Rectangle 3882" transform="translate(-561 13544)" fill="#fff" stroke="#e9e9e9" stroke-width="1.9">
            <rect width="90" height="90" rx="15" stroke="none"/>
            <rect x="0.95" y="0.95" width="88.1" height="88.1" rx="14.05" fill="none"/>
          </g>
        </g>
      </g>
      <g id="Group_15647" data-name="Group 15647" transform="translate(-2360.844 12704.83)">
        <path id="Path_21162" data-name="Path 21162" d="M1134.421,864.362h-33c-3.839,0-5.758,1.774-7.037,6.882l-1.6,6.021c-.053.162.107.323.32.162a9.874,9.874,0,0,1,5.171-1.291h27.935c3.518,0,6.077-3.064,6.823-5.7l1.6-5.914C1134.581,864.523,1134.528,864.362,1134.421,864.362Z" fill="#006643"/>
        <path id="Path_21163" data-name="Path 21163" d="M1128.93,879.308h-31.506c-3.785,0-5.437,1.451-7.037,6.882l-1.6,5.967c-.053.162.107.323.32.162a10.52,10.52,0,0,1,5.277-1.291h25.642c4,0,6.771-3.118,8.05-7.742l1.066-3.871c0-.053-.106-.107-.213-.107Z" fill="#006643"/>
        <path id="Path_21164" data-name="Path 21164" d="M1107.766,894.2h-14.393c-3.732,0-5.651,1.667-6.931,6.451l-1.386,5.162a.143.143,0,0,0,.006.065.138.138,0,0,0,.09.09.138.138,0,0,0,.064.006h13.754c3.519,0,6.4-2.15,7.677-6.935l1.226-4.624C1107.98,894.308,1107.873,894.2,1107.766,894.2Z" fill="#006643"/>
      </g>
    </g>
  </g>
</svg>
