<svg xmlns="http://www.w3.org/2000/svg" width="90" height="90" viewBox="0 0 90 90">
  <g id="Group_15635" data-name="Group 15635" transform="translate(1296 -13545)">
    <g id="Group_15610" data-name="Group 15610" transform="translate(-105 220)">
      <g id="Group_15599" data-name="Group 15599" transform="translate(-630 -219)">
        <g id="Rectangle_3882" data-name="Rectangle 3882" transform="translate(-561 13544)" fill="#fff" stroke="#e9e9e9" stroke-width="1.9">
          <rect width="90" height="90" rx="15" stroke="none"/>
          <rect x="0.95" y="0.95" width="88.1" height="88.1" rx="14.05" fill="none"/>
        </g>
      </g>
    </g>
    <g id="Group_15636" data-name="Group 15636" transform="translate(-1814.844 12704.903)">
      <path id="Path_21165" data-name="Path 21165" d="M558.826,887.347a16.964,16.964,0,0,0-8.057-2.058h-4.9l-.262-.465h5.766a37,37,0,0,1,7.994.692,20.294,20.294,0,0,1,6.428,3.128c.475.308,6.9,4.947,6.9,4.947a3.729,3.729,0,0,1-2.134,1.114,4.314,4.314,0,0,1-2.078-.774s-3.439-2.5-3.963-2.87a52.492,52.492,0,0,0-5.691-3.707Z" fill="#358e9d"/>
      <path id="Path_21166" data-name="Path 21166" d="M558.564,891c2.427,1.624,3.856,2.813,4.324,3.153s2.622,1.9,2.622,1.9a2.916,2.916,0,0,0,4.268-.3s-5.155-3.669-5.623-4a14.548,14.548,0,0,0-5.2-2.467,29.637,29.637,0,0,0-6.485-.668h-4.693l.275.479,3.807.006a13.883,13.883,0,0,1,6.709,1.888Z" fill="#358e9d"/>
      <path id="Path_21167" data-name="Path 21167" d="M559.356,883.514a61.048,61.048,0,0,1,6.8,4.457c.581.421,5.28,3.814,5.28,3.814a4.505,4.505,0,0,0,2.1.749,3.872,3.872,0,0,0,2.091-1.1s-7.5-5.444-8.176-5.922a20.435,20.435,0,0,0-7.713-3.751,45.447,45.447,0,0,0-9.455-.768h-6.865l.275.478h5.991c1.242,0,6.029.063,9.667,2.039Z" fill="#358e9d"/>
      <path id="Path_21168" data-name="Path 21168" d="M586.541,883.439c-.924-.164-2.141-.239-2.141-.239l-1.66.478-.949-.8s1.979.157,2.528.239c.474,0,.318-.239.075-.724a.926.926,0,0,0-.787-.478h-4.986a9.154,9.154,0,0,1-1.916-.233,2.234,2.234,0,0,1-1.435-1.02c-.4.925,1.186,2,1.186,2l4.936,3.568a1.179,1.179,0,0,0,1.186.082,11.787,11.787,0,0,1,1.978-.8,12.4,12.4,0,0,1,2.846-.158,2.921,2.921,0,0,1,1.185.642c.319-2.24-1.11-2.385-2.053-2.561Z" fill="#202d5c"/>
      <path id="Path_21169" data-name="Path 21169" d="M560.33,876.044A60.065,60.065,0,0,1,569.4,881.8c.724.529,7.807,5.646,7.807,5.646a4.431,4.431,0,0,0,2.14.8A3.528,3.528,0,0,0,581.4,887.2s-10.01-7.257-10.734-7.78a27.557,27.557,0,0,0-10.216-4.984c-4.225-1.127-11.489-1.077-12.331-1.077h-9.062l.281.485h8.306c2.1,0,8.145.176,12.694,2.2Z" fill="#202d5c"/>
      <path id="Path_21170" data-name="Path 21170" d="M559.8,879.77c-3.713-1.876-8.293-2.109-10.958-2.109h-7.333l-.275-.478h7.97a57.005,57.005,0,0,1,10.89.849,26.416,26.416,0,0,1,8.98,4.394c.393.276,9.486,6.854,9.486,6.854a3.605,3.605,0,0,1-2.153,1.076,4.424,4.424,0,0,1-2.134-.8s-5.916-4.279-6.491-4.688a64.856,64.856,0,0,0-7.982-5.1Z" fill="#202d5c"/>
    </g>
  </g>
</svg>
