<svg xmlns="http://www.w3.org/2000/svg" width="90" height="90" viewBox="0 0 90 90">
  <g id="Group_15668" data-name="Group 15668" transform="translate(2241 -13325)">
    <g id="Group_15666" data-name="Group 15666" transform="translate(-945 -220)">
      <g id="Group_15639" data-name="Group 15639">
        <g id="Group_15659" data-name="Group 15659">
          <g id="Group_15610" data-name="Group 15610" transform="translate(-105 220)">
            <g id="Group_15599" data-name="Group 15599" transform="translate(-630 -219)">
              <g id="Rectangle_3882" data-name="Rectangle 3882" transform="translate(-561 13544)" fill="#fff" stroke="#e9e9e9" stroke-width="1.9">
                <rect width="90" height="90" rx="15" stroke="none"/>
                <rect x="0.95" y="0.95" width="88.1" height="88.1" rx="14.05" fill="none"/>
              </g>
            </g>
          </g>
        </g>
      </g>
    </g>
    <g id="Gol_Transportes_Aereos-Logo" transform="translate(-3640.867 13826.065)">
      <path id="Path_21646" data-name="Path 21646" d="M35.118.227A12.941,12.941,0,0,0,20.083,10.2a.428.428,0,0,1-.422.336h-6.3a.432.432,0,0,0-.433.428v3.911a.433.433,0,0,0,.433.433h5.527a.433.433,0,0,1,.433.433V17.68a.866.866,0,0,1-.211.564A8.152,8.152,0,1,1,16.461,5.581a.433.433,0,0,0,.565-.165L19.033,2.04a.435.435,0,0,0-.148-.593c-.006-.006-.011-.006-.023-.011a12.933,12.933,0,1,0,3.65,20.195.433.433,0,0,1,.61-.029c.011.011.023.017.029.029a12.968,12.968,0,0,0,11.966,4.02A12.456,12.456,0,0,1,24.572,13.4c0-4.5,3.65-8.609,8.156-8.609a8.155,8.155,0,0,1,2.39,15.953,7.906,7.906,0,0,0,2.39.353c4.506,0,8.156-4.105,8.156-8.609A12.467,12.467,0,0,0,35.118.227ZM63.3,20.724H54.818a.433.433,0,0,1-.433-.433V.809a.432.432,0,0,0-.428-.433H50.044a.433.433,0,0,0-.433.433V24.636a.86.86,0,0,0,.861.861H63.3a.433.433,0,0,0,.433-.433V21.152A.432.432,0,0,0,63.3,20.724Z" transform="translate(1413 -469)" fill="#ff7020"/>
    </g>
  </g>
</svg>
