<svg xmlns="http://www.w3.org/2000/svg" xmlns:xlink="http://www.w3.org/1999/xlink" width="49.578" height="46.666" viewBox="0 0 49.578 46.666">
  <defs>
    <linearGradient id="linear-gradient" x1="-18.315" y1="-33.781" x2="-18.315" y2="-34.708" gradientUnits="objectBoundingBox">
      <stop offset="0" stop-color="#fff"/>
      <stop offset="0.096" stop-color="#848484"/>
      <stop offset="0.204" stop-color="#828282"/>
      <stop offset="0.299" stop-color="#818181"/>
      <stop offset="0.404" stop-color="gray"/>
      <stop offset="0.5" stop-color="#7e7e7e"/>
      <stop offset="0.6" stop-color="#7d7d7d"/>
      <stop offset="0.7" stop-color="#797979"/>
      <stop offset="0.8" stop-color="#767676"/>
      <stop offset="0.9" stop-color="#727272"/>
      <stop offset="1" stop-color="#6d6d6d"/>
    </linearGradient>
  </defs>
  <g id="Group_14771" data-name="Group 14771" transform="translate(-1587.715 -485.361)">
    <path id="Path_21268" data-name="Path 21268" d="M1609.253,518.611l5.575,9.344c1.729,2.8,4.576,4.072,8.129,4.072h14.336L1620.5,511.506l-2.383-1.369-6.287,2.069-3.186,4.647Z" fill="url(#linear-gradient)"/>
    <path id="Path_21269" data-name="Path 21269" d="M1609.253,520.932l-5.013-8.359a4.717,4.717,0,0,1-.769-2.746c0-1.063.449-1.646,2.175-2.569,2.011-.971,6.06-1.394,10.233-1.394,6.782,0,8.408,2.2,9.1,4.564a9.613,9.613,0,0,0-3.208-.384c-7.145,0-12.856,3.5-12.856,8.795a7.182,7.182,0,0,0,.338,2.093Z" fill="#d6d6d6"/>
    <path id="Path_21270" data-name="Path 21270" d="M1587.715,485.367h6.738a6.332,6.332,0,0,1,5.161,2.325c1.316,1.207,5.31,6.658,13.752,17.3h-9.132c-3.736,0-4.92-.647-6.363-2.865Z" fill="#fff"/>
  </g>
</svg>
