<svg xmlns="http://www.w3.org/2000/svg" width="49.575" height="50.009" viewBox="0 0 49.575 50.009">
  <g id="Group_14763" data-name="Group 14763" transform="translate(-1914.715 -245.362)">
    <path id="Path_21178" data-name="Path 21178" d="M1939.866,285.857h1.9l-.082-2.284" fill="#fff"/>
    <path id="Path_21179" data-name="Path 21179" d="M1950.715,273.539c-5.067,4.976-12.646,1.8-11.875-4.31.594-4.711,6.322-9.4,10.655-11.95v-.053c-.565-.543-1.742-1.776-2.5-2.7a4.969,4.969,0,0,0-7.97.139l-12.467,1.173v.079l13.366.78c2.368.136,3.144,2.3.858,4.049-8.489,6.482-10,13.349-8.1,18.79l-.063.03a11.037,11.037,0,0,1-1.679-3.9,16.056,16.056,0,0,1-6.206-7.507,16.182,16.182,0,0,1,4.221-18.13,15.9,15.9,0,0,1,24.976,5.175,16.192,16.192,0,0,1-3.209,18.341Zm3.115,15.1h-7.671l2.722-7.147h3.381l-2.151,5.633h4.3Zm-11.962,0-.053-1.406h-3.05l-1.125,1.406h-2.79l5.662-6.618a1.466,1.466,0,0,1,.465-.374,1.445,1.445,0,0,1,.575-.155h3.023l.676,7.147Zm-11.569.241a10.8,10.8,0,0,1-2.35-.241l.578-1.519c1.544.183,2.872.048,3.39-1.315l1.647-4.313h3.379l-1.809,4.754c-.927,2.432-3.209,2.634-4.832,2.634Zm33.9-16.31a25.37,25.37,0,0,0-.124-5.529h-.042a14.94,14.94,0,0,1-5.447,8.424l-.038-.049a18.319,18.319,0,0,0,5-11.164,25,25,0,0,0-2.515-6.286l-.038.016a17.239,17.239,0,0,1-4.294,13.869l-.046-.037a19.6,19.6,0,0,0,2.792-16.3,24.677,24.677,0,0,0-39.885,0,19.59,19.59,0,0,0,2.792,16.3l-.043.037a17.224,17.224,0,0,1-4.293-13.869l-.04-.016a24.853,24.853,0,0,0-2.515,6.289,18.3,18.3,0,0,0,5,11.165l-.037.048a14.936,14.936,0,0,1-5.448-8.424h-.042a25.342,25.342,0,0,0-.123,5.526,15.055,15.055,0,0,0,4.535,6.582l-.033.052a13.451,13.451,0,0,1-4.04-3.712l-.036.015a25.042,25.042,0,0,0,8.638,14.273,24.63,24.63,0,0,0,31.253,0,25.038,25.038,0,0,0,8.639-14.273l-.036-.015a13.447,13.447,0,0,1-4.04,3.712l-.033-.052A15.076,15.076,0,0,0,1964.195,272.569Z" fill="#fff"/>
  </g>
</svg>
