<svg xmlns="http://www.w3.org/2000/svg" width="49.579" height="41.614" viewBox="0 0 49.579 41.614">
  <g id="Group_14760" data-name="Group 14760" transform="translate(-1915.715 -864.362)">
    <path id="Path_21311" data-name="Path 21311" d="M1965.081,864.362h-33c-3.839,0-5.758,1.774-7.037,6.882l-1.6,6.021c-.053.162.107.323.32.162a9.873,9.873,0,0,1,5.171-1.291h27.935c3.518,0,6.077-3.064,6.823-5.7l1.6-5.914C1965.241,864.523,1965.188,864.362,1965.081,864.362Z" fill="#fff"/>
    <path id="Path_21312" data-name="Path 21312" d="M1959.59,879.308h-31.506c-3.785,0-5.437,1.451-7.037,6.882l-1.6,5.967c-.053.162.107.323.32.162a10.521,10.521,0,0,1,5.277-1.291h25.642c4,0,6.771-3.118,8.05-7.742l1.066-3.871c0-.053-.106-.107-.213-.107Z" fill="#fff"/>
    <path id="Path_21313" data-name="Path 21313" d="M1938.426,894.2h-14.393c-3.732,0-5.651,1.667-6.931,6.451l-1.386,5.162a.143.143,0,0,0,.006.065.138.138,0,0,0,.09.09.138.138,0,0,0,.064.006h13.754c3.519,0,6.4-2.15,7.677-6.935l1.226-4.624C1938.64,894.308,1938.533,894.2,1938.426,894.2Z" fill="#fff"/>
  </g>
</svg>
