<svg xmlns="http://www.w3.org/2000/svg" width="49.572" height="49.993" viewBox="0 0 49.572 49.993">
  <g id="Group_14761" data-name="Group 14761" transform="translate(-1587.715 -614.362)">
    <path id="Path_21230" data-name="Path 21230" d="M1588.058,643.5a24.875,24.875,0,0,0,3.495,9.209c6.392-1.792,12.012-5.192,14-12.777,2.209-8.339-.3-17.07-6.3-21.709a25.083,25.083,0,0,0-11.2,25.277Zm48.887-8.28a25.17,25.17,0,0,1-4.256,18.639,24.774,24.774,0,0,1-16.074,10.151,24.674,24.674,0,0,1-16.516-3.019,24.911,24.911,0,0,1-7.666-6.96l40.12-11.6c.581-.167.44-.728-.041-.7l-16.827,1.2c2.373-2.311,4.176-5.14,3.96-9.05-.44-6.346-6.841-12.533-18.735-16.6a24.312,24.312,0,0,1,7.485-2.562,24.528,24.528,0,0,1,21.082,6.44,25.094,25.094,0,0,1,7.466,14.073" fill="#fff"/>
  </g>
</svg>
