<svg xmlns="http://www.w3.org/2000/svg" width="50" height="50" viewBox="0 0 50 50">
  <g id="Group_14764" data-name="Group 14764" transform="translate(-2023.715 -245.362)">
    <path id="Path_21189" data-name="Path 21189" d="M2073.715,270.362a24.944,24.944,0,1,0-1.888,9.576,25,25,0,0,0,1.888-9.576Zm-1.8,0a23.248,23.248,0,1,1-6.809-16.391,23.2,23.2,0,0,1,6.809,16.391Zm-14.35-1.5c-.55,0-1.25,0-2.15.05l.65-1.1h1.053a51.547,51.547,0,0,1,9.1.65l1.15-1.1a58.51,58.51,0,0,0-9.8-.8h-.853l.55-1.052h.95a54.333,54.333,0,0,1,10.15.9l1.2-1.15a60.676,60.676,0,0,0-11.6-1.053q-2.654.008-5.3.25c-2,4.3-5.2,6.8-8.8,6.75a13.219,13.219,0,0,1-5.4-1.851l-2.1-1.2.65-.6,4.85,2.1,1.053-.8-9.8-4.454-1.505,1.15-3.5-1.447.05,1.447a56.587,56.587,0,0,1,11.608,6.9,48.484,48.484,0,0,0,20.2,8.695l2.1-2h-.5c-5.3,0-10.05-1.75-12.8-4.7a16.934,16.934,0,0,1,9.1-2.049c1.053,0,2.55.1,3.948.249l1.2-1.15a47.863,47.863,0,0,0-5.65-.35q-1.9,0-3.8.15l.9-1.1q1.6-.095,3.2-.1a40.188,40.188,0,0,1,6.4.395l1.15-1.1a50.488,50.488,0,0,0-7.65-.55Z" fill="#fff"/>
  </g>
</svg>
