<svg xmlns="http://www.w3.org/2000/svg" height="800" width="1200" version="1.0" viewBox="-149.949 -49.054 1299.558 294.324"><path d="M85.8.83c21.62-2.84 44.15 1.65 62.92 12.79 20.05 11.72 35.73 30.74 43.23 52.73 8 23.08 6.9 49.18-3.13 71.47-9.25 20.96-26.14 38.34-46.71 48.38-22.14 10.92-48.43 12.98-72.04 5.84-22.55-6.72-42.49-21.82-55.01-41.75C5.19 134.68-.26 116.23.01 97.73c-.14-25.14 10.25-50 27.79-67.93C43.15 13.98 63.93 3.58 85.8.83M58.91 79.91c-1.28.73-2.67 1.45-4.19 1-8.03-1.37-16.05-2.89-24.07-4.37-1.55-.14-3.31-.93-4.76 0-6.62 3.65-13.15 7.47-19.72 11.21 49.71 27.87 99.48 55.64 149.31 83.29.12-11.62.07-23.25.06-34.88-11.36-2.1-22.73-4.12-34.08-6.28 11.25-6.37 22.56-12.64 33.93-18.78.24-11.31.04-22.63.1-33.95-17.5 9.95-34.93 20.01-52.47 29.88-4.7-2.76-9.49-5.37-14.16-8.2 22.28-12.86 44.9-25.13 67.29-37.8-.02-11.94.01-23.89-.01-35.83-32.41 18.24-64.83 36.45-97.23 54.71zm188.47-38.58c11.88-.01 23.76-.01 35.64-.01.12 13.38-.26 26.75.07 40.12 12.91.08 25.81-.08 38.72-.06.09-13.37.02-26.74.03-40.12 11.93-.02 23.85 0 35.77 0-.04 38.26.06 76.53.06 114.79-11.94-.02-23.88.06-35.82-.08-.01-15.44 0-30.87-.01-46.31-12.94-.01-25.88-.01-38.82 0 0 15.44.01 30.87 0 46.3-11.9.17-23.8.1-35.7.01-.02-38.21.09-76.43.06-114.64zm239.18-.07c10.64-.01 21.29-.01 31.93 0-.01 14.01 0 28.01.07 42.02 4.23-3.79 8.58-7.67 13.95-9.74 6.7-2.62 14.16-3.09 21.22-1.84 7.24 1.34 13.97 5.94 17.24 12.63 3.23 6.29 3.76 13.51 3.76 20.45 0 17.09 0 34.18-.01 51.27-10.68.01-21.36 0-32.05 0-.04-15.12.08-30.24-.07-45.36-.16-4.23-.28-9.18-3.72-12.2-5.19-4.29-14.05-2.9-17.51 2.95-2.84 4.91-2.75 10.81-2.88 16.3.03 12.74-.07 25.48.06 38.23-10.66.16-21.33.05-31.99.08-.01-38.26-.01-76.53 0-114.79zm258.92 114.78c14.26-38.32 28.82-76.53 43.25-114.78 12.93-.01 25.86-.01 38.8 0 14.4 38.26 28.81 76.52 43.19 114.78-12.37.03-24.73-.02-37.1.03-1.97-6.26-3.84-12.56-5.65-18.87-13.57-.15-27.14-.1-40.71-.07-1.86 6.31-3.7 12.62-5.56 18.92-12.08 0-24.15.01-36.22-.01m49.64-43.84c8.41.13 16.82.07 25.24.04-4.22-13.69-8.32-27.42-12.59-41.1-4.46 13.61-8.41 27.38-12.65 41.06zm86.14-70.94c10.64-.01 21.27 0 31.91-.01.16 7.24.08 14.49-.05 21.74-10.6-.01-21.2 0-31.79-.01-.14-7.24-.05-14.48-.07-21.72zM412.57 71.34c9.38-.57 18.83-.32 28.17.79 7.63.94 15.61 3.79 20.44 10.09 4.03 5.63 5.96 12.61 6.16 19.48.16 13.65-.16 27.3.17 40.95 0 4.74 1.91 9.12 3.72 13.4-9.98.01-19.95.01-29.93-.03-1.83-3.06-2.83-6.49-3.44-9.97-3.87 3.21-7.81 6.5-12.52 8.38-8.44 3.43-17.81 3.98-26.79 3.04-7.37-.85-14.77-4.21-19.15-10.4-6.84-9.31-5.21-24.31 4.4-31.14 7.33-4.98 16.32-6.14 24.78-8.03 9.33-1.86 18.69-3.86 27.55-7.4-.3-3.32-.59-7.56-4.02-9.21-5.33-2.06-11.42-1.48-16.79.17-3.75 1.21-5.6 4.93-7.06 8.28-10.19-.93-20.35-2.11-30.52-3.16 1.46-5.98 3.59-12.2 8.46-16.3 7.08-6.62 17.1-8.13 26.37-8.94m5.27 50.75c-3.6 1.31-7.89 2.48-9.71 6.21-2.2 4.11.14 9.79 4.61 11.14 7.66 2.26 16.76-.86 21.09-7.66 2.66-4.58 2.18-10.08 2.26-15.16-6.03 2.03-12.18 3.6-18.25 5.47zm224.52-49.54c7.73-1.99 16.21-2.25 23.75.69 5.18 2.02 9.61 5.91 12.12 10.89 3.12 6.02 3.84 12.93 3.85 19.62.01 17.43-.05 34.86.06 52.3-10.7.01-21.4-.01-32.1.01-.01-15.13-.04-30.26-.09-45.39-.15-4.09-.22-8.8-3.37-11.86-5.17-4.75-14.58-3.23-18 2.9-2.57 4.53-2.59 9.91-2.73 14.98.01 13.12-.09 26.24-.07 39.36-10.64-.02-21.29.07-31.93-.08-.02-27.66.01-55.31.08-82.96 9.91-.05 19.82-.01 29.73-.03.01 4.43 0 8.85.02 13.27 5.12-5.82 10.97-11.6 18.68-13.7zm333.32.2c7.82-3.54 16.68-1.03 23.98 2.61-3.21 7.59-6.59 15.12-9.93 22.66-4.95-1.93-11.14-3.72-15.77-.09-5.81 4.73-6.62 12.85-7.41 19.8-.78 12.76-.38 25.55-.45 38.32-10.69 0-21.38 0-32.06.01-.04-27.69-.01-55.38-.02-83.07 9.94-.01 19.88 0 29.82 0-.01 4.4.06 8.8.08 13.2 3.13-5.04 5.97-10.98 11.76-13.44zm-94.43.27c10.64-.12 21.29-.16 31.94-.02.15 27.69.04 55.37.05 83.06-10.66-.02-21.32 0-31.98-.01-.02-27.68.02-55.35-.01-83.03z" fill="#084294"/></svg>