<svg xmlns="http://www.w3.org/2000/svg" xmlns:xlink="http://www.w3.org/1999/xlink" width="90" height="90" viewBox="0 0 90 90">
  <defs>
    <linearGradient id="linear-gradient" x1="-15.191" y1="-5.899" x2="-15.196" y2="-5.881" gradientUnits="objectBoundingBox">
      <stop offset="0" stop-color="#d2068a"/>
      <stop offset="0.737" stop-color="#413691"/>
      <stop offset="1" stop-color="#413691"/>
    </linearGradient>
  </defs>
  <g id="Group_15689" data-name="Group 15689" transform="translate(561 -13325)">
    <g id="Rectangle_3880" data-name="Rectangle 3880" transform="translate(-561 13325)" fill="#fff" stroke="#e9e9e9" stroke-width="1.9">
      <rect width="90" height="90" rx="15" stroke="none"/>
      <rect x="0.95" y="0.95" width="88.1" height="88.1" rx="14.05" fill="none"/>
    </g>
    <g id="Group_15562" data-name="Group 15562" transform="translate(-1188.844 13099.4)">
      <path id="Path_21022" data-name="Path 21022" d="M648.055,265.754a23.478,23.478,0,0,0,5.474,15.024,23.116,23.116,0,0,0,13.779,7.941h0c-.1.822-.2,1.61-.326,2.234-.749,3.68-3.29,7.064-4.691,7.885,3.681-.328,6.613-1.412,8.372-3.121-.13,0-1.27-.033-1.368-.033a13.025,13.025,0,0,0,2.052-.985h0a26.86,26.86,0,0,0-.391-7.852c-.749-4.074-2.28-5.454-2.541-5.717l-.032-.033c0-.033.032-.033.065-.033a24.472,24.472,0,0,0,2.965-2.234h0c.39-.328.26-.492-.163-.328a18.845,18.845,0,0,1-5.213,1.412h0a22.67,22.67,0,0,1-7.036-.3h0a1.815,1.815,0,0,1-1.564-2.1,6.072,6.072,0,0,1,.554-1.577h0a2.289,2.289,0,0,0,.163-1.051h0a2.493,2.493,0,0,0-.228-.394.8.8,0,0,1-.033-.822h0a1.646,1.646,0,0,1,.547-.529,1.614,1.614,0,0,1,.724-.226h0c.325-.033.684-.033,1.075-.033a8.936,8.936,0,0,0,1.368-.066h0c1.042-.2,1.694-.887,1.564-1.117-.1-.131-1.043.033-1.336.1a5.1,5.1,0,0,1-1.792-.428c-.684-.23-1.075-.394-1.661-.131-.391.164-.684.92-.782.559a.715.715,0,0,1,.029-.28.7.7,0,0,1,.134-.246h0c.13-.2.391-.526.391-.723.032-.2.1-.526-.521-.953a5.483,5.483,0,0,1-.913-.722h0c-.586-.592-.684-1.183.456-2.136a14.361,14.361,0,0,0,3.095-3.581,1.418,1.418,0,0,0,.033-1.577h0a6.492,6.492,0,0,1-.521-.821h0c-.261-.493-.1-.953.358-1.61a9.081,9.081,0,0,0,.814-2.07,10.509,10.509,0,0,1,2.379-4.041h0a10.165,10.165,0,0,1,1.237-3.647,9.367,9.367,0,0,1,1.4-2h0a9.474,9.474,0,0,1,1.922-1.446h0a14.668,14.668,0,0,1,3.193-1.347h0a19.024,19.024,0,0,1,5.212-.722h0a18.678,18.678,0,0,1,4.5.558h0l.2.066a22.832,22.832,0,0,0-9.708-2.136h0a23.4,23.4,0,0,0-23.227,23.392Zm9.284,2.859c-.032.1.033.131.131.164a13.11,13.11,0,0,1,1.4.756c.913.525,1.3.1,1.5-.263.065-.1.13-.493.033-.592-.1-.131-.261-.032-.424.132-.2.2-.684.1-.847.066s-.912-.2-1.368-.3a.634.634,0,0,0-.228-.033h0c-.13,0-.2,0-.2.066" fill="url(#linear-gradient)"/>
      <path id="Path_21023" data-name="Path 21023" d="M667.928,257.846a25.169,25.169,0,0,0-4.235-.657,3.643,3.643,0,0,0-2.443,1.281,2.041,2.041,0,0,0-.488.953.53.53,0,0,0,.179.516.518.518,0,0,0,.258.113.5.5,0,0,0,.279-.038,1.913,1.913,0,0,0,.847-.755c.2-.3.326-.657.619-.822a5.42,5.42,0,0,1,2.7-.361c1.043.033,1.922.1,2.118.1.423-.032.325-.3.162-.328" fill="#413691"/>
      <path id="Path_21024" data-name="Path 21024" d="M666.141,260.652a3.891,3.891,0,0,0-1.5-.361c-.163-.033-.2-.2.032-.3.326-.131.912-.033.912-.131.033-.1-.1-.3-.553-.46a3.23,3.23,0,0,0-1.043-.132,2.482,2.482,0,0,0-1.563.789,1.112,1.112,0,0,0-.326.525c-.065.329.163.592.358.887a2.872,2.872,0,0,1,.228.4c.033.164.033.263-.13.361-.163.132-.065.361.26.263a1.757,1.757,0,0,0,.88-.46c.391-.329.391-.559.684-.821a2.624,2.624,0,0,1,1.629-.2c.586.132.717,0,.13-.361" fill="#413691"/>
      <path id="Path_21025" data-name="Path 21025" d="M694.886,265.032a32.712,32.712,0,0,0-.359-3.548,19.393,19.393,0,0,0-1.4-5.421,17.43,17.43,0,0,0-4.529-7.03,19.181,19.181,0,0,0-7.525-4.469,1.038,1.038,0,0,1-.2-.065h0a18.476,18.476,0,0,0-4.5-.559c-5.18-.1-8.991,2.07-10.327,3.516a8.328,8.328,0,0,0-1.4,2,9.676,9.676,0,0,0-1.237,3.646,7.412,7.412,0,0,1,2.736-1.839,5.919,5.919,0,0,0,2.508,2.037,17.348,17.348,0,0,0,3.095,1.182s2.02.592,4.072,1.282a6.7,6.7,0,0,1,3.323,3.121c0,.887-.879,1.741-1.759,4.435a21.192,21.192,0,0,0-.977,8.871v.065a43.846,43.846,0,0,0,1.238,6.407h0a19.386,19.386,0,0,1,.619,5.716,13.4,13.4,0,0,1-6.907,10.35,16.8,16.8,0,0,1-2.052.985c.1,0,1.27.033,1.368.033a14.356,14.356,0,0,0,10.718-4.3,15.535,15.535,0,0,0,2.834-3.91,19.373,19.373,0,0,0,1.922-6.143c.1-.493.326-2.1.326-2.1s.163,1.15.2,2.168a15.729,15.729,0,0,1-.749,5.816,10.667,10.667,0,0,0,3.323-3.319,20.989,20.989,0,0,0,1.661-2.529c2.346-3.713,4.04-8.082,3.975-16.395" fill="#413691"/>
      <path id="Path_21026" data-name="Path 21026" d="M682.056,256.863q-.05.246.195.1a7.287,7.287,0,0,1,3.16-1.577,4.151,4.151,0,0,0,3.193-2.1,4.611,4.611,0,0,1,1.335-2.2c.261-.2,0-.263-.228-.23a4.6,4.6,0,0,0-2.117,1.15,1.882,1.882,0,0,1-.391-1.675c.032-.132-.065-.2-.228-.1a3.457,3.457,0,0,0-1.075,1.479.952.952,0,0,1-.2-1.118c.033-.131-.065-.1-.1-.032a1.812,1.812,0,0,0-.574.692,1.848,1.848,0,0,0-.176.885,6.225,6.225,0,0,0-2.085-.625c-.195-.821-1.563-1.051-1.791-.2-.2.756,1.107,1.347,1.661.723A6.228,6.228,0,0,1,686,253.774c.163.165.2.3.1.362-.065.065-.293-.066-.586-.263-.326-.2-2.476-1.577-4.333-.657-.1.033-.1.131-.033.131.359.1,1.141.362,1.336.887a2.735,2.735,0,0,0-1.889,1.61c-.163.329.032.362.195.23a5.27,5.27,0,0,1,1.792-.723,11.938,11.938,0,0,0-.521,1.512Zm14.887-8.772a12.313,12.313,0,0,0,.554,3.778,3.36,3.36,0,0,1-1.857,3.909,2.9,2.9,0,0,0-2.248-1.117c-.488-.032-.358.2-.1.263,3.453,1.446,2.247,5.421,1.791,6.275a3.951,3.951,0,0,0-.325,2,6.287,6.287,0,0,0-2.932.033,6.367,6.367,0,0,1-3.747-.427,3.177,3.177,0,0,1-1.987-2.431c-.032-.263-.195-.427-.293.033a2.914,2.914,0,0,0,.521,2.431c-.619,3.121-6.808,2.891-6.808,2.891-.391-1.347-3.225-1.741-3.844-3.712a4.083,4.083,0,0,1-.066-1.906,2.823,2.823,0,0,0,3.063-1.018c.293-.362.065-.395-.163-.263a2.756,2.756,0,0,1-4.333-1.807A4.088,4.088,0,0,0,671.7,254.4c1.4-.888,1.01-2.4,1.759-3.68,1.922-3.384,4.691-2.366,4.691-2.366a2.646,2.646,0,0,0,.744,1.045,2.606,2.606,0,0,0,1.146.565c.456.132.391-.1.2-.263a2.7,2.7,0,0,1,.066-4.632c2.7-1.807,3.159-2.595,3.159-2.595a8.042,8.042,0,0,0,3.193.821c3.1.263,3.811,1.84,3.877,2.464a3.008,3.008,0,0,0-1.271,1.676c-.163.459.1.394.261.2,1.205-1.61,2.671-1.315,4.072-.69.814.394,2.085,1.412,3.355,1.15" fill="#ef3138"/>
    </g>
  </g>
</svg>
