<svg xmlns="http://www.w3.org/2000/svg" width="49.578" height="48.398" viewBox="0 0 49.578 48.398">
  <g id="Group_14747" data-name="Group 14747" transform="translate(-1914.715 -367.362)" opacity="0.7">
    <path id="Path_21256" data-name="Path 21256" d="M1964,394.709a10.6,10.6,0,0,1-8.267,6.867,5.445,5.445,0,0,1,.778,3.609,8.018,8.018,0,0,1-7.761,6.769,9.9,9.9,0,0,1-8.5-5c-2.2-3.472-2.509-8.985-2.354-10.653a25.728,25.728,0,0,0-5.155,7.318,33.463,33.463,0,0,0-2.431,11.771,1.618,1.618,0,0,1-.642.373,5.035,5.035,0,0,1-2.49-1.119,3.174,3.174,0,0,1-.953-1.373,35.518,35.518,0,0,1,5.894-13.968c3.793-5.748,9.648-9.3,16.593-11.437,5.018-1.55,10.232-1.884,13.811,1.177a5.122,5.122,0,0,1,1.478,5.669Zm-29.567-3.178a26.807,26.807,0,0,1-7,6.886c-5.35,3.453-9.2,3.688-11.127,2.452a2.985,2.985,0,0,1-.6-.49c-1.5-1.589-1.245-4.414.506-6.729a6.692,6.692,0,0,1,3.034-2.315,2.779,2.779,0,0,1-1.517-2.374,7.467,7.467,0,0,1,3.89-6.591c2.1-1.079,6.634-2.158,9.96,2.844A23.071,23.071,0,0,1,1934.43,391.531Zm21.981-21.03c-.292-2.884-3.346-3.944-6.711-2.492a10.113,10.113,0,0,0-3.988,3.159,3.265,3.265,0,0,0-1.148-3.159c-1.848-1.354-5.213-.353-7.508,2.158a13.99,13.99,0,0,0-3.541,8.73,16.736,16.736,0,0,0,4.2,10.712,36.737,36.737,0,0,0,15.192-10.5,14.786,14.786,0,0,0,3.307-6.141,7.9,7.9,0,0,0,.2-2.471Z" fill="#b8b8b8"/>
    <path id="Path_21257" data-name="Path 21257" d="M1952.909,379.113a14.789,14.789,0,0,0,3.307-6.14c.02-.079.039-.157.059-.256-.428,1.746-4.085,6.259-9.143,10.1-5.252,3.982-8.248,5.983-9.4,6.768A36.6,36.6,0,0,0,1952.909,379.113ZM1927.427,398.4a26.823,26.823,0,0,0,7-6.886,37.951,37.951,0,0,1-11.5,8.063c-2.879,1.236-5.7,1.706-6.633,1.255C1918.226,402.086,1922.077,401.85,1927.427,398.4Zm36.57-3.689a6.179,6.179,0,0,0,.273-1.353,8,8,0,0,1-3.5,5.355,9.713,9.713,0,0,1-6.069,1.629,6.088,6.088,0,0,1,1.031,1.216A10.544,10.544,0,0,0,1964,394.709Z" fill="#a1a1a1"/>
    <path id="Path_21258" data-name="Path 21258" d="M1938.437,392.748c-.02.019-.039.019-.039.039a.045.045,0,0,1,.012-.027.039.039,0,0,1,.027-.012Z" fill="#e4e4e4"/>
    <path id="Path_21259" data-name="Path 21259" d="M1938.4,392.767c-6.244,4.513-8.365,12.634-8.715,22.973a1.6,1.6,0,0,0,.642-.373,33.525,33.525,0,0,1,2.432-11.77,25.676,25.676,0,0,1,5.155-7.318,30.487,30.487,0,0,1,.544-3.531.087.087,0,0,0-.058.019Z" fill="#a1a1a1"/>
  </g>
</svg>
