<svg xmlns="http://www.w3.org/2000/svg" height="800" width="1200" viewBox="-78.416955 -12.041225 679.61361 72.24735"><g fill="#c00"><path d="M24.4341 38.9995h1.8478l-.0798-2.2016"/><path d="M34.9737 27.1339c-4.9228 4.7937-12.2845 1.7323-11.536-4.1512.5775-4.5375 6.1408-9.0562 10.3507-11.5108l.0021-.0514c-.549-.5229-1.6934-1.7113-2.4315-2.6026-2.0409-2.4546-5.6105-2.5586-7.7427.1343L11.505 10.082v.0756l12.9848.7506c2.3044.1313 3.054 2.2184.8325 3.9024-8.2457 6.2436-9.7155 12.8588-7.873 18.0987l-.062.0294c-.758-1.072-1.3238-2.3853-1.6314-3.7617-3.9633-2.4892-7.177-7.2273-7.177-13.075 0-8.503 6.9292-15.5035 15.5014-15.5035S39.5837 7.599 39.5837 16.1018c0 4.5985-2.0157 8.506-4.61 11.032m3.029 14.545h-7.4542l2.6436-6.885h3.285l-2.0902 5.4256h4.1753zm-11.621 0l-.0505-1.3554h-2.9659l-1.0929 1.3554h-2.7097l5.4992-6.3748c.2625-.3035.652-.5103 1.01-.5103h2.9365l.6572 6.885zm-11.239.232c-.8829 0-1.6503-.0914-2.2824-.232l.5607-1.4625c1.5023.1764 2.7905.0462 3.2934-1.2672l1.5969-4.1554h3.283l-1.7576 4.5796c-.8997 2.3422-3.117 2.5375-4.694 2.5375m32.926-15.7082c.1575-1.5254.1166-3.7112-.1196-5.326h-.041c-.4913 2.3455-2.0115 5.5224-5.2924 8.1155l-.0367-.0472c2.8745-3.0698 4.5932-6.8546 4.8598-10.7538-.5438-2.146-1.3837-4.2215-2.444-6.0546l-.0368.0147c.5837 3.938-.3486 9.1402-4.1711 13.3596l-.0452-.0357c3.2914-4.738 4.148-10.5082 2.7129-15.6956C39.0682 3.8478 32.0236 0 24.0803 0 16.138 0 9.0945 3.8478 4.7071 9.7795 3.2708 14.967 4.1275 20.737 7.4189 25.4751l-.042.0357c-3.8236-4.2194-4.7538-9.4215-4.1701-13.3596l-.0388-.0147c-1.0604 1.833-1.9014 3.9087-2.442 6.0546.2645 3.8992 1.981 7.684 4.8567 10.7538l-.0357.0472C2.265 26.399.7459 23.2221.2546 20.8767h-.041c-.2362 1.6147-.2771 3.8005-.1197 5.326.8263 2.5942 2.5964 4.7695 4.4063 6.337l-.0325.0503c-2.021-1.2587-3.1528-2.4892-3.9244-3.5748l-.0347.0137c2.2205 10.8126 11.915 19.136 23.5717 19.136 11.6588 0 21.3512-8.3234 23.5738-19.136l-.0347-.0137c-.7706 1.0856-1.9034 2.316-3.9244 3.5748l-.0315-.0503c1.809-1.5675 3.577-3.7428 4.4053-6.337"/></g><path d="M519.5236 28.5317c-2.513 6.534-11.1793 8.5597-20.5424 8.5597-9.367 0-15.3717-2.0333-13.9666-8.5597h11.899c-.3123 1.7478.7463 2.8596 4.2646 2.8596 3.5145 0 5.7915-1.1423 6.4388-2.8596 1.645-4.2646-21.9018-.0952-18.155-9.8619 2.098-5.464 10.3607-8.0342 19.678-8.0342 9.3137 0 14.614 2.0143 13.4907 8.0304h-11.6668c.1866-1.6106-.3122-2.833-3.8153-2.833-3.5106 0-5.384 1.2452-5.9933 2.8368-1.6906 4.356 22.1075.1143 18.3683 9.862m-208.2614 7.8171h-11.9029l9.584-24.9556h11.9066m80.4184 24.9556h-11.8914l9.5801-24.9556h11.8914m67.0876 24.9556h-28.923l9.5725-24.9556h28.9384l-1.839 4.79H468.649l-1.9343 5.0376h14.1646l-1.8353 4.7825h-14.1684l-1.9343 5.0528h17.0242m-238.4983 5.2927h-9.622l-8.0685-14.7396-5.662 14.7396h-9.603l9.5725-24.9556h11.1794l7.1318 13.1137 5.0261-13.1137h9.6259m190.5824 24.9556H432l-8.0685-14.7396-5.662 14.7396h-9.5992l9.5763-24.9556h11.1794l7.1242 13.1137 5.0262-13.1137h9.6334M96.9579 27.9948c-3.2556 8.4873-11.2898 9.1918-17.009 9.1918-3.206 0-5.978-.3237-8.2703-.8377L73.712 31.06c5.4488.6359 10.1132.1561 11.9333-4.5997l5.7877-15.0632h11.9028m61.9053 7.9505c-.7044 1.8239-2.9471 3.1566-5.1137 3.1566h-6.6025l2.4255-6.317h6.6253c2.1552 0 3.3622 1.3441 2.6654 3.1604m-.8529-7.9505h-18.5016l-9.5801 24.9556h11.899l3.4764-9.0585h6.614c10.9966 0 16.9176-2.9433 18.8404-7.9466 1.9191-4.9995-1.7363-7.9505-12.7481-7.9505m183.1878 7.9505c-.7082 1.8239-2.951 3.1566-5.1099 3.1566h-6.6101l2.4255-6.317h6.6253c2.1628 0 3.3698 1.3441 2.6692 3.1604m-.849-7.9505h-18.5055l-9.5763 24.9556h11.899l3.4726-9.0585h3.5945l2.357 9.0585H352.96l-3.1832-9.9647c5.2736-1.2337 8.4035-3.6592 9.6905-7.0404 1.9343-4.9995-1.7325-7.9505-12.7405-7.9505M372.7943 31.06l7.5621-19.6629h-11.899l-9.5687 24.9556h27.0079l2.0333-5.2927m-273.5976-4.4093l6.4045-7.9847.297 7.9847zm16.5787-15.2536h-10.6425c-1.2946 0-2.7073.7578-3.6516 1.8468L96.6723 36.3527h9.8352l3.9562-4.9119h10.7491l.1866 4.912h11.9028m53.2201-9.7021l6.4121-7.9847.2894 7.9847zm16.5824-15.2536h-10.6463c-1.2908 0-2.7034.7578-3.6553 1.8468l-19.9333 23.1088h9.8277l3.96-4.9119h10.7452l.1828 4.912h11.9067m71.8777-9.7021l6.4121-7.9847.297 7.9847zm16.5863-15.2536h-10.6425c-1.3022 0-2.7073.7578-3.6592 1.8468l-19.9409 23.1088h9.8391l3.9486-4.9119h10.749l.1905 4.912h11.8914"/></svg>