<svg xmlns="http://www.w3.org/2000/svg" width="49.575" height="50.009" viewBox="0 0 49.575 50.009">
  <g id="Group_14649" data-name="Group 14649" transform="translate(-1084.055 -245.362)">
    <path id="Path_21029" data-name="Path 21029" d="M1109.206,285.857h1.9l-.082-2.284" fill="#c00"/>
    <path id="Path_21030" data-name="Path 21030" d="M1120.055,273.539c-5.067,4.976-12.646,1.8-11.875-4.31.594-4.711,6.322-9.4,10.655-11.95v-.053c-.565-.543-1.742-1.776-2.5-2.7a4.969,4.969,0,0,0-7.97.139l-12.467,1.173v.079l13.366.78c2.368.136,3.144,2.3.858,4.049-8.489,6.482-10,13.349-8.1,18.79l-.063.03a11.037,11.037,0,0,1-1.679-3.9,16.056,16.056,0,0,1-6.206-7.507,16.182,16.182,0,0,1,4.221-18.13,15.9,15.9,0,0,1,24.976,5.175,16.193,16.193,0,0,1-3.209,18.341Zm3.115,15.1H1115.5l2.722-7.147h3.381l-2.151,5.633h4.3Zm-11.962,0-.053-1.406h-3.05l-1.125,1.406h-2.79l5.662-6.618a1.464,1.464,0,0,1,.465-.374,1.445,1.445,0,0,1,.575-.155h3.023l.676,7.147Zm-11.569.241a10.8,10.8,0,0,1-2.35-.241l.578-1.519c1.544.183,2.872.048,3.39-1.315l1.647-4.313h3.379l-1.809,4.754c-.927,2.432-3.209,2.634-4.832,2.634Zm33.9-16.31a25.37,25.37,0,0,0-.124-5.529h-.042a14.939,14.939,0,0,1-5.447,8.424l-.038-.049a18.32,18.32,0,0,0,5-11.164,24.993,24.993,0,0,0-2.515-6.286l-.038.016a17.239,17.239,0,0,1-4.294,13.869l-.046-.037a19.6,19.6,0,0,0,2.792-16.3,24.677,24.677,0,0,0-39.885,0,19.592,19.592,0,0,0,2.792,16.3l-.043.037a17.224,17.224,0,0,1-4.293-13.869l-.04-.016a24.849,24.849,0,0,0-2.515,6.289,18.3,18.3,0,0,0,5,11.165l-.037.048a14.935,14.935,0,0,1-5.448-8.424h-.042a25.335,25.335,0,0,0-.123,5.526,15.056,15.056,0,0,0,4.535,6.582l-.033.052a13.449,13.449,0,0,1-4.04-3.712l-.036.015a25.042,25.042,0,0,0,8.638,14.273,24.63,24.63,0,0,0,31.253,0,25.039,25.039,0,0,0,8.639-14.273l-.036-.015a13.449,13.449,0,0,1-4.04,3.712l-.033-.052A15.077,15.077,0,0,0,1133.535,272.569Z" fill="#c00"/>
  </g>
</svg>
