<svg xmlns="http://www.w3.org/2000/svg" width="90" height="90" viewBox="0 0 90 90">
  <g id="Group_15584" data-name="Group 15584" transform="translate(561 -13544)">
    <g id="Rectangle_3882" data-name="Rectangle 3882" transform="translate(-561 13544)" fill="#fff" stroke="#e9e9e9" stroke-width="1.9">
      <rect width="90" height="90" rx="15" stroke="none"/>
      <rect x="0.95" y="0.95" width="88.1" height="88.1" rx="14.05" fill="none"/>
    </g>
    <g id="Group_15585" data-name="Group 15585" transform="translate(-1515.843 13197.033)">
      <path id="Path_21031" data-name="Path 21031" d="M1018.082,379.2a12.95,12.95,0,0,0-2.386-8.808c-5.457-6.535-18.487-2.132-28.994,9.77-10.575,11.9-14.662,26.832-9.278,33.367,5.457,6.537,18.487,2.2,29.061-9.7a58.71,58.71,0,0,0,4.5-5.918l-17.394-1.788,25.173-3.3L991,388.824l33.633-3.506-27.422-2.82,20.873-3.3" fill="#fcaf1e" fill-rule="evenodd"/>
    </g>
  </g>
</svg>
