<svg xmlns="http://www.w3.org/2000/svg" height="800" width="1200" version="1.0" viewBox="-27.309795 -12.5 236.68489 75"><path d="M59.0663 24.516h-4.494v9.6715c0 1.7542 1.028 2.1385 2.61 2.1385.6014 0 1.2427-.0849 1.884-.0849v5.3524c-1.3275.0424-2.655.212-3.98.212-6.2082 0-7.7927-1.7965-7.7927-7.8326v-9.457h-3.6805v-4.8857h3.6805v-6.9767h7.2787v6.9767h4.494zm36.6374 0h-4.4965v9.6715c0 1.7542 1.028 2.1385 2.6125 2.1385.5989 0 1.2427-.0849 1.884-.0849v5.3524c-1.3275.0424-2.655.212-3.9825.212-6.2082 0-7.7902-1.7965-7.7902-7.8326v-9.457h-3.683v-4.8857h3.683v-6.9767h7.2762v6.9767h4.4965zM20.2989 32.35c0 6.4952-3.3311 9.7814-10.1507 9.7814C2.4753 42.1314 0 37.7074 0 31.2521v-1.2576h7.104v2.68c0 1.9088 1.0555 2.9643 2.922 2.9643 1.7466 0 2.7198-.9757 2.7198-3.7778V12.5377h7.5531zm16.9596-4.1359c-.1273-2.4603-1.8665-4.499-4.2869-4.499-2.5477 0-4.2444 1.8266-4.6686 4.499zM28.303 32.244c.1272 3.0143 1.8664 5.008 4.9231 5.008 1.7392 0 3.4385-.8035 4.1197-2.418h6.7447c-1.315 5.0929-6.026 7.2987-10.9492 7.2987-7.1714 0-12.0546-4.3268-12.0546-11.7128 0-6.7471 5.3922-11.5854 11.8849-11.5854 7.895 0 11.84 5.9437 11.5031 13.4095zm37.8575 2.0164c0 1.1004.4642 1.9064 1.1853 2.4553.6762.509 1.6519.761 2.6674.761 1.3974 0 3.386-.5913 3.386-2.328 0-1.6943-2.2431-2.0311-3.5132-2.3256-4.5314-1.1453-10.2031-1.27-10.2031-7.1988 0-5.29 5.719-6.7297 10.0334-6.7297 4.8258 0 9.8637 1.3973 10.1183 7.1115h-6.645c0-.9307-.3418-1.5246-.9331-1.9064-.5914-.3793-1.3949-.549-2.2857-.549-1.1852 0-3.0891.1273-3.0891 1.652 0 2.0735 4.8233 2.4528 8.127 3.1739 4.4466.8883 5.587 4.1047 5.587 5.9262 0 5.8838-5.587 7.8301-10.54 7.8301-5.2077 0-10.5425-1.7342-10.7521-7.8725zm40.15 3.439c3.421 0 4.5588-1.9413 4.3892-6.4578-1.0131.6313-2.872.7586-4.4341 1.1803-1.6045.3818-2.9544 1.0555-2.9544 2.7872 0 1.7741 1.3949 2.4903 2.9993 2.4903m-9.2898-11.356c.1272-2.872 1.4772-4.731 3.4185-5.8688 1.9438-1.1004 4.474-1.5221 6.9667-1.5221 5.1952 0 10.2156 1.1403 10.2156 7.3485v9.5868c0 1.854 0 3.8826.8484 5.6143h-7.2213c-.252-.6762-.3393-1.3524-.4217-2.0685-1.859 1.9413-4.6037 2.6973-7.2213 2.6973-4.1795 0-7.4708-2.1084-7.4708-6.6249 0-7.1389 7.7678-6.5874 12.7508-7.6005 1.2227-.2545 1.899-.6762 1.899-2.0262 0-1.6493-1.9838-2.2831-3.4635-2.2831-1.9837 0-3.2488.8883-3.5882 2.7472zm31.6606-6.0722c-1.098.7187-1.9513 1.7692-2.4703 3.1366h-.0823V19.555h-6.9868v21.9707h7.1964V30.6465c0-2.7498 1.859-5.2076 5.4172-5.2076.8259 0 1.5645.1273 2.3355.3194z" fill="#100e0c"/><path d="M160.3191 0l.9383 15.0639h20.808l-19.9297 13.1874L166.5323 50 149.592 35.288l-22.8042 11.84 13.5992-18.6396-12.8955-13.4245h20.8704z" fill="#fe5815" fill-rule="evenodd"/></svg>