<svg xmlns="http://www.w3.org/2000/svg" width="90" height="90" viewBox="0 0 90 90">
  <g id="Group_15633" data-name="Group 15633" transform="translate(1296 -13545)">
    <g id="Group_15610" data-name="Group 15610" transform="translate(-105 220)">
      <g id="Group_15599" data-name="Group 15599" transform="translate(-630 -219)">
        <g id="Rectangle_3882" data-name="Rectangle 3882" transform="translate(-561 13544)" fill="#fff" stroke="#e9e9e9" stroke-width="1.9">
          <rect width="90" height="90" rx="15" stroke="none"/>
          <rect x="0.95" y="0.95" width="88.1" height="88.1" rx="14.05" fill="none"/>
        </g>
      </g>
    </g>
    <g id="Group_15634" data-name="Group 15634" transform="translate(-2472.213 12815.676)">
      <path id="Path_21033" data-name="Path 21033" d="M1220.171,755.362h1.767c.015.6.012,1.206.009,1.811.591,0,1.183,0,1.774,0,0,.592,0,1.185-.013,1.778-.586,0-1.173,0-1.758,0,0,.583,0,1.168,0,1.752-.582.037-1.166.03-1.748.024l-.006-1.781c-.593.008-1.183,0-1.774.007-.009-.591-.008-1.184-.009-1.776.595,0,1.191,0,1.784,0-.012-.6.041-1.211-.029-1.812Zm-10.231,5.006a3.092,3.092,0,1,1-2.355,3.746A3.111,3.111,0,0,1,1209.94,760.368Zm7.076,0a3.094,3.094,0,1,1-2.4,3.581A3.117,3.117,0,0,1,1217.016,760.364Zm7.078,0a3.091,3.091,0,1,1-1.507,5.272,3.147,3.147,0,0,1-.475-3.888,3.038,3.038,0,0,1,1.982-1.383Zm7.089,0a3.087,3.087,0,0,1,3.579,2.269,3.129,3.129,0,0,1-1.166,3.263,3.086,3.086,0,1,1-2.414-5.532Zm-20.674,10.606c-.045-1.237-.025-2.478-.011-3.715,7.074.021,14.15,0,21.225.008q0,1.849,0,3.694c-7.072.009-14.143-.015-21.213.013Zm-17.454,3.137q2.68,0,5.36,0c0,1.719,0,3.441,0,5.163l5.275-5.162q2.7-.007,5.4,0c-2.076,2.124-4.208,4.192-6.268,6.33,2.6,2.533,5.1,5.16,7.721,7.665.023-4.664,0-9.33.009-14q2.74,0,5.479,0,0,5.307,0,10.616c2.917-.009,5.833.01,8.749-.01.039,1.2.006,2.4.019,3.6q-10.635,0-21.271,0c-1.676-1.709-3.375-3.394-5.059-5.095-.025,1.7,0,3.4-.015,5.1-1.8-.013-3.6,0-5.4-.008Zm33.248,0c2.941-.009,5.882.02,8.824-.014.928,2.541,1.741,5.126,2.618,7.687a1.385,1.385,0,0,0,.213-.347c.838-2.444,1.7-4.88,2.542-7.323q4.437,0,8.872,0v14.2c-1.81.023-3.622.009-5.432.009,0-3.269.016-6.539-.009-9.808-.253.143-.279.465-.386.706l-3.18,9.1c-1.7,0-3.406.023-5.107-.011-1.068-3.1-2.172-6.195-3.247-9.294a.549.549,0,0,0-.287-.381c0,3.229,0,6.461,0,9.692q-2.71,0-5.421,0Z" fill="#00a1e4" fill-rule="evenodd"/>
    </g>
  </g>
</svg>
