<svg xmlns="http://www.w3.org/2000/svg" width="90" height="90" viewBox="0 0 90 90">
  <g id="Group_15580" data-name="Group 15580" transform="translate(561 -13544)">
    <g id="Rectangle_3882" data-name="Rectangle 3882" transform="translate(-561 13544)" fill="#fff" stroke="#e9e9e9" stroke-width="1.9">
      <rect width="90" height="90" rx="15" stroke="none"/>
      <rect x="0.95" y="0.95" width="88.1" height="88.1" rx="14.05" fill="none"/>
    </g>
    <g id="Group_15581" data-name="Group 15581" transform="translate(-1297.844 13197.62)">
      <path id="Path_21034" data-name="Path 21034" d="M806.633,391.382a24.788,24.788,0,1,1-24.791-25A24.9,24.9,0,0,1,806.633,391.382Z" fill="#fff"/>
      <path id="Path_21035" data-name="Path 21035" d="M792.494,376.314a18.5,18.5,0,0,1,9.425,6.748,18.806,18.806,0,0,1,3.273,14.643l-.027.165a21.288,21.288,0,0,1-3.787,8.9l-.034.04a25.062,25.062,0,0,0-10.02-38.546,24.624,24.624,0,0,0-25.787,4.257l-.056.053a17.417,17.417,0,0,0-5.585,12.811,17.53,17.53,0,0,0,1.045,5.983l.037.079a11,11,0,0,0,4.036,4.708,10.882,10.882,0,0,0,13.656-1.475,11.071,11.071,0,0,0,3.2-7.8l-.031-4.748a5.771,5.771,0,0,1,.8-2.942,5.709,5.709,0,0,1,2.185-2.111l.018-.014a9.66,9.66,0,0,1,7.637-.753" fill="#ed192d"/>
      <path id="Path_21036" data-name="Path 21036" d="M762.857,407.464a24.657,24.657,0,0,0,35.295,2.775l.055-.053a17.488,17.488,0,0,0,4.542-18.787l-.036-.08a11.006,11.006,0,0,0-4.036-4.71,10.871,10.871,0,0,0-13.657,1.474,11.085,11.085,0,0,0-3.205,7.8l.031,4.747a5.757,5.757,0,0,1-2.984,5.057l-.021.014a9.6,9.6,0,0,1-4.681,1.216,9.7,9.7,0,0,1-2.956-.466l-.01,0a18.49,18.49,0,0,1-9.423-6.744,18.76,18.76,0,0,1-3.613-11.067,18.973,18.973,0,0,1,.34-3.575l.024-.165a21.391,21.391,0,0,1,3.79-8.9l.031-.04a25.043,25.043,0,0,0-5.288,15.438,29.394,29.394,0,0,0,2.4,11.33" fill="#1d4d9c"/>
    </g>
  </g>
</svg>
