<svg xmlns="http://www.w3.org/2000/svg" width="90" height="90" viewBox="0 0 90 90">
  <g id="Group_15617" data-name="Group 15617" transform="translate(1296 -13545)">
    <g id="Group_15610" data-name="Group 15610" transform="translate(-105 220)">
      <g id="Group_15599" data-name="Group 15599" transform="translate(-630 -219)">
        <g id="Rectangle_3882" data-name="Rectangle 3882" transform="translate(-561 13544)" fill="#fff" stroke="#e9e9e9" stroke-width="1.9">
          <rect width="90" height="90" rx="15" stroke="none"/>
          <rect x="0.95" y="0.95" width="88.1" height="88.1" rx="14.05" fill="none"/>
        </g>
      </g>
    </g>
    <g id="Group_15618" data-name="Group 15618" transform="translate(-2351.687 12963.676)">
      <path id="Path_21037" data-name="Path 21037" d="M1087.91,628.2l5.982-2.236a1.848,1.848,0,0,0-.279-.779,1.8,1.8,0,0,0-.6-.415l-8.315-3.951a.507.507,0,0,0-.456.024c-.193.139-.187.5-.187.5v5.058a3.817,3.817,0,0,0,.516,1.569,1.661,1.661,0,0,0,1.806.809Zm23.813-12.2,5.565-4.079s.083-.7-.131-.961a1.134,1.134,0,0,0-.47-.336l-24.031-11.218a.509.509,0,0,0-.457.024c-.193.139-.186.5-.186.5v4.361a5.134,5.134,0,0,0,.532,2.1,2.766,2.766,0,0,0,1.406,1.367Zm0,12.694,5.565-3.771s.118-.956-.1-1.212a1.684,1.684,0,0,0-.5-.393l-31.989-15.2a.507.507,0,0,0-.456.024c-.193.139-.187.5-.187.5v4.361a5.147,5.147,0,0,0,.533,2.1,2.766,2.766,0,0,0,1.406,1.367Z" transform="translate(0)" fill="#ed1651" fill-rule="evenodd"/>
      <path id="Path_21038" data-name="Path 21038" d="M1116.447,612.209a1.239,1.239,0,0,1,.6.288.808.808,0,0,1,.276.541v4.007a2.808,2.808,0,0,1-.259,1.04,1.172,1.172,0,0,1-.605.608l-.748.249-23.84,7.918a1.089,1.089,0,0,1-.527,0l-6.642-2.206s-.165-.035-.4-.37a2.334,2.334,0,0,1-.245-1.122.926.926,0,0,0,.278.564c.236.182.866-.018.866-.018l30.508-10.133s1.212-.452,1.212-.911c0-.317-.472-.453-.472-.453Zm0,8.808a1.244,1.244,0,0,1,.6.288.808.808,0,0,1,.276.541v4.007a2.808,2.808,0,0,1-.259,1.04,1.172,1.172,0,0,1-.605.608l-.748.249-23.839,7.918V630.3l23.84-7.918s1.211-.451,1.211-.911c0-.317-.472-.453-.472-.453Zm-11.834,14.1a1.056,1.056,0,0,1,.228.667v3a2.78,2.78,0,0,1-.259,1.04,1.172,1.172,0,0,1-.605.608l-.748.249-11.361,3.774v-5.368l11.361-3.774s1.156-.4,1.384-.192Zm-7.329,11.2a1.056,1.056,0,0,1,.228.667v3a2.8,2.8,0,0,1-.259,1.04,1.172,1.172,0,0,1-.605.608l-.748.249-4.032,1.406v-5.368l4.032-1.405s1.156-.4,1.384-.193Z" fill="#2a0088" fill-rule="evenodd"/>
    </g>
  </g>
</svg>
