<svg xmlns="http://www.w3.org/2000/svg" height="800" width="1200" viewBox="-399.7068 -154.84925 3464.1256 929.0955"><g fill-rule="evenodd"><path d="M2132.902 463.948l80.21-310h88.682s22.491-2.166 34.058 7c11.567 9.167 14.847 23.333 14.847 23.333l48.185 150.02 62.878-180.35h85.815s21.344 0 32.405 8.667 14.386 21.667 14.386 21.667l70.344 279.67h-83.324l-62.85-238.38-65.966 181.72h-88.328s-10.643 1.042-20.818-5.833c-10.175-6.876-10.495-13.167-10.495-13.167l-53.773-162.71-61.698 238.38zm-826.24-310.04v61.834l148.82 10v238.17h85.953v-238.17l148.82-10v-61.834zm-247.33 0l-155 310h95.279l27.076-57h172.82l26.457 57h94.748l-147.05-289.67s-4.804-10.669-13.137-15.438c-8.333-4.768-17.102-4.896-17.102-4.896h-84.094zm52.625 66.943l56.961 123.06h-114.81l57.848-123.06zm-534.955-66.943v310h261.67l35.667-71.333H666.67v-238.67zm1255.3 0l-155 310h95.28l27.075-57h172.82l26.457 57h94.748l-147.05-289.67s-4.804-10.669-13.137-15.438c-8.333-4.768-17.102-4.896-17.102-4.896h-84.094zm52.625 66.943l56.961 123.06h-114.81l57.848-123.06z" fill="#2a0088"/><path d="M44.322 253.528l68.786-19.648s-.737-4.594-3.203-6.849c-2.467-2.255-6.903-3.65-6.903-3.65L7.397 188.655s-3.035-1.02-5.253.208C-.073 190.09.005 193.28.005 193.28v44.459s-.238 4.257 5.927 13.798c6.166 9.54 20.77 7.11 20.77 7.11zm273.83-107.27l63.986-35.848s.963-6.194-1.503-8.449c-2.467-2.255-5.403-2.95-5.403-2.95L98.892.399s-3.035-1.02-5.253.208C91.422 1.834 91.5 5.025 91.5 5.025v38.333s-.038 8.882 6.127 18.423c6.166 9.54 16.17 12.01 16.17 12.01zm0 111.58l63.986-33.148s1.363-8.394-1.103-10.649c-2.467-2.255-5.803-3.449-5.803-3.449L7.392 76.982s-3.035-1.02-5.253.208C-.078 78.418 0 81.61 0 81.61v38.332s-.038 8.882 6.127 18.423c6.166 9.541 16.17 12.011 16.17 12.011z" fill="#ed1651"/><path d="M375.232 99.008s3.735.567 6.903 3.65c3.168 3.083 3.203 6.849 3.203 6.849v50.754s-.152 6.934-2.996 13.17c-2.845 6.236-7.01 7.711-7.01 7.711l-8.667 3.148L90.505 284.6s-1.328.41-3.055.41c-1.728 0-3.056-.41-3.056-.41L7.451 256.651s-1.909-.444-4.617-4.687c-3.05-4.76-2.83-14.21-2.83-14.21S.482 242.6 3.22 244.9c2.738 2.3 10.037-.224 10.037-.224l353.41-128.37s14.033-5.724 14.033-11.54c0-4.017-5.467-5.741-5.467-5.741zm0 111.58s3.735.567 6.903 3.65c3.168 3.083 3.203 6.849 3.203 6.849v50.754s-.152 6.934-2.996 13.17c-2.845 6.236-7.01 7.711-7.01 7.711l-8.667 3.148-276.16 100.31v-68l276.16-100.31s14.033-5.724 14.033-11.54c0-4.017-5.466-5.742-5.466-5.742zm-137.09 178.64c2.643 2.643 2.643 8.46 2.643 8.46v37.953s-.152 6.934-2.996 13.17c-2.845 6.236-7.01 7.71-7.01 7.71l-8.667 3.15-131.61 47.806v-68l131.61-47.807s13.387-5.084 16.03-2.441zm-84.9 141.92c2.643 2.643 2.643 8.46 2.643 8.46v37.953s-.152 6.934-2.996 13.17c-2.845 6.236-7.01 7.71-7.01 7.71l-8.667 3.149-46.71 17.807v-68l46.71-17.807s13.387-5.084 16.03-2.441z" fill="#2a0088"/></g></svg>