<svg xmlns="http://www.w3.org/2000/svg" width="49.578" height="80.371" viewBox="0 0 49.578 80.371">
  <g id="Group_14654" data-name="Group 14654" transform="translate(-1084.055 -599.362)">
    <path id="Path_21037" data-name="Path 21037" d="M1089.758,632.259l8.85-2.55a1.8,1.8,0,0,0-.412-.889,2.829,2.829,0,0,0-.887-.473l-12.3-4.506a.951.951,0,0,0-.675.027.688.688,0,0,0-.277.573v5.769a3.643,3.643,0,0,0,.763,1.79c.793,1.239,2.672.923,2.672.923Zm35.231-13.919,8.233-4.652s.124-.8-.193-1.1a1.743,1.743,0,0,0-.7-.383l-35.555-12.795a.955.955,0,0,0-.676.027.687.687,0,0,0-.275.573v4.974a4.828,4.828,0,0,0,.788,2.39,3.817,3.817,0,0,0,2.081,1.559Zm0,14.478,8.233-4.3s.175-1.09-.142-1.382a2.521,2.521,0,0,0-.746-.448l-47.328-17.336a.951.951,0,0,0-.675.027.686.686,0,0,0-.276.573v4.974a4.839,4.839,0,0,0,.789,2.39,3.817,3.817,0,0,0,2.081,1.559Z" fill="#ed1651" fill-rule="evenodd"/>
    <path id="Path_21038" data-name="Path 21038" d="M1132.333,612.209a1.783,1.783,0,0,1,.888.473,1.38,1.38,0,0,1,.412.889v6.586a5,5,0,0,1-.386,1.709,1.82,1.82,0,0,1-.9,1l-1.115.409L1095.7,636.29a1.476,1.476,0,0,1-.786,0l-9.9-3.626s-.246-.058-.594-.608a4.179,4.179,0,0,1-.365-1.844,1.6,1.6,0,0,0,.415.927c.352.3,1.291-.029,1.291-.029l45.47-16.657s1.806-.743,1.806-1.5c0-.521-.7-.745-.7-.745Zm0,14.478a1.79,1.79,0,0,1,.888.473,1.38,1.38,0,0,1,.412.889v6.586a5,5,0,0,1-.386,1.709,1.82,1.82,0,0,1-.9,1l-1.115.409-35.53,13.016v-8.824l35.531-13.016s1.805-.742,1.805-1.5c0-.521-.7-.745-.7-.745Zm-17.638,23.18a1.862,1.862,0,0,1,.34,1.1v4.925a4.955,4.955,0,0,1-.386,1.709,1.821,1.821,0,0,1-.9,1l-1.115.409-16.933,6.2v-8.823l16.933-6.2s1.723-.659,2.063-.316Zm-10.923,18.415a1.863,1.863,0,0,1,.34,1.1V674.3a4.98,4.98,0,0,1-.386,1.709,1.82,1.82,0,0,1-.9,1l-1.115.409-6.01,2.311v-8.824l6.01-2.31s1.722-.66,2.062-.317Z" fill="#2a0088" fill-rule="evenodd"/>
  </g>
</svg>
