<svg xmlns="http://www.w3.org/2000/svg" width="90" height="90" viewBox="0 0 90 90">
  <g id="Group_15566" data-name="Group 15566" transform="translate(561 -13544)">
    <g id="Rectangle_3882" data-name="Rectangle 3882" transform="translate(-561 13544)" fill="#fff" stroke="#e9e9e9" stroke-width="1.9">
      <rect width="90" height="90" rx="15" stroke="none"/>
      <rect x="0.95" y="0.95" width="88.1" height="88.1" rx="14.05" fill="none"/>
    </g>
    <g id="Group_15565" data-name="Group 15565" transform="translate(-1297.844 13318.204)">
      <path id="Path_21039" data-name="Path 21039" d="M800.864,256.613a8.769,8.769,0,0,1-.858,1.73,8.163,8.163,0,0,1-.6-.651,3.234,3.234,0,0,1-.547-.791,5.606,5.606,0,0,0,1.062-.082A8.994,8.994,0,0,1,800.864,256.613Zm-12.53,34.9c-.049-.338-.115-.758-.172-1.187l1.078-.074h.033a7.827,7.827,0,0,0,3.227-1.063,11.192,11.192,0,0,0,3.046-2.883,9.217,9.217,0,0,0,1.577-5.239v-.091a9.333,9.333,0,0,0-.123-1.45c-.008-.033-.008-.074-.016-.107l-.008-.024a9.446,9.446,0,0,0-.817-2.546A9.377,9.377,0,0,0,788.7,271.8l-.09-.009-.081-.008a9.082,9.082,0,0,0-4.485.791c-.138.066-.269.123-.392.189a9.352,9.352,0,0,0-2.867,2.274l-.016.025-.155-.074c-2.859-1.384-7.074-9.408-8.071-13.057-1.233-4.515-2.017-12.192-1.012-16.871.155-.725.351-1.747.424-2.1-2.9-1.854-6.894.667-7.343,6.392-.727,9.227,4.885,18.873,11.427,24.607.948.832,1.675,1.367,2.2,1.779l1.405,1.03a9.2,9.2,0,0,0-.531,1.244,30.392,30.392,0,0,1-2.99-2c-.956-.717-1.83-1.392-2.72-2.15a39.278,39.278,0,0,1-4.787-4.959c-2.213-2.587-6.011-9.045-6.208-13.518-4.3-.577-6.967,7.611,1.079,15.083,5.211,4.844,8.634,6.3,15.242,9.1a8.323,8.323,0,0,0-.106,1.021l-.009.091c-1.061.09-5.023-1.187-6.15-1.6-10.35-3.79-12.759-8.321-13.96-9.6-1.691,1.211-1.969,4.7-.474,6.723,2.532,3.418,8.03,5.387,12.318,5.873a43.334,43.334,0,0,0,7.384.321l.98-.09a10.566,10.566,0,0,0,.286,1.351l-.147.033-.179.041h-.009a28.046,28.046,0,0,1-15.47-.824,23.243,23.243,0,0,1-3.774-1.82c-.482.4-1.4,7.315,7.939,7.389a21.825,21.825,0,0,0,6.715-1.1c1.9-.618,3.635-1.367,5.562-2.117a9.12,9.12,0,0,0,.629,1.046l-.269.248a2.551,2.551,0,0,1-.2.189,23.134,23.134,0,0,1-6.11,3.007c-3.676,1.194-5.293,1.005-8.945.576.442,4.894,5.882,4.3,8.969,3.073,3.129-1.244,5.2-3.6,7.507-5.923a9.144,9.144,0,0,0,.833.766,7.564,7.564,0,0,1-.67,1.2,20.291,20.291,0,0,1-6.632,5.429,11.091,11.091,0,0,1-3.488,1.046c.188,1.277,1.511,1.969,3.063,1.96,4.656-.041,7.678-6.046,8.528-7.776l.482-.972a8.182,8.182,0,0,0,.972.478l-.352,1.169c-.016.05-.032.107-.049.165v.008a13.053,13.053,0,0,1-1.225,2.571c-2.369,4.02-4.517,4.629-4.762,4.753.539.955,2.189,1.211,3.431.7,3.03-1.236,3.488-5.75,4.018-8.287l.131-.684a7.906,7.906,0,0,0,1,.206l.008.041c.555,5.281-1.789,7.826-1.936,8.073,1.609.28,3.006-.016,3.749-1.252.719-1.194.376-3.213.2-4.671a18.584,18.584,0,0,0,4.779-1.03,12.193,12.193,0,0,0,7.645-8.666c.106-.379.27-.766.36-1.17.629,0,1.331-.065,1.331-.865a2.728,2.728,0,0,0-.237-.823c-.245-.4-1.29-1.063-1.29-2.159a5.276,5.276,0,0,1,.188-.865c.514-.041,1.241-.576,1.241-1.153,0-.865-1.454-1.318-1.985-1.845a4.869,4.869,0,0,1-1.168-2.669c0-.5-.245-1.73.474-1.73.76,0,3.814,1.573,3.814-3.172-1.192.577-2.058.964-3.259.017-1.405-1.1-.237-4.918,2.4-4.918a1.546,1.546,0,0,1,1.266.453,2.457,2.457,0,0,1,.449,1.376,5.206,5.206,0,0,0,1.307-1.368,5.79,5.79,0,0,0,.694-2.092c0-.355-.179-.478-.155-.758.041-.453.662-1.055-.122-1.557-.621-.4-1.846.338-3.946-.725a5.555,5.555,0,0,0-.825-.42c.009-.536.188-.618.188-1.154,0-.84-2.6-1.894-3.488-2.446a9.1,9.1,0,0,1-1.682-1.277,4.08,4.08,0,0,1-1.111-1.639,1.017,1.017,0,0,0-.482-.116,1.612,1.612,0,0,0-1.528,1.252,2.864,2.864,0,0,0-.547-.477,4.323,4.323,0,0,0-.76-.42c-1.756-.758-2.924-.8-4.794-1.8a2.084,2.084,0,0,0-1.046,2.207,3.889,3.889,0,0,0-2.622-.247,26.467,26.467,0,0,1-2.859.305,8.871,8.871,0,0,1-1.47-.156,14.757,14.757,0,0,0-.286,1.631,2.75,2.75,0,0,0,.286,1.252,10.989,10.989,0,0,0-2.483.181,9.583,9.583,0,0,1-2.467.2,3.313,3.313,0,0,0,.3,2.866,8.75,8.75,0,0,0,.931,1.368,10.774,10.774,0,0,1-1.813.387,19.742,19.742,0,0,0,.931,4.539,28.691,28.691,0,0,0,5.171,9.877,7.1,7.1,0,0,0,.669.767,6.418,6.418,0,0,1,.67-.577,10.588,10.588,0,0,1,7.148-2.406,10.33,10.33,0,0,1,7.073,3.147,10.424,10.424,0,0,1,2.7,4.968,10.655,10.655,0,0,1-3.643,10.931,12.763,12.763,0,0,1-1.74,1.047,12,12,0,0,1-4.345,1.054Zm1.854-36.148c0,.362.335,1.013.188,1.054-.768-.066-1.144-.807-1.144-1.631,0-1.565,2.867-2.109,3.333-.1a4.05,4.05,0,0,0-1.43-.387,1.169,1.169,0,0,0-.955,1.055Z" fill="#fb0102" fill-rule="evenodd"/>
    </g>
  </g>
</svg>
