<svg xmlns="http://www.w3.org/2000/svg" width="90" height="90" viewBox="0 0 90 90">
  <g id="Group_15574" data-name="Group 15574" transform="translate(561 -13544)">
    <g id="Rectangle_3882" data-name="Rectangle 3882" transform="translate(-561 13544)" fill="#fff" stroke="#e9e9e9" stroke-width="1.9">
      <rect width="90" height="90" rx="15" stroke="none"/>
      <rect x="0.95" y="0.95" width="88.1" height="88.1" rx="14.05" fill="none"/>
    </g>
    <g id="Group_15575" data-name="Group 15575" transform="translate(-1734.055 13318.638)">
      <path id="Path_21040" data-name="Path 21040" d="M1243.055,270.362a24.943,24.943,0,1,0-1.888,9.576,25,25,0,0,0,1.888-9.576Zm-1.8,0a23.247,23.247,0,1,1-6.809-16.391,23.2,23.2,0,0,1,6.809,16.391Zm-14.35-1.5c-.55,0-1.25,0-2.15.05l.65-1.1h1.053a51.546,51.546,0,0,1,9.1.65l1.15-1.1a58.512,58.512,0,0,0-9.8-.8h-.853l.55-1.052h.95a54.332,54.332,0,0,1,10.15.9l1.2-1.15a60.677,60.677,0,0,0-11.6-1.053q-2.654.008-5.3.25c-2,4.3-5.2,6.8-8.8,6.75a13.218,13.218,0,0,1-5.395-1.851l-2.105-1.2.65-.6,4.85,2.1,1.053-.8-9.8-4.454-1.505,1.15-3.5-1.447.05,1.447a56.591,56.591,0,0,1,11.608,6.9,48.484,48.484,0,0,0,20.2,8.695l2.1-2h-.5c-5.3,0-10.05-1.75-12.8-4.7a16.934,16.934,0,0,1,9.1-2.049c1.053,0,2.55.1,3.948.249l1.2-1.15a47.864,47.864,0,0,0-5.65-.35q-1.9,0-3.8.15l.9-1.1q1.6-.095,3.2-.1a40.186,40.186,0,0,1,6.4.395l1.15-1.1a50.487,50.487,0,0,0-7.65-.55Z" fill="#05164d"/>
    </g>
  </g>
</svg>
