<svg xmlns="http://www.w3.org/2000/svg" width="90" height="90" viewBox="0 0 90 90">
  <g id="Group_15596" data-name="Group 15596" transform="translate(561 -13544)">
    <g id="Rectangle_3882" data-name="Rectangle 3882" transform="translate(-561 13544)" fill="#fff" stroke="#e9e9e9" stroke-width="1.9">
      <rect width="90" height="90" rx="15" stroke="none"/>
      <rect x="0.95" y="0.95" width="88.1" height="88.1" rx="14.05" fill="none"/>
    </g>
    <g id="Group_15597" data-name="Group 15597" transform="translate(-1406.844 13079.9)">
      <path id="Path_21041" data-name="Path 21041" d="M915.569,508.489c-.063,0-1.145-.064-1.145-.064a4.489,4.489,0,0,1-4.455-4.493c.063-5.07-2.8-13.156-14.129-13.607H876.3l-.255.963h16.42a2.385,2.385,0,0,1,2.292,3.273l-2.928,10.783a4.323,4.323,0,0,1-4.073,3.081c-2.991-.257-2.164-3.145-2.164-3.145l1.337-4.942a1.849,1.849,0,0,0-1.782-2.5H874.265l-.254.962h4.646a1.8,1.8,0,0,1,1.781,2.5s-.572,2.054-1.272,4.621a3.334,3.334,0,0,1-1.2,1.877,3.29,3.29,0,0,1-2.108.691h-4.518l-.32,1.155h4.265c.509,0,2.8.064,2.1,2.567-.7,2.568-1.273,4.622-1.273,4.622a3.416,3.416,0,0,1-1.155,1.763,3.37,3.37,0,0,1-1.963.74h-4.646l-.255.963h10.883a3.727,3.727,0,0,0,3.182-2.5l1.337-4.942a4.364,4.364,0,0,1,1.448-2.192,4.3,4.3,0,0,1,2.434-.953s3.055-.193,2.355,3.08L886.8,523.573a4.553,4.553,0,0,1-1.52,2.291,4.487,4.487,0,0,1-2.554.983H866.31l-.255,1.027h19.6c11.583-.449,18.84-8.537,21.577-13.607a9.09,9.09,0,0,1,6.873-4.493l1.146-.064a.2.2,0,0,0,.127-.065c.063-.192.254-.963.254-1.027,0-.128,0-.128-.063-.128" fill="#002856"/>
    </g>
  </g>
</svg>
