<svg xmlns="http://www.w3.org/2000/svg" xmlns:xlink="http://www.w3.org/1999/xlink" width="49.578" height="35.545" viewBox="0 0 49.578 35.545">
  <defs>
    <linearGradient id="linear-gradient" x1="-10.387" y1="-48.28" x2="-10.405" y2="-48.207" gradientUnits="objectBoundingBox">
      <stop offset="0" stop-color="#696969"/>
      <stop offset="0.39" stop-color="#707070"/>
      <stop offset="0.77" stop-color="#767676"/>
      <stop offset="1" stop-color="#787878"/>
    </linearGradient>
    <linearGradient id="linear-gradient-2" x1="-162.076" y1="-478.684" x2="-162.068" y2="-478.618" gradientUnits="objectBoundingBox">
      <stop offset="0.65" stop-color="#fff" stop-opacity="0"/>
      <stop offset="0.69" stop-color="#f1f1f1" stop-opacity="0.231"/>
      <stop offset="0.76" stop-color="#e1e1e1" stop-opacity="0.502"/>
      <stop offset="0.81" stop-color="#d4d4d4" stop-opacity="0.722"/>
      <stop offset="0.87" stop-color="#cacaca" stop-opacity="0.871"/>
      <stop offset="0.91" stop-color="#c5c5c5" stop-opacity="0.969"/>
      <stop offset="0.95" stop-color="#c2c2c2"/>
    </linearGradient>
    <linearGradient id="linear-gradient-3" x1="-41.036" y1="-234.366" x2="-40.97" y2="-234.366" gradientUnits="objectBoundingBox">
      <stop offset="0" stop-color="#fff" stop-opacity="0"/>
      <stop offset="0.07" stop-color="#f6f6f6" stop-opacity="0.149"/>
      <stop offset="0.21" stop-color="#e6e6e6" stop-opacity="0.412"/>
      <stop offset="0.35" stop-color="#d9d9d9" stop-opacity="0.62"/>
      <stop offset="0.49" stop-color="#cfcfcf" stop-opacity="0.788"/>
      <stop offset="0.63" stop-color="#c8c8c8" stop-opacity="0.91"/>
      <stop offset="0.77" stop-color="#c4c4c4" stop-opacity="0.98"/>
      <stop offset="0.9" stop-color="#c2c2c2"/>
    </linearGradient>
    <linearGradient id="linear-gradient-4" x1="-35.645" y1="-73.174" x2="-35.579" y2="-73.174" gradientUnits="objectBoundingBox">
      <stop offset="0.25" stop-color="#fff" stop-opacity="0"/>
      <stop offset="0.36" stop-color="#f9f9f9" stop-opacity="0.11"/>
      <stop offset="0.58" stop-color="#e8e8e8" stop-opacity="0.38"/>
      <stop offset="0.88" stop-color="#cecece" stop-opacity="0.82"/>
      <stop offset="1" stop-color="#c2c2c2"/>
    </linearGradient>
  </defs>
  <g id="Group_14708" data-name="Group 14708" transform="translate(-1806.715 -991.362)">
    <path id="Path_21192" data-name="Path 21192" d="M1820.152,1026.907h36.141l-29.019-29.339a20.63,20.63,0,0,0-14.494-6.206h-6.065l.455,1.2,2,5.3Z" fill="url(#linear-gradient)"/>
    <path id="Path_21193" data-name="Path 21193" d="M1809.167,997.864c3.965,6.828,14.348,7.539,15.479,18.143a.958.958,0,0,0,.261.56.949.949,0,0,0,.546.284,35.6,35.6,0,0,1,16.874,7.524h0a.129.129,0,0,0,.051.01.135.135,0,0,0,.052-.01.229.229,0,0,0,.132,0,.195.195,0,0,0,0-.267,35.888,35.888,0,0,0-12.6-8.634l-1.469-.593a2,2,0,0,1-.92-.767,2.035,2.035,0,0,1-.328-1.158c.088-3.169,7.5-2.532,8.253-4.043l.132-.267a13.663,13.663,0,0,0-5.345-2.858,1.7,1.7,0,0,0,.338,1.111c.455.725-.485,1.881-1.821.637l-.059-.1c-10.074-9.271-17.623-4.473-21.573-14.87Z" fill="#fff"/>
    <path id="Path_21194" data-name="Path 21194" d="M1833.3,1008.468a3.105,3.105,0,0,1-1.534-.432,3.138,3.138,0,0,1-1.124-1.138.789.789,0,0,1-.292,1.087.774.774,0,0,1-.4.1v2.532c1.087-.325,2.321-.518,3.349-.74Z" fill="url(#linear-gradient-2)"/>
    <path id="Path_21195" data-name="Path 21195" d="M1826.7,1017.073a35.714,35.714,0,0,1,15.625,7.3C1831.827,1015.326,1827.04,1016.955,1826.7,1017.073Z" fill="url(#linear-gradient-3)"/>
    <path id="Path_21196" data-name="Path 21196" d="M1811.282,998.338a11.846,11.846,0,0,1-4.112-5.776l2,5.3c3.966,6.828,14.348,7.539,15.479,18.128C1823.5,1002.47,1817.612,1004.5,1811.282,998.338Z" fill="url(#linear-gradient-4)"/>
  </g>
</svg>
