<svg xmlns="http://www.w3.org/2000/svg" width="49.578" height="43.227" viewBox="0 0 49.578 43.227">
  <g id="Group_14709" data-name="Group 14709" transform="translate(-1805.715 -748.362)">
    <path id="Path_21197" data-name="Path 21197" d="M1843.887,769.526c0,.219-3.062.425-7.425.6a10.76,10.76,0,0,1-1.784-1.267C1839.974,769.049,1843.887,769.28,1843.887,769.526Z" fill="#a9a9a9"/>
    <path id="Path_21198" data-name="Path 21198" d="M1840.75,762.095c0,.184-2.561.356-6.226.5q.787-.465,1.633-.934C1838.927,761.794,1840.75,761.941,1840.75,762.095Z" fill="#a9a9a9"/>
    <path id="Path_21199" data-name="Path 21199" d="M1813.455,778.081c-1.695.02-3.181.028-4.345.028-1.67,0-3.026-.52-3.026-1.164s1.355-1.16,3.026-1.16c1.483,0,3.488.016,5.788.045-.891,1.3-1.314,2.077-1.352,2.124S1813.486,778.034,1813.455,778.081Z" fill="#a9a9a9"/>
    <path id="Path_21200" data-name="Path 21200" d="M1814.367,779.638a15.072,15.072,0,0,0,1.815,1.879s.27.389,1.092.056a5.126,5.126,0,0,0,2.343-1.891c2.335.038,4.806.094,7.241.148.2.292.607.9,1.11,1.653-6.787.179-14.154.281-17.927.281-1.573,0-2.847-.489-2.847-1.093s1.274-1.1,2.847-1.1c1.148,0,2.628.012,4.323.028a.191.191,0,0,0,0,.034" fill="#a9a9a9"/>
    <path id="Path_21201" data-name="Path 21201" d="M1811.742,785.347c-1.394,0-2.524-.434-2.524-.968s1.13-.969,2.524-.969c3.691,0,11.258.114,17.735.3.312.452.625.9.921,1.312C1823.727,785.219,1815.608,785.347,1811.742,785.347Z" fill="#a9a9a9"/>
    <path id="Path_21202" data-name="Path 21202" d="M1833.262,788.451c-5.442.239-14.8.4-18.685.4-1.095,0-1.983-.342-1.983-.758s.888-.764,1.983-.764c3.72,0,12.45.148,17.961.369C1832.789,787.968,1833.032,788.221,1833.262,788.451Z" fill="#a9a9a9"/>
    <path id="Path_21203" data-name="Path 21203" d="M1819.067,790.509c3.209,0,12.982.246,12.982.539s-9.773.541-12.982.541c-.627,0-1.132-.239-1.132-.541S1818.44,790.509,1819.067,790.509Z" fill="#a9a9a9"/>
    <path id="Path_21204" data-name="Path 21204" d="M1819.1,770.58c-4.036.069-7.662.109-9.989.109-1.673,0-3.026-.52-3.026-1.164s1.354-1.163,3.026-1.163c2.706,0,7.153.051,11.974.143C1820.37,769.219,1819.707,769.916,1819.1,770.58Z" fill="#a9a9a9"/>
    <path id="Path_21205" data-name="Path 21205" d="M1838.92,765.384c2.368.13,3.857.268,3.857.418s-1.8.319-4.591.458a1.95,1.95,0,0,0,.734-.876" fill="#a9a9a9"/>
    <path id="Path_21206" data-name="Path 21206" d="M1810.039,766.9c-1.573,0-2.847-.489-2.847-1.093s1.274-1.1,2.847-1.1c3.226,0,9.075.079,14.945.208q-1.077.927-2.045,1.814C1817.785,766.835,1812.888,766.9,1810.039,766.9Z" fill="#a9a9a9"/>
    <path id="Path_21207" data-name="Path 21207" d="M1827.581,762.816c-6,.155-12.5.249-15.839.249-1.394,0-2.523-.434-2.523-.97s1.13-.97,2.523-.97c3.683,0,11.23.116,17.7.3-.322.235-.647.472-.977.72C1828.166,762.372,1827.872,762.592,1827.581,762.816Z" fill="#a9a9a9"/>
    <path id="Path_21208" data-name="Path 21208" d="M1814.577,759.143c-1.095,0-1.983-.339-1.983-.761s.888-.763,1.983-.763c4.125,0,14.422.184,19.649.447-.332.221-.665.449-1,.677C1827.774,758.983,1818.457,759.143,1814.577,759.143Z" fill="#a9a9a9"/>
    <path id="Path_21209" data-name="Path 21209" d="M1808.8,774.419c-1.7,0-3.082-.527-3.082-1.184s1.383-1.183,3.082-1.183c2.134,0,5.324.032,8.938.087-.682.8-1.269,1.551-1.774,2.218C1813.089,774.4,1810.574,774.419,1808.8,774.419Z" fill="#a9a9a9"/>
    <path id="Path_21210" data-name="Path 21210" d="M1817.934,755.423c0-.3.506-.538,1.132-.538,3.209,0,12.982.241,12.982.538s-9.773.541-12.982.541C1818.44,755.964,1817.934,755.721,1817.934,755.423Z" fill="#a9a9a9"/>
    <path id="Path_21211" data-name="Path 21211" d="M1844.206,772.36c.023.589.02,1.175-.011,1.75-5.685.228-11.079.572-11.079.961s5.274.724,10.893.949q-.147.982-.381,1.927c-5.542.23-10.685.565-10.685.943s4.8.692,10.117.922a19.5,19.5,0,0,1-.83,1.985c-4.565.221-8.336.516-8.336.84,0,.3,3.3.579,7.45.793-.231.382-.478.76-.729,1.114-.27.387-.565.769-.877,1.146-2.6.2-4.378.425-4.378.668,0,.206,1.276.4,3.246.575a19.031,19.031,0,0,1-3.841,2.945,30.3,30.3,0,0,1-3.213-3.315c-1.3-1.593-4.046-5.794-4.695-6.733s-1.072-1.215-1.83-.943a10.018,10.018,0,0,1-2.559.543c-.362,0-.563-.14.046-.384a8.519,8.519,0,0,0,4.183-3.745c1.325-2.655.16-6.322.16-6.322a4.619,4.619,0,0,1-1.456,2.691,5.831,5.831,0,0,0-.922-4.628l-.5,2.3s-.31-.016-1.079.637a3.272,3.272,0,0,0-.984,1.6c.607.248,1.336-.365,1.336-.365a29.579,29.579,0,0,1-3.237,7.873,5.545,5.545,0,0,1-2.745,2.478c-.822.333-1.092-.056-1.092-.056a15.072,15.072,0,0,1-1.815-1.879s-.044-.081.109-.076c.4,0,1.113-.686,1.267-.972.177-.329.16-.579.069-.6s-.24.246-1.011.737-1.119.15-1.378-.123c-.195-.216,0-.487.124-.654.115-.15,4.176-7.783,14.917-15.806,14.081-10.513,23.07-13.351,23.584-13.555.341-.136.9-.315,1.021-.185a.5.5,0,0,1,.151.194.511.511,0,0,1,.04.244c-.018.168-.108.259-.758.547a122.512,122.512,0,0,0-15.3,8.735,73.15,73.15,0,0,0-8.773,5.334c-.339.212-.086.52.118.391,7.445-4.992,16.173-8.394,25.816-11.18.459-.134.713-.134.789-.031a.716.716,0,0,1,.137.386c.014.179-.133.273-.529.431q-15.538,5.821-22.909,10.817s-.51.31-.515.668c0,.136.273.152.273.152,2.459.044,5.745.192,7.307.284,0,0-.222.8-1.719,1.439a7.877,7.877,0,0,1-3.285.429.292.292,0,0,0-.288.16.3.3,0,0,0,.042.329C1833.761,767.864,1836.017,771.524,1844.206,772.36Z" fill="#606060"/>
  </g>
</svg>
