<svg xmlns="http://www.w3.org/2000/svg" width="90" height="90" viewBox="0 0 90 90">
  <g id="Group_15628" data-name="Group 15628" transform="translate(1296 -13545)">
    <g id="Group_15610" data-name="Group 15610" transform="translate(-105 220)">
      <g id="Group_15599" data-name="Group 15599" transform="translate(-630 -219)">
        <g id="Rectangle_3882" data-name="Rectangle 3882" transform="translate(-561 13544)" fill="#fff" stroke="#e9e9e9" stroke-width="1.9">
          <rect width="90" height="90" rx="15" stroke="none"/>
          <rect x="0.95" y="0.95" width="88.1" height="88.1" rx="14.05" fill="none"/>
        </g>
      </g>
    </g>
    <g id="Group_15630" data-name="Group 15630" transform="translate(-2248.844 12817.831)">
      <path id="Path_21048" data-name="Path 21048" d="M1013.227,769.526c0,.219-3.062.425-7.425.6a10.757,10.757,0,0,1-1.784-1.267C1009.314,769.049,1013.227,769.28,1013.227,769.526Z" transform="translate(1.805 1.071)" fill="#858f99"/>
      <path id="Path_21049" data-name="Path 21049" d="M1010.09,762.095c0,.184-2.561.356-6.226.5q.787-.465,1.633-.934C1008.267,761.794,1010.09,761.941,1010.09,762.095Z" transform="translate(1.671 0.69)" fill="#858f99"/>
      <path id="Path_21050" data-name="Path 21050" d="M982.795,778.081c-1.7.02-3.181.028-4.345.028-1.67,0-3.026-.52-3.026-1.164s1.355-1.16,3.026-1.16c1.483,0,3.488.016,5.788.045-.891,1.3-1.314,2.077-1.352,2.124S982.826,778.034,982.795,778.081Z" transform="translate(0 1.47)" fill="#858f99"/>
      <path id="Path_21051" data-name="Path 21051" d="M983.707,779.638a15.072,15.072,0,0,0,1.815,1.879s.27.389,1.092.056a5.126,5.126,0,0,0,2.343-1.891c2.335.038,4.806.094,7.241.148.2.292.607.9,1.11,1.653-6.787.179-14.154.281-17.927.281-1.573,0-2.847-.489-2.847-1.093s1.274-1.1,2.847-1.1c1.148,0,2.628.012,4.323.028a.191.191,0,0,0,0,.034" transform="translate(0 1.668)" fill="#858f99"/>
      <path id="Path_21052" data-name="Path 21052" d="M981.082,785.347c-1.394,0-2.524-.434-2.524-.968s1.13-.969,2.524-.969c3.691,0,11.258.114,17.735.3.312.452.625.9.921,1.312C993.067,785.219,984.948,785.347,981.082,785.347Z" transform="translate(0 2.193)" fill="#858f99"/>
      <path id="Path_21053" data-name="Path 21053" d="M1002.6,788.451c-5.442.239-14.8.4-18.685.4-1.095,0-1.983-.342-1.983-.758s.888-.764,1.983-.764c3.72,0,12.45.148,17.961.369C1002.129,787.968,1002.372,788.221,1002.6,788.451Z" transform="translate(0 2.193)" fill="#858f99"/>
      <path id="Path_21054" data-name="Path 21054" d="M988.407,790.509c3.209,0,12.982.246,12.982.539s-9.773.541-12.982.541c-.627,0-1.132-.239-1.132-.541S987.78,790.509,988.407,790.509Z" transform="translate(0.867 2.193)" fill="#858f99"/>
      <path id="Path_21055" data-name="Path 21055" d="M988.44,770.58c-4.036.069-7.662.109-9.989.109-1.673,0-3.026-.52-3.026-1.164s1.354-1.163,3.026-1.163c2.706,0,7.153.051,11.974.143C989.71,769.219,989.047,769.916,988.44,770.58Z" transform="translate(0 1.072)" fill="#858f99"/>
      <path id="Path_21056" data-name="Path 21056" d="M1008.26,765.384c2.368.13,3.857.268,3.857.418s-1.8.319-4.591.458a1.949,1.949,0,0,0,.734-.876" transform="translate(1.815 0.881)" fill="#858f99"/>
      <path id="Path_21057" data-name="Path 21057" d="M979.379,766.9c-1.573,0-2.847-.489-2.847-1.093s1.274-1.1,2.847-1.1c3.226,0,9.075.079,14.945.208q-1.077.927-2.045,1.814C987.125,766.835,982.228,766.9,979.379,766.9Z" transform="translate(0 0.873)" fill="#858f99"/>
      <path id="Path_21058" data-name="Path 21058" d="M996.921,762.816c-6,.155-12.5.249-15.839.249-1.394,0-2.523-.434-2.523-.97s1.13-.97,2.523-.97c3.683,0,11.23.116,17.7.3-.322.235-.647.472-.977.72C997.506,762.372,997.212,762.592,996.921,762.816Z" transform="translate(0 0.678)" fill="#858f99"/>
      <path id="Path_21059" data-name="Path 21059" d="M983.917,759.143c-1.095,0-1.983-.339-1.983-.761s.888-.763,1.983-.763c4.125,0,14.422.184,19.649.447-.332.221-.665.449-1,.677C997.114,758.983,987.8,759.143,983.917,759.143Z" transform="translate(0 0.487)" fill="#858f99"/>
      <path id="Path_21060" data-name="Path 21060" d="M978.137,774.419c-1.7,0-3.082-.527-3.082-1.184s1.383-1.183,3.082-1.183c2.134,0,5.324.032,8.938.087-.682.8-1.269,1.551-1.774,2.218C982.429,774.4,979.914,774.419,978.137,774.419Z" transform="translate(0 1.271)" fill="#858f99"/>
      <path id="Path_21061" data-name="Path 21061" d="M987.274,755.423c0-.3.506-.538,1.132-.538,3.209,0,12.982.241,12.982.538s-9.773.541-12.982.541C987.78,755.964,987.274,755.721,987.274,755.423Z" transform="translate(0.867)" fill="#858f99"/>
      <path id="Path_21062" data-name="Path 21062" d="M1013.546,773.628c.023.62.02,1.237-.011,1.842-5.685.24-11.079.6-11.079,1.012s5.274.762,10.893,1q-.147,1.034-.381,2.029c-5.542.242-10.685.595-10.685.993s4.8.728,10.117.971a21.13,21.13,0,0,1-.83,2.09c-4.565.233-8.336.543-8.336.884,0,.315,3.3.61,7.45.835-.231.4-.478.8-.729,1.173-.27.407-.565.81-.877,1.207-2.6.209-4.378.447-4.378.7,0,.217,1.276.421,3.246.605a19.174,19.174,0,0,1-3.841,3.1,31.234,31.234,0,0,1-3.213-3.49c-1.3-1.677-4.046-6.1-4.7-7.089s-1.072-1.279-1.83-.993a9.586,9.586,0,0,1-2.559.572c-.362,0-.563-.147.046-.4a8.653,8.653,0,0,0,4.183-3.943c1.325-2.8.16-6.656.16-6.656a4.91,4.91,0,0,1-1.456,2.833,6.4,6.4,0,0,0-.922-4.872l-.5,2.426s-.31-.017-1.079.671a3.48,3.48,0,0,0-.984,1.689c.607.261,1.336-.384,1.336-.384a32.054,32.054,0,0,1-3.237,8.289,5.643,5.643,0,0,1-2.745,2.609c-.822.351-1.092-.059-1.092-.059a15.535,15.535,0,0,1-1.815-1.978s-.044-.085.109-.08c.4,0,1.113-.722,1.267-1.023.177-.346.16-.61.069-.629s-.24.259-1.011.776-1.119.158-1.378-.129c-.2-.227,0-.513.124-.689.115-.158,4.176-8.194,14.917-16.641,14.081-11.068,23.07-14.056,23.584-14.271.341-.143.9-.332,1.021-.195a.528.528,0,0,1,.151.2.564.564,0,0,1,.04.257c-.018.177-.108.273-.758.576a121.078,121.078,0,0,0-15.3,9.2,72.632,72.632,0,0,0-8.773,5.616c-.339.223-.086.547.118.412,7.445-5.256,16.173-8.837,25.816-11.771.459-.141.713-.141.789-.033a.779.779,0,0,1,.137.406c.014.188-.133.287-.529.454q-15.539,6.129-22.909,11.388s-.51.326-.515.7c0,.143.273.16.273.16,2.459.046,5.745.2,7.307.3,0,0-.222.839-1.719,1.515a7.51,7.51,0,0,1-3.285.452.27.27,0,0,0-.168.037.293.293,0,0,0-.12.132.319.319,0,0,0-.029.18.313.313,0,0,0,.071.166C1003.1,768.894,1005.357,772.747,1013.546,773.628Z" transform="translate(2.515 0)" fill="#680e3b"/>
    </g>
  </g>
</svg>
