<svg xmlns="http://www.w3.org/2000/svg" width="90" height="90" viewBox="0 0 90 90">
  <g id="Group_15567" data-name="Group 15567" transform="translate(561 -13544)">
    <g id="Rectangle_3882" data-name="Rectangle 3882" transform="translate(-561 13544)" fill="#fff" stroke="#e9e9e9" stroke-width="1.9">
      <rect width="90" height="90" rx="15" stroke="none"/>
      <rect x="0.95" y="0.95" width="88.1" height="88.1" rx="14.05" fill="none"/>
    </g>
    <g id="Group_15569" data-name="Group 15569" transform="translate(-1406.843 13321.638)">
      <path id="Path_21063" data-name="Path 21063" d="M898.9,249.07a48,48,0,0,0,9.816,2.242l2.355.023.073-.067a15.011,15.011,0,0,0,3.817-.888c.14-.036.5-.125.651.077a.68.68,0,0,1-.334.746,21.112,21.112,0,0,1-5.56,2.948v-.035a16.318,16.318,0,0,0-1.921.6,21.019,21.019,0,0,1-7.462.972c-4.783-.248-8.849-1.972-13.072-1.768a11.548,11.548,0,0,0-10.3,4.508,12.763,12.763,0,0,0-2.314,5.3c.125,1.732,2.538,2.4,3.441,3.831a22.576,22.576,0,0,1,1.167,2.72,51.5,51.5,0,0,0,3.227,5.329l-.03.036a8,8,0,0,0,3.227,2.8,14.341,14.341,0,0,1,4.241,4.571l-.047.027a44.42,44.42,0,0,1,2.43,5.152c.361,1.07.76,2.011,1.068,3.053.106.1.106.255.169.392.28.824.527,1.7.876,2.467-.151.115.117.158.084.272.019.462.467,1.157-.131,1.467a9.908,9.908,0,0,1-1.793-2.736,53.4,53.4,0,0,0-3.47-5.27l.04-.036c-.778-.99-1.637-2.094-2.526-3.113-3.747-4.184-9.254-6.7-13.279-10.679l-.038.035a7.869,7.869,0,0,1-.842-1.074l.026-.038c-.491-.692-.781-1.482-1.256-2.191l.027-.036a34.428,34.428,0,0,1-3.249-5.825,18.9,18.9,0,0,1-.529-2.624l-.094-.329c.048-.913-2.2-1.442-.963-3.193.776-.849,3.778-1.883,4.8-3.469a.856.856,0,0,0,.024-.38.867.867,0,0,0-.143-.353c0-.17-.174-.348-.3-.524-.562-.707-2.106-.15-2.083-1.2.157-.007.007-.141.111-.206a2.461,2.461,0,0,1,.022-1.3,7.086,7.086,0,0,0,.553-2.723c.063-.327.386-.522.713-.649a15.2,15.2,0,0,1,1.822-.334l.078.063a4.815,4.815,0,0,1,4.152,1.133,4.112,4.112,0,0,1-.141,2.781c-.073.505-.622.917-.494,1.449a.835.835,0,0,0,.842.075,24.45,24.45,0,0,0,5.691-5.067,6.81,6.81,0,0,1,5.614-1.578c4.029.313,7.438,1.676,11.19,2.6Z" fill="#f4ca35"/>
      <path id="Path_21064" data-name="Path 21064" d="M888.516,256.4c.561.761-.192,1.434-.421,2.1-2.365,3.581-3.19,7.643-4.759,11.474a.528.528,0,0,1-.519.121,1.227,1.227,0,0,1-.371-1.233,33.187,33.187,0,0,1,3.161-11.777,2.187,2.187,0,0,1,.845-.856,2.156,2.156,0,0,1,1.167-.276,1.684,1.684,0,0,1,.894.441Zm6.232,1.086c.3,1.367-.67,2.488-1.1,3.711-2.3,4.632-5.064,9.164-6.428,14.116a.718.718,0,0,1-.125.254.71.71,0,0,1-.212.185.329.329,0,0,1-.239-.01.334.334,0,0,1-.169-.172,12.245,12.245,0,0,1,.571-5.887,62.354,62.354,0,0,1,5.113-12.274c.257-.2.3-.365.619-.457a2.091,2.091,0,0,1,1.964.535Zm6.655.232c.621.471.3,1.361.056,1.913-2.7,6.023-7.063,11.214-8.87,17.529-.5,1.339-.824,2.722-1.238,4.071-.073.243-.421.25-.677.191a5.136,5.136,0,0,1-.169-1.919,38.057,38.057,0,0,1,4.229-14.423c1.123-2.206,2.2-4.19,3.369-6.345a2.664,2.664,0,0,1,1.691-1.36,3.074,3.074,0,0,1,1.6.341Zm7.386.31c.433.73.016,1.533-.181,2.232-1.715,4.839-4.923,8.844-7.5,13.253a66.877,66.877,0,0,0-5.118,11.576c-.508,1.181-.692,2.493-1.308,3.616-.051.122-.208.048-.316.08-.379-.323-.33-.783-.421-1.191.292-4.922,2.173-9.371,3.941-13.813,2.212-4.954,5.177-9.686,7.192-14.808a2.9,2.9,0,0,1,.664-1.026,2.846,2.846,0,0,1,1.027-.654,2.159,2.159,0,0,1,2.017.736Z" fill="#f4ca35"/>
    </g>
  </g>
</svg>
