<svg xmlns="http://www.w3.org/2000/svg" height="800" width="1200" viewBox="-45.00015 -8.738125 390.0013 52.42875"><path d="M64.6857 34.7056L55.304 22.6687h-3.529v12.0369H41.0165V3.0249H57.025c11.7052 0 19.1942 3.3035 19.1942 9.8666 0 4.4355-4.3042 7.1935-10.1557 8.6413L76.391 34.704H64.6857v.001zM56.5092 8.5453H51.775v8.8267h5.3359c5.5094 0 8.348-1.4955 8.348-4.3912.0011-2.85-2.4931-4.4355-8.9494-4.4355zm46.6604 14.2095v11.9478H92.411V22.8458L76.9172 3.0222h11.879l4.6474 6.4266c1.9806 2.759 3.961 5.8844 4.477 7.3777.6015-1.4934 2.582-4.7535 4.4757-7.3777l4.6474-6.4266h11.7053l-15.5797 19.7323zm40.6767 11.9508l-2.8383-6.6067h-13.511l-2.8395 6.6067h-11.017l15.406-31.6807h10.501l15.4037 31.6807zm-6.7953-15.658c-1.0336-2.4445-2.4094-6.1123-2.8394-7.6935-.432 1.6278-1.6353 5.0223-2.7547 7.6013l-1.6353 3.85h8.8647l-1.6352-3.7576zm47.1705 15.658l-11.1017-14.12c-1.5505-1.9912-3.4444-4.5724-4.5616-6.4258.0855 1.9477.1708 5.2046.1708 7.1946v13.3512h-9.8129V3.0276h10.8454l10.587 13.8957c1.4636 1.8979 3.6159 4.8422 4.7331 6.6077-.0855-1.9477-.3431-5.3866-.3431-7.3799V3.0277h9.8117v31.6779h-10.3284zm45.0623 0l-2.8427-6.6067H212.929l-2.8394 6.6067h-11.017l15.4048-31.6807h10.5022l15.4059 31.6807zm-6.8005-15.658c-1.0326-2.4445-2.4084-6.1123-2.8405-7.6935-.431 1.6278-1.6353 5.0223-2.7547 7.6013l-1.6353 3.85h8.867l-1.6364-3.7576zm22.1228-16.0282h10.7563v31.6807h-10.7563zm43.6919 31.6862l-9.3829-12.0369h-3.528v12.0369h-10.7606V3.0249h16.0095c11.7052 0 19.1923 3.3035 19.1923 9.8666 0 4.4355-4.3012 7.1935-10.1538 8.6413L300.001 34.704h-11.7033v.001zm-8.1776-26.1603h-4.7332v8.8267h5.3348c5.5084 0 8.348-1.4955 8.348-4.3912.0001-2.85-2.4941-4.4355-8.9494-4.4355z" fill="#2b4779"/><g fill="#f4ca35"><path d="M23.406 1.8956c2.2294.7446 4.5882 1.3154 6.9934 1.5887l1.6776.0164.0518-.0466c1.003.0274 1.7444-.413 2.7199-.628.105-.0247.357-.088.4639.055.0488.1865-.0274.3888-.2385.5275-1.1946.914-2.6192 1.594-3.9621 2.0833v-.0274c-.4406.0847-.912.2744-1.3695.4247-1.6543.501-3.5375.8155-5.3167.6873-3.4082-.1748-6.305-1.3927-9.314-1.2487-2.9548-.1726-5.765.9564-7.3377 3.1848-.807 1.1661-1.4489 2.3957-1.649 3.7481.089 1.2243 1.8078 1.6946 2.4518 2.7071.3696.6122.5529 1.2868.8314 1.9223.7138 1.2805 1.4213 2.5599 2.2983 3.765l-.022.0247c.5138.806 1.3324 1.504 2.3005 1.9774 1.255.897 2.3629 2.0219 3.0217 3.2303l-.0343.0192c.7414 1.182 1.1576 2.4074 1.7317 3.64.2573.7563.5411 1.4214.7614 2.1575.0754.0688.0754.1798.1196.2765.203.5825.376 1.2031.6238 1.7433-.107.0814.0836.1124.0603.1916.0137.3272.3327.8177-.0932 1.0369-.6196-.5476-.9448-1.3504-1.2795-1.934-.7318-1.2762-1.5696-2.51-2.472-3.7239l.0275-.0247c-.554-.6958-1.1661-1.4796-1.7995-2.1998-2.67-2.9559-6.594-4.731-9.4622-7.5452l-.0274.0247c-.2445-.2193-.4015-.5094-.5995-.7594l.0192-.0274c-.3495-.4893-.5571-1.0474-.895-1.5484l.0192-.0247c-.8875-1.3218-1.7412-2.725-2.3152-4.1156-.1195-.6154-.3303-1.145-.377-1.8535l-.067-.2319c.037-.645-1.5632-1.0188-.683-2.256.5528-.5962 2.6922-1.3312 3.42-2.4507.0164-.1672.055-.3665-.0892-.5179 0-.1195-.1241-.2456-.2107-.3696-.4047-.5031-1.502-.1058-1.4839-.8484.1124-.0055.0055-.1039.0795-.1463-.0614-.3665-.0869-.609.0165-.9183.2214-.609.4374-1.3101.394-1.9244.0446-.2308.2754-.3686.5083-.4586.4555-.1143.8537-.1757 1.3006-.2352l.0562.0455c1.0327-.0847 2.2729-.011 2.9581.8007.2964.6154.0647 1.3451-.1016 1.9647-.0519.3569-.4428.6482-.3517 1.0242.1357.1387.4205.1302.6016.0531 1.559-.9447 2.92-2.2559 4.0554-3.5797C12.4642.192 14.0052-.1468 15.4224.0566c2.8712.2214 5.2978 1.184 7.9742 1.8375z"/><path d="M16.0052 7.0761c.4046.538-.1368 1.0126-.2977 1.486-1.685 2.5302-2.2729 5.3962-3.3912 8.1066-.0836.0932-.2497.1217-.3697.0847-.2977-.2127-.2977-.5635-.2636-.8707.2245-2.938 1.0008-5.6947 2.2516-8.3214.2923-.4205.7912-.897 1.4341-.7975.2426.0507.4596.1356.6365.3124zm4.4405.7675c.2151.966-.4777 1.7582-.7848 2.6224-1.6395 3.2728-3.6075 6.4754-4.5797 9.9738-.0455.1112-.1105.2617-.2404.3104-.1387.038-.2552-.031-.2912-.1291-.3283-1.3906.0496-2.8375.4067-4.1592.9341-2.937 2.0642-5.9417 3.6444-8.6732.1834-.1398.2119-.2582.4406-.323.5497-.0574 1.1004-.0165 1.4044.378zm4.7419.1644c.4417.3328.2138.9618.0403 1.3516-1.9212 4.2546-5.033 7.9231-6.3208 12.3852-.3558.9458-.5867 1.9234-.8822 2.8765-.0521.1716-.3029.1768-.482.1345-.1707-.4045-.1205-.9182-.1205-1.3556.4056-3.5853 1.2625-7.0686 3.0143-10.1898.7964-1.559 1.5664-2.9614 2.402-4.4832.236-.43.6313-.8198 1.2053-.9606.4226-.0247.8293.074 1.1438.2415zm5.2628.2194c.308.5158.011 1.0835-.1291 1.577-1.2222 3.4189-3.5077 6.2487-5.3434 9.3636-1.5717 2.5589-2.6 5.4004-3.6466 8.1787-.3622.8345-.4925 1.7613-.932 2.5545-.036.0855-.1483.0343-.2253.0562-.27-.2278-.2352-.5528-.2988-.841.2075-3.478 1.5484-6.6206 2.8076-9.7596 1.576-3.5003 3.6889-6.843 5.1252-10.462.2-.4564.5952-1.0156 1.2052-1.1872.6111-.0921 1.074.1283 1.4372.52z"/></g></svg>