<svg xmlns="http://www.w3.org/2000/svg" width="90" height="90" viewBox="0 0 90 90">
  <g id="Group_15662" data-name="Group 15662" transform="translate(2136 -13435)">
    <g id="Group_15660" data-name="Group 15660" transform="translate(-840 -110)">
      <g id="Group_15610" data-name="Group 15610" transform="translate(-105 220)">
        <g id="Group_15599" data-name="Group 15599" transform="translate(-630 -219)">
          <g id="Rectangle_3882" data-name="Rectangle 3882" transform="translate(-561 13544)" fill="#fff" stroke="#e9e9e9" stroke-width="1.9">
            <rect width="90" height="90" rx="15" stroke="none"/>
            <rect x="0.95" y="0.95" width="88.1" height="88.1" rx="14.05" fill="none"/>
          </g>
        </g>
      </g>
      <g id="Group_15661" data-name="Group 15661" transform="translate(-2477.332 12578.019)">
        <path id="Path_21065" data-name="Path 21065" d="M1236.358,1000.851h-6.52a.589.589,0,0,0-.254.041.567.567,0,0,0-.21.146l-17.957,21.892c-.106.125-.083.256.1.256h2.658c.267,0,.293-.07.341-.138l3.824-4.818a.2.2,0,0,1,.061-.058.209.209,0,0,1,.079-.03h6.418s.1-.006.079.089-.936,4.723-.936,4.723a.19.19,0,0,0,.005.093.2.2,0,0,0,.048.081.2.2,0,0,0,.081.049.213.213,0,0,0,.094.009h7.755c.111,0,.151-.036.173-.145l4.368-21.96s.077-.231-.2-.231Zm-10.988,15.014h-5.046a.064.064,0,0,1-.031,0,.048.048,0,0,1-.023-.019c-.021-.03.018-.074.018-.074l6.708-8.456s.052-.066.1-.066.034.072.034.072l-1.682,8.48a.115.115,0,0,1-.021.052A.12.12,0,0,1,1225.37,1015.865Zm-31.3,4.53c-.063.261.081.481.563.874a12.88,12.88,0,0,0,7.882,2.332c7.7,0,10.494-4.894,9.518-9.039-.262-1.109-1.7-6.845-1.913-7.653-.608-2.347.555-4.04,2.835-4.041a7.444,7.444,0,0,1,4.232,1.381c.2.127.347.195.4-.036.032-.133.382-1.917.382-1.917s.1-.346-.355-.582a12.151,12.151,0,0,0-6.186-1.345c-6.907,0-9.846,4.352-8.644,9.076.385,1.511,1.925,7.167,1.931,8.256,0,.42.225,3.307-3.315,3.307a9.154,9.154,0,0,1-6.315-2.969c-.125-.128-.292-.057-.373.221-.04.143-.643,2.137-.643,2.137Zm40.843.114c-.065.262.08.484.563.875.909.735,3.39,2.212,7.669,2.209,7.7,0,10.494-4.892,9.516-9.039-.26-1.108-1.7-6.844-1.912-7.652-.605-2.348.555-4.04,2.834-4.042a7.441,7.441,0,0,1,4.232,1.383c.2.125.349.192.4-.036.03-.133.381-1.917.381-1.917s.1-.345-.355-.581a12.109,12.109,0,0,0-6.184-1.347c-6.907,0-9.847,4.352-8.644,9.075.385,1.512,1.925,7.167,1.931,8.259,0,.417.226,3.3-3.315,3.3a8.93,8.93,0,0,1-6.226-2.884.26.26,0,0,0-.126-.085.266.266,0,0,0-.152,0,.281.281,0,0,0-.127.084.254.254,0,0,0-.055.139c-.021.145-.431,2.257-.431,2.257Z" transform="translate(0 0)" fill="#2b3087" fill-rule="evenodd"/>
      </g>
    </g>
  </g>
</svg>
