<svg xmlns="http://www.w3.org/2000/svg" width="90" height="90" viewBox="0 0 90 90">
  <g id="Group_15578" data-name="Group 15578" transform="translate(561 -13544)">
    <g id="Rectangle_3882" data-name="Rectangle 3882" transform="translate(-561 13544)" fill="#fff" stroke="#e9e9e9" stroke-width="1.9">
      <rect width="90" height="90" rx="15" stroke="none"/>
      <rect x="0.95" y="0.95" width="88.1" height="88.1" rx="14.05" fill="none"/>
    </g>
    <g id="Group_15579" data-name="Group 15579" transform="translate(-1188.843 13197.498)">
      <path id="Path_21066" data-name="Path 21066" d="M686.634,370.8c-1.15.611-3.518.9-4.491-.127-1.057,1.661.979,3.231,3.326,2.351a21.276,21.276,0,0,1,4.322-1.368c1.576-.224,3.465,0,4.143.692-5.858.357-13.362,3.584-18.954,7.559a42.314,42.314,0,0,0-10.322,10.28c-.439.621-.373,1.09.413.676a64.885,64.885,0,0,1,13.036-4.673c3.405-.853,7.043-1.655,10.507-.7a5.7,5.7,0,0,1,2.41,1.209,5.757,5.757,0,0,1,1.593,2.189c.817,2.274.191,4.967-2.509,5.387a2.627,2.627,0,0,1-2.719-1.026c-.238-.34-.357-.352-.543-.293l-3.467,1.069a.506.506,0,0,0-.179.105.517.517,0,0,0-.169.373.5.5,0,0,0,.038.205,6.343,6.343,0,0,0,1.884,2.471,7.827,7.827,0,0,0,7.607.849c3.468-1.363,5.3-5.02,4.787-8.9a9.574,9.574,0,0,0-2.11-4.716,9.464,9.464,0,0,0-4.24-2.913c-3.33-1.152-7.89-.641-11.548.707-.966.359-1.192.506-.637.038,2.6-2.131,7.8-4.6,12.163-5.858,2.987-.859,5.747-1.062,6.553-.4.814-5.031-3.328-8.313-8.394-7.008,1.781-1.14.375-3.622-2.183-3.613-4.225.024-8.254,1.963-12.22,2.4a12.4,12.4,0,0,1-6.6-1.121c-.343,3.523,3.908,6.111,7.957,5.258,2.84-.6,5.476-1.992,8.113-2.58,2.329-.53,3.526.9,2.427,1.477Zm-22.291,40.986c-2.266,3.418-3.5,3.266-5.539,3.04-.467-.052-.461.027-.67.367l-.538.874c-.235.378-.219.427.322.659,3.871,1.635,7.393,1.348,10.249-2.99l13.1-19.9c1.317-1.979,1.892-3.045,3.719-3.131a2.066,2.066,0,0,1,1.383.413,2.092,2.092,0,0,1,.78,1.223c.1.458.371.485.639.412l3.41-1.03c.189-.053.326-.333.337-.658a4.412,4.412,0,0,0-.4-1.777,4.351,4.351,0,0,0-1.082-1.459c-2.6-2.042-6.553-1.338-9.486-.769a63.938,63.938,0,0,0-15.45,5.286,8.686,8.686,0,0,0-3.543,2.534c-1.371,2.063-5.2,8.034-6.675,10.049-2.477,3.355-3.506,3.244-5.585,3.026-.311-.035-.348.007-.505.268l-.618,1.01c-.208.346-.19.4.1.529,3.94,1.733,7.376,1.72,10.345-2.77l6.216-9.414a7.15,7.15,0,0,1,3.6-2.628l-8.835,13.377c-2.258,3.421-3.446,3.261-5.476,3.045-.464-.053-.47.029-.667.354l-.553.894c-.171.279-.269.385.224.6,4.214,1.785,7.544,1.267,10.3-2.934l10.882-16.605a5.4,5.4,0,0,1,3.239-1.852l-13.215,19.962Z" fill="#cc0327" fill-rule="evenodd"/>
    </g>
  </g>
</svg>
