<svg xmlns="http://www.w3.org/2000/svg" height="800" width="1200" viewBox="-44.81241 -22.6953 388.37422 136.1718"><path d="M279.4845 9.4346c-2.013 1.0606-6.1606 1.562-7.8648-.219-1.8496 2.8837 1.7149 5.609 5.8252 4.0815 2.4062-.8786 4.9284-2.0104 7.5694-2.3745 2.7597-.3904 6.0681 0 7.2554 1.1978-10.2577.62-23.4017 6.2237-33.1925 13.1256-7.609 5.3715-12.3499 10.2154-18.0723 17.8507-.7704 1.079-.6543 1.8916.723 1.174 6.7143-3.4219 15.3678-6.2501 22.829-8.1154 5.9626-1.48 12.3341-2.8731 18.4022-1.2215 3.0657.8442 5.9097 2.8362 7.0099 5.9018 1.43 3.9496.3352 8.6247-4.3926 9.3555-2.3482.3535-3.8942-.5488-4.7623-1.7809-.4168-.591-.6253-.612-.9523-.5092l-6.0708 1.8547c-.343.1082-.794.583-.5435 1.1873.5593 1.401 1.8626 3.224 3.2953 4.2898 3.8624 2.8784 8.92 3.195 13.3208 1.4749 6.0734-2.3666 9.2866-8.717 8.3844-15.4526-.8337-6.1656-5.324-11.2681-11.1205-13.2468-5.8305-1.9999-13.8168-1.1134-20.2225 1.2267-1.691.6227-2.087.8786-1.116.066 4.5485-3.6963 13.6612-7.9835 21.3042-10.1706 5.2318-1.4933 10.0651-1.8442 11.4767-.6886 1.4246-8.7354-5.828-14.4341-14.6954-12.1679 3.1185-1.9787.657-6.2896-3.8227-6.2739-7.398.0423-14.4553 3.4088-21.3968 4.166-3.8967.4326-8.4899-.3562-11.5636-1.9471-.599 6.1182 6.8437 10.6112 13.9355 9.1311C266 10.3132 270.617 7.8912 275.234 6.8702c4.079-.9208 6.1764 1.5593 4.2505 2.5644M240.464 80.6053c-3.9682 5.9362-6.1262 5.6724-9.6959 5.2793-.8179-.0897-.8072.0475-1.1738.6385l-.9421 1.517c-.4115.657-.3825.7413.5647 1.145 6.7777 2.8388 12.9461 2.3402 17.9483-5.1922l22.9426-34.5564c2.2849-3.4377 3.2874-5.2872 6.4956-5.435 1.9865-.0949 3.4008 1.211 3.7885 2.8415.1794.7942.6491.8417 1.1186.715l5.9705-1.7887c.3324-.0924.5724-.5779.591-1.1424.0818-1.7809-.9789-4.3585-2.5908-5.6196-4.559-3.5459-11.4767-2.3217-16.6133-1.335-8.2475 1.5988-18.3627 4.8703-27.0558 9.1786-2.2663 1.1398-4.8096 2.3033-6.2053 4.3954-2.4009 3.5829-9.11 13.9514-11.6903 17.4498-4.3374 5.8253-6.1392 5.6327-9.7801 5.2554-.5435-.0607-.6095.0106-.8839.4644l-1.0816 1.7545c-.3642.5962-.3326.699.1766.918 6.8993 3.0104 12.9171 2.9866 18.1146-4.8095l10.8856-16.347c1.612-2.4272 4.2793-3.873 6.2976-4.5642l-15.471 23.2355c-3.9546 5.9388-6.0363 5.6618-9.5902 5.2871-.8125-.0923-.8232.0501-1.1687.6148l-.9682 1.5513c-.3034.4854-.4696.67.393 1.0342 7.3795 3.0974 13.21 2.203 18.038-5.0946l19.0564-28.834c1-1.5249 3.3956-2.7332 5.6724-3.216l-23.143 34.6593z" fill-rule="evenodd" fill="#cc0327"/><path d="M72.2314 71.3586l.7703-4.5933h-4.0075l-2.881 15.7217h4.0181l1.4378-7.7276c.1689-.9155 1.7757-1.7017 2.4854-1.6727 1.1186.058 1.1318.6147.9471 1.6331l-1.43 7.7777h3.8968l1.5646-8.6826c.1582-.8574.232-1.6991-.124-2.4405-1.1688-2.4483-4.5247-2.2373-6.6776-.0158m18.276-.769c-1.8521-1.4379-4.9178-1.3192-7.2027.2453 0 0-2.5142 1.5144-3.0391 5.6856-.2744 2.1924.0632 4.4006 2.0102 5.4639 1.7255.9445 4.2978.9234 6.3795.1846.467-.1582.8443-.2875 1.3059-.5857l.5014-2.6198s-2.823 1.1266-4.8783.5646c-1.1107-.314-1.8177-1.2716-1.728-2.4694l7.7354.0105c.517-2.3032.7598-5.0418-1.0843-6.4796m-6.0391 3.7569c.1345-.7783.9472-1.459 1.327-1.633.3589-.1584 1.1847-.3536 1.8628-.0239.451.2217.802.9551.7175 1.6569h-3.9073zm108.2689-2.0436c.8126-.1741 1.8679-.0686 2.7255.2084.947.3219 1.5724.8918 1.5724.8918l.5618-3.1977s-1.5724-.7545-4.2423-.6701c-3.0921.0976-4.5696 1.7413-4.9839 2.4378-.641 1.0526-.8046 2.3402-.4537 3.3454.512 1.459 1.8865 1.9207 3.3453 2.2636.7943.1874 3.071.2823 2.5118 1.5698-.2402.5593-.992.723-1.9762.7466-1.7226.029-3.4402-.3298-4.6855-1.3455l-.5304 2.9549s.6385.5092 1.6225.8258c.9737.3087 2.9391.4907 4.0842.2955 1.1345-.2032 2.546-.5488 3.728-1.6833.6622-.62 1.4483-2.042 1.3693-3.3796-.0608-1.1398-.7282-1.9972-1.7097-2.4748-1.24-.6015-2.773-.5514-3.8624-1.2927-.5963-.401-.5357-1.1899.9233-1.496M66.591 69.8785l-10.5532-.0237-.5805 3.1607 4.53.0132-6.704 9.4688 11.0176-.058.5408-2.926-5.0602.0318 6.8095-9.6668zm110.7799.9556s-2.5118 1.517-3.0368 5.6882c-.2744 2.1898.058 4.398 2.0106 5.4613 1.7332.9445 4.2922.9234 6.3739.1847.4724-.1557.855-.2876 1.3113-.5857l.5012-2.6198s-2.8123 1.1265-4.8781.5645c-1.1002-.3113-1.8073-1.2717-1.7148-2.4667l7.7275.0079c.517-2.3006.7624-5.0418-1.0792-6.4797-1.8598-1.4378-4.9257-1.3165-7.2156.2454m1.1555 3.5142c.1504-.781.963-1.4616 1.3456-1.6357.3587-.1583 1.1715-.351 1.8494-.0238.467.2242.8153.9577.7255 1.6595h-3.9205zm-132.286-2.9898l.2005-1.5275H42.444L40.1144 82.487h4.0207l1.4405-7.7276c.1767-.9155 1.7755-1.7017 2.48-1.6727 1.1213.058 1.1345.6147.9472 1.6331l-1.4354 7.7777h3.91l1.5566-8.6826c.153-.8574.2402-1.6991-.116-2.4405-1.1714-2.4483-4.5327-2.2373-6.6776-.0158m-26.1866 0l.7703-4.5933h-4.005L13.9303 82.487h4.026l1.4352-7.7276c.1769-.9155 1.7783-1.7017 2.4854-1.6727 1.116.058 1.137.6147.947 1.6331l-1.4299 7.7777h3.8967l1.5672-8.6826c.1478-.8574.2269-1.6991-.1213-2.4405-1.1661-2.4483-4.5274-2.2373-6.6828-.0158M7.5878 69.711c.992-.2137 2.2426-.0554 3.2979.3034 1.1502.4037 1.9576 1.1187 1.9576 1.1187l.6569-3.7253s-1.939-.9366-5.2001-.8284c-3.7964.116-5.5879 2.1396-6.0997 2.9839-.7916 1.2875-1.0236 2.7306-.5014 3.9126.6175 1.4115 2.3297 2.137 4.1132 2.559.971.2429 3.8229.5727 3.1871 2.1688-.277.6939-1.2717 1.1318-2.4854 1.153-2.0658.0448-4.3794-.3668-5.8649-1.5725L0 81.2456c2.4484 1.8416 7.5139 2.0104 10.527.2612 1.8229-1.05 2.7621-2.8625 2.6645-4.7304-.095-1.8178-1.4141-2.8177-2.9787-3.3797-1.327-.4801-2.9495-.7282-4.018-1.5302-.6808-.5066-.5911-1.7598 1.393-2.1555m23.5343 1.1231s-2.5116 1.517-3.0366 5.6882c-.2744 2.1898.058 4.398 2.0157 5.4613 1.7228.9445 4.2898.9234 6.3688.1847.467-.1557.8469-.2876 1.3138-.5857l.504-2.6198s-2.823 1.1265-4.8887.5645c-1.1002-.3113-1.8073-1.2717-1.7229-2.4667l7.7354.0079c.5224-2.3006.7547-5.0418-1.0816-6.4797-1.86-1.4378-4.923-1.3165-7.2079.2454m1.161 3.5142c.1529-.781.955-1.4616 1.3296-1.6357.3642-.1583 1.1793-.351 1.8626-.0238.4591.2242.81.9577.7256 1.6595H32.283zm66.1294-2.9898l.2031-1.5275h-4.0022L92.2916 82.487h4.0182l1.4458-7.7276c.1715-.9155 1.7729-1.7017 2.4853-1.6727 1.1107.058 1.1371.6147.9418 1.6331l-1.4326 7.7777h3.8994l1.5592-8.6826c.1636-.8574.2401-1.6991-.1108-2.4405-1.174-2.4483-4.5325-2.2373-6.6854-.0158m51.7467-4.5383l-2.8784 15.6767h3.7913l2.8783-15.6767h-3.7912zm-4.3784 2.921c-1.1767.3008-1.963 1.0527-2.6225 2.1265l-.0791.0079.3904-2.0078h-3.625l-2.3086 12.6507 3.7095-.0211 1.3429-7.2633c.9999-1.401 2.8256-2.9126 4.4983-2.2372l.5647-3.1c-.2771-.227-1.3299-.2981-1.8707-.1557m-11.8396-2.934l-.5593 3.063h3.7885l.5646-3.063zm-2.8834 15.6897h3.7887l2.1-11.4h-3.7992zm34.9436-11.1384l.2059-1.5275h-4.0024l-2.3242 12.6559h4.0207l1.4485-7.7276c.1688-.9155 1.7728-1.7017 2.4774-1.6727 1.116.058 1.1344.6147.9472 1.6331l-1.4302 7.7777h3.8942l1.5698-8.6826c.1505-.8574.2269-1.6991-.1292-2.4405-1.161-2.4483-4.522-2.2373-6.6777-.0158m-9.532-4.5513l-.5566 3.063h3.7884l.5595-3.063h-3.7913zm-2.8794 15.6897h3.786l2.1027-11.4h-3.7965zm-32.9613-15.72l-8.0416 15.719h4.4033l1.4828-2.9682h5.696l.3958 2.9681h4.216l-2.174-15.719h-5.9784zm-.678 9.6377l3.2423-6.6828.6439 6.6828zm-94.6947-48.546h2.786l-.686 3.501c-.8916 3.5723-5.0495 4.9494-8.8012 5.8834l1.5618 2.7175c5.8782-1.3904 11.0149-3.05 12.0254-8.5534l.6781-3.5485h3.0288l-1.2929 6.8437c-.4273 2.174.9524 3.7913 3.5249 3.7913h3.1816c3.3376 0 5.0392-1.7756 6.4744-4.042l-4.2264-1.802-.839 1.6042c-.3535.678-.6754 1.145-1.5303 1.145h-.546c-.7415 0-1.0738-.3904-.9762-.992l1.2795-6.5482h2.6938l-.665 3.4957h5.1026l1.2056-6.2844.0317-.1556H20.8105l-.0317.1556-1.1794 6.2844 4.9705-.0132.686-3.4825zM85.888 52.812l5.15-27.4384h-5.237L80.643 52.812zm-31.3513-2.5785l1.3851 3.9284 13.6006-4.6987.5883-3.232-2.9812.7546 1.852-9.9226h3.8677l.5672-3.0288h-3.8676l1.6594-8.9544.0765-.4406h-5.245l-.0816.4406-1.6385 8.9544H59.101l-.578 3.0815h5.2082l-2.1028 11.2497-7.0917 1.868zm121.5291-14.5352l.9868-4.4244h-5.815l-.7572 3.3375c-.715 3.1475-5.9203 4.464-11.2999 4.8201l1.1504 2.6647c5.237-.1952 14.3682-.3878 15.7349-6.3979m20.3446 17.7682H178.9l1.2586-6.696h12.7245l.6253-3.5459h-31.3219l-.6227 3.5459h12.4397l-1.2374 6.696h-16.1754l-.649 3.5195h39.8013l.6674-3.5195zM150.9587 28.132h-8.477l.9737-3.0525.459-1.4405-5.4323-.723-.2374 2.1635-.335 3.0525h-7.7198l-.5566 3.0023h20.7554zM93.4075 57.5648l5.9571-32.4853.2429-1.314h-5.237l-.2402 1.314-5.973 32.4853h5.2502z"/><path d="M46.957 41.4879H34.3196l.5885-3.013h-5.092l-.5672 3.013h-11.92l-.5672 2.9654h10.11c-3.343 3.522-7.6644 6.7224-12.941 9.3131l1.6438 2.9418c4.799-2.2083 9.4688-5.3136 12.5583-8.4452l-1.8046 9.2129h5.084l1.6804-9.3897c2.3164 3.0473 6.4797 6.5773 10.3053 8.7803l2.5381-2.7624c-3.9733-2.1396-8.6193-6.3503-10.4187-9.6508H46.403zm90.1345-5.4057h3.4746l-3.2767 17.5658c-.1742 1.8626.8996 3.2345 3.179 3.3823h3.8626c2.1053-.1741 3.311-1.2189 3.9496-2.8916l1.2003-4.063-4.0522-1.4458-.8445 4.6487c-.2084 1.124-2.3717 1.124-2.1686-.0184l3.807-20.3229H132.464l-2.8387 15.099c-.7441 3.9627-1.6622 5.9336-5.0762 7.8385l2.3824 1.8494c4.9495-1.678 7.2553-6.2158 8.0759-10.54l2.0842-11.102zm55.1226.8388c-.4351.934-1.2663 1.6357-2.2873 1.6357h-2.021c-1.1583 0-1.6464-.744-1.4616-1.6358l1.1424-5.5984h-5.5589l-1.2558 6.229c-.4511 2.2478.6172 4.005 3.493 4.005h6.5773c3.6699 0 5.4613-2.0711 6.8622-4.8202l-4.4137-2.1239-1.0766 2.3085z"/><path d="M183.1094 26.4843l.4142-1.4061.6834-2.385-5.873-.752-.2135 3.137-.0925 1.4061h-15.9431l-1.4353 7.5139h5.427l.8733-4.6275h26.9053l-.6833 4.0392h5.4033l1.3165-6.9256h-16.7823zM115.1385 43.188l1.5644-.1795-1.3665 7.2791 3.5353.0449 1.4457-7.7435 1.5699-.1635-1.9208 10.3157c-.4458 2.3085-4.8597.9366-6.6378.752l.5987 3.6355h4.7147c3.6672 0 5.3742-1.9286 5.8888-4.559l2.0102-10.751 2.7017-.2929.5277-2.8705-2.6726.1636 2.116-11.2892h-8.0073l1.7571-2.451.9154-1.285-5.2474-1.4298-1.1214 2.7148-1.0184 2.451h-3.1317l-2.319 12.3973-3.5907.256-.752 4.0313 3.6251-.4275-.7361 3.9047c-.6174 3.2979-2.7913 6.3873-5.609 8.221l2.6436 1.6515c4.208-2.6567 7.0522-6.6458 8.1787-12.5979l.3377-1.7782zm2.3506-12.5953h6.6143l-1.5935 8.5639-1.5751.1161 1.401-7.3872-3.538-.0079-1.4405 7.6088-1.546.0977 1.6778-8.9914zm-98.5846-3.2601c-1.794-.9208-3.385-1.641-5.158-2.2531-.8732-.2981-1.7808-.5725-2.778-.8364l-.4169.8364-.91 1.8573c2.6434 1.2506 4.1314 2.5249 6.1048 4.406l3.1581-4.0102zm58.3543-1.9579l-3.435 18.2465c-1.1266 6.0206-3.3876 8.519-9.3159 12.3499l3.683 1.4352c7.2766-5.0207 9.9228-8.1049 11.4767-16.3733l2.9629-15.6583h-5.3717zm-60.5323 11.708c-2.6647-1.3693-5.6222-2.575-8.6563-3.3718l-1.2267 2.6885c2.6437 1.2558 4.749 2.7966 6.725 4.6961l3.158-4.0128zm-1.5873 7.9879l-2.707-1.9154-8.6166 10.7986 4.0498 3.013 7.2738-11.8962z"/></svg>