<svg xmlns="http://www.w3.org/2000/svg" height="800" width="1200" viewBox="-52.5 -32.09525 455 192.5715"><path d="M0 120.88h242.299l-4.808 7.5H0v-7.5" fill="#fcb130" fill-rule="evenodd"/><g fill="#fcb130" fill-rule="evenodd"><path d="M286.432 117.482h-8.91l17.985-28.386s2.693-5.885-.83-12.1l-25.071-41.522s-2.195-3.855 0-7.543l7.418-11.107 29.422 48.071s7.584 10.07-.663 22.543l-19.351 30.044"/><path d="M307.938 108.78l10.941-16.659s3.19-6.88 11.437-6.88h11.603L350 98.006s-6.383-.663-9.242 3.896l-11.933 17.984s-3.896 8.413-14.297 8.413h-56.192l21.383-32.821s3.023-3.853-1.203-10.235L259.495 54.66s-4.682-4.516.165-12.265l5.555-8.414 26.438 42.848s4.682 5.885 0 12.93l-19.85 30.955h41.854s4.724.87 8.785-5.18l10.401-15.995s2.362-5.388 7.584-7.584h-8.412s-4.393.166-7.749 5.387l-9.24 14.297s-3.358 6.05-10.776 6.05h-14.628l17.653-27.392s9.615-12.638 2.86-24.242l-29.257-48.4s-2.195-4.187.332-8.082L287.59 0l33.318 53.665s4.891 8.04 4.891 14.255c0 6.216-3.895 13.261-6.052 16.825l-14.669 22.875s-1.657 2.196-.496 3.025c1.201.828 2.362-.664 3.356-1.866"/></g><g fill="#1d4886"><path d="M121.999 85.49h5.18v20.513h12.639v4.393h-17.82V85.49m21.798 24.906h5.138V85.49h-5.138zm-63.071 0h5.097V85.49h-5.097zM185.69 85.49h19.52v4.103h-14.34v6.092h12.184v4.517H190.87v6.05h14.34v4.144h-19.52V85.49m27.475-33.482h19.519v4.102h-14.337v6.05h12.224v4.517h-12.224v6.05h14.337v4.102h-19.519V52.008M93.737 110.396V85.49h14.794s7.127.124 7.127 7.252c0 0 .663 5.926-5.386 8.329l7.5 9.324h-6.382l-10.36-12.93h5.388s3.854-.082 3.854-3.977c0-3.689-3.108-3.979-4.061-3.979h-7.294v20.886h-5.18m91.042-33.565V52.007h14.794s7.128.123 7.128 7.253c0 0 .621 5.882-5.387 8.286l7.5 9.282h-6.381l-10.36-12.845h5.387s3.854-.083 3.854-3.979c0-3.73-3.107-3.979-4.06-3.979h-7.294V76.83h-5.181M81.098 72.52H88.1V61.125h4.973v15.704H80.02c-1.948 0-11.354-2.196-11.437-12.1-.083-9.82 8.495-12.721 11.81-12.721h12.805V56.4H81.637s-7.75 0-7.75 8.163c0 6.34 6.423 7.956 7.21 7.956m74.592 12.971h5.222v3.855l3.274-3.854h6.174s8.453-.456 8.453 8.578v16.327h-5.262V93.28s-.166-3.398-3.73-3.398h-8.909v20.513h-5.222V85.49M40.736 52.008h5.18v3.811l3.273-3.811h6.175s8.495-.456 8.495 8.577v16.244h-5.264V59.8s-.206-3.398-3.77-3.398h-8.91V76.83h-5.179V52.008M28.47 76.83h5.097V52.006H28.47zm182.417 33.525v-4.227h14.42s2.86.538 2.86-2.943c0-3.48-2.155-3.107-2.941-3.107h-8.33s-6.423.455-6.423-7.086c0-7.501 6.34-7.501 6.34-7.501h15.829v4.392h-13.883s-3.025 0-3.025 2.86 2.031 3.397 3.937 3.397h7.419s6.257-.663 6.257 6.796c0 7.46-6.423 7.419-6.423 7.419h-16.037M.54 76.83v-4.227h14.42s2.86.539 2.86-2.942c0-3.481-2.156-3.108-2.943-3.108h-8.33s-6.423.455-6.423-7.045c0-7.542 6.341-7.5 6.341-7.5h15.83V56.4H8.412s-3.025 0-3.025 2.86c0 2.857 2.073 3.397 3.937 3.397h7.418s6.257-.663 6.257 6.754c0 7.458-6.423 7.417-6.423 7.417H.539" fill-rule="evenodd"/><path d="M167.065 50.474c-7.468 0-13.571 6.087-13.571 13.584 0 7.526 6.103 13.56 13.57 13.56a13.512 13.512 0 0013.572-13.56 13.539 13.539 0 00-13.571-13.584m0 22.147c-4.686 0-8.474-3.82-8.474-8.563 0-4.679 3.793-8.573 8.474-8.573 4.72 0 8.587 3.894 8.587 8.573 0 4.743-3.867 8.563-8.587 8.563m-53.38-20.615h-5.48L96.389 76.83h5.825l3.143-7.138h11.256l3.104 7.138h5.805M106.8 66.036l4.15-10.163 4.102 10.138zM65.16 85.492h-5.48l-11.816 24.904h5.824l3.143-7.161h11.255l3.104 7.161h5.805m-18.72-10.829l4.15-10.196 4.102 10.172zm84.268-47.561h-13.79V76.83h5.29V64.775l3.057 4.206h5.443c4.77 0 7.966-3.965 7.966-8.487 0-4.507-3.196-8.488-7.966-8.488m-.187 12.375h-8.318v-7.808h8.318c1.867 0 3.143 2.064 3.143 3.93.005 1.922-1.27 3.878-3.143 3.878"/></g></svg>