<svg xmlns="http://www.w3.org/2000/svg" width="90" height="90" viewBox="0 0 90 90">
  <g id="Group_15650" data-name="Group 15650" transform="translate(1296 -13545)">
    <g id="Group_15639" data-name="Group 15639">
      <g id="Group_15610" data-name="Group 15610" transform="translate(-105 220)">
        <g id="Group_15599" data-name="Group 15599" transform="translate(-630 -219)">
          <g id="Rectangle_3882" data-name="Rectangle 3882" transform="translate(-561 13544)" fill="#fff" stroke="#e9e9e9" stroke-width="1.9">
            <rect width="90" height="90" rx="15" stroke="none"/>
            <rect x="0.95" y="0.95" width="88.1" height="88.1" rx="14.05" fill="none"/>
          </g>
        </g>
      </g>
      <g id="Group_15651" data-name="Group 15651" transform="translate(-1816.055 12569.995)">
        <g id="Group_15652" data-name="Group 15652" transform="translate(-3 1)">
          <path id="Path_21067" data-name="Path 21067" d="M552.553,1026.3h-3.761l7.592-12.083a6.063,6.063,0,0,0-.351-5.151L545.45,991.392a3.427,3.427,0,0,1,0-3.211l3.131-4.729L561,1003.919a8.461,8.461,0,0,1-.281,9.6l-8.168,12.79" transform="translate(9 13)" fill="#fcb130" fill-rule="evenodd"/>
          <path id="Path_21068" data-name="Path 21068" d="M560.4,1020.754l4.627-7.1a5.447,5.447,0,0,1,2.01-2.151,5.393,5.393,0,0,1,2.826-.784h4.906l3.418,5.444s-2.7-.283-3.908,1.664l-5.047,7.67a6.746,6.746,0,0,1-2.522,2.654,6.669,6.669,0,0,1-3.525.934H539.424l9.042-14s1.279-1.643-.507-4.365l-8.045-13.045s-1.98-1.926.07-5.231l2.349-3.588,11.18,18.273a4.773,4.773,0,0,1,0,5.514l-8.395,13.2h17.7s2,.371,3.715-2.209l4.4-6.823a6.815,6.815,0,0,1,3.207-3.235H570.58a4.471,4.471,0,0,0-3.276,2.3l-3.908,6.1a5.422,5.422,0,0,1-1.948,1.882,5.357,5.357,0,0,1-2.609.7h-6.184l7.465-11.679s4.066-5.39,1.209-10.339l-12.372-20.641a3.661,3.661,0,0,1,.141-3.447l2.7-4.084,14.09,22.886s2.068,3.429,2.068,6.079-1.647,5.656-2.559,7.176l-6.2,9.756s-.7.938-.212,1.291c.508.353,1-.283,1.419-.8" transform="translate(10.446 14.607)" fill="#fcb130" fill-rule="evenodd"/>
        </g>
      </g>
    </g>
  </g>
</svg>
