<svg xmlns="http://www.w3.org/2000/svg" height="800" width="1200" viewBox="-31.995 -7.825 277.29 46.95"><path d="M58.6 25c-.9.2-2 .3-3.1.3-3.2 0-3.9-1.1-3.9-3.2V10h-6v12.8c0 5.7 3.2 8.3 9.6 8.3 3.1 0 6-.6 9.5-1.4V10h-6.1zm19.5.6c-2.2 0-2.5-1-2.5-2.7v-7.8h5V10h-5V4h-6v6h-3v5h3v8.2c0 3.6.7 7.8 6.7 7.8 1.8 0 3.3-.4 5-.9l-.6-5c-.9.3-1.7.5-2.6.5zM15 14.3c-1.1-.4-2.4-.8-3.7-1.2-3.5-1-4.6-1.5-4.6-3.1 0-1.8 1.3-2.7 4.5-2.7 2.6 0 4.9.7 7.2 1.5L19.7 3c-2.7-1-5.2-1.9-8.3-1.9C4.2 1.1.2 5.2.2 10.1c0 3.7 1.6 6.1 5.2 7.6 1 .4 2.3.8 3.6 1.2 3.9 1.2 5.1 1.8 5.1 3.3 0 1.8-1.5 2.8-4.6 2.8-2.8 0-5.4-.8-8.1-2L0 29c3 1.2 5.9 2 9.5 2 7.4 0 11.2-4.1 11.2-9.1 0-4-2.3-6.3-5.7-7.6zM93.8 9c-2 0-3.9.5-5.2.9V0h-6v31h6V15.5c1.1-.4 2.3-.8 3.8-.8 2.3 0 3.2.9 3.2 3.1V31h6V17.1c0-5.5-2.5-8.1-7.8-8.1zM33 8.9c-6.1 0-11 4.3-11 11s4.9 11.2 11 11.2 11-4.4 11-11.2c0-6.8-4.9-11-11-11zm0 16.2c-2.6 0-4.7-1.9-4.7-5.3s2-5.2 4.7-5.2 4.7 1.8 4.7 5.2c0 3.5-2.1 5.3-4.7 5.3zm134.7-6.9c-.9-.3-1.8-.6-2.9-.9-2.1-.6-2.9-.9-2.9-1.8s.8-1.5 2.7-1.5c2 0 3.8.4 5.8 1l1-5.2c-2.2-.5-4.3-.9-6.7-.9-5.7 0-8.8 2.9-8.8 6.9 0 2.8 1.4 4.6 4.2 5.8.8.3 1.7.7 2.8 1 2.2.6 3.3.9 3.3 1.9 0 1-1.3 1.4-3.1 1.4-2.2 0-4.2-.4-6.3-1.2l-.9 5.2c2.6.7 5 1.2 7.7 1.2 6 0 8.7-3.1 8.7-7-.1-2.7-1.2-4.7-4.6-5.9zm-22.5-9.3c-6.3 0-10.8 4.4-10.8 11.4 0 6.5 3.9 10.8 10.9 10.8 3.1 0 5.6-.9 8.2-2l-.9-5c-2 .9-4 1.6-6.4 1.6-3.6 0-5.1-1.5-5.3-3.7h13.5s.2-2.4.2-2.9c0-5.7-3.1-10.2-9.4-10.2zM141 18c.4-1.8 1.3-4.1 3.9-4.1 2.6 0 3.4 2.6 3.4 4.1zm43.1 7.6c-2.2 0-2.5-1-2.5-2.7v-7.8h5V10h-5V4h-6v6h-3.1v5.1h3.1v8.2c0 3.6.9 7.8 6.9 7.8 1.8 0 3.3-.4 5-.9l-.7-5c-1 .2-1.8.4-2.7.4zm4-24.4c-1.5 0-2.6 1.2-2.7 2.7-.1 1.5 1.2 2.7 2.6 2.7 1.5 0 2.7-1.2 2.7-2.7 0-1.5-1.1-2.7-2.6-2.7zm0 4.9c-1.2 0-2.1-.9-2.1-2.2 0-1.3.9-2.2 2.2-2.2 1.2 0 2.2.9 2.1 2.2-.1 1.3-1 2.2-2.2 2.2zm.3-2.1c.5-.1.8-.3.8-.8s-.4-.9-1-.9h-1v3.1h.6V4.1c.2 0 .3.1.4.3l.7 1h.7l-.6-1c-.4-.2-.5-.3-.6-.4zm-.4-.3h-.3v-.9h.4c.4 0 .5.2.5.4 0 .4-.3.5-.6.5zM128.8 10L125 21.5 121.2 10H116l-3.9 11.5-3.8-11.5h-6.5l7.5 21h5.5l3.8-11.4 3.8 11.4h5.5l7.5-21h-6.6z" fill="#304cb2"/><g transform="translate(-.4 -2)"><path d="M207 10.8c-2 0-3.7.7-5 1.4-1.3-.7-2.9-1.4-5-1.4-4.1 0-6.7 2.6-6.7 7.2 0 5.5 5.3 10.9 11.7 15.3 6.4-4.3 11.7-9.7 11.7-15.3 0-4.6-2.7-7.2-6.7-7.2z" fill="#ccc"/><linearGradient gradientTransform="translate(0 -757)" y2="781.4805" x2="206.401" y1="781.4805" x1="190.944" gradientUnits="userSpaceOnUse" id="a"><stop offset="0" stop-color="#3656cc"/><stop offset=".35" stop-color="#304cb2"/><stop offset=".72" stop-color="#283b80"/></linearGradient><path d="M190.9 18.1c0 5.6 6 10.9 11 14.4 1.5-1 3-2.2 4.4-3.4-6.7-5.6-13.1-10.7-15.3-12.5 0 .4-.1.9-.1 1.5z" fill="url(#a)"/><linearGradient gradientTransform="translate(0 -757)" y2="781.4969" x2="210.601" y1="769.2701" x1="193.1394" gradientUnits="userSpaceOnUse" id="b"><stop offset=".3" stop-color="#e61c23"/><stop offset=".8" stop-color="#c3161c"/></linearGradient><path d="M212.6 20.7c-4.9-4-7.8-6.1-11-8-.9-.5-2.6-1.3-4.5-1.3-1.8 0-3.4.6-4.5 1.7-.7.7-1.2 1.6-1.4 2.7 2.5 1.8 9.4 6.7 16.3 12.2 2.3-2.2 4.2-4.7 5.1-7.3z" fill="url(#b)"/><linearGradient gradientTransform="translate(0 -757)" y2="774.6802" x2="213.9482" y1="767.6895" x1="203.9645" gradientUnits="userSpaceOnUse" id="c"><stop offset="0" stop-color="#fdbc11"/><stop offset=".25" stop-color="#fcb415"/><stop offset=".8" stop-color="#f89e1c"/></linearGradient><path d="M211.3 13.1c-1.1-1.1-2.6-1.7-4.4-1.7-1.9 0-3.3.6-4.4 1.2 1.9 1.1 6 3.4 10.3 6.6.1-.4.1-.9.1-1.3.1-2-.5-3.7-1.6-4.8z" fill="url(#c)"/></g></svg>