<svg xmlns="http://www.w3.org/2000/svg" height="800" width="1200" viewBox="-11.320125 -5.208125 98.10775 31.24875"><path d="M62.676 4.2664h2.4937l.82-3.86h4.76l-.8225 3.86h3.1448l-.6689 3.1409h-3.143l-1.0414 4.8953c-.2328 1.1001.0035 1.2552 1.2838 1.2552.582 0 1.0602-.0217 1.6944-.0437l-.6308 2.9631c-.994.1339-2.2709.2244-3.6634.2244-3.098 0-4.2161-.7618-3.6573-3.3893l1.2573-5.905h-2.4935zm-6.4622 0h4.7585l-2.5852 12.1671h-4.7586zM57.12 0h4.759l-.6114 2.8736h-4.7588zM43.6072 4.2665l-2.5866 12.1673h4.6303l2.5872-12.1674zm10.1078-.5409c-2.1248 0-5.507 2.0934-6.3986 5.8208l-.2289.8398h.08c.6757-1.6176 2.3693-2.4836 4.6508-2.4836.6146 0 1.3136.0841 1.8759.2106l.9247-4.3447c-.3027-.027-.6186-.0429-.9038-.0429m-16.8249.5408h4.7577l-2.5855 12.1671H34.304zM37.7953 0h4.7594l-.6099 2.8736h-4.7596zM25.127 13.4689c2.1792 0 3.5976-1.0774 4.0257-3.097.4297-2.0227-.5307-3.098-2.7072-3.098-2.2228 0-3.648 1.2108-4.0481 3.098-.4011 1.8855.5077 3.097 2.7297 3.097m-6.192-9.2025h4.6238l-.3424 1.6156h.0445c1.2731-1.2349 3.1046-1.9302 5.0355-1.9302 4.3098 0 6.6093 2.3778 5.7124 6.599-.7496 3.5248-3.9608 6.3736-8.4265 6.3736-2.11 0-3.5771-.6954-4.196-1.5923h-.0442l-1.1708 5.5004h-4.7577zM5.5902 12.6397c-.0273.4482.076.8075.4538 1.034.3746.2468.997.3791 2.0296.3791 1.0546 0 2.2204-.2016 2.4066-1.0768.1381-.6506-.2958-.8314-1.4337-.9655l-4.1347-.5162c-2.7104-.337-3.915-1.3242-3.4748-3.3904.6993-3.2988 3.7484-4.3312 8.305-4.3312 3.233 0 7.1938.5823 6.729 4.0394h-5.3415c.0643-.5162-.2016-.852-.6345-1.0324-.4286-.2003-1.0419-.2696-1.6491-.2696-1.3692 0-2.2434.3146-2.4207 1.1454-.0807.382.1622.7178 1.3454.8532l4.013.4485c3.2004.3596 4.6016 1.3695 4.0968 3.7486-.6112 2.8729-3.6354 4.2183-8.6858 4.2183-3.3684 0-7.7975-.6033-7.1265-4.2844zm68.897-7.4152c.0564 0 .1014-.0133.1347-.0397.0328-.0265.0495-.0633.0495-.1096 0-.043-.014-.0788-.0423-.1069-.028-.0283-.0736-.0423-.1366-.0423h-.1196v.2985zm-.363-.4877h.4128c.1095 0 .2032.025.2812.0747.0778.0497.117.1328.117.2487a.292.292 0 01-.0471.1592c-.0318.0498-.0773.0879-.137.1146l.2187.3932h-.2635l-.1643-.3236h-.169v.3236h-.2488zm.3829 1.2838a.7244.7244 0 00.2887-.0572.6843.6843 0 00.2315-.1592.7317.7317 0 00.1516-.2437c.0365-.0947.0547-.2.0547-.3162 0-.1161-.0182-.2222-.0547-.3183a.7494.7494 0 00-.1516-.2487.6657.6657 0 00-.2315-.162.729.729 0 00-.2887-.057c-.1061 0-.203.019-.2908.057a.6714.6714 0 00-.2291.162.7538.7538 0 00-.1516.2487c-.0368.096-.0548.2022-.0548.3183 0 .1162.018.2215.0548.3162a.736.736 0 00.1516.2437.6903.6903 0 00.2291.1592c.0879.0384.1847.0572.2908.0572m0 .214a.9644.9644 0 01-.373-.0722.9365.9365 0 01-.306-.204.9376.9376 0 01-.2063-.3135c-.05-.121-.0749-.2545-.0749-.4006 0-.1458.0249-.2802.0749-.403.0495-.1227.1183-.228.2064-.3159a.9331.9331 0 01.3058-.2042.969.969 0 01.373-.072.967.967 0 01.3734.072.9315.9315 0 01.3061.2042c.0879.0879.1567.1932.2064.316.0498.1227.0746.2571.0746.403 0 .146-.0248.2796-.0746.4005a.9456.9456 0 01-.2064.3135.9349.9349 0 01-.306.204.9647.9647 0 01-.3734.0722" fill="#231f20" clip-rule="evenodd"/></svg>