<svg xmlns="http://www.w3.org/2000/svg" width="90" height="90" viewBox="0 0 90 90">
  <g id="Group_15637" data-name="Group 15637" transform="translate(1296 -13545)">
    <g id="Group_15639" data-name="Group 15639">
      <g id="Group_15610" data-name="Group 15610" transform="translate(-105 220)">
        <g id="Group_15599" data-name="Group 15599" transform="translate(-630 -219)">
          <g id="Rectangle_3882" data-name="Rectangle 3882" transform="translate(-561 13544)" fill="#fff" stroke="#e9e9e9" stroke-width="1.9">
            <rect width="90" height="90" rx="15" stroke="none"/>
            <rect x="0.95" y="0.95" width="88.1" height="88.1" rx="14.05" fill="none"/>
          </g>
        </g>
      </g>
      <g id="Group_15638" data-name="Group 15638" transform="translate(-1923.352 12707)">
        <path id="Path_21073" data-name="Path 21073" d="M682.313,879.065l-11.328-1.292c-3.305-.369-4.041-1.353-3.8-2.4.49-2.337,2.939-3.26,6.858-3.26a10.858,10.858,0,0,1,4.654.8,2.6,2.6,0,0,1,1.774,2.891h15.063c1.347-9.781-9.859-11.442-18.979-11.442-12.859,0-21.432,2.952-23.392,12.3-1.224,5.843,2.143,8.671,9.8,9.6l11.7,1.477c3.246.368,4.47.922,4.042,2.706-.552,2.461-3.8,3.075-6.8,3.075-2.939,0-4.654-.368-5.694-1.046a2.988,2.988,0,0,1-1.286-2.952H649.248c-1.9,10.457,10.593,12.117,20.085,12.117,14.266,0,22.777-3.814,24.492-11.933,1.471-6.766-2.511-9.657-11.512-10.641Z" transform="translate(0 0)"/>
      </g>
    </g>
  </g>
</svg>
