<svg xmlns="http://www.w3.org/2000/svg" height="800" width="1200" viewBox="-9.299985 -4.556125 80.59987 27.33675"><g fill-rule="evenodd"><path d="M19.0241 11.3855c-.1778-.381-.381-.7366-.6349-1.0414-.254-.3048-.5334-.5588-.8382-.7874-.1525-.127-.3302-.2286-.508-.3048-.0762-.0507-.1779-.1016-.254-.1525.0761-.0253.1778-.0762.254-.1268.1778-.0762.3555-.178.508-.3049.3048-.2286.5841-.4826.8382-.7874.2539-.3048.4571-.6604.635-1.0414.1777-.381.3047-.7874.381-1.2192.0253-.3048.0506-.6096.0506-.889v-.4064c-.0253-.3556-.1015-.7112-.2286-1.0668-.1269-.3302-.2793-.6858-.4826-.9903-.203-.3305-.4316-.6096-.711-.8893-.2794-.2537-.5842-.5077-.9144-.7112-.3557-.2029-.7112-.3553-1.1176-.4569-.4065-.127-.8129-.2032-1.27-.2032-.4317-.0254-.838.025-1.2445.1013A5.173 5.173 0 0012.3949.54c-.3557.1778-.6605.4064-.9398.6858a3.8542 3.8542 0 00-.6604.889c-.1779.3299-.3048.6855-.3557 1.0665-.0506.2032-.0506.381-.0506.5842 0 .1778 0 .3302.0253.4826-.3555-.2032-.711-.381-1.0667-.4826-.4318-.1524-.9399-.2286-1.4478-.254-.4826 0-.9398.0508-1.3716.1527-.4063.0759-.8127.2283-1.1938.4315-.3301.1778-.6857.4064-1.016.6858-.2031.1778-.4064.3556-.6095.5588 0 0-.3048.3048-.4572.508-.1778.1778-.3556.4064-.5335.635l-.4063.508c-.1016.1524-.2032.2794-.3301.4064-.1524.2032-.3302.381-.508.5588-.3048.3049-.635.5842-.9906.8128l-.2286.1524c-.0509.0253-.1016.0509-.1524.0762C.0507 9.0232 0 9.0488 0 9.0994c0 .0763.0507.1018.1016.1271.0508.0254.1015.0509.1524.0762l.2286.1524c.3555.2287.6858.508.9905.8128.178.1778.3557.3555.5081.5588.127.127.2285.254.33.4064l.4064.508c.178.2285.3557.4571.5335.635.1524.203.4572.4825.4572.4825.2031.2286.4064.4064.6095.5842.3303.2794.6859.508 1.016.6858.381.2031.7875.3555 1.1938.4317.4318.1271.889.1525 1.3716.1525.508-.0254 1.016-.1016 1.4478-.254.3556-.1016.7112-.2794 1.0667-.4826-.0253.1524-.0253.3048-.0253.4826 0 .2032 0 .381.0506.5841.051.381.1778.7367.3557 1.0668.1778.3302.4064.635.6604.889.2793.2794.5841.508.9398.6858a5.15 5.15 0 001.0922.4317c.4064.0762.8128.1271 1.2445.1017.4571 0 .8635-.0762 1.27-.2032.4064-.1016.762-.254 1.1176-.4573.3302-.203.635-.457.9143-.7112.2795-.2793.5081-.5588.7111-.889.2033-.3046.3557-.6602.4826-.9905.127-.3555.2033-.7112.2286-1.092v-.381c0-.2796-.0253-.5843-.0507-.889-.0762-.432-.2032-.8383-.381-1.2192" fill="#fbc707"/><path d="M17.9573 11.7917c-.1524-.3302-.3301-.6348-.584-.9141-.2287-.2795-.5082-.5082-.8129-.686-.3303-.2032-.6605-.3554-1.016-.4316-.3557-.1271-.7367-.178-1.1176-.178-.4064 0-.7874.0509-1.1938.1524-.3302.0763-.635.178-.9396.3302-.2795.127-.5335.3048-.7621.4828a6.4842 6.4842 0 00-.6604.508c-.2286.1523-.4319.3047-.6603.457-.2033.127-.4318.254-.6859.3555-.2793.0762-.5588.127-.8381.127-.381 0-.762-.0761-1.1176-.2285-.3556-.1524-.6605-.3556-.9144-.6349-.2794-.254-.4825-.5841-.6096-.9398-.1524-.3302-.203-.7112-.203-1.0923 0-.3555.0506-.7365.203-1.0667.127-.3556.3302-.6604.6096-.9398.254-.2794.5588-.4826.9144-.635a2.8379 2.8379 0 011.1176-.2286c.2793 0 .5588.0508.8381.127.2541.1016.4826.2286.6859.3556.2284.1524.4317.3048.6603.4826.2031.1524.4318.3302.6604.508.2286.1525.4826.3302.762.4571.3047.1524.6095.2542.9397.3304.4064.1015.7874.1524 1.1938.1524.381 0 .762-.0509 1.1176-.1524.3555-.1018.6857-.2542 1.016-.4573.3047-.1777.5842-.4064.8128-.6858.254-.2794.4317-.5842.5841-.9144.1525-.3556.254-.7112.3049-1.0922.0508-.406.0508-.8128-.0254-1.2192-.0762-.381-.2033-.762-.381-1.0922-.1778-.3302-.4064-.6096-.6604-.8636-.2794-.279-.5588-.4826-.889-.66-.3303-.1525-.6858-.2795-1.0415-.3557-.3555-.0762-.7619-.102-1.1428-.0508-.3557.0508-.7367.1524-1.0669.3302-.3048.1524-.6096.381-.838.635-.2542.2537-.432.5585-.5844.8887-.1269.3302-.2286.6858-.254 1.0414 0 .3556.0254.7366.1525 1.0922 0 .0508.0253.1016.0508.1524 0 .0254 0 .0508.0254.0762 0 .0254 0 .0508.0253.0762 0 0 .0256.0254.0509.0254 0 0 .0253-.0254.0253-.0508v-.1524a2.0167 2.0167 0 01.1524-.5588c.1525-.3302.381-.6096.6604-.8128.3048-.1775.6605-.2794 1.016-.3048.381-.0254.7621.0254 1.0921.2032.3049.1524.5588.4064.7367.7112.1778.3048.254.6858.254 1.0414 0 .3556-.1017.7366-.3048 1.0414-.1778.3048-.4573.5588-.7874.7366-.33.1524-.711.2286-1.0668.1778-.254-.0254-.508-.1016-.7365-.2032-.2287-.1016-.4573-.254-.6604-.4064-.2286-.1778-.4572-.3556-.6605-.5334-.2286-.2032-.457-.4064-.6857-.5842-.254-.2032-.508-.381-.7874-.508-.3047-.1778-.6095-.3048-.9397-.4064-.3556-.1016-.7367-.1524-1.1176-.1524-.381 0-.762.0254-1.143.127-.3302.0762-.635.1778-.9397.3302-.254.1524-.508.3302-.762.5334-.2286.1778-.4318.4064-.635.635-.2032.2286-.381.4572-.5589.6858-.2031.2286-.3809.4826-.5588.7112-.2031.2286-.3809.4318-.6095.6605-.2032.203-.4064.3808-.6603.5588a55.7635 55.7635 0 00-.1524.0762c-.0254.0253-.0763.0506-.1016.0762-.0254 0-.0762.0253-.0762.0506 0 .051.0508.0763.0762.1018.0253 0 .0762.0253.1016.0507.0508.0255.1015.0508.1524.1015.254.1524.457.3304.6603.5335.2286.2032.4064.4319.6095.6605.178.2284.3557.4826.5588.711.178.2286.3557.4573.5588.6857.2033.2287.4065.4573.635.635.2541.2033.508.381.762.5335.3049.1524.6096.254.9398.3302.381.1016.762.127 1.143.127s.762-.0508 1.1176-.1524c.3302-.1016.635-.2286.9397-.381.2795-.1524.5333-.3302.7874-.5335.2286-.1777.4571-.3809.6857-.5588.2033-.203.432-.3809.6605-.5586.2031-.1524.4317-.3048.6604-.4064.2286-.1015.4826-.1777.7365-.2033.3557-.0507.7368.0256 1.0668.178.3301.1524.6096.4317.7874.7364.2031.3048.3048.6858.3048 1.0413 0 .381-.0762.7367-.254 1.0414-.1779.3049-.4318.5588-.7367.7112-.33.178-.711.2287-1.092.2033-.3556 0-.7113-.127-1.016-.3048-.2794-.2032-.508-.4826-.6605-.8128a2.017 2.017 0 01-.1524-.5588v-.1524c0-.0254-.0253-.0508-.0253-.0508-.0253 0-.0509.0254-.0509.0254-.0253.0254-.0253.0508-.0253.0762-.0254.0254-.0254.0508-.0254.0761-.0255.0509-.0508.1017-.0508.1524-.127.3557-.1524.7367-.1524 1.0923.0253.3556.127.7112.254 1.0413.1523.3302.3301.635.5842.889.2285.254.5333.4826.8381.635.3302.1778.7112.2794 1.067.3302.3808.0508.7872.0254 1.1427-.0508.3557-.0763.7112-.2032 1.0414-.3556.3303-.1778.6097-.4064.8891-.6605.254-.2538.4826-.5333.6604-.8635.1777-.3301.3048-.7112.381-1.092.0762-.4066.0762-.813.0254-1.2193-.0509-.381-.1524-.7366-.3049-1.0923" fill="#361d66"/><path d="M12.5473 9.0994l-.0255-.0253c-.457-.1015-.8634-.3557-1.2191-.6097-.4064-.3048-.7875-.6094-1.1683-.889-.4064-.2793-.8636-.508-1.3462-.5333-.381-.0254-.7874.0508-1.1176.254a2.0468 2.0468 0 00-.7366.7366c-.2032.3302-.2794.7112-.2794 1.0667v.0256c0 .3555.0762.7365.2794 1.0667.1778.3048.4318.5588.7366.7365.3302.178.7365.2795 1.1176.2542.4826-.0255.9398-.2542 1.3462-.5335.3808-.2795.7619-.5843 1.1683-.889.3557-.254.762-.508 1.2191-.6096 0 0 .0255-.0253.0255-.0509" fill="#c60a8d"/><path d="M49.4018 9.7853l1.7018-4.0132 1.5999 4.0132zm4.1402 4.9275h4.47c-.889-.5334-1.1683-1.0414-1.7271-2.3368-3.073-7.1373-4.1653-9.6265-4.1653-9.6265s-.6858 1.143-2.8956 1.5748c.1524.1016.3302.381.3302.6858 0 .2032-.0508.4572-.1778.7874l-2.921 6.5785c-.635 1.3716-.9906 1.9812-1.8542 2.2605-.6858-.381-.8128-.7619-.8128-2.1336V5.7213c0-1.422.127-1.778.8636-2.1844h-3.9878c.7112.4064.8636.7623.8636 2.1844v2.3114h-5.5622V5.7213c0-1.422.1524-1.778.889-2.1844h-4.0132c.762.4064.889.7623.889 2.1844v6.7816c0 1.4224-.127 1.7781-.889 2.2099h4.0132c-.7366-.4318-.889-.7875-.889-2.2099V9.6076h5.5622v2.8953c0 1.4224-.1524 1.7781-.8886 2.2099h7.899c-.381-.2287-.6858-.5588-.6858-.9906 0-.3048.1016-.508.3556-1.0669l.635-1.5238h4.4193l.6607 1.7017c.2029.4318.279.635.279.9144 0 .4064-.3552.7365-.66.9652m7.6197-2.2098V5.7212c0-1.422.127-1.778.8382-2.1844h-3.9624c.7112.4064.8636.7623.8636 2.1844v6.7816c0 1.4224-.1524 1.7781-.8636 2.2099h3.9624c-.7112-.4318-.8382-.7875-.8382-2.2099M32.4858 2.7495c-.4064.3556-1.0668.7874-2.8193.7874h-5.0037c-.9906 0-1.397-.5842-1.5749-.9398-.3809.8636-1.346 2.0828-1.9302 2.5654h4.6735v7.188c0 1.448-.2033 1.905-.889 2.3623h3.9877c-.7113-.4318-.8382-.7875-.8382-2.2099V5.1625h.6604c.9905 0 1.524-.1016 1.9303-.254 1.0668-.381 1.7272-1.1684 1.8034-2.159" fill="#361d66"/></g></svg>