<svg xmlns="http://www.w3.org/2000/svg" width="90" height="90" viewBox="0 0 90 90">
  <g id="Group_15648" data-name="Group 15648" transform="translate(1296 -13545)">
    <g id="Group_15639" data-name="Group 15639">
      <g id="Group_15610" data-name="Group 15610" transform="translate(-105 220)">
        <g id="Group_15599" data-name="Group 15599" transform="translate(-630 -219)">
          <g id="Rectangle_3882" data-name="Rectangle 3882" transform="translate(-561 13544)" fill="#fff" stroke="#e9e9e9" stroke-width="1.9">
            <rect width="90" height="90" rx="15" stroke="none"/>
            <rect x="0.95" y="0.95" width="88.1" height="88.1" rx="14.05" fill="none"/>
          </g>
        </g>
      </g>
      <g id="Group_15649" data-name="Group 15649" transform="translate(-2469.845 12705.213)">
        <path id="Path_21076" data-name="Path 21076" d="M1242.5,890.592a12.119,12.119,0,0,0-1.605-2.64,10.726,10.726,0,0,0-2.158-2.051,9.363,9.363,0,0,0-1.263-.778,7.349,7.349,0,0,0-.7-.346,5.008,5.008,0,0,0,.7-.353,10.472,10.472,0,0,0,3.419-2.829,11.419,11.419,0,0,0,1.605-2.633,13.551,13.551,0,0,0,1.13-5.421c0-.338-.024-.715-.032-1.038a11.27,11.27,0,0,0-.593-2.734,11.021,11.021,0,0,0-1.216-2.593,14,14,0,0,0-1.816-2.271,12.363,12.363,0,0,0-2.314-1.792,11.722,11.722,0,0,0-2.812-1.227,12.868,12.868,0,0,0-3.288-.518,12.452,12.452,0,0,0-3.156.306,12.043,12.043,0,0,0-2.836,1.053,11.079,11.079,0,0,0-2.33,1.768,9.882,9.882,0,0,0-1.691,2.295,8.811,8.811,0,0,0-.92,2.726,9.68,9.68,0,0,0-.124,1.54c0,.417.039.833.07,1.25a12.833,12.833,0,0,0-2.732-1.311,13.358,13.358,0,0,0-3.7-.582,13.929,13.929,0,0,0-3.49.329,13.3,13.3,0,0,0-3.016,1.171,15.415,15.415,0,0,0-2.54,1.721,16.874,16.874,0,0,0-1.628,1.477s-.771.778-1.161,1.257c-.436.519-.881,1.069-1.332,1.658l-1.005,1.312c-.3.385-.585.739-.85,1.061-.436.5-.872.975-1.309,1.423a18.087,18.087,0,0,1-2.516,2.082,5.881,5.881,0,0,1-.577.377c-.14.071-.28.118-.413.189-.117.094-.249.165-.249.306s.132.228.249.283a3.085,3.085,0,0,1,.413.22,4.1,4.1,0,0,1,.577.361,20.61,20.61,0,0,1,2.516,2.091c.437.455.873.943,1.309,1.414.265.346.545.676.85,1.084l1.005,1.3c.451.573.9,1.147,1.332,1.658.39.449,1.161,1.241,1.161,1.241a15.824,15.824,0,0,0,1.628,1.478,14.251,14.251,0,0,0,2.54,1.744,13.518,13.518,0,0,0,3.016,1.139,14.636,14.636,0,0,0,3.49.363,12.409,12.409,0,0,0,6.436-1.909c-.031.432-.07.825-.07,1.233a9.432,9.432,0,0,0,1.044,4.309,9.338,9.338,0,0,0,1.691,2.271,10.456,10.456,0,0,0,2.33,1.735,9.6,9.6,0,0,0,2.836,1.069,12.47,12.47,0,0,0,3.156.345,14.83,14.83,0,0,0,3.288-.526,13.121,13.121,0,0,0,2.813-1.227,12.662,12.662,0,0,0,4.129-4.086,12.449,12.449,0,0,0,1.81-5.32c.007-.345.031-.676.031-1.037a13.316,13.316,0,0,0-.187-2.255,12.64,12.64,0,0,0-.945-3.167" fill="#ffcb05"/>
        <path id="Path_21077" data-name="Path 21077" d="M1239.8,891.64a9.217,9.217,0,0,0-3.6-4.118,10.812,10.812,0,0,0-2.516-1.124,10.25,10.25,0,0,0-2.843-.4,13.7,13.7,0,0,0-3.086.354,10.229,10.229,0,0,0-2.384.88,11.431,11.431,0,0,0-1.963,1.187c-.554.432-1.13.864-1.707,1.312-.522.409-1.044.841-1.613,1.233a8.3,8.3,0,0,1-1.792.855,6.477,6.477,0,0,1-2.128.354,7.1,7.1,0,0,1-2.843-.6,7.714,7.714,0,0,1-2.346-1.619,6.769,6.769,0,0,1-1.519-2.4,7.02,7.02,0,0,1-.53-2.783,7.645,7.645,0,0,1,2.049-5.2,7.392,7.392,0,0,1,2.346-1.6,6.61,6.61,0,0,1,2.843-.6,6.506,6.506,0,0,1,2.128.354,7.486,7.486,0,0,1,1.792.888,18.713,18.713,0,0,1,1.612,1.207c.577.44,1.154.9,1.707,1.312a13.983,13.983,0,0,0,1.963,1.218,11.387,11.387,0,0,0,2.385.849,13.307,13.307,0,0,0,3.086.345,11.106,11.106,0,0,0,2.844-.369,10.528,10.528,0,0,0,2.516-1.139,9.291,9.291,0,0,0,3.6-4.149,9.5,9.5,0,0,0,.787-2.813,12.545,12.545,0,0,0-.1-3.151,9.629,9.629,0,0,0-.989-2.758,9.364,9.364,0,0,0-1.684-2.295,10.179,10.179,0,0,0-2.244-1.619,10.442,10.442,0,0,0-2.619-.935,10.04,10.04,0,0,0-2.921-.125,8.147,8.147,0,0,0-2.7.84,7.42,7.42,0,0,0-2.2,1.643,8.108,8.108,0,0,0-1.425,2.255,8.571,8.571,0,0,0-.631,2.672,7.912,7.912,0,0,0,.343,2.884,2.675,2.675,0,0,1,.1.329,1.343,1.343,0,0,0,.094.165,1.9,1.9,0,0,1,.054.236c.039.023.094.086.132.086a.263.263,0,0,0,.07-.157,1.3,1.3,0,0,0,.055-.377,5.667,5.667,0,0,1,.351-1.446,4.287,4.287,0,0,1,1.691-2.059,5.06,5.06,0,0,1,2.54-.832,5.646,5.646,0,0,1,2.859.549,4.573,4.573,0,0,1,1.824,1.816,5.214,5.214,0,0,1,.67,2.662,5.44,5.44,0,0,1-.748,2.663,5.022,5.022,0,0,1-4.784,2.4,5.884,5.884,0,0,1-1.886-.534,8.092,8.092,0,0,1-1.675-1.084c-.569-.4-1.1-.9-1.683-1.368a21.913,21.913,0,0,0-1.769-1.451,14.563,14.563,0,0,0-1.979-1.344,11.266,11.266,0,0,0-2.367-1,11.925,11.925,0,0,0-2.86-.409,12.954,12.954,0,0,0-2.9.306,8.815,8.815,0,0,0-2.377.9,9.572,9.572,0,0,0-1.94,1.32,20.1,20.1,0,0,0-1.636,1.627c-.491.566-.974,1.194-1.465,1.8-.468.613-.927,1.211-1.387,1.816-.5.565-1.005,1.155-1.5,1.689a11.717,11.717,0,0,1-1.729,1.422c-.117.079-.25.15-.366.213s-.2.149-.3.157c-.055.063-.149.1-.149.2a.2.2,0,0,0,.048.109.209.209,0,0,0,.1.064,1.935,1.935,0,0,0,.3.165c.116.071.249.157.366.236a11.323,11.323,0,0,1,1.729,1.43c.5.527,1.005,1.092,1.5,1.674.46.6.92,1.233,1.387,1.815.491.652.974,1.218,1.465,1.807a15.329,15.329,0,0,0,1.636,1.627,10.586,10.586,0,0,0,1.94,1.32,10.254,10.254,0,0,0,2.377.888,11.863,11.863,0,0,0,5.758-.095,9.821,9.821,0,0,0,2.367-1.006,14.426,14.426,0,0,0,1.979-1.319,19.237,19.237,0,0,0,1.769-1.469c.584-.479,1.114-.943,1.683-1.391a11.2,11.2,0,0,1,1.675-1.085,6.6,6.6,0,0,1,1.886-.543,5.1,5.1,0,0,1,2.711.511,5,5,0,0,1,2.073,1.885,5.615,5.615,0,0,1,.748,2.679,5.335,5.335,0,0,1-.671,2.688,4.207,4.207,0,0,1-1.823,1.783,5.2,5.2,0,0,1-2.86.558,5.42,5.42,0,0,1-2.54-.793,4.673,4.673,0,0,1-1.691-2.067,6.436,6.436,0,0,1-.35-1.461,1.581,1.581,0,0,0-.055-.393.481.481,0,0,0-.039-.118.191.191,0,0,0-.093.022.187.187,0,0,0-.07.064,1.2,1.2,0,0,1-.055.18c-.024.055-.062.133-.094.2-.007.094-.078.2-.1.315a8.054,8.054,0,0,0-.343,2.907,8.544,8.544,0,0,0,.631,2.663,7.328,7.328,0,0,0,3.631,3.905,7.273,7.273,0,0,0,2.7.817,8.646,8.646,0,0,0,2.922-.133,9.293,9.293,0,0,0,2.618-.928,9.464,9.464,0,0,0,2.244-1.67,8.443,8.443,0,0,0,1.683-2.224,9.4,9.4,0,0,0,.989-2.8,12.267,12.267,0,0,0,.1-3.127,9.937,9.937,0,0,0-.787-2.829" fill="#3d1a6f"/>
        <path id="Path_21078" data-name="Path 21078" d="M1225.988,884.775c0-.047-.016-.094-.039-.094a9.007,9.007,0,0,1-3.117-1.579c-1.02-.748-1.963-1.556-2.991-2.24a7.009,7.009,0,0,0-3.4-1.406,4.91,4.91,0,0,0-2.843.668,4.624,4.624,0,0,0-1.886,1.893,5.334,5.334,0,0,0-.725,2.735v.047a5.293,5.293,0,0,0,.725,2.735,4.687,4.687,0,0,0,1.886,1.917,5.429,5.429,0,0,0,2.844.644,6.945,6.945,0,0,0,3.4-1.376c1.028-.7,1.971-1.516,2.992-2.247a9.1,9.1,0,0,1,3.116-1.618.106.106,0,0,0,.029-.034.1.1,0,0,0,.01-.045" fill="#c6168d"/>
      </g>
    </g>
  </g>
</svg>
