<svg xmlns="http://www.w3.org/2000/svg" width="90" height="90" viewBox="0 0 90 90">
  <g id="Group_15670" data-name="Group 15670" transform="translate(2241 -13435)">
    <g id="Group_15667" data-name="Group 15667" transform="translate(-945 -110)">
      <g id="Group_15639" data-name="Group 15639">
        <g id="Group_15659" data-name="Group 15659">
          <g id="Group_15610" data-name="Group 15610" transform="translate(-105 220)">
            <g id="Group_15599" data-name="Group 15599" transform="translate(-630 -219)">
              <g id="Rectangle_3882" data-name="Rectangle 3882" transform="translate(-561 13544)" fill="#fff" stroke="#e9e9e9" stroke-width="1.9">
                <rect width="90" height="90" rx="15" stroke="none"/>
                <rect x="0.95" y="0.95" width="88.1" height="88.1" rx="14.05" fill="none"/>
              </g>
            </g>
          </g>
        </g>
      </g>
    </g>
    <g id="g2853" transform="translate(-2281.765 13266.783)">
      <path id="path2832" d="M69.483,231.429H80.743a2,2,0,0,1,2.281,1.763c.388,1.586.194,2.688-1.747,2.82l-3.543.22c2.621,14.938,17.861,19.786,26.113,3.7,1.359-2.645,1.844-3.129,3.349-2.82,2.039.441,2.33,1.41,1.359,4.1-7.184,19.83-31.258,21.813-36.014-4.671l-2.864.176c-2.33.132-2.427-1.631-2.427-2.645-.049-1.939.777-2.645,2.233-2.645h0" transform="translate(-5.095 -25.242)" fill="#ed192d"/>
      <path id="path2834" d="M170.535,205.041a5.383,5.383,0,1,1-5.383,5.383,5.3,5.3,0,0,1,5.383-5.384h0" transform="translate(-66.54 -9.623)" fill="#ed192d"/>
    </g>
  </g>
</svg>
