<svg xmlns="http://www.w3.org/2000/svg" width="90" height="90" viewBox="0 0 90 90">
  <g id="Group_15570" data-name="Group 15570" transform="translate(561 -13544)">
    <g id="Rectangle_3882" data-name="Rectangle 3882" transform="translate(-561 13544)" fill="#fff" stroke="#e9e9e9" stroke-width="1.9">
      <rect width="90" height="90" rx="15" stroke="none"/>
      <rect x="0.95" y="0.95" width="88.1" height="88.1" rx="14.05" fill="none"/>
    </g>
    <g id="Group_15571" data-name="Group 15571" transform="translate(-1515.844 13318.587)">
      <path id="Path_21079" data-name="Path 21079" d="M1024.631,270.417a24.975,24.975,0,0,0-7.2-17.755,24.758,24.758,0,0,0-40.543,8.151,25.34,25.34,0,0,0,5.369,27.356,24.755,24.755,0,0,0,40.539-8.145,25.033,25.033,0,0,0,1.833-9.6h0Z" fill="#00d66c"/>
      <path id="Path_21080" data-name="Path 21080" d="M1010.794,274.032h-1.4c-1.4,0-1.989.75-2.191,2.2a5.073,5.073,0,0,1-1.722,3.256,4.988,4.988,0,0,1-3.456,1.21c-3.183,0-5.222-2.354-5.222-5.774V266.9a2.9,2.9,0,0,0-.124-.857,2.542,2.542,0,0,0,1.067.207h7.313a1.978,1.978,0,0,0,1.626-.571,2.018,2.018,0,0,0,.577-1.636v-.652a2.006,2.006,0,0,0-1.316-2.106,1.971,1.971,0,0,0-.875-.1h-4.129V256.66a2.024,2.024,0,0,0-.573-1.631,1.98,1.98,0,0,0-1.618-.578h-1a1.981,1.981,0,0,0-1.616.579,2.018,2.018,0,0,0-.572,1.63v7.375a2.748,2.748,0,0,0,.124.855,2.6,2.6,0,0,0-1.07-.2h-7.313a1.979,1.979,0,0,0-.873.1,2.014,2.014,0,0,0-1.317,2.1v.654a2.018,2.018,0,0,0,.573,1.632,2,2,0,0,0,.744.473,1.965,1.965,0,0,0,.873.1h4.133v5.163c0,6.476,4.131,10.995,10.6,10.995a10.274,10.274,0,0,0,7.329-2.639,10.452,10.452,0,0,0,3.422-7.049,1.839,1.839,0,0,0-.437-1.617,1.822,1.822,0,0,0-.71-.481,1.8,1.8,0,0,0-.85-.1Z" fill="#fff"/>
    </g>
  </g>
</svg>
