<svg xmlns="http://www.w3.org/2000/svg" height="800" width="1200" viewBox="-30.00015 -21.898725 260.0013 131.39235"><g fill="#d40e14" transform="translate(-.2254 -.3591) scale(.83517)"><path d="M239.07 91.1a1.79 1.79 0 00.51-.65 2.86 2.86 0 00.16-1.09V53.68a3 3 0 00-.16-1.11 1.55 1.55 0 00-.51-.62q-.81-.62-3.76-.62-2.95 0-3.82.62a1.55 1.55 0 00-.51.62 3 3 0 00-.13 1.11v35.7a2.14 2.14 0 00.62 1.73q.81.62 3.82.62t3.78-.63zm-26.62.2a13.6 13.6 0 005-2.92 11.26 11.26 0 002.92-4.38 16.28 16.28 0 00.92-5.55V53.68a2.09 2.09 0 00-.62-1.75q-.88-.62-3.76-.62t-3.82.62a1.38 1.38 0 00-.52.62 3.24 3.24 0 00-.2 1.13v24.66a9.43 9.43 0 01-.51 3 4.69 4.69 0 01-2.23 2.54 9 9 0 01-4.55 1 10.52 10.52 0 01-3.34-.47 5.81 5.81 0 01-2.26-1.33 5.18 5.18 0 01-1.3-2.08 8.3 8.3 0 01-.41-2.67V53.68a2.09 2.09 0 00-.62-1.75q-.88-.62-3.76-.62t-3.82.62a1.38 1.38 0 00-.52.62 3.24 3.24 0 00-.12 1.13v24.76a16.29 16.29 0 00.92 5.55 11.26 11.26 0 002.88 4.42 13.6 13.6 0 005 2.88 26.25 26.25 0 0014.7 0zm-43.62-.2a1.65 1.65 0 00.49-.65 3.08 3.08 0 00.15-1.09V58.91h8.9a5.55 5.55 0 001.6-.19 1.63 1.63 0 00.95-.83 7.32 7.32 0 00.62-2.19 15.27 15.27 0 00.22-2.24 3.7 3.7 0 00-.12-1.07 1.12 1.12 0 00-.47-.62 1.85 1.85 0 00-.62-.22 7.09 7.09 0 00-1.17-.07h-27.71a5.55 5.55 0 00-1.6.19 1.64 1.64 0 00-1 .83 6.29 6.29 0 00-.62 1.92 13.78 13.78 0 00-.22 2.47 3.82 3.82 0 00.17 1.11 1.08 1.08 0 00.49.62 3.7 3.7 0 001.78.29h9.91v30.43a2 2 0 00.67 1.75q.81.62 3.82.62t3.75-.6zM6.46 29.64h31.19c3.08 0 5.36 1 6.26 5.31 1 4.83.62 8.19-4.84 8.57l-9.8.7c7.22 45.5 49.32 60.34 72.25 11.31 3.8-8.11 5-9.59 9.19-8.56 5.63 1.4 6.4 4.32 3.7 12.47-19.79 60.44-86.41 66.5-99.48-14.19L7 45.82c-6.47.46-6.73-5-6.73-8-.02-6.03 2.21-8.18 6.19-8.18z"/><circle r="11.56" cy="11.99" cx="119.8"/></g></svg>