<svg xmlns="http://www.w3.org/2000/svg" height="800" width="1200" viewBox="-25.680015 -6.715475 222.56013 40.29285"><path d="M9.8848 13.7254c1.1252-4.2271-.1581-8.6567-3.2275-11.004C2.4763 5.3681.0653 10.3448.9361 15.5298c.287 1.714.9085 3.2893 1.7836 4.6696 3.2692-.9101 6.1436-2.6334 7.165-6.474m5.6435 12.1986c6.9008-1.1586 11.5537-7.6921 10.3942-14.5904C24.958 5.5916 20.2765 1.4071 14.7561.829c-1.1143-.117-2.2654-.0853-3.4266.1088a12.5997 12.5997 0 00-3.828 1.2983c6.0817 2.063 9.3518 5.1984 9.5785 8.4116.1113 1.9835-.8106 3.4182-2.022 4.5877l8.5999-.6006c.2434-.0168.3195.2668.025.3513l-20.5123 5.881c2.088 2.8761 5.3305 4.7893 8.9319 5.1658a12.637 12.637 0 003.4257-.1088M14.8355.0736c6.7552.7036 12.0239 6.4122 12.0264 13.3532.0025 7.4169-6.009 13.4326-13.4268 13.4351C6.0174 26.8644.0025 20.8537 0 13.4359-.0025 6.0183 6.0082.0026 13.426 0c.4751 0 .946.026 1.4095.0736" fill="#fff"/><path d="M.9361 15.5307c.287 1.7133.9085 3.2885 1.7836 4.6688 3.2692-.9101 6.1436-2.6334 7.166-6.474 1.1243-4.2272-.159-8.6568-3.2292-11.0042C2.4762 5.3682.0653 10.3457.9361 15.5307m24.9863-4.1978c1.1595 6.899-3.4934 13.4326-10.3942 14.5912a12.6421 12.6421 0 01-3.4265.1088c-3.5998-.3765-6.844-2.2897-8.9311-5.1658l20.5124-5.881c.2944-.0853.2183-.368-.0251-.3513l-8.5998.6006c1.2113-1.1695 2.1332-2.6042 2.022-4.5877-.2268-3.2132-3.4969-6.3486-9.5787-8.4116A12.5997 12.5997 0 0111.3295.9378C12.4907.7437 13.6418.7119 14.7561.829c5.5204.578 10.2018 4.7626 11.1663 10.5039" fill="#c70a0c"/><path d="M96.4268 18.6988v-4.4162h-4.428v4.4162h-2.4301V8.1798h2.4302v4.1904h4.4279V8.1799h2.4486v10.5189zM44.0465 8.1799v6.5854c0 .7278.107 1.3577.3187 1.8697.21.5078.5145.9302.9052 1.2548.394.328.87.5697 1.413.7186.552.1523 1.1753.23 1.852.23.676 0 1.2934-.0777 1.8338-.23.532-.1489.9855-.3898 1.3494-.7152.363-.3246.6483-.747.8474-1.2557.2008-.5103.3012-1.1402.3012-1.8722V8.1799h-2.2738v6.515c0 .6635-.1648 1.1997-.4894 1.5929-.3321.4007-.86.604-1.5685.604-.6969 0-1.2206-.2025-1.5585-.6023-.3313-.3924-.4995-.9286-.4995-1.5945V8.1799zm-7.0104 10.5205v-8.5563h-2.8577V8.18h8.1632v.942c0 .5638-.4576 1.0222-1.0215 1.0222h-1.853v8.5563zM76.101 8.179h2.431v10.519h-2.431zm-8.0955 5.6142l.082.1046 3.1053 4.0012c.3949.5095.9913.8023 1.6363.8023h1.9358l-4.4488-5.6585-.0652-.0837.0652-.0828 3.6574-4.7006h-2.5297L68.09 12.7098l-.0845.1096-.0008-.1899V8.1757h-2.431v10.5197h2.431v-4.7148zm-10.462-.7989h1.4172c.5103 0 .8993-.1406 1.1552-.4158.2535-.2727.3824-.6274.3824-1.0532 0-.4367-.1255-.7956-.3723-1.0683-.251-.2778-.6425-.4175-1.1653-.4175h-1.4172zm4.8613 5.7028c-.7203 0-1.3988-.3823-1.771-.998l-1.8915-3.1229h-1.1988v4.1209h-2.4293V8.1799h4.3317c1.1126 0 1.9843.2903 2.59.8633.604.5714.9101 1.3544.9101 2.3265 0 .4935-.1313.9938-.3906 1.4865-.256.4844-.7094.881-1.3494 1.178l-.1406.0652 2.9514 4.5977zm18.1223-.4451v-2.017c.7739.3565 1.771.712 2.8017.712 1.1862 0 1.7877-.4066 1.7877-1.1862 0-.9152-.8073-1.0165-2.4235-1.7116-1.1-.491-2.1483-1.254-2.1483-3.0158 0-2.0504 1.5644-3.0167 3.7302-3.0167 1.1511 0 2.1316.271 2.6812.4744v1.9659c-.5496-.2543-1.53-.5597-2.5097-.5597-1.0658 0-1.5643.3899-1.5643 1.0675 0 .7119.6023.9327 1.6848 1.3393 1.392.6943 3.0083.9997 3.0083 3.3722 0 2.0504-1.633 3.1689-3.8164 3.1689-1.341 0-2.406-.2376-3.2317-.5932m75.0862.446V8.1781h6.587v.9545c0 .5572-.4533 1.0097-1.0096 1.0097h-3.1463v2.263h3.5327v1.7559h-3.5327v2.5732h4.156v1.9634zm-24.0326-.001V8.1783h1.1812c.6885 0 1.249.5605 1.249 1.249v7.375h3.88v1.8949zm-15.0472-.0016V8.1832h2.431l-.0008 10.5122zm7.0898-5.7028h1.4171c.5103 0 .8985-.1397 1.1553-.415.2535-.2735.3823-.6274.3823-1.054 0-.4358-.1255-.7956-.373-1.0683-.2502-.2769-.6425-.4174-1.1646-.4174h-1.417zm4.8612 5.7028c-.7202 0-1.3995-.3823-1.7718-.9972l-1.8906-3.1228h-1.1988v4.12h-2.4294V8.179h4.331c1.1134 0 1.9842.2903 2.5907.8634.604.5713.9102 1.3544.9102 2.3264 0 .4936-.1313.9939-.3915 1.4866-.2552.4835-.7094.88-1.3485 1.1779l-.1406.0652 2.9514 4.597zm-20.3057-3.8306l.9545-2.6586c.2116-.5981.4241-1.2297.5655-1.6948h.0351c.1238.4818.3363 1.08.548 1.6948l.9193 2.6586zm3.0032-6.6874h-2.7916l-3.967 10.5197h1.751c.445 0 .8374-.2836.9762-.7052l.4074-1.2348h4.2665l.624 1.94h2.6335zm52.9709 10.0746v-2.016c.773.3555 1.7702.711 2.8016.711 1.1863 0 1.7878-.4066 1.7878-1.1862 0-.9152-.8081-1.0165-2.4235-1.7108-1.1001-.4919-2.1492-1.254-2.1492-3.0166 0-2.0504 1.5644-3.0167 3.7303-3.0167 1.1519 0 2.1315.271 2.682.4744v1.9659c-.5505-.2535-1.5301-.5588-2.5097-.5588-1.0658 0-1.5644.3898-1.5644 1.0674 0 .711.6015.932 1.684 1.3385 1.3929.6943 3.0083.9997 3.0083 3.3722 0 2.0504-1.633 3.1689-3.8156 3.1689-1.341 0-2.4067-.2376-3.2316-.5932M144.1115 8.1799h1.5066c.7153 0 1.3803.3689 1.7585.9762l2.9338 4.7132c.3312.5237.7152 1.2155.9428 1.705h.0518c-.0351-.4727-.0518-1.1311-.0518-1.6038V8.18h2.1298v10.518h-2.6652l-3.568-5.6902c-.332-.5229-.681-1.1478-.926-1.6205h-.0343c.0175.456.0518.9964.0518 1.5025v5.8082h-2.1298zm-4.6563 10.5155V8.1832h2.4302v10.5122zm0 0"/></svg>