<svg xmlns="http://www.w3.org/2000/svg" height="800" width="1200" viewBox="-179.7768 -54.292 1558.0656 325.752"><defs><clipPath id="a" clipPathUnits="userSpaceOnUse"><path d="M0 325.476h1051.831V0H0z"/></clipPath></defs><g clip-path="url(#a)" transform="matrix(1.33333 0 0 -1.33333 -114.613 325.568)" fill="#0033a0"><path d="M978.115 94.825c-3.76 0-6.732-2.983-6.732-6.719 0-3.738 2.972-6.715 6.732-6.715 3.75 0 6.729 2.977 6.729 6.715a6.687 6.687 0 01-6.729 6.72m0-12.407c-3.08 0-5.711 2.516-5.711 5.687 0 3.175 2.631 5.678 5.711 5.678 3.072 0 5.693-2.503 5.693-5.678 0-3.17-2.621-5.687-5.693-5.687"/><path d="M981.407 89.887c0 1.582-1.281 1.942-2.617 1.942h-3.191V84.48h1.03v3.394h1.248l2.19-3.394h1.24l-2.213 3.394c1.306.038 2.313.56 2.313 2.012m-3.53-.99h-1.248v1.894h1.958c.8 0 1.79-.133 1.79-.885 0-1.171-1.608-1.01-2.5-1.01M935 81.3a111.614 111.614 0 013.47 11.228 103.365 103.365 0 012.87 24.244c0 4.777-.331 9.503-.968 14.154-.47-6.777-1.651-12.716-1.651-12.716.278-.895.77-2.365.999-3.272l-.001-.004a120.776 120.776 0 00-3.903-20.327c-.89 3.283-2.085 6.443-2.162 6.647l-.004.011c-2.398-6.39-5.982-13.914-9.237-19.965z"/><path d="M912.804 81.3h6.12c17.422 25.735 18.298 48.543 18.298 52.913 0 8.255-1.387 15.84-3.705 21.846 0 0-3.616 9.334-9.245 17.64.615-1.856 1.795-5.619 2.448-8.98.043-.224.078-.422.109-.605 1.109-1.849 6.111-10.668 6.78-20.366l.002-.029s-3.534 4.95-6.155 8.078c-.094-5.33-.786-10.665-1.902-15.817 0 0 5.236-6.064 7.579-9.975 0 0-1.593-8.53-5.009-16.704-3.475 5.054-7.914 9.963-7.914 9.963-2.597-6.42-5.886-12.88-9.538-18.854 0 0 6.635-7.764 8.091-9.978-1.949-3.28-3.849-6.136-5.959-9.132"/><path d="M890.997 81.3c11.562 12.931 21.414 28.142 27.332 44.43 5.135 14.13 7.93 31.387 3.384 46.737a41.327 41.327 0 01-1.046 3.061c-1.453 3.754-3.338 7.028-5.39 9.6a103.014 103.014 0 01-18.651 16.375 37.75 37.75 0 002.728-3.997s8.354-6.197 13.204-12.493c-6.222 4.432-9.744 6.226-10.201 6.453-.017.008-.036.016-.052.025 2.363-5.825 3.074-10.649 3.075-10.657 0 0 7.382-3.852 14.028-9.607.92-4.255 1.3-8.615 1.238-12.98-6.698 5.893-14.45 10.495-14.45 10.495-.142-4.99-.832-10.044-1.93-14.957 0 0 7.32-4.635 14.454-11.133 0 0-2.048-9.208-5.353-16.449-6.844 6.371-13.517 11.33-14.043 11.717 0 0-3.398-8.86-8.901-17.752 6.852-5.96 13.292-12.14 13.292-12.14-3.934-6.138-8.386-11.982-13.188-17.446l-.002-.005-12.257 12.205A162.634 162.634 0 00862.03 85.47c.275-.31 2.746-3.049 3.757-4.17z"/><path d="M894.142 200.14c-.793 1.084-1.69 2.19-2.72 3.173-.901.861-1.781 1.638-2.707 2.336-10.2 7.69-28.968 11.534-28.968 11.534a46.274 46.274 0 003.29-1.94c.09-.023 7.658-1.92 14.37-5.203 0 0-6.106 1.387-10.022 1.927a36.414 36.414 0 004.505-4.769s12.454-2.272 17.922-5.27c0 0 2.617-2.693 4.757-7.417-8.536 3.465-18.202 5.272-18.202 5.272 1.283-2.875 2.202-5.954 2.765-9.158 0 0 10.627-2.6 18.613-6.435.69-3.792.943-7.712.797-11.678-9.432 4.73-18.794 7.7-18.794 7.7-.19-4.089-.846-8.326-1.95-12.654 0 0 12.877-5.75 18.664-9.242-1.278-5.112-3.072-10.119-5.228-14.94-8.813 5.726-18.142 10.818-18.142 10.818-2.343-5.627-8.107-14.843-8.107-14.843l.006-.004c.145-.1 9.738-6.685 17.097-12.529-3.656-5.54-7.778-10.86-12.264-15.919-1.548 1.48-15.69 14.034-15.69 14.034-4.268-4.949-9.021-9.77-14.224-14.385 0 0 0-.002.003-.003l13.632-15.429c.002 0 .003 0 .004-.002l-.001-.002c-8.843-7.28-17.658-12.798-17.658-12.798l-11.376 16.15S816.51 92.373 803 85.98V81.3h44.365c49.52 37.467 67.093 91.042 46.777 118.84"/><path d="M869.024 205.762c-12.3 16.554-31.551 14.189-37.292 13.386-6.306-.884-11.073-2.264-11.073-2.264 1.409-.132 3.327-.384 4.711-.659 1.021.24 9.872 2.258 16.305 1.415l.019-.001c-4.728-.513-11.178-2.463-11.851-2.669-.007-.002-.009-.006-.016-.009l.02-.008c.232-.068 2.091-.632 4.476-2.031.697.187 9.455 2.51 17.807 2.674v-.002s3.086-1.369 6.06-3.41c-10.792.041-19.726-2.031-19.968-2.088a23.154 23.154 0 003.65-4.091c11.83 1.772 22.038 1.004 22.038 1.004s1.388-1.693 2.012-2.603c.788-1.146 1.594-2.57 2.219-3.821-12.074 1.412-23.623.402-23.631.402.797-2.056 1.336-4.255 1.631-6.567 1.335.01 11.561-.009 24.586-2.354.416-2.986.458-6.185.13-9.561-2.214.576-12.908 3.247-24.576 4.405-.235-2.916-.79-5.952-1.643-9.065 1.306-.308 15.722-3.744 23.797-7.015a72.71 72.71 0 00-.49-1.528c-1.156-3.467-2.601-6.948-4.311-10.418-6.502 3.201-22.446 9.434-22.446 9.434-1.594-3.566-3.543-7.176-5.821-10.779 0 0 13.67-7.801 20.254-12.12a123.816 123.816 0 00-10.259-12.728c-4.774 4.283-16.717 13.537-17.619 14.235-3.852-4.586-8.703-9.409-10.156-10.835l14.332-16.434c-.132-.119-.27-.24-.41-.362-3.102-2.571-6.443-4.991-9.267-6.931-2.451-1.665-4.474-2.955-5.173-3.405-.166.253-9.55 15.236-10.96 17.62a115.272 115.272 0 00-3.109-2.213V93.565c1.686.813 3.376 1.655 5.061 2.55 8.08 3.979 15.922 9.028 23.22 14.861a146.683 146.683 0 0114.426 13.101c5.754 5.902 10.751 12.085 14.922 18.35 15.808 23.332 20.042 47.659 8.395 63.335"/><path d="M837.118 207.01c-5.858 6.722-15.606 9.024-26.933 7.405-.308-.046-.629-.09-.918-.138a53.357 53.357 0 01-2.62-.517c-1.75-.406-2.948-.806-3.648-1.077v-3.39a55.22 55.22 0 003.427 2.502c2.257.483 4.45.79 6.564.929-3.27-1.867-7.046-4.4-9.99-6.738v-2.61l.101-.06s8.302 6.572 14.898 9.404a30.106 30.106 0 004.564-.67c-9.856-4.181-17.133-9.367-17.637-9.731a18.387 18.387 0 002.055-1.45c.127.08 9.683 6.057 20.2 9.639 1.426-.652 2.805-1.464 3.997-2.383-11.45-3.218-22.458-8.964-22.458-8.964a14.633 14.633 0 001.64-2.337l.195.078c11.72 5.016 24.174 7.588 24.174 7.588a18.527 18.527 0 002.39-4.466s-11.177-1.278-25.555-5.89c.635-1.986.81-3.48.81-3.493 0 0 13.554 3.032 26.054 3.368.174-2.008.112-4.262-.176-6.574-7.403.39-25.036-.549-25.729-.603 0 0-.064-2.54-.724-4.93 0 0 12.884-.414 24.604-2.6a56.997 56.997 0 00-3.435-8.276c-7.81 2.346-19.664 5.195-22.783 5.911a38.254 38.254 0 00-3.075-5.969s14.483-6.32 20.041-9.412h.012l-.003-.006c-2.412-3.612-7.194-8.668-7.194-8.668a498.185 498.185 0 01-3.936 2.914c-3.84 2.687-9.539 6.677-13.002 9.088l-.029.02v-11.977l7.511-8.774a90.051 90.051 0 00-7.51-5.442v-7.146l.275.18a108.225 108.225 0 0110.123 7.812c25.916 22.55 36.535 52.75 23.72 67.452"/><path d="M803 172.686c6.62 9.426 7.578 20.244 1.765 25.525-.547.496-1.14.921-1.765 1.288zm36.146 50.675c58.732 0 106.515-47.963 106.515-106.917 0-11.957-2.022-23.854-5.934-35.144h26.145v162.876H802.997V217.01l.127.046a105.561 105.561 0 0036.022 6.306m-104.299-31.117c-3.976 3.54-9.052 6.287-15.23 8.238-6.18 1.95-13.603 2.926-22.276 2.926h-43.904v-81.3h43.904c15.608 0 27.697 3.378 36.259 10.136 8.565 6.755 12.847 16.926 12.847 30.513 0 6.07-.94 11.618-2.82 16.64-1.88 5.024-4.806 9.305-8.78 12.847m-14.688-39.676c-.905-2.747-2.367-4.95-4.391-6.611-2.024-1.666-4.645-2.857-7.86-3.578-3.215-.724-7.1-1.084-11.651-1.084H677.07v42.927h19.186c4.696 0 8.652-.4 11.87-1.192 3.213-.798 5.816-2.06 7.803-3.795 1.987-1.734 3.416-3.956 4.284-6.666.867-2.712 1.299-5.981 1.299-9.812 0-4.046-.453-7.442-1.354-10.19m-160.054 2.928h44.444v15.935h-44.444v13.44h52.79l-.432 18.54H536.47v-81.302h78.159l.434 18.32h-54.96zM416.473 203.41l-.648-19.187h31.11V122.11h23.74v62.114h31.11l-.54 19.186zm-60.703-81.301h24.065v81.301H355.77zm-66.776 40.868l.218-8.673-.218-.216-6.18 6.287-44.008 43.035h-19.513v-81.301h21.463v42.708l-.215 8.782.323.108 6.18-6.178 47.912-45.42h15.503v81.3h-21.465zm-135.067-5.422c0-6.142-1.735-10.714-5.203-13.713-3.468-3-9.035-4.498-16.694-4.498-7.733 0-13.406 1.498-17.019 4.498-3.615 3-5.421 7.571-5.421 13.713v45.854H85.96v-45.638c0-12.573 3.956-21.95 11.87-28.13 7.913-6.178 19.312-9.267 34.2-9.267 14.958 0 26.269 3.071 33.93 9.213 7.659 6.143 11.491 15.54 11.491 28.184v45.638h-23.524z"/></g></svg>