<svg xmlns="http://www.w3.org/2000/svg" width="90" height="90" viewBox="0 0 90 90">
  <g id="Group_15608" data-name="Group 15608" transform="translate(1191 -13325)">
    <g id="Group_15599" data-name="Group 15599" transform="translate(-630 -219)">
      <g id="Rectangle_3882" data-name="Rectangle 3882" transform="translate(-561 13544)" fill="#1e59ae" stroke="#e9e9e9" stroke-width="1.9">
        <rect width="90" height="90" rx="15" stroke="none"/>
        <rect x="0.95" y="0.95" width="88.1" height="88.1" rx="14.05" fill="none"/>
      </g>
    </g>
    <g id="Group_15609" data-name="Group 15609" transform="translate(-1818.844 12730.637)">
      <path id="Path_21082" data-name="Path 21082" d="M648.06,619.739c4.407-.2,6.722,2.323,7.49,5.409,1.521,6.121-1.85,12.114-7.49,15.967v-2.173a11.591,11.591,0,0,0,2.808-2.554,9.653,9.653,0,0,0-2.808-.429V633.2a19.74,19.74,0,0,1,4.667.465,7.046,7.046,0,0,0,1.047-2.517,22.719,22.719,0,0,0-5.714.023v-1.93a23.537,23.537,0,0,1,6.214-.608,4.964,4.964,0,0,0-.122-2.065,23.444,23.444,0,0,0-6.092.739v-1.569a24.217,24.217,0,0,1,5.777-1.227,3.233,3.233,0,0,0-.858-1.578,25.529,25.529,0,0,0-4.919,1.058v-1.474a12.9,12.9,0,0,1,3.588-.906,7.058,7.058,0,0,0-3.588-.736Z" fill="#fff"/>
      <path id="Path_21083" data-name="Path 21083" d="M651.781,619.1c10.176-1.9,14.791,2.642,12.026,13.715-2.559,9.107-7.962,15.223-15.748,19.906V647.94a7.469,7.469,0,0,1,1.434,1.779,10.352,10.352,0,0,0,2.63-1.934,20.874,20.874,0,0,0-4.065-3.857c0,.012-.007-.587,0-.619a13.973,13.973,0,0,0,3.7-2.995,17.49,17.49,0,0,1,4.466,3.464,14.776,14.776,0,0,0,2.489-3.515,16.559,16.559,0,0,0-4.521-2.6,10.8,10.8,0,0,0,2-3.265,21.038,21.038,0,0,1,4.714,1.617,12.777,12.777,0,0,0,1.223-3.6,22.3,22.3,0,0,0-4.824-1.016,11.262,11.262,0,0,0,.293-2.811,24.7,24.7,0,0,1,5.21.5,6.653,6.653,0,0,0,.087-2.515,28.517,28.517,0,0,0-5.455-.242,6.22,6.22,0,0,0-.488-2.16,24.854,24.854,0,0,1,5.426-.06,4.076,4.076,0,0,0-1.182-2.013,23.929,23.929,0,0,0-4.973.286,4.2,4.2,0,0,0-1.279-1.464,14.984,14.984,0,0,1,4.073-.436,8.91,8.91,0,0,0-5.176-.557,6.3,6.3,0,0,0-2.055-.818" fill="#fff"/>
      <path id="Path_21084" data-name="Path 21084" d="M669.345,625.306a10.967,10.967,0,0,0-3.485-.894,9.824,9.824,0,0,1,.342,2.465,19,19,0,0,1,4.092,1.134,9.758,9.758,0,0,1,.391,3.325,17.171,17.171,0,0,0-4.595-1.726,15.413,15.413,0,0,1-.626,3.591,20.938,20.938,0,0,1,4.716,2.36,14.639,14.639,0,0,1-1.457,4.655,21.622,21.622,0,0,0-4.773-3.011,19.729,19.729,0,0,1-2.489,4.909,21.237,21.237,0,0,1,4.147,3.635,14.343,14.343,0,0,1-3.214,4.047,17.9,17.9,0,0,0-3.414-4.24,17.964,17.964,0,0,1-4.595,4.73,22.116,22.116,0,0,1,3.028,4.1,16.08,16.08,0,0,1-3.712,2.667,18.34,18.34,0,0,0-2.122-4.5,14.337,14.337,0,0,1-3.52,2.3v7c9.044-3.3,20.833-12.784,23.625-25.617,1.363-6.242-.007-10.019-1.291-12.077-2.115-3.375-5.979-4.047-7.727-4.3a7.253,7.253,0,0,1,2.319,2.173,5.534,5.534,0,0,1,2.605,1.068,5.6,5.6,0,0,1,1.755,2.216" fill="#fff"/>
      <path id="Path_21085" data-name="Path 21085" d="M648.06,664.362v-.623a24.545,24.545,0,0,0,7.652-3.972,21.115,21.115,0,0,1,1.148,4.333,16.9,16.9,0,0,0,3.9-3.114,14.514,14.514,0,0,0-1.6-3.388,30.74,30.74,0,0,0,5.682-5.361,16.384,16.384,0,0,1,1.622,3.662,22.175,22.175,0,0,0,3.981-4.719,13.571,13.571,0,0,0-2.354-3.042,21.5,21.5,0,0,0,3.339-6.128,11.167,11.167,0,0,1,2.68,2.8,17.994,17.994,0,0,0,1.925-5.854,8.9,8.9,0,0,0-2.8-2.125,16.018,16.018,0,0,0,.613-4.466,9.737,9.737,0,0,1,2.722,1.946,11,11,0,0,0-.324-3.952,7.716,7.716,0,0,0-2.615-1.569,8.758,8.758,0,0,0-.708-2.534,8.245,8.245,0,0,1,2.374,1.332,5.682,5.682,0,0,0-2.871-2.757,9.634,9.634,0,0,0-1.445-2,9.5,9.5,0,0,1,6.833,7.678,27.146,27.146,0,0,1-3.084,17.07c-3.473,6.773-7.75,10.685-15.185,16.785Z" fill="#fff"/>
      <path id="Path_21086" data-name="Path 21086" d="M662.24,664.363a24.925,24.925,0,0,0,6.116-5.509,16.681,16.681,0,0,1,.816,3.563,27.635,27.635,0,0,0,4.607-5.338,10.568,10.568,0,0,0-1.3-2.774,18.218,18.218,0,0,0,3.9-6.732,8.086,8.086,0,0,1,1.638,2.689,23.419,23.419,0,0,0,2.509-7.03,8.563,8.563,0,0,0-1.635-2.317,15.515,15.515,0,0,0,.69-4.961,9.943,9.943,0,0,1,1.839,2.317c-.012-2.772-.288-4.555-1.938-6.037a9.443,9.443,0,0,0-.775-3.268c2.425,2.081,4.572,4.845,3.959,11.017-.931,9.312-6.373,18.184-12.8,24.38Z" fill="#fff"/>
      <path id="Path_21087" data-name="Path 21087" d="M679.956,664.363a11.852,11.852,0,0,0,2.8-4.1,8.353,8.353,0,0,1,.516,2.768c.394-1.184,2.56-4.77,2.517-9.812a31.286,31.286,0,0,0,1.3-7.24,30.769,30.769,0,0,1-2.745,18.383Z" fill="#fff"/>
      <path id="Path_21088" data-name="Path 21088" d="M684.734,642.562a5.589,5.589,0,0,0-.753-3.574,21.8,21.8,0,0,0-.293-3.336c1.431,1.98,2.645,4.19,2.18,9.4-.807,7.049-2.91,14.131-8.278,19.314h-2.079a11.661,11.661,0,0,0-.374-3.221,24.045,24.045,0,0,0,4.97-8.019,10.187,10.187,0,0,1,1.009,3.622,26.809,26.809,0,0,0,2.775-8.729,6.853,6.853,0,0,0-.937-2.15,17.712,17.712,0,0,0,.91-4.869,5.653,5.653,0,0,1,.87,1.565" fill="#fff"/>
      <path id="Path_21089" data-name="Path 21089" d="M697.633,664.362v-50H648.055v4.123c7.085-2.272,21.2-.981,29.388,6.438,6.655,6.037,11.208,13.679,11.771,24.212a32.178,32.178,0,0,1-2.868,15.227Z" fill="#1e59ae"/>
    </g>
  </g>
</svg>
