<svg xmlns="http://www.w3.org/2000/svg" height="800" width="1200" viewBox="-28.306005 -5.78095 245.31871 34.6857"><path d="M19.1988 20.9013c-.335.19-2.7313 2.2212-7.5 2.2212-4.0175.002-8.3075-2.0562-9.655-2.0162-.4738-.02-.8538.0762-1.1525.2075-.5625.2362-1.1088-.1088-.8038-.6863 1.0575-1.9987 2.85-3.2287 4.5488-3.7412 1.2387-.3738 2.37-.5 2.9575.1525 1.29 1.4325 3.6225 3.2012 5.89 3.4337.1825.0188 1.0062.0875 1.015-.145.009-.1425-.2713-.235-.555-.2562-2.3163-.1675-6.49-2.6463-8.7838-7.4463-.8612-1.8012-1.545-3.5475-3.0437-4.3075-.3325-.16-.3425-.7737.355-.94.4887-.1162 3.57-.4125 7.0937 1.4425 1.6175.8513 1.8438 1.615 1.8488 2.2813-.0138 5.03 2.5312 7.0262 3.515 7.6162.5475.3275 1.06.4675 1.115.2963.0437-.1438-.1-.2413-.2263-.3175-3.0512-1.8525-3.8575-4.7025-3.8812-7.6038-.0225-2.87 1.04-5.3537 1.7937-7.3887.1113-.2875.4688-1.5.165-2.6225C13.6675.2438 13.8525 0 14.2925 0c.4838 0 1.1275.7825 1.3438 1.0513.1737.2012.735.8862 1.585 2.565 1.6812 3.3237 1.6925 6.7962 1.6925 7.2212 0 2.3863-.615 2.6625-1.6175 3.1575-1.0013.495-1.4775 1.1325-1.4788 1.8725-.002.76.5275 1.5513 1.4788 1.83.7362.215 1.2037.1338 1.165-.0575-.03-.1512-.3563-.1887-.4513-.215-1.0037-.2725-1.6687-.7862-1.6687-1.5575 0-.9625 1.1862-1.6687 2.855-1.6687 1.67 0 2.8562.7062 2.8562 1.6687 0 .7713-.6637 1.2863-1.6675 1.5575-.095.0263-.4212.0637-.4512.215-.0387.1925.4287.2738 1.1662.0575.95-.2775 1.4788-1.0687 1.4775-1.83-.001-.7387-.4775-1.3775-1.4775-1.8725-1.0025-.495-1.6187-.7712-1.6187-3.1562 0-.425.0125-3.8988 1.6925-7.2225.85-1.6775 1.4112-2.3638 1.585-2.565C22.975.7825 23.6188 0 24.1025 0c.44 0 .625.2438.3975 1.0813-.3012 1.1225.0538 2.335.1638 2.6225.755 2.0375 1.8187 4.5187 1.7962 7.3887-.025 2.9025-.83 5.7525-3.8812 7.605-.125.075-.2725.1725-.2263.3163.0537.1725.5663.0337 1.1138-.295.985-.59 3.5287-2.5875 3.5162-7.6175.004-.6663.23-1.43 1.8488-2.2813 3.5237-1.855 6.605-1.5575 7.0925-1.4425.6975.1663.6887.7813.3562.94-1.5.76-2.1837 2.5075-3.0437 4.3075-2.2938 4.8-6.4688 7.28-8.785 7.4475-.2838.02-.565.1138-.555.2563.009.2312.8325.1625 1.015.1437 2.2675-.2312 4.6-2 5.89-3.4337.5887-.6513 1.7187-.5263 2.9587-.1513 1.6975.5113 3.49 1.7413 4.5475 3.7413.3063.5775-.24.9212-.8037.6862-.2988-.1312-.6788-.2275-1.1525-.2087-1.3463-.0388-5.6363 2.0187-9.6563 2.0175-4.7675 0-7.1625-2.0325-7.4962-2.2225" fill="#d99e09"/><path d="M141.2447 13.5013c0-.8213.8812-1.2575 1.8487-1.2575 1.6488 0 1.4638 1.3137 2.6413 1.3137.535 0 .8612-.305.8612-.83 0-.9075-1.2062-1.51-3.0812-1.5712-1.795-.0575-2.7275.2587-3.37.51-.7213.2825-1.04.6925-1.04 1.335V21.91c0 .47.2275.47 1.0712.47.8388 0 1.0688 0 1.0688-.47zM87.0972 15.085c.005-3.3825-2.9438-3.9175-5.0813-3.9175-1.725 0-3.2737.4363-4.0012.7575-.7188.3188-.78.7163-.78 1.3725l.005 8.6225c0 .4688.23.4688 1.07.4688.8425 0 1.0712 0 1.0712-.4688l-.005-7.96c0-.7037.25-1.6737 2.6913-1.6737 2.3087 0 2.8862 1.365 2.8862 2.7987l.004 6.835c0 .4688.2313.4688 1.0675.4688.8438 0 1.0725 0 1.0725-.4688v-6.835zm47.8137 6.82c0 .4688.2313.4688 1.0663.4688.8412 0 1.0712 0 1.0712-.4688l.009-10.1525c.009-.7462-1.0187-.5587-1.5425-.2162-.5875.3812-.6062.5737-.6062 1.3137l.003 9.055zm-11.3287-5.9912c.3162-.8075 2.3487-6.1225 2.4562-6.4225.0312-.085.1188-.085.1525.002.145.3725 2.1975 5.595 2.5013 6.4037.0675.1763.0912.3213-.1425.3213h-4.795c-.295 0-.2238-.1775-.1725-.305m5.9125 1.9612c.7287 1.73 1.7325 4.1413 1.7325 4.1413.1262.3062.0125.3812 1.2775.3812 1.34 0 1.4212-.0425 1.1575-.6387-.0712-.1613-5.3938-12.945-5.6888-13.6425-.2962-.6988-.4237-.75-1.5312-.75-1.0963 0-1.2388.0288-1.5425.75-.3088.7337-5.6513 13.5737-5.7175 13.735-.225.5462-.0238.5462.8837.5462.85 0 .9488-.0263 1.11-.3887l1.6475-4.1225c.0988-.25.1313-.35.4238-.35 1.1275 0 4.34 0 5.8225-.005.2837-.001.3137.08.425.3437m7.7275-9.745c-.1188-.5587-.7413-.8987-1.4563-.7475-.7162.15-1.1437.7113-1.025 1.2688.12.5575.7413.8975 1.4575.7462.7163-.15 1.1438-.7112 1.0238-1.2675m10.07 13.7863c0 .47.23.47 1.0662.47.84 0 1.0713 0 1.0713-.47l.009-14.5538c.009-.745-1.0188-.5575-1.5438-.215-.585.3825-.605.5725-.605 1.3125l.002 13.4563zm6.8387-13.7825c-.12-.5575-.74-.8975-1.4562-.7463-.7163.15-1.145.7113-1.025 1.2688.1187.5575.7412.8975 1.4562.7475.7163-.1513 1.145-.7125 1.025-1.27m-2.3112 13.7762c0 .4688.2312.4688 1.0662.4688.84 0 1.0713 0 1.0713-.4688l.009-10.1525c.009-.7462-1.0188-.5587-1.545-.2162-.585.3812-.6038.5725-.6038 1.3137l.002 9.055zm14.33-6.815c.006-3.3825-2.9425-3.9175-5.08-3.9175-1.7263 0-3.275.4363-4.0025.7575-.7188.3175-.78.7163-.78 1.3725l.006 8.6225c0 .4675.2312.4675 1.0687.4675.8425 0 1.0713 0 1.0713-.4675l-.002-7.96c0-.7025.2487-1.6737 2.6887-1.6737 2.3075 0 2.8863 1.365 2.8863 2.7987l.005 6.835c0 .4675.2287.4675 1.0662.4675.845 0 1.0725 0 1.0725-.4675v-6.835zm22.5562 4.2975c-.0838-3.7475-7.08-3.06-7.0825-5.6725-.001-1.0212 1.05-1.4925 2.1875-1.4925 1.6388 0 2.1813.5475 2.5238 1.345.16.3725.4837.7138 1.1087.7138.4713 0 .8688-.3.8688-.8513 0-.8287-1.1525-2.2887-4.3-2.31-2.6063-.0175-4.3713.9763-4.3738 3.035-.003 3.8563 7.0013 3.0338 6.99 5.7088-.005 1.105-1.035 1.6162-2.53 1.6312-1.4912.0163-2.2887-.5887-2.72-1.635-.21-.425-.4875-.8075-1.1362-.7962-.5863.01-.9338.3862-.9338.9587 0 .7863 1.3675 2.6125 4.6913 2.6125 2.7225 0 4.7537-1.0975 4.7062-3.2475M54.0584 21.9095c0 .4688.2313.4688 1.0663.4688.8412 0 1.0725 0 1.0725-.4688l.007-10.1525c.01-.7462-1.0188-.5587-1.5425-.2162-.5875.3812-.605.5725-.605 1.3137l.001 9.055zm39.6163.73c1.7837.0125 2.6887-.3062 3.76-.7962.8025-.38.8025-.805.8025-1.2975V14.427c0-2.3312-1.9375-3.3-4.1588-3.2962-3.625.009-5.0675 1.5637-5.125 2.5712-.03.5363.2888.9288.9138.9425.6087.0137.9725-.3862 1.115-.7187.445-1.0425 1.2125-1.6875 2.795-1.6875 1.24 0 2.3487.5687 2.3437 2.0425v.65c0 .1987 0 .24-.1737.2612-3.2638.5225-7.5038 1.5488-7.5038 4.5475 0 1.865 2.2363 2.8975 5.2313 2.9m2.4487-2.5975c0 1.1313-1.4725 1.43-2.5612 1.43-1.9225 0-2.8775-.8212-2.8775-1.905 0-1.975 2.55-2.6875 5.2087-3.2462.1413-.03.2275-.045.2275.1562l.003 3.565zM56.371 8.1333c-.12-.5575-.7412-.8975-1.4575-.7463-.715.15-1.1437.7113-1.025 1.2688.12.5575.7425.8975 1.4588.7475.715-.1513 1.1437-.7125 1.0237-1.27m57.7513 13.795c0 .4687.2287.465 1.07.4675.8375.001 1.0687.001 1.0687-.4675v-7.2575c0-2.8863-2.7087-3.4838-4.3125-3.4838-1.8737 0-2.94.5363-3.6687 1.3425-.7788-.8475-1.8188-1.3425-3.6413-1.3425-1.2562 0-2.4812.3013-3.5775.7875-.7925.3513-.7925.8175-.7925 1.27v8.6838c0 .4687.2338.4687 1.07.4687.8375 0 1.0688 0 1.0688-.4687l.003-8.0888c0-1.2062.9675-1.5375 2.2362-1.5375 1.58 0 2.5475.7425 2.5475 2.6063v7.02c0 .4687.2313.4687 1.0713.4687.8387 0 1.0662 0 1.0662-.4687v-7.1588c0-1.4187.7425-2.475 2.445-2.475 1.6525 0 2.3575 1.0788 2.3575 2.5075l-.0113 7.1263zm-53.8138-6.8588c.19-1.335 1.2088-2.8137 3.2225-2.83 1.6863-.0138 3.1663 1.0113 3.2438 2.5188.0213.4337-.0925.4875-.6088.4875h-5.6937c-.1588 0-.1788-.0712-.1638-.1763m8.595 4.0225c0-.1925-.1475-.3862-.4187-.3862-.2463 0-.37.0875-.5175.3437-.5675.9613-1.9575 2.0875-3.8075 2.1063-2.4988.0238-3.9413-1.7725-3.8788-4.5475 0-.095.04-.1763.1838-.18.1437-.004 3.9112-.006 7.71.001.7275.001.74-.4825.74-.88 0-2.2988-2.1413-4.4213-5.2113-4.4213-3.1875 0-5.635 1.7388-5.635 5.7375 0 4.255 3.18 5.765 5.8913 5.765 3.2762 0 4.9437-2.5337 4.9437-3.5387m100.8863-4.0225c.19-1.335 1.21-2.8138 3.2225-2.83 1.6862-.0138 3.1662 1.0112 3.2437 2.5187.0225.4338-.0912.4875-.6087.4875h-5.6925c-.1588 0-.18-.0712-.165-.1762m8.595 4.0225c0-.1925-.1475-.3863-.4188-.3863-.2462 0-.3687.0875-.5175.3438-.5662.9612-1.9587 2.0875-3.8075 2.1062-2.4987.0238-3.9412-1.7725-3.8787-4.5475 0-.095.0412-.1762.1837-.18.145-.004 3.9113-.006 7.71.001.7288.001.74-.4825.74-.88 0-2.2987-2.1412-4.4212-5.2112-4.4212-3.1863 0-5.635 1.7387-5.635 5.7375 0 4.255 3.1812 5.765 5.89 5.765 3.2775 0 4.945-2.5338 4.945-3.5388M44.8359 21.644c.2925.6988.36.7525 1.475.7525 1.0738 0 1.0975-.0425 1.41-.76.3125-.7162 4.385-10.9587 5.4675-13.6387.24-.595.1363-.645-.8237-.645-.8413 0-.9188.0488-1.0788.4112 0 0-4.565 11.6738-4.6637 11.9425-.0237.0762-.1213.0825-.1625-.009-.1463-.3312-4.7813-11.9675-4.7813-11.9675-.1112-.2975-.14-.405-1.3937-.405-1.3625 0-1.2725.1313-1.0013.8025.0662.1613 5.2588 12.8163 5.5525 13.5163m26.135-10.3263c-.5012.008-1.1825.001-1.1825.001-.3387 0-.3412.1863-.3412.5675 0 .3625.001.5525.34.5525h1.1837c.2438-.001.2513.0263.2488.28-.005.535 0 6.9863 0 6.9863 0 2.5437 1.3612 2.8475 2.7062 2.8687 1.3313.0187 2.205-.375 2.1888-.845-.009-.2725-.1888-.395-.4988-.36-.2175.025-.37.0913-.6612.0913-.7063 0-1.5925-.19-1.5925-1.7375l-.001-6.9812c-.002-.27 0-.3038.2687-.3025h1.9275c.3363 0 .3488-.19.3488-.5525 0-.375-.0125-.5688-.3488-.5688H73.62c-.2612-.001-.2562-.0263-.2575-.2512v-2.35c-.001-.3763-.2875-.51-.5175-.49-.1687.015-.3687.1237-.8437.4337-.62.4063-.7813.665-.7813 1.405v.9838c-.001.27-.0112.265-.2487.2687" fill="#005e80"/></svg>