<svg xmlns="http://www.w3.org/2000/svg" width="90" height="90" viewBox="0 0 90 90">
  <g id="Group_15590" data-name="Group 15590" transform="translate(561 -13544)">
    <g id="Rectangle_3882" data-name="Rectangle 3882" transform="translate(-561 13544)" fill="#fff" stroke="#e9e9e9" stroke-width="1.9">
      <rect width="90" height="90" rx="15" stroke="none"/>
      <rect x="0.95" y="0.95" width="88.1" height="88.1" rx="14.05" fill="none"/>
    </g>
    <g id="Group_15591" data-name="Group 15591" transform="translate(-1080.055 13080.638)">
      <path id="Path_21090" data-name="Path 21090" d="M564.053,520.47a15.975,15.975,0,0,1-9.766,2.881c-5.231,0-10.817-2.667-12.572-2.615a3.337,3.337,0,0,0-1.5.27c-.732.306-1.444-.142-1.041-.89a10.013,10.013,0,0,1,5.923-4.852c1.613-.485,3.086-.649,3.851.2,1.679,1.859,4.716,4.151,7.669,4.454.237.025,1.31.113,1.322-.188.012-.184-.353-.305-.723-.332-3.015-.216-8.451-3.432-11.438-9.658-1.121-2.334-2.012-4.6-3.964-5.586-.432-.207-.445-1,.463-1.219a15.514,15.514,0,0,1,9.232,1.869c2.107,1.1,2.4,2.1,2.408,2.958-.018,6.525,3.3,9.113,4.577,9.879.712.424,1.38.607,1.452.389.057-.187-.13-.313-.295-.411-3.972-2.4-5.023-6.1-5.053-9.858a26.3,26.3,0,0,1,2.335-9.6,6.157,6.157,0,0,0,.214-3.4c-.3-1.082-.056-1.4.517-1.4.631,0,1.469,1.016,1.75,1.363a16.364,16.364,0,0,1,2.064,3.327,22.043,22.043,0,0,1,2.2,9.366c0,3.1-.8,3.454-2.107,4.1s-1.924,1.468-1.926,2.429a2.54,2.54,0,0,0,1.932,2.377c.959.278,1.563.173,1.517-.076-.039-.2-.463-.245-.587-.279-1.3-.352-2.173-1.019-2.173-2.019,0-1.248,1.544-2.165,3.717-2.165s3.719.916,3.719,2.165c0,1-.864,1.668-2.17,2.019-.124.034-.549.083-.588.279-.05.249.559.356,1.519.076a2.556,2.556,0,0,0,1.36-.867,2.531,2.531,0,0,0,.563-1.507c0-.959-.622-1.787-1.925-2.428s-2.108-1-2.108-4.094a22.081,22.081,0,0,1,2.2-9.367,16.5,16.5,0,0,1,2.063-3.327c.279-.352,1.118-1.368,1.744-1.368.573,0,.814.316.521,1.4a6.217,6.217,0,0,0,.213,3.4,26.274,26.274,0,0,1,2.344,9.584c-.032,3.761-1.08,7.46-5.053,9.864-.163.1-.355.224-.295.41.071.224.737.044,1.451-.389,1.283-.766,4.6-3.356,4.578-9.881,0-.864.3-1.855,2.408-2.959a15.523,15.523,0,0,1,9.235-1.871c.912.215.9,1.013.464,1.219-1.954.986-2.844,3.251-3.964,5.586-2.987,6.226-8.424,9.443-11.44,9.659-.369.026-.735.148-.722.332.011.3,1.084.212,1.321.187,2.952-.3,5.99-2.594,7.67-4.454.767-.844,2.239-.682,3.853-.2a10.015,10.015,0,0,1,5.922,4.852c.4.749-.312,1.2-1.041.89a3.364,3.364,0,0,0-1.5-.271c-1.752-.051-7.339,2.619-12.573,2.616a15.942,15.942,0,0,1-9.771-2.869" fill="#d99e09"/>
    </g>
  </g>
</svg>
