<svg xmlns="http://www.w3.org/2000/svg" xmlns:xlink="http://www.w3.org/1999/xlink" width="90" height="90" viewBox="0 0 90 90">
  <defs>
    <linearGradient id="linear-gradient" x1="-5.496" y1="-2.581" x2="-5.484" y2="-2.581" gradientUnits="objectBoundingBox">
      <stop offset="0" stop-color="#e96e85"/>
      <stop offset="0.02" stop-color="#e5566c"/>
      <stop offset="0.05" stop-color="#e24256"/>
      <stop offset="0.08" stop-color="#e03245"/>
      <stop offset="0.12" stop-color="#de263a"/>
      <stop offset="0.18" stop-color="#dd2033"/>
      <stop offset="0.34" stop-color="#dd1e31"/>
      <stop offset="0.52" stop-color="#da1e30"/>
      <stop offset="0.65" stop-color="#d11d2f"/>
      <stop offset="0.76" stop-color="#c11b2c"/>
      <stop offset="0.87" stop-color="#ab1928"/>
      <stop offset="0.97" stop-color="#8e1622"/>
      <stop offset="1" stop-color="#821520"/>
    </linearGradient>
    <linearGradient id="linear-gradient-2" x1="0.5" x2="0.5" y2="1" gradientUnits="objectBoundingBox">
      <stop offset="0" stop-color="#c52032"/>
      <stop offset="1" stop-color="#e31837"/>
    </linearGradient>
  </defs>
  <g id="Group_15673" data-name="Group 15673" transform="translate(2346 -13325)">
    <g id="Group_15671" data-name="Group 15671" transform="translate(-105)">
      <g id="Group_15666" data-name="Group 15666" transform="translate(-945 -220)">
        <g id="Group_15639" data-name="Group 15639">
          <g id="Group_15659" data-name="Group 15659">
            <g id="Group_15610" data-name="Group 15610" transform="translate(-105 220)">
              <g id="Group_15599" data-name="Group 15599" transform="translate(-630 -219)">
                <g id="Rectangle_3882" data-name="Rectangle 3882" transform="translate(-561 13544)" fill="#fff" stroke="#e9e9e9" stroke-width="1.9">
                  <rect width="90" height="90" rx="15" stroke="none"/>
                  <rect x="0.95" y="0.95" width="88.1" height="88.1" rx="14.05" fill="none"/>
                </g>
              </g>
            </g>
          </g>
        </g>
      </g>
    </g>
    <g id="Group_14619" data-name="Group 14619" transform="translate(14610.396 -4532.089)">
      <g id="virgin-atlantic-logo_logotyp.us" data-name="virgin-atlantic-logo@logotyp.us" transform="translate(-16940.045 17883)">
        <path id="Path_21041" data-name="Path 21041" d="M497.251,144.549H473.406c-7.381,0-9.184,1.217-12.126,4.423l-21.326,23.267c17.036-.8,22.284,16.267,39.577,11.592Z" transform="translate(-439.955 -144.549)" fill="url(#linear-gradient)"/>
        <path id="Path_21042" data-name="Path 21042" d="M479.555,183.837c-17.013,4.606-22.311-11.964-38.813-11.566l20.952-22.885c2.842-3.1,4.591-4.278,11.771-4.278h23.54l-17.45,38.73h-.014Z" transform="translate(-439.955 -144.549)" opacity="0.1" fill="url(#linear-gradient-2)"/>
        <path id="Path_21043" data-name="Path 21043" d="M476.332,157.237a15.364,15.364,0,0,1,2.655-3.617,2.806,2.806,0,0,0,1.317-2.039,1.612,1.612,0,0,0-.6-1.376s-1.807-1.469-3.271,1.027c0,0-6.912,13.016-9.292,26.132,0,0-.183.429-.23-.772l-1.057-11.4-.011-.141c-.034-.45-.1-1.255-.926-1.315,0,0-1.09-.2-1.733,1.429l-3.066,7.514s-.506.946.309,1.3c0,0,.911.51,1.506-.758l1.416-3.026c.283-.617.493-.53.493-.53.162.033.23.651.23.651l1.257,14.894c.016.114.126,1.3,1.124,1.3.728-.006.955-.812,1.1-1.482l.09-.437c.361-1.771,1.648-8.091,3.65-14.847,1.471-4.964,3.368-9.929,5.035-12.505Zm-2.039,12.888a2.305,2.305,0,0,0-1.612,1.939l-.874,6.434c-.141,1.281,1.525.348,1.525.348a1.881,1.881,0,0,0,.8-1.247l.265-1.611.81-4.354c.263-1.818-.919-1.509-.919-1.509Zm2.3,4.676c.076-.745.544-4.1.544-4.1.157-2.094,1.291-2.141,1.291-2.141l1.055-.134a3.734,3.734,0,0,0,1.064-.349c.909-.4,1.2.349,1.2.349.468.953-1.07,1.637-1.07,1.637a3.274,3.274,0,0,0-1.51,2.57l-.246,2.429a2.25,2.25,0,0,1-1.424,2.059c-1.527.51-.9-2.321-.9-2.321Zm-.642-7.944c.939-.751.661-1.368.661-1.368-.349-1.007-1.624.067-1.624.067-1.073.765-.7,1.509-.7,1.509.469.8,1.662-.208,1.662-.208Zm17.054,3.046a1.959,1.959,0,0,1-1.434,1.637c-1.117.289-.875-.8-.875-.8l.166-1.026.911-5.059a1.807,1.807,0,0,1,1.38-1.375c.954-.208.637,1.14.607,1.315s-.751,5.305-.751,5.305Zm1.483-9.111s1.02-.838.555-1.456c0,0-.434-.644-1.642.208,0,0-1.082.879-.419,1.5,0,0,.633.594,1.51-.252Zm10.8,6.039c1.105-.477,1.728-.188,1.968.221a1.064,1.064,0,0,1-.029,1.161,5.386,5.386,0,0,1-2.466,1.18c-.691.2-1.229.4-1.229.4-1.634.517-3.553,1.275-3.553,1.275a102.364,102.364,0,0,0-11.854,5.944c-.049.5-.084.9-.094,1.181,0,0-.628,7.286-.712,8.359a11.3,11.3,0,0,0,.16,2.134l.059.241c.214.866.578,2.342-.433,2.986a1.459,1.459,0,0,1-1.892-.322c-.124-.154-.455-.564-.2-2.61,0,0,.547-5.233.674-6.924l.29-3.75a79.739,79.739,0,0,0-13.9,10.56c-.495.456-1.7,1.476-2.563.355-.817-1.046,1.372-2.65,1.372-2.65a105.8,105.8,0,0,1,15.257-10.446l.085-1.16s.057-.369-.339-.108c0,0-1.677.98-2.9.416a1.9,1.9,0,0,1-.946-1.878s-.005-4.569,1.919-6.468a3.622,3.622,0,0,1,2.187-1.107c.649.027.567.973-.3,1.7a3.871,3.871,0,0,0-1.159,2.275l-.135.51s-.686,3.1.467,2.972c0,0,1.165.087,1.524-1.872l.872-4.831.012-.067c.087-.563.264-1.677,1.26-1.637,0,0,1.06,0,.946.866,0,0-.8,5.313-1.263,9.124,6.778-3.744,12.041-5.978,12.041-5.978.2-.107.116-.147.116-.147-.812-.275-.428-2.073-.428-2.073l.4-3.637c.015-.9-1.085-.362-1.085-.362A4.04,4.04,0,0,0,498.1,164.1c-.455.624-.73,3.8-.73,3.8-.109,1.624-1.063,1.892-1.063,1.892-1.127.389-1.256-.235-1.256-.235a7.218,7.218,0,0,1,.126-1.838l.489-3.959a2.019,2.019,0,0,1,1.317-1.992,1.683,1.683,0,0,1,1.035-.007,1.49,1.49,0,0,0,.907.047,2.909,2.909,0,0,0,.945-.6c1.092-.959,1.767-.879,1.767-.879,1.278-.007,1.1,1.617,1.1,1.617l-.446,4.468c-.141,1.9,1.261,1.174,1.3,1.154Z" transform="translate(-453.919 -150.903)" fill="#fff" fill-rule="evenodd"/>
      </g>
    </g>
  </g>
</svg>
