<svg xmlns="http://www.w3.org/2000/svg" width="49.578" height="43.22" viewBox="0 0 49.578 43.22">
  <g id="Group_14673" data-name="Group 14673" transform="translate(-1193.055 -487.362)">
    <path id="Path_21092" data-name="Path 21092" d="M1210.781,506.813l-4.6-6.9s-2.081,2.341-2.521,2.866a1.831,1.831,0,0,1-1.681.766c-.96-.161-5.282-1.049-5.282-1.049s-.32,5.327-.4,5.852a2.889,2.889,0,0,1-1.16,2.017Z" fill="#00ac9d"/>
    <path id="Path_21093" data-name="Path 21093" d="M1228.268,502.9l5.442-9.968s-3.562,1.574-4.762,2.1c-1.16.525-1.641.444-1.841-.4-.16-.807-1.04-6.9-1.08-7.264-.32.363-6.282,6.457-7.123,7.264-.88.847-1.44.928-2.16.4-.761-.524-3-2.058-3-2.058l-2.841,13.883Z" fill="#00ac9d"/>
    <path id="Path_21094" data-name="Path 21094" d="M1238.311,508.346c.36-.524,4.322-5.851,4.322-5.851s-4.842.928-5.962,1.049c-.881.121-1-.242-1.041-.767-.04-.282-.2-3.228-.2-3.228l-7.042,3.471L1212.1,522.39l12.044,1.9s.04-1.857.08-3.229a1.978,1.978,0,0,1,1.321-1.9c.44-.283,14.2-8.273,14.2-8.273l-1.361-.767c-.92-.484-.44-1.251-.08-1.776" fill="#00ac9d"/>
    <path id="Path_21095" data-name="Path 21095" d="M1193.055,510.768s5.8,6.9,6.042,7.223c1.361,1.655,1.361,2.3-.04,4.036-1.12,1.372-1.8,2.26-1.8,2.26s8.082-1.372,9.163-1.574c1.04-.162,2.081.121,1.8,1.533-.16.969-1.12,6.336-1.12,6.336l4.8-8.232,8.483-14.569-25.529,2.785Z" fill="#00467f"/>
    <path id="Path_21096" data-name="Path 21096" d="M1211.9,522.35l8.483-14.568-25.489,2.784.24-.2,15.645-3.511.16-.04,17.327-3.914.12.121L1212.1,522.39Z" fill="#fff"/>
  </g>
</svg>
