<svg xmlns="http://www.w3.org/2000/svg" height="800" width="1200" xml:space="preserve" y="0" x="0" id="Layer_1" version="1.1" viewBox="-109.11 -47.725 945.62 286.35"><style id="style7149" type="text/css">.st0{fill:#00467f}.st1{fill:#00ac9d}</style><g transform="translate(42 21)" id="g7185"><g id="g7181"><g id="g7165"><path id="path7151" d="M143.4 29.9l-29.5 69.6c-.8 1.9-2.6 3.2-4.8 3.2H94.2L81.4 67 65.8 99.8c-.8 1.8-2.6 3-4.7 3H46.5L20.7 29.9h23l14.4 46.4 14.6-33.7-4.6-12.8h20.6l15.7 46.4 17.9-46.4z" class="st0"/><path id="path7153" d="M201.3 29.9l-1.8 10.4c-.4 2.4-2.6 4.3-5.1 4.3h-24.7l-2.4 13.6h28.1l-1.8 10.4c-.4 2.4-2.6 4.3-5.1 4.3h-23.7l-2.6 15h29.1l-1.8 10.4c-.4 2.4-2.6 4.3-5.1 4.3H138l12.7-72.8z" class="st0"/><path id="path7155" d="M260.8 81.1c0 17.2-21.1 22.7-35.4 22.7-12.6 0-19.5-2.4-27.3-5.8l3-17c3.5 3.7 15 7.8 24.8 7.8 5.5 0 12-2 12-6.6 0-11.3-31.3-9.8-31.3-31.5 0-12.4 11.6-21.9 31.3-21.9 11.4 0 19.5 2.3 24.3 4.4l-1.7 9.6c-.3 2-2.1 3.4-4.1 3.4-.5 0-1-.1-1.5-.3-5.7-2.2-11-2.8-15.2-2.8-2.7 0-10.8.5-10.8 5.9.1 10.7 31.9 9.9 31.9 32.1z" class="st0"/><path id="path7157" d="M333.8 29.9L332 40.3c-.4 2.4-2.6 4.3-5.1 4.3h-17.3l-9.4 53.7c-.4 2.4-2.6 4.3-5.1 4.3h-17.3l10.2-58h-21.6l2.6-14.7h64.8z" class="st0"/><path id="path7159" d="M363.5 29.9l-11.4 65.2c-4.1 23.2-18.2 34.8-33.2 38.9L307 120c10.7-1.5 20.4-7.5 23.5-24.8L341.9 30z" class="st0"/><path id="path7161" d="M425.2 29.9l-1.8 10.4c-.4 2.4-2.6 4.3-5.1 4.3h-24.7l-2.4 13.6h28.1l-1.8 10.4c-.4 2.4-2.6 4.3-5.1 4.3h-23.7l-2.6 15h29.1l-1.8 10.4c-.4 2.4-2.6 4.3-5.1 4.3h-46.4l12.7-72.8z" class="st0"/><path id="path7163" d="M495.5 29.9l-1.8 10.4c-.4 2.4-2.6 4.3-5.1 4.3h-17.3l-9.4 53.7c-.4 2.4-2.6 4.3-5.1 4.3h-17.3l10.2-58H428l2.6-14.7h64.9z" class="st0"/></g><g id="g7179"><g id="g7173"><path id="path7167" d="M543.3 61.4l-11.5-17.1s-5.2 5.8-6.3 7.1c-1.2 1.3-2.3 2.1-4.2 1.9-2.4-.4-13.2-2.6-13.2-2.6s-.8 13.2-1 14.5c-.1 1.3-.6 3-2.9 5z" class="st1"/><path id="path7169" d="M587 51.7L600.6 27s-8.9 3.9-11.9 5.2c-2.9 1.3-4.1 1.1-4.6-1-.4-2-2.6-17.1-2.7-18-.8.9-15.7 16-17.8 18-2.2 2.1-3.6 2.3-5.4 1-1.9-1.3-7.5-5.1-7.5-5.1l-7.1 34.4z" class="st1"/><path id="path7171" d="M612.1 65.2c.9-1.3 10.8-14.5 10.8-14.5S610.8 53 608 53.3c-2.2.3-2.5-.6-2.6-1.9-.1-.7-.5-8-.5-8L587.3 52l-40.7 48 30.1 4.7s.1-4.6.2-8c.2-3.4 2.1-4 3.3-4.7 1.1-.7 35.5-20.5 35.5-20.5l-3.4-1.9c-2.3-1.2-1.1-3.1-.2-4.4" class="st1"/></g><path id="path7175" d="M499 71.2s14.5 17.1 15.1 17.9c3.4 4.1 3.4 5.7-.1 10-2.8 3.4-4.5 5.6-4.5 5.6s20.2-3.4 22.9-3.9c2.6-.4 5.2.3 4.5 3.8-.4 2.4-2.8 15.7-2.8 15.7l12-20.4 21.2-36.1-63.8 6.9z" class="st0"/><path id="polygon7177" fill="#fff" d="M546.1 99.9l21.2-36.1-63.7 6.9.6-.5 39.1-8.7.4-.1 43.3-9.7.3.3-40.7 48z"/></g></g><path id="rect7183" fill="none" d="M-42-21h727.4v190.9H-42z"/></g></svg>